<svg viewBox="-89 0 512 512" xmlns="http://www.w3.org/2000/svg"><path d="m260.738281 504.5h-186.796875c-20.246094 0-36.660156-16.414062-36.660156-36.660156v-246.796875c0-20.246094 16.414062-36.660157 36.660156-36.660157h186.796875c20.246094 0 36.660157 16.414063 36.660157 36.660157v246.796875c0 20.246094-16.414063 36.660156-36.660157 36.660156zm0 0" fill="#ccf8ff"/><path d="m119.460938 452.148438v-80.507813c0-38.601563 27.261718-72.015625 65.175781-79.273437 81.960937-15.691407 112.753906-57.523438 112.761719-57.535157v-13.789062c0-20.246094-16.414063-36.660157-36.660157-36.660157h-186.796875c-20.246094 0-36.660156 16.414063-36.660156 36.660157v246.796875c0 20.246094 16.414062 36.660156 36.660156 36.660156h87.398438c-46.40625 0-41.878906-52.351562-41.878906-52.351562zm0 0" fill="#9ff6ff"/><path d="m37.28125 307.019531v160.820313c0 20.246094 16.414062 36.660156 36.664062 36.660156h186.792969c20.25 0 36.664063-16.414062 36.664063-36.660156v-160.820313zm0 0" fill="#ffabcd"/><path d="m119.460938 452.148438v-80.507813c0-26.058594 12.40625-49.738281 32.144531-64.621094h-114.324219v160.820313c0 20.246094 16.414062 36.660156 36.664062 36.660156h87.394532c-46.40625 0-41.878906-52.351562-41.878906-52.351562zm0 0" fill="#ff8fb4"/><path d="m231.25 102.585938c-26.238281 0-23.46875-27.890626-20.449219-41.832032 2.964844-13.679687-.433593-28.136718-9.878906-38.460937-8.320313-9.089844-20.285156-14.792969-33.582031-14.792969-13.292969 0-25.257813 5.703125-33.578125 14.796875-9.449219 10.324219-12.847657 24.777344-9.882813 38.457031 3.023438 13.945313 5.789063 41.835938-20.445312 41.835938h-19.410156c-14.207032 0-25.722657 11.515625-25.722657 25.722656v29.5h218.078125v-29.503906c0-14.207032-11.515625-25.722656-25.722656-25.722656zm0 0" fill="#ffeb99"/><path d="m167.339844 7.5c-13.292969 0-25.257813 5.703125-33.578125 14.792969-9.449219 10.324219-12.847657 24.78125-9.882813 38.460937 3.023438 13.941406 5.789063 41.832032-20.445312 41.832032h-19.410156c-14.207032 0-25.722657 11.519531-25.722657 25.722656v29.503906h118.449219c1.613281-20.789062-.53125-41.214844-9.410156-58.25-33.214844-63.71875 0-92.0625 0-92.0625zm0 0" fill="#ffde55"/><path d="m290.472656 221.09375h-246.261718c-20.191407 0-36.710938-16.523438-36.710938-36.710938 0-20.191406 16.519531-36.710937 36.710938-36.710937h246.261718c20.191406 0 36.710938 16.519531 36.710938 36.710937 0 20.1875-16.519532 36.710938-36.710938 36.710938zm0 0" fill="#7de7ff"/><path d="m95.65625 184.382812c0-20.191406 16.519531-36.710937 36.710938-36.710937h-88.15625c-20.191407 0-36.710938 16.519531-36.710938 36.710937 0 20.1875 16.519531 36.710938 36.710938 36.710938h88.15625c-20.191407 0-36.710938-16.523438-36.710938-36.710938zm0 0" fill="#4ad6ed"/><path d="m74.703125 269.601562c20.664063 0 222.695313 16.753907 222.695313 37.417969 0 20.667969-202.03125 37.421875-222.695313 37.421875-20.667969 0-37.421875-16.753906-37.421875-37.421875s16.753906-37.417969 37.421875-37.417969zm0 0" fill="#ffc2e1"/><path d="m74.703125 269.601562c-20.667969 0-37.421875 16.753907-37.421875 37.417969 0 20.667969 16.753906 37.421875 37.421875 37.421875 5.726563 0 25.390625-1.285156 50.820313-3.585937 10.0625-24.5 31.832031-43.265625 59.113281-48.488281 12.1875-2.332032 23.25-5.246094 33.242187-8.511719-59.015625-8.683594-131.257812-14.253907-143.175781-14.253907zm0 0" fill="#ffabcd"/><path d="m247.996094 388.109375c-4.140625 0-7.5 3.355469-7.5 7.5v12.449219c0 4.140625 3.359375 7.5 7.5 7.5 4.144531 0 7.5-3.359375 7.5-7.5v-12.449219c0-4.144531-3.355469-7.5-7.5-7.5zm0 0"/><path d="m86.683594 388.109375c-4.144532 0-7.5 3.355469-7.5 7.5v12.449219c0 4.140625 3.355468 7.5 7.5 7.5 4.140625 0 7.5-3.359375 7.5-7.5v-12.449219c0-4.144531-3.355469-7.5-7.5-7.5zm0 0"/><path d="m185.660156 402.136719c-10.785156 8.367187-25.851562 8.367187-36.640625 0-3.273437-2.539063-7.984375-1.945313-10.523437 1.328125-2.535156 3.273437-1.941406 7.984375 1.332031 10.523437 8.097656 6.285157 17.804687 9.425781 27.511719 9.425781 9.707031 0 19.414062-3.140624 27.515625-9.425781 3.273437-2.539062 3.867187-7.25 1.328125-10.523437-2.539063-3.273438-7.25-3.867188-10.523438-1.328125zm0 0"/><path d="m334.683594 184.382812c0-24.378906-19.835938-44.210937-44.210938-44.210937h-224.671875v-11.859375c0-10.050781 8.175781-18.226562 18.226563-18.226562h19.40625c12.402344 0 19.292968-5.320313 22.894531-9.78125 8.988281-11.148438 7.617187-28.527344 4.882813-41.140626-2.519532-11.628906.5-23.519531 8.085937-31.804687 7.183594-7.855469 17.40625-12.359375 28.042969-12.359375 10.640625 0 20.859375 4.503906 28.046875 12.355469 7.585937 8.289062 10.605469 20.179687 8.085937 31.808593-2.734375 12.613282-4.109375 29.992188 4.882813 41.140626 3.597656 4.460937 10.492187 9.78125 22.894531 9.78125h19.40625c5.820312 0 11.339844 2.816406 14.765625 7.539062 2.433594 3.355469 7.121094 4.101562 10.472656 1.667969 3.355469-2.429688 4.101563-7.121094 1.667969-10.472657-6.234375-8.601562-16.292969-13.734374-26.90625-13.734374h-19.40625c-5.269531 0-8.941406-1.371094-11.21875-4.199219-4.050781-5.023438-4.742188-15.425781-1.898438-28.546875 3.550782-16.375-.816406-33.238282-11.679687-45.109375-10.019531-10.949219-24.277344-17.230469-39.113281-17.230469-14.835938 0-29.089844 6.28125-39.113282 17.230469-10.859374 11.871093-15.226562 28.734375-11.675781 45.109375 2.84375 13.121094 2.148438 23.523437-1.902343 28.546875-2.277344 2.828125-5.945313 4.199219-11.214844 4.199219h-19.40625c-18.320313 0-33.226563 14.902343-33.226563 33.222656v11.863281h-6.589843c-24.378907 0-44.210938 19.832031-44.210938 44.210937 0 19.324219 12.46875 35.78125 29.78125 41.777344v241.679688c0 24.347656 19.8125 44.160156 44.164062 44.160156h186.792969c24.351563 0 44.164063-19.8125 44.164063-44.160156v-241.679688c17.3125-5.996094 29.78125-22.453125 29.78125-41.777344zm-73.945313 312.617188h-186.796875c-16.078125 0-29.160156-13.082031-29.160156-29.160156v-127.351563c7.949219 7.117188 18.4375 11.453125 29.921875 11.453125 10.277344 0 66.265625-4.328125 120.046875-11.019531 53.246094-6.628906 89.449219-16.433594 95.148438-18.753906v145.671875c.003906 16.078125-13.078126 29.160156-29.160157 29.160156zm-215.957031-189.980469c0-16.496093 13.421875-29.917969 29.921875-29.917969 8.566406 0 58.070313 3.503907 110.996094 10.003907 71 8.71875 94.113281 16.316406 101.503906 19.914062-7.390625 3.601563-30.503906 11.199219-101.503906 19.917969-52.925781 6.496094-102.429688 10.003906-110.996094 10.003906-16.5 0-29.921875-13.421875-29.921875-29.921875zm245.691406-93.425781h-129.132812c-4.144532 0-7.5 3.355469-7.5 7.5 0 4.140625 3.355468 7.5 7.5 7.5h128.5625v63.28125c-5.703125-2.320312-40.167969-11.3125-95.152344-18.753906-53.703125-7.269532-109.769531-11.019532-120.046875-11.019532-11.484375 0-21.96875 4.335938-29.921875 11.449219v-44.957031h87.585938c4.140624 0 7.5-3.359375 7.5-7.5 0-4.144531-3.359376-7.5-7.5-7.5h-88.15625c-16.105469 0-29.210938-13.105469-29.210938-29.210938 0-16.105468 13.105469-29.210937 29.210938-29.210937h246.261718c16.105469 0 29.210938 13.105469 29.210938 29.210937 0 16.105469-13.105469 29.210938-29.210938 29.210938zm0 0"/></svg>