<svg viewBox="0 0 512.00075 512" xmlns="http://www.w3.org/2000/svg"><path d="m189.605469 417.382812-23.296875-23.296874c-5.984375-5.984376-5.984375-15.683594 0-21.667969l48.101562-48.101563-26.726562-26.726562-48.101563 48.101562c-5.980469 5.984375-15.683593 5.984375-21.667969 0l-23.296874-23.296875c-19.851563-19.851562-52.339844-19.851562-72.191407 0-19.855469 19.855469-19.855469 52.339844 0 72.195313l94.984375 94.988281c19.855469 19.851563 52.34375 19.851563 72.195313 0 19.855469-19.855469 19.855469-52.339844 0-72.195313zm-49.804688 49.804688-94.988281-94.988281c-7.429688-7.429688-7.429688-19.984375 0-27.414063 7.433594-7.433594 19.988281-7.433594 27.417969 0l94.988281 94.984375c7.429688 7.433594 7.429688 19.988281 0 27.417969s-19.988281 7.429688-27.417969 0zm0 0" fill="#ffeb99"/><path d="m214.414062 324.316406-41.222656 41.222656-26.722656-26.726562 41.21875-41.222656zm0 0" fill="#ffde55"/><path d="m196.558594 354.984375-39.539063-39.539063c-15.539062-15.539062-15.539062-40.730468 0-56.269531l42.839844-42.839843 95.808594 95.808593-42.839844 42.839844c-15.539063 15.535156-40.734375 15.535156-56.269531 0zm0 0" fill="#b1ef97"/><path d="m278.851562 295.328125-78.992187-78.992187-42.839844 42.839843c-15.539062 15.539063-15.539062 40.730469 0 56.269531l24.863281 24.867188s9.601563-8.070312 23.117188-7.882812c23.21875.324218 42.101562-5.351563 42.101562-5.351563zm0 0" fill="#92dd7a"/><path d="m201.046875 310.953125c-16.125-16.125-12.882813-45.015625-21.085937-64.890625-8.496094-20.574219-30.914063-38.902344-30.914063-60.835938 0-21.933593 22.417969-40.261718 30.914063-60.835937 8.203124-19.875 4.960937-48.765625 21.085937-64.890625s45.015625-12.882812 64.890625-21.089844c20.578125-8.492187 38.90625-30.910156 60.835938-30.910156 21.933593 0 40.261718 22.417969 60.839843 30.910156 19.871094 8.207032 48.761719 4.964844 64.886719 21.089844 16.128906 16.125 12.886719 45.015625 21.089844 64.890625 8.492187 20.574219 30.910156 38.902344 30.910156 60.835937 0 21.933594-22.417969 40.261719-30.910156 60.835938-8.203125 19.875-4.960938 48.765625-21.089844 64.890625-16.125 16.125-45.015625 12.882813-64.886719 21.089844-20.578125 8.492187-38.90625 30.910156-60.839843 30.910156-21.929688 0-40.257813-22.417969-60.835938-30.910156-19.875-8.207031-48.765625-4.964844-64.890625-21.089844zm0 0" fill="#7de7ff"/><path d="m179.960938 246.0625c8.203124 19.875 4.960937 48.765625 21.085937 64.890625 7.003906 7.003906 16.417969 10.355469 26.453125 12.578125-55.054688-131.175781 63.113281-224.773438 124.429688-222.21875 77.429687 3.226562 113.835937-12.0625 113.835937-12.0625-2.222656-11.253906-5.496094-21.984375-13.265625-29.75-16.125-16.125-45.015625-12.882812-64.886719-21.089844-20.578125-8.492187-38.90625-30.910156-60.839843-30.910156-21.929688 0-40.257813 22.417969-60.835938 30.910156-19.875 8.207032-48.765625 4.964844-64.890625 21.089844s-12.882813 45.015625-21.085937 64.890625c-8.496094 20.574219-30.914063 38.902344-30.914063 60.835937.003906 21.929688 22.421875 40.261719 30.914063 60.835938zm0 0" fill="#4ad6ed"/><path d="m457.363281 185.226562c0 72.121094-58.464843 130.589844-130.589843 130.589844-72.121094 0-130.585938-58.46875-130.585938-130.589844 0-72.121093 58.464844-130.589843 130.585938-130.589843 72.125 0 130.589843 58.46875 130.589843 130.589843zm0 0" fill="#ccf8ff"/><path d="m234.433594 92.886719c-42.597656 42.597656-49.597656 107.332031-21.035156 157.210937 3.875-91.1875 89.429687-150.828125 138.53125-148.785156 30.425781 1.269531 54.523437-.324219 72.5625-2.722656-1.722657-1.941406-3.515626-3.84375-5.375-5.703125-51-51-133.683594-51-184.683594 0zm0 0" fill="#9ff6ff"/><path d="m393.507812 232.550781c-2.929687-2.929687-7.675781-2.929687-10.605468 0l-8.804688 8.804688c-2.925781 2.925781-2.925781 7.675781 0 10.605469 2.929688 2.929687 7.679688 2.929687 10.609375 0l8.800781-8.804688c2.929688-2.929688 2.929688-7.675781 0-10.605469zm0 0"/><path d="m268.84375 118.492188-8.800781 8.804687c-2.929688 2.929687-2.929688 7.675781 0 10.605469 2.925781 2.929687 7.675781 2.929687 10.605469 0l8.804687-8.804688c2.925781-2.925781 2.925781-7.675781 0-10.605468-2.929687-2.929688-7.679687-2.929688-10.609375 0zm0 0"/><path d="m339.515625 198.394531c-13.542969-1.710937-24.195313-12.367187-25.90625-25.910156-.519531-4.105469-4.273437-7.019531-8.382813-6.496094-4.109374.515625-7.019531 4.269531-6.5 8.378907 1.285157 10.167968 5.925782 19.253906 12.789063 26.117187s15.949219 11.507813 26.117187 12.789063c4.109376.519531 7.863282-2.390626 8.382813-6.5.519531-4.109376-2.394531-7.859376-6.5-8.378907zm0 0"/><path d="m474.949219 272.382812c1.445312-8.625 2.8125-16.769531 5.574219-23.457031 2.9375-7.121093 7.855468-14.132812 13.0625-21.554687 9.054687-12.90625 18.414062-26.25 18.414062-42.144532 0-15.894531-9.363281-29.242187-18.414062-42.148437-5.207032-7.421875-10.125-14.429687-13.0625-21.550781-2.761719-6.6875-4.128907-14.835938-5.574219-23.460938-2.648438-15.785156-5.382813-32.113281-17.144531-43.871094-11.757813-11.757812-28.085938-14.496093-43.871094-17.144531-8.625-1.445312-16.773438-2.8125-23.460938-5.570312-7.117187-2.941407-14.128906-7.859375-21.550781-13.0625-12.90625-9.054688-26.25-18.417969-42.148437-18.417969-15.890626 0-29.238282 9.363281-42.144532 18.417969-7.421875 5.207031-14.433594 10.125-21.550781 13.0625-6.6875 2.757812-14.835937 4.125-23.460937 5.574219-15.789063 2.644531-32.113282 5.382812-43.871094 17.140624-11.761719 11.761719-14.5 28.085938-17.144532 43.875-1.449218 8.625-2.8125 16.769532-5.574218 23.457032-2.9375 7.121094-7.855469 14.132812-13.0625 21.554687-9.054688 12.90625-17.921875 26.257813-18.414063 42.144531-.722656 23.214844 23.542969 49.457032 25.789063 53.023438l-15.625 15.625c-18.4375 18.4375-18.4375 48.433594 0 66.875l27.832031 27.828125-18.539063 18.535156c-8.898437 8.898438-8.898437 23.378907 0 32.277344l23.296876 23.296875c16.980468 16.980469 16.980468 44.605469 0 61.585938-16.980469 16.980468-44.609376 16.980468-61.589844 0l-94.988282-94.988282c-16.980468-16.976562-16.980468-44.605468 0-61.585937 16.980469-16.980469 44.609376-16.980469 61.589844 0l23.296875 23.296875c8.898438 8.894531 23.375 8.894531 32.273438 0 2.929687-2.929688 2.929687-7.679688 0-10.605469-2.929688-2.929687-7.679688-2.929687-10.605469 0-3.050781 3.046875-8.015625 3.046875-11.0625 0l-23.296875-23.296875c-22.828125-22.828125-59.972656-22.828125-82.800781 0-22.828125 22.824219-22.828125 59.96875 0 82.796875l94.988281 94.988281c22.828125 22.828125 59.972656 22.828125 82.796875 0 22.828125-22.828125 22.828125-59.972656 0-82.800781l-23.292969-23.296875c-3.050781-3.046875-3.050781-8.011719 0-11.0625l18.535157-18.535156s34.195312 34.882812 67.976562 1.101562l15.625-15.621094c3.566406 2.246094 28.636719 25.339844 53.023438 25.789063 15.890624.292969 29.238281-9.363281 42.144531-18.417969 7.421875-5.203125 14.433593-10.121094 21.554687-13.0625 6.6875-2.757812 14.832032-4.125 23.457032-5.570312 15.789062-2.648438 32.113281-5.386719 43.875-17.144532 11.761718-11.761718 14.496093-28.085937 17.144531-43.875zm-273.089844 77.296876-39.539063-39.539063c-12.585937-12.589844-12.585937-33.074219 0-45.660156l11.996094-11.996094c1.929688 5.9375 3.085938 12.746094 4.285156 19.898437 2.644532 15.789063 5.382813 32.113282 17.144532 43.875 11.757812 11.761719 28.082031 14.496094 43.871094 17.144532 7.152343 1.199218 13.964843 2.355468 19.898437 4.285156l-11.992187 11.992188c-12.589844 12.589843-33.074219 12.589843-45.664063 0zm209.59375-31.070313c-9.070313 1.519531-18.445313 3.089844-26.703125 6.5-8.652344 3.570313-16.679688 9.203125-24.441406 14.648437-11.507813 8.070313-22.375 15.695313-33.535156 15.695313-11.15625 0-22.023438-7.625-33.53125-15.695313-7.761719-5.445312-15.789063-11.078124-24.441407-14.648437-8.257812-3.40625-17.632812-4.980469-26.703125-6.5-14.078125-2.359375-27.378906-4.589844-35.746094-12.957031-8.367187-8.367188-10.597656-21.667969-12.957031-35.746094-1.519531-9.070312-3.09375-18.445312-6.5-26.703125-3.570312-8.652344-9.203125-16.679687-14.648437-24.441406-8.070313-11.507813-15.695313-22.375-15.695313-33.535157 0-11.15625 7.625-22.023437 15.695313-33.53125 5.445312-7.761718 11.078125-15.789062 14.648437-24.445312 3.40625-8.253906 4.980469-17.632812 6.5-26.699219 2.359375-14.082031 4.589844-27.378906 12.957031-35.746093 8.367188-8.367188 21.667969-10.597657 35.75-12.960938 9.066407-1.519531 18.441407-3.089844 26.699219-6.5 8.652344-3.570312 16.679688-9.199219 24.445313-14.648438 11.503906-8.070312 22.371094-15.695312 33.527344-15.695312 11.160156 0 22.027343 7.625 33.535156 15.695312 7.761718 5.445313 15.789062 11.078126 24.441406 14.648438 8.253906 3.40625 17.632812 4.980469 26.703125 6.5 14.078125 2.359375 27.378906 4.589844 35.746094 12.957031 8.367187 8.367188 10.597656 21.667969 12.957031 35.746094 1.519531 9.070313 3.09375 18.449219 6.5 26.703125 3.574219 8.652344 9.203125 16.679688 14.648438 24.441406 8.074218 11.507813 15.695312 22.375 15.695312 33.535156 0 11.15625-7.621094 22.023438-15.695312 33.53125-5.445313 7.761719-11.074219 15.789063-14.648438 24.445313-3.40625 8.253906-4.980469 17.632813-6.5 26.699219-2.359375 14.082031-4.589844 27.378906-12.957031 35.746094-8.367188 8.367187-21.667969 10.597656-35.746094 12.960937zm0 0"/><path d="m457.207031 195.128906c-4.105469-.546875-7.878906 2.339844-8.425781 6.445313-3.589844 26.957031-15.683594 51.402343-34.96875 70.691406-47.992188 47.992187-126.082031 47.992187-174.074219 0-47.996093-47.996094-47.996093-126.082031 0-174.078125 47.992188-47.992188 126.082031-47.992188 174.074219 0 19.695312 19.695312 31.855469 44.683594 35.167969 72.269531.496093 4.109375 4.226562 7.046875 8.339843 6.550781 4.113282-.492187 7.046876-4.226562 6.550782-8.339843-3.71875-30.953125-17.359375-58.992188-39.453125-81.085938-53.839844-53.839843-141.445313-53.839843-195.285157 0-53.84375 53.84375-53.84375 141.449219 0 195.289063 53.839844 53.84375 141.445313 53.839844 195.285157 0 21.636719-21.636719 35.203125-49.0625 39.230469-79.316406.546874-4.109376-2.335938-7.878907-6.441407-8.425782zm0 0"/><path d="m39.511719 339.480469c-10.308594 10.304687-10.308594 27.71875 0 38.023437l94.984375 94.988282c10.308594 10.304687 27.71875 10.304687 38.023437 0 10.308594-10.304688 10.308594-27.71875 0-38.023438l-94.984375-94.988281c-10.308594-10.304688-27.71875-10.304688-38.023437 0zm122.402343 122.402343c-4.476562 4.480469-12.332031 4.480469-16.808593 0l-94.988281-94.984374c-4.476563-4.480469-4.476563-12.335938 0-16.8125 4.476562-4.476563 12.332031-4.476563 16.808593 0l94.988281 94.988281c4.480469 4.476562 4.480469 12.332031 0 16.808593zm0 0"/></svg>