<svg viewBox="-57 0 512 512.001" xmlns="http://www.w3.org/2000/svg"><path d="m180.753906 241.066406h36.460938v206.734375h-36.460938zm0 0" fill="#eaeaea"/><path d="m180.753906 350.539062c5.957032.640626 12.042969.980469 18.230469.980469 6.191406 0 12.273437-.339843 18.230469-.980469v-109.472656h-36.460938zm0 0" fill="#d8d7da"/><path d="m198.984375 74.328125c-9.835937 0-17.882813-8.046875-17.882813-17.882813v-31.0625c0-9.835937 8.046876-17.882812 17.882813-17.882812s17.882813 8.046875 17.882813 17.882812v31.0625c.003906 9.835938-8.046876 17.882813-17.882813 17.882813zm0 0" fill="#ffde55"/><path d="m198.984375 40.480469s-119.230469.59375-183.96875 129.84375c-8.785156 17.542969-10.066406 38.070312-2.785156 56.285156 7.03125 17.589844 22.675781 35.304687 56.652343 39.679687-1.808593.257813 130.101563-225.808593 130.101563-225.808593zm0 0" fill="#4ad6ed"/><path d="m198.984375 40.480469s-106.140625 29.566406-138.90625 193.441406c-5.308594 26.535156 7.988281 53.640625 33.273437 65.742187 18.894532 9.039063 46.476563 10.890626 85.925782-8.027343.003906.25 19.707031-251.15625 19.707031-251.15625zm0 0" fill="#7de7ff"/><path d="m198.984375 40.480469s119.234375.59375 183.96875 129.84375c8.789063 17.542969 10.070313 38.070312 2.789063 56.285156-7.035157 17.589844-22.679688 35.304687-56.652344 39.679687 1.808594.257813-130.105469-225.808593-130.105469-225.808593zm0 0" fill="#4ad6ed"/><path d="m198.984375 40.480469s106.140625 29.566406 138.910156 193.441406c5.304688 26.535156-7.992187 53.640625-33.273437 65.742187-18.894532 9.039063-46.476563 10.890626-85.929688-8.027343 0 .25-19.707031-251.15625-19.707031-251.15625zm0 0" fill="#7de7ff"/><path d="m256.609375 263.9375c0 30.242188-25.800781 54.757812-57.625 54.757812s-57.621094-24.515624-57.621094-54.757812 25.796875-223.457031 57.621094-223.457031 57.625 193.214843 57.625 223.457031zm0 0" fill="#9ff6ff"/><path d="m161.160156 504.488281c-33.4375-.632812-59.894531-28.644531-59.894531-62.089843v-11.144532c0-13.445312 10.453125-24.894531 23.886719-25.371094 14.105468-.5 25.699218 10.78125 25.699218 24.777344v12.308594c0 5.257812 3.347657 10.082031 8.402344 11.511719 7.472656 2.113281 14.574219-3.816407 14.574219-11.054688v-56.925781c0-9.28125 7.527344-16.808594 16.808594-16.808594h15.96875c9.285156 0 16.808593 7.527344 16.808593 16.808594v56.925781c0 34.070313-28.039062 61.710938-62.253906 61.0625zm0 0" fill="#ffde55"/><path d="m125.152344 405.882812c-13.433594.476563-23.886719 11.925782-23.886719 25.371094v11.144532c0 33.445312 26.457031 61.457031 59.894531 62.089843 9.578125.183594 18.679688-1.855469 26.808594-5.628906-79.003906-5.824219-62.816406-92.976563-62.816406-92.976563zm0 0" fill="#ffcd00"/><path d="m184.59375 458.695312c6.449219-3.429687 10.296875-10.324218 10.296875-17.628906v-53.144531s-.804687-10.554687 4.363281-18.230469h-8.617187c-9.28125 0-16.808594 7.527344-16.808594 16.808594v56.925781c0 7.238281-7.101563 13.171875-14.574219 11.058594 0-.003906 12.523438 11.027344 25.339844 4.210937zm0 0" fill="#ffcd00"/><path d="m389.660156 166.96875c-34.453125-68.792969-84.273437-101.554688-120.003906-116.921875-17.398438-7.488281-33.113281-11.683594-45.285156-14.039063v-10.625c0-13.996093-11.390625-25.382812-25.386719-25.382812s-25.382813 11.386719-25.382813 25.382812v10.621094c-12.175781 2.359375-27.886718 6.554688-45.289062 14.039063-35.726562 15.371093-85.546875 48.132812-120.003906 116.925781-9.894532 19.757812-11.003906 42.511719-3.042969 62.425781 6.152344 15.394531 20.089844 34.898438 51.535156 42.320313 6.304688 14.796875 17.886719 27.332031 33.3125 34.714844 10.230469 4.894531 38.839844 11.054687 64.253907 2.792968 5.488281 4.949219 11.867187 9 18.890624 11.898438v48.40625c-4.28125 4.386718-6.929687 10.375-6.929687 16.96875v56.929687c0 1.195313-.992187 3.921875-3.988281 3.921875s-3.988282-2.375-3.988282-4.378906v-12.3125c0-28.734375-24.59375-32.585938-33.464843-32.269531-17.160157.609375-31.121094 15.351562-31.121094 32.867187v11.144532c0 7.082031 1.0625 14.085937 3.152344 20.816406 1.226562 3.953125 5.429687 6.164062 9.386719 4.9375 3.957031-1.230469 6.164062-5.433594 4.9375-9.386719-1.644532-5.289063-2.476563-10.796875-2.476563-16.367187v-11.144532c0-9.53125 7.472656-17.550781 16.65625-17.875 4.746094-.164062 17.929687 2.8125 17.929687 17.28125v12.308594c0 8.71875 5.699219 16.421875 13.863282 18.730469 5.710937 1.617187 11.722656.472656 16.492187-3.132813 4.773438-3.613281 7.621094-9.269531 7.621094-15.140625v-56.925781c0-5.132812 4.175781-9.308594 9.308594-9.308594h15.972656c5.132813 0 9.304687 4.175782 9.304687 9.308594v56.925781c0 14.476563-5.707031 28.050781-16.074218 38.222657-10.363282 10.167968-24.050782 15.601562-38.539063 15.34375-13.664062-.261719-26.585937-5.796876-36.382812-15.585938-2.929688-2.929688-7.679688-2.925781-10.605469.003906-2.929688 2.929688-2.925781 7.679688.003906 10.605469 12.554688 12.546875 29.140625 19.640625 46.699219 19.972656.449219.007813.894531.011719 1.339844.011719 18.050781 0 35.046875-6.945312 47.988281-19.644531 13.265625-13.015625 20.570312-30.390625 20.570312-48.929688v-56.925781c0-6.214844-2.347656-11.890625-6.199218-16.195312v-49.183594c7.019531-2.898438 13.398437-6.949219 18.890625-11.894532 10.730469 3.027344 40.433593 9.46875 64.25-2.796874 15.207031-7.832032 27.011719-19.917969 33.316406-34.714844 31.445313-7.417969 45.378906-26.925782 51.535156-42.320313 7.960938-19.914062 6.847657-42.667969-3.046875-62.425781zm-201.058594-141.585938c0-5.726562 4.660157-10.382812 10.382813-10.382812 5.726563 0 10.386719 4.65625 10.386719 10.382812v8.324219c-6.199219-.679687-15.109375-.621093-20.769532 0zm-169.410156 198.441407c-6.367187-15.933594-5.445312-34.210938 2.53125-50.140625 25.914063-51.738282 63.558594-88.609375 111.886719-109.585938 6.816406-2.957031 13.375-5.375 19.535156-7.34375-5.246093 3.871094-10.742187 8.324219-16.375 13.449219-28.777343 26.191406-66.722656 75.601563-84.046875 162.25-1.5 7.496094-1.671875 15.011719-.65625 22.277344-15.886718-5.660157-26.921875-16.015625-32.875-30.90625zm77.398438 69.074219c-21.847656-10.457032-33.839844-34.101563-29.160156-57.503907 16.425781-82.140625 51.890624-128.792969 78.746093-153.464843 8.953125-8.226563 17.835938-14.816407 25.882813-19.957032-6.640625 15.921875-13.738282 40.300782-21.171875 77.421875-10.390625 51.90625-17.023438 108.429688-17.023438 124.542969 0 11.921875 3.53125 23.070312 9.632813 32.542969-17.929688 3.933593-33.675782 2.75-46.90625-3.582031zm52.273437-28.960938c0-15.140625 6.671875-71.359375 16.730469-121.597656 14.753906-73.683594 27.242188-89.871094 31.671875-93.390625 1.71875-1.484375 2.832031-.183594 3.550781.089843 4.527344 3.707032 16.933594 20.242188 31.558594 93.300782 10.058594 50.238281 16.730469 106.457031 16.730469 121.597656 0 26.058594-22.484375 47.257812-50.121094 47.257812s-50.121094-21.199218-50.121094-47.257812zm60.851563 98.460938c-1.015625-.132813-20.675782-.164063-21.457032-.089844v-36.972656c3.492188.554687 10.726563 1.738281 21.457032 0zm169.0625-138.574219c-5.953125 14.890625-16.984375 25.246093-32.871094 30.90625 1.015625-7.265625.84375-14.78125-.65625-22.277344-3.421875-17.101563-7.800781-33.5625-13.027344-48.921875-1.332031-3.921875-5.59375-6.019531-9.511718-4.6875-3.921876 1.335938-6.023438 5.59375-4.6875 9.515625 5.015624 14.746094 9.226562 30.570313 12.519531 47.035156 4.679687 23.402344-7.3125 47.046875-29.160157 57.503907-13.230468 6.332031-28.980468 7.515624-46.90625 3.585937 6.105469-9.476563 9.632813-20.625 9.632813-32.546875 0-16.109375-6.632813-72.636719-17.023437-124.539062-7.429688-37.109376-14.527344-61.484376-21.164063-77.410157 23.65625 15.113281 57.0625 44.621094 81.527344 99.351563 1.246093 2.789062 5.257812 5.886718 9.90625 3.789062 3.777343-1.703125 5.476562-6.125 3.785156-9.910156-23.214844-51.941406-54.292969-82.210938-76.324219-98.476562 5.964844 1.914062 12.308594 4.242187 18.914063 7.082031 33.433593 14.382812 80.089843 45.117187 112.519531 109.863281 7.976562 15.925781 8.898438 34.199219 2.527344 50.136719zm0 0"/></svg>