<svg viewBox="0 -33 512 512" xmlns="http://www.w3.org/2000/svg"><path d="m130.941406 84.273438c0 34.085937-27.632812 61.71875-61.722656 61.71875-34.085938 0-61.71875-27.632813-61.71875-61.71875 0-34.089844 27.632812-61.722657 61.71875-61.722657 34.089844 0 61.722656 27.632813 61.722656 61.722657zm0 0" fill="#b2785b"/><path d="m69.21875 112.960938c-15.816406 0-28.6875-12.871094-28.6875-28.6875 0-15.820313 12.871094-28.691407 28.6875-28.691407 15.820312 0 28.691406 12.871094 28.691406 28.691407 0 15.816406-12.871094 28.6875-28.691406 28.6875zm0 0" fill="#ffb864"/><path d="m504.5 84.273438c0 34.085937-27.632812 61.71875-61.71875 61.71875-34.089844 0-61.722656-27.632813-61.722656-61.71875 0-34.089844 27.632812-61.722657 61.722656-61.722657 34.085938 0 61.71875 27.632813 61.71875 61.722657zm0 0" fill="#c68d6d"/><path d="m442.78125 112.960938c-15.820312 0-28.6875-12.871094-28.6875-28.6875 0-15.820313 12.867188-28.691407 28.6875-28.691407 15.816406 0 28.6875 12.871094 28.6875 28.691407 0 15.816406-12.871094 28.6875-28.6875 28.6875zm0 0" fill="#ffc477"/><path d="m462.8125 185.726562c0-98.433593-92.59375-178.226562-206.8125-178.226562s-206.8125 79.792969-206.8125 178.226562c0 98.429688 92.59375 178.226563 206.8125 178.226563s206.8125-79.796875 206.8125-178.226563zm0 0" fill="#dd9f80"/><path d="m309.570312 234.988281c2.496094-67.113281-75.222656-52.472656-115.535156-116.597656-25.132812-39.980469-7.359375-80.371094 9.582032-105.117187-88.851563 19.988281-154.429688 89.617187-154.429688 172.453124 0 97.496094 90.84375 176.691407 203.566406 178.191407 60.863282-48.949219 56.816406-128.929688 56.816406-128.929688zm0 0" fill="#c68d6d"/><path d="m343.144531 247.152344c0-37.457032-39.015625-67.816406-87.144531-67.816406s-87.144531 30.359374-87.144531 67.816406c0 37.453125 39.015625 67.816406 87.144531 67.816406s87.144531-30.363281 87.144531-67.816406zm0 0" fill="#ffdaaa"/><path d="m168.855469 247.152344c0 37.453125 39.015625 67.820312 87.144531 67.820312 1.945312 0 3.871094-.058594 5.785156-.152344-5.476562-7.039062-8.324218-14.980468-9.582031-22.707031-2.679687-16.460937 5-32.664062 18.640625-42.261719 15.636719-11 13.988281-30.242187 13.988281-30.242187l-28.832031-40.277344c-48.128906 0-87.144531 30.363281-87.144531 67.820313zm0 0" fill="#ffc477"/><path d="m288.214844 207.183594c0-15.382813-14.421875-27.851563-32.214844-27.851563s-32.214844 12.46875-32.214844 27.851563c0 15.382812 14.421875 27.851562 32.214844 27.851562s32.214844-12.46875 32.214844-27.851562zm0 0" fill="#935b45"/><path d="m174.195312 323.34375c31.605469 0 81.804688 25.625 81.804688 57.230469 0 31.609375-50.199219 57.234375-81.804688 57.234375-31.609374 0-42.121093-25.625-42.121093-57.234375 0-31.605469 10.511719-57.230469 42.121093-57.230469zm0 0" fill="#9ff6ff"/><path d="m203.222656 351.964844c15.800782 0 48.582032 12.808594 48.582032 28.609375 0 15.804687-32.78125 28.613281-48.582032 28.613281-15.800781 0-16.753906-12.808594-16.753906-28.613281-.003906-15.800781.953125-28.609375 16.753906-28.609375zm0 0" fill="#7de7ff"/><path d="m337.804688 323.34375c-31.605469 0-81.804688 25.625-81.804688 57.230469 0 31.609375 50.199219 57.234375 81.804688 57.234375 31.609374 0 42.121093-25.625 42.121093-57.234375 0-31.605469-10.511719-57.230469-42.121093-57.230469zm0 0" fill="#9ff6ff"/><path d="m308.777344 351.964844c-15.800782 0-48.582032 12.808594-48.582032 28.609375 0 15.804687 32.78125 28.613281 48.582032 28.613281 15.800781 0 16.753906-12.808594 16.753906-28.613281.003906-15.800781-.953125-28.609375-16.753906-28.609375zm0 0" fill="#7de7ff"/><path d="m294.234375 376.109375c0 21.113281-17.117187 38.234375-38.234375 38.234375s-38.234375-17.121094-38.234375-38.234375c0-21.117187 17.117187-38.238281 38.234375-38.238281s38.234375 17.121094 38.234375 38.238281zm0 0" fill="#ccf8ff"/><path d="m336.65625 180.578125c4.144531 0 7.5-3.359375 7.5-7.5v-12.449219c0-4.144531-3.355469-7.5-7.5-7.5-4.140625 0-7.5 3.355469-7.5 7.5v12.449219c0 4.140625 3.359375 7.5 7.5 7.5zm0 0"/><path d="m182.84375 173.078125v-12.449219c0-4.144531-3.359375-7.5-7.5-7.5-4.144531 0-7.5 3.355469-7.5 7.5v12.449219c0 4.140625 3.355469 7.5 7.5 7.5 4.140625 0 7.5-3.359375 7.5-7.5zm0 0"/><path d="m256 307.46875c-21.453125 0-41.597656-6.410156-56.710938-18.046875-3.28125-2.527344-7.992187-1.914063-10.519531 1.367187-2.527343 3.28125-1.914062 7.992188 1.367188 10.519532 17.726562 13.644531 41.117187 21.164062 65.863281 21.164062 52.1875 0 94.644531-33.789062 94.644531-75.320312s-42.457031-75.316406-94.644531-75.316406-94.644531 33.785156-94.644531 75.316406c0 9.128906 2.019531 18.046875 6 26.511718 1.765625 3.746094 6.230469 5.355469 9.980469 3.59375 3.75-1.765624 5.355468-6.230468 3.59375-9.980468-3.035157-6.453125-4.574219-13.222656-4.574219-20.125 0-23.246094 17.464843-43.449219 42.96875-53.515625-1.957031 4.175781-3.039063 8.75-3.039063 13.550781 0 19.492188 17.816406 35.347656 39.714844 35.347656s39.714844-15.855468 39.714844-35.347656c0-4.800781-1.085938-9.375-3.039063-13.550781 25.503907 10.066406 42.96875 30.269531 42.96875 53.515625 0 33.257812-35.730469 60.316406-79.644531 60.316406zm24.714844-100.285156c0 11.222656-11.085938 20.351562-24.714844 20.351562s-24.714844-9.128906-24.714844-20.351562 11.085938-20.351563 24.714844-20.351563 24.714844 9.132813 24.714844 20.351563zm0 0"/><path d="m442.78125 15.050781c-20.824219 0-40.355469 9.324219-53.449219 25.234375-37.777343-26.101562-84.308593-40.285156-133.332031-40.285156s-95.554688 14.183594-133.332031 40.285156c-13.09375-15.90625-32.628907-25.234375-53.449219-25.234375-38.167969 0-69.21875 31.054688-69.21875 69.222657 0 29.550781 18.484375 55.363281 45.753906 65.128906-2.6875 11.835937-4.070312 23.984375-4.070312 36.324218 0 61.164063 34.238281 117.722657 91.9375 152.507813-5.460938 9.621094-9.046875 23.21875-9.046875 42.34375 0 56.320313 31.085937 64.730469 49.617187 64.730469 21.8125 0 49.261719-10.507813 67.605469-25.734375 4.472656 1.464843 9.242187 2.269531 14.203125 2.269531s9.734375-.804688 14.210938-2.269531c18.222656 15.085937 45.851562 25.734375 67.597656 25.734375 18.53125 0 49.617187-8.410156 49.617187-64.730469s-31.085937-64.730469-49.617187-64.730469c-18.664063 0-42.144532 7.945313-60.011719 20.0625-6.484375-3.527344-13.910156-5.535156-21.796875-5.535156s-15.308594 2.007812-21.792969 5.535156c-17.867187-12.117187-41.351562-20.0625-60.011719-20.0625-9.042968 0-21.070312 2.007813-31.023437 10.597656-54.230469-31.957031-86.484375-84.269531-86.484375-140.714843 0-94.140625 89.410156-170.726563 199.316406-170.726563 109.902344 0 199.3125 76.585938 199.3125 170.726563 0 48.363281-24.125 94.667969-66.191406 127.035156-3.28125 2.527344-3.894531 7.238281-1.367188 10.519531 2.523438 3.28125 7.234376 3.894532 10.515626 1.367188 45.785156-35.230469 72.042968-85.867188 72.042968-138.925782 0-23.535156-5.011718-46.390624-14.59375-67.660156 13.703125-5.253906 23.25-18.550781 23.25-33.792968 0-19.953126-16.234375-36.1875-36.191406-36.1875-10.945312 0-21.054688 4.90625-27.816406 13.046874-2.53125-2.417968-11.628906-10.308593-13.566406-11.863281 10.253906-12.117187 25.324218-19.214843 41.382812-19.214843 29.898438 0 54.222656 24.324218 54.222656 54.21875 0 15.28125-6.5 29.933593-17.835937 40.199218-3.070313 2.78125-3.257813 7.484375-.523438 10.59375 3.511719 4 9.15625 1.824219 10.59375.527344 14.464844-13.109375 22.761719-31.8125 22.761719-51.320312 0-38.167969-31.050781-69.222657-69.21875-69.222657zm-226.132812 384.328125c-5.011719 1.457032-9.808594 2.308594-13.425782 2.308594-6.71875 0-9.257812-1.820312-9.257812-21.109375 0-19.292969 2.539062-21.109375 9.257812-21.109375 2.667969 0 6.042969.480469 9.6875 1.332031-1.707031 4.789063-2.644531 9.941407-2.644531 15.308594 0 8.492187 2.335937 16.445313 6.382813 23.269531zm82.441406-38.578125c3.648437-.851562 7.023437-1.335937 9.6875-1.335937 6.71875 0 9.257812 1.820312 9.257812 21.109375 0 19.292969-2.539062 21.113281-9.257812 21.113281-3.617188 0-8.414063-.851562-13.425782-2.308594 4.046876-6.824218 6.382813-14.777344 6.382813-23.269531 0-5.367187-.9375-10.519531-2.644531-15.308594zm65.296875-16.671875c5.335937 8.394532 8.039062 20.660156 8.039062 36.445313 0 15.789062-2.703125 28.054687-8.039062 36.449219-5.675781 8.9375-14.371094 13.285156-26.582031 13.285156-31.078126 0-53.109376-18.625-53.078126-18.652344 8.574219 3.179688 17.300782 5.03125 24.050782 5.03125 12.953125 0 18.675781-7.035156 21.199218-12.933594 2.824219-6.601562 3.058594-14.730468 3.058594-23.179687 0-8.445313-.234375-16.578125-3.058594-23.179688-2.523437-5.898437-8.246093-12.929687-21.199218-12.929687-4.871094 0-10.976563 1.015625-17.296875 2.824218-.417969-.515624-.851563-1.015624-1.292969-1.511718 14.808594-8.996094 33.292969-14.933594 47.617188-14.933594 12.210937 0 20.90625 4.347656 26.582031 13.285156zm-77.652344 31.980469c0 16.945313-13.789063 30.734375-30.734375 30.734375s-30.734375-13.789062-30.734375-30.734375c0-16.949219 13.789063-30.734375 30.734375-30.734375s30.734375 13.785156 30.734375 30.734375zm-112.539063-45.265625c14.324219 0 32.804688 5.9375 47.617188 14.933594-.441406.492187-.871094.996094-1.289062 1.507812-6.324219-1.808594-12.414063-2.820312-17.300782-2.820312-12.953125 0-18.675781 7.03125-21.199218 12.929687-2.824219 6.601563-3.058594 14.734375-3.058594 23.179688 0 8.449219.234375 16.578125 3.058594 23.179687 2.523437 5.898438 8.246093 12.933594 21.199218 12.933594 6.75 0 24.121094-4.972656 24.15625-4.945312-15.46875 11.003906-36.667968 18.566406-53.183594 18.566406-12.210937 0-20.90625-4.347656-26.582031-13.285156-5.332031-8.394532-8.039062-20.660157-8.039062-36.449219 0-15.789063 2.703125-28.050781 8.039062-36.445313 5.675781-8.9375 14.371094-13.285156 26.582031-13.285156zm-111.082031-226.292969c-8.800781-2.648437-15.082031-10.820312-15.082031-20.28125 0-11.683593 9.503906-21.1875 21.1875-21.1875 6.964844 0 13.347656 3.398438 17.273438 8.929688-9.136719 10.1875-16.953126 21.085937-23.378907 32.539062zm33.925781-43.421875c-6.761718-8.140625-16.875-13.042968-27.820312-13.042968-19.953125 0-36.1875 16.230468-36.1875 36.1875 0 15.238281 9.546875 28.539062 23.246094 33.792968-2.480469 5.511719-4.652344 11.128906-6.511719 16.839844-20.773437-7.929688-34.765625-27.871094-34.765625-50.632812 0-29.898438 24.324219-54.222657 54.21875-54.222657 16.0625 0 31.132812 7.097657 41.386719 19.21875-1.9375 1.550781-11.035157 9.441407-13.566407 11.859375zm345.742188 1.953125c11.683594 0 21.1875 9.507813 21.1875 21.1875 0 9.460938-6.28125 17.632813-15.082031 20.28125-6.425781-11.453125-14.242188-22.355469-23.378907-32.539062 3.921876-5.53125 10.308594-8.929688 17.273438-8.929688zm0 0"/></svg>