<svg viewBox="-41 0 512 512.001" xmlns="http://www.w3.org/2000/svg"><path d="m335.066406 315.800781h-66.855468l-31.335938 38.976563c-5.507812 6.855468-.628906 17.039062 8.167969 17.039062h14.597656c5.457031 0 10.65625 2.3125 14.308594 6.367188l19.90625 22.082031c4.160156 4.617187 11.402343 4.617187 15.5625 0l19.910156-22.082031c3.652344-4.050782 8.851563-6.367188 14.304687-6.367188h14.601563c8.796875 0 13.675781-10.183594 8.164063-17.039062zm0 0" fill="#ffde55"/><path d="m329.988281 340.441406 1.335938-24.640625h-63.113281l-31.335938 38.972657c-5.507812 6.855468-.628906 17.042968 8.167969 17.042968h14.597656c5.457031 0 10.65625 2.3125 14.308594 6.363282l8.535156 9.46875c4.324219-9.132813 10.589844-18.136719 19.152344-21.007813 19.304687-6.46875 28.351562-26.199219 28.351562-26.199219zm0 0" fill="#ffcd00"/><path d="m422.417969 176.804688c0 66.707031-33.085938 166.742187-120.78125 166.742187-87.695313 0-120.777344-100.035156-120.777344-166.742187 0-66.703126 54.074219-120.777344 120.777344-120.777344 66.707031 0 120.78125 54.074218 120.78125 120.777344zm0 0" fill="#ffeb99"/><path d="m292.121094 274.714844c35.535156-73.28125 13.421875-173.558594.433594-218.347656-62.460938 4.640624-111.695313 56.789062-111.695313 120.441406 0 59.773437 26.574219 146.300781 95.199219 163.636718-.273438-18.921874 4.011718-40.875 16.0625-65.730468zm0 0" fill="#ffde55"/><path d="m161.707031 267.273438h-66.855469l-31.332031 38.976562c-5.511719 6.855469-.632812 17.039062 8.164063 17.039062h14.601562c5.453125 0 10.652344 2.3125 14.304688 6.367188l19.910156 22.082031c4.160156 4.617188 11.402344 4.617188 15.5625 0l19.910156-22.082031c3.652344-4.054688 8.851563-6.367188 14.304688-6.367188h14.601562c8.792969 0 13.675782-10.183593 8.164063-17.039062zm0 0" fill="#92dd7a"/><path d="m175.011719 283.824219-13.304688-16.550781h-66.855469l-31.332031 38.976562c-5.511719 6.855469-.632812 17.039062 8.164063 17.039062h14.601562c5.453125 0 10.652344 2.3125 14.304688 6.367188l8.507812 9.4375c3.328125-10.007812 9.726563-19.804688 21.960938-23.292969 28.339844-8.078125 43.953125-31.976562 43.953125-31.976562zm0 0" fill="#7ec66a"/><path d="m249.058594 128.28125c0 66.703125-33.082032 166.738281-120.777344 166.738281s-120.78125-100.035156-120.78125-166.738281c0-66.707031 54.074219-120.78125 120.78125-120.78125 66.703125 0 120.777344 54.074219 120.777344 120.78125zm0 0" fill="#b1ef97"/><path d="m128.28125 295.019531c8.53125 0 16.539062-.957031 24.054688-2.726562-16.792969-11.964844-35.597657-32.09375-54.472657-65.507813-41.058593-72.6875-19.976562-165.855468-4.070312-214.277344-49.902344 14.839844-86.292969 61.050782-86.292969 115.773438 0 66.703125 33.085938 166.738281 120.78125 166.738281zm0 0" fill="#92dd7a"/><path d="m216.4375 134.671875v-12.449219c0-4.144531-3.359375-7.5-7.5-7.5-4.144531 0-7.5 3.355469-7.5 7.5v12.449219c0 4.140625 3.355469 7.5 7.5 7.5 4.140625 0 7.5-3.359375 7.5-7.5zm0 0"/><path d="m55.125 134.671875v-12.449219c0-4.144531-3.359375-7.5-7.5-7.5-4.144531 0-7.5 3.355469-7.5 7.5v12.449219c0 4.140625 3.355469 7.5 7.5 7.5 4.140625 0 7.5-3.359375 7.5-7.5zm0 0"/><path d="m128.28125 150.023438c9.707031 0 19.414062-3.140626 27.511719-9.421876 3.273437-2.539062 3.871093-7.25 1.332031-10.523437s-7.253906-3.867187-10.523438-1.332031c-10.785156 8.367187-25.855468 8.367187-36.640624 0-3.273438-2.535156-7.984376-1.941406-10.523438 1.332031s-1.941406 7.984375 1.328125 10.523437c8.101563 6.28125 17.808594 9.421876 27.515625 9.421876zm0 0"/><path d="m301.636719 48.527344c-12.617188 0-25.085938 1.828125-37.058594 5.433594-3.964844 1.195312-6.210937 5.378906-5.015625 9.347656 1.191406 3.964844 5.375 6.210937 9.34375 5.015625 10.566406-3.183594 21.578125-4.796875 32.730469-4.796875 62.460937 0 113.277343 50.816406 113.277343 113.28125 0 36.746094-9.90625 75.863281-26.5 104.636718-14.367187 24.910157-41.082031 54.601563-86.777343 54.601563-51.441407 0-80.226563-38.652344-93.773438-68.164063 7.414063-7.871093 14.167969-17.035156 20.1875-27.46875 17.851563-30.949218 28.507813-72.867187 28.507813-112.132812 0-70.734375-57.546875-128.28125-128.277344-128.28125-70.734375 0-128.28125 57.546875-128.28125 128.28125 0 20.339844 2.902344 41.929688 8.386719 62.429688 1.070312 4 5.183593 6.375 9.1875 5.304687 4-1.070313 6.375-5.183594 5.304687-9.1875-5.152344-19.25-7.878906-39.496094-7.878906-58.546875 0-62.464844 50.816406-113.28125 113.28125-113.28125 62.460938 0 113.277344 50.816406 113.277344 113.28125 0 36.75-9.90625 75.863281-26.5 104.636719-14.367188 24.910156-41.085938 54.601562-86.777344 54.601562-29.726562 0-70.554688-12.785156-96.222656-73.707031-1.605469-3.816406-6.003906-5.605469-9.820313-4-3.816406 1.609375-5.609375 6.007812-4 9.824219 12.59375 29.894531 30.375 52.269531 52.074219 66.191406l-12.640625 15.722656c-4.371094 5.441407-5.214844 12.734375-2.199219 19.027344 3.019532 6.300781 8.574219 9.546875 16.210938 10.210937 7.640625.664063 17.894531-1.675781 23.335937 3.886719l19.910157 22.085938c1.390624 1.539062 3.03125 2.796875 4.824218 3.761719.484375 13.933593 7.15625 21.511718 12.574219 27.632812 5.136719 5.808594 8.851563 10 8.851563 19.289062 0 9.289063-3.714844 13.488282-8.855469 19.292969-5.621094 6.355469-12.617188 14.261719-12.617188 29.234375s6.996094 22.878906 12.621094 29.230469c5.136719 5.808594 8.851563 10.003906 8.851563 19.292969 0 4.144531 3.355468 7.5 7.5 7.5 4.140624 0 7.5-3.355469 7.5-7.5 0-14.972656-7-22.878906-12.621094-29.230469-5.136719-5.808594-8.851563-10.003906-8.851563-19.292969 0-9.289062 3.714844-13.484375 8.851563-19.292968 5.621094-6.351563 12.621094-14.257813 12.621094-29.234376 0-14.96875-7-22.875-12.621094-29.226562-4.648438-5.253906-8.117188-9.199219-8.742188-16.777344 2.578125-1.007812 4.925782-2.585937 6.816406-4.679687l19.910157-22.085938c6.898437-7.136719 16.351562-3.886719 23.335937-3.886719 6.980469 0 13.191406-3.910156 16.210938-10.207031 3.015625-6.296875 2.171875-13.589843-2.203125-19.03125l-12.578125-15.648437c3.449218-2.214844 6.804687-4.644532 10.054687-7.292969 9.746094 19.824219 21.988281 35.925781 36.492188 47.945313 3.476562 2.878906 7.066406 5.496093 10.761719 7.871093l-12.585938 15.652344c-4.375 5.441406-5.21875 12.734375-2.199219 19.03125 3.015625 6.296875 8.648438 10.144531 16.210938 10.207031 7.558593.066406 15.933593-3.515625 23.335937 3.886719l19.90625 22.085937c1.390625 1.539063 3.035156 2.796876 4.828125 3.765626.480469 13.929687 7.152344 21.511718 12.570313 27.632812 5.136718 5.804688 8.851562 10 8.851562 19.289062 0 9.289063-3.714844 13.484376-8.851562 19.292969-5.625 6.351563-12.617188 14.257813-12.617188 29.230469 0 4.144531 3.355469 7.5 7.5 7.5 4.140625 0 7.5-3.355469 7.5-7.5 0-9.289062 3.710938-13.484375 8.851563-19.292969 5.621093-6.351562 12.617187-14.257812 12.617187-29.230469 0-14.972656-6.996094-22.878906-12.617187-29.230468-4.648438-5.253906-8.121094-9.199219-8.742188-16.777344 2.578125-1.007812 4.925781-2.582031 6.8125-4.679688l19.910157-22.085937c7.589843-7.589844 17.351562-3.886719 23.335937-3.886719s11.546875-2.945312 14.878906-7.882812c3.367188-4.988282 4.054688-11.253906 1.835938-16.757813-1.550781-3.84375-5.914063-5.703125-9.761719-4.152343-3.84375 1.546874-5.699219 5.917968-4.152344 9.757812.351563.875 1.644532 4.140625-2.800781 4.035156h-14.601563c-7.5625 0-14.808593 3.222656-19.875 8.84375l-19.910156 22.085938c-2.210937 2.34375-3.648437.855468-4.421875 0l-19.910156-22.085938c-5.0625-5.621094-12.308594-8.84375-19.875-8.84375h-14.601563c-1.628906 0-5.144531-1.269531-2.316406-4.839844l14.277344-17.757812c13.683594 6.195312 28.613281 9.332031 44.636719 9.332031 41.835937 0 76.339843-21.480469 99.773437-62.109375 17.851563-30.953125 28.507813-72.871094 28.507813-112.132812 0-70.738282-57.546875-128.28125-128.28125-128.28125zm-114.441407 262.421875c1.023438 1.273437 2.441407 4.851562-2.316406 4.839843h-14.601562c-7.566406 0-14.8125 3.222657-19.875 8.84375l-19.910156 22.085938c-2.210938 2.546875-3.652344.855469-4.421876 0l-19.910156-22.085938c-5.066406-5.617187-12.3125-8.84375-19.875-8.84375h-14.601562c-4.164063-.488281-3.339844-3.566406-2.320313-4.839843l14.34375-17.839844c13.671875 6.195313 28.609375 9.414063 44.574219 9.414063 16.023438 0 30.96875-3.164063 44.632812-9.335938zm0 0"/></svg>