<svg viewBox="-19 0 512 512.001" xmlns="http://www.w3.org/2000/svg"><path d="m382.378906 54.445312c0 14.625-11.859375 26.484376-26.488281 26.484376s-26.484375-11.859376-26.484375-26.484376c0-14.628906 11.855469-46.945312 26.484375-46.945312s26.488281 32.316406 26.488281 46.945312zm0 0" fill="#ffeb99"/><path d="m382.273438 195.519531h-52.765626v-100.980469c0-11.820312 9.585938-21.40625 21.40625-21.40625h9.953126c11.824218 0 21.40625 9.585938 21.40625 21.40625zm0 0" fill="#9ff6ff"/><path d="m263.34375 54.445312c0 14.625-11.855469 26.484376-26.484375 26.484376s-26.484375-11.859376-26.484375-26.484376c0-14.628906 11.855469-46.945312 26.484375-46.945312s26.484375 32.316406 26.484375 46.945312zm0 0" fill="#ffeb99"/><path d="m263.242188 195.519531h-52.765626v-100.980469c0-11.820312 9.582032-21.40625 21.40625-21.40625h9.953126c11.824218 0 21.40625 9.585938 21.40625 21.40625zm0 0" fill="#9ff6ff"/><path d="m144.3125 54.445312c0 14.625-11.859375 26.484376-26.484375 26.484376-14.628906 0-26.488281-11.859376-26.488281-26.484376 0-14.628906 11.859375-46.945312 26.488281-46.945312s26.484375 32.316406 26.484375 46.945312zm0 0" fill="#ffeb99"/><path d="m144.210938 195.519531h-52.765626v-100.980469c0-11.820312 9.582032-21.40625 21.40625-21.40625h9.953126c11.820312 0 21.40625 9.585938 21.40625 21.40625zm0 0" fill="#9ff6ff"/><path d="m394.859375 504.5h-315.386719c-24.226562 0-43.867187-19.640625-43.867187-43.867188v-218.042968h403.121093v218.042968c0 24.226563-19.640624 43.867188-43.867187 43.867188zm0 0" fill="#ffe3c2"/><path d="m35.605469 242.589844v210.460937c138.863281-.734375 157.089843-79.449219 187.25-122.710937 46.039062-66.042969 215.871093-27.625 215.871093-27.625v-60.125zm0 0" fill="#ffdaaa"/><path d="m35.605469 349.597656h403.121093v75.050782h-403.121093zm0 0" fill="#dd9f80"/><path d="m35.605469 349.597656v75.050782h113.328125c32.117187-21.136719 47.765625-50.445313 61.988281-75.050782zm0 0" fill="#c68d6d"/><path d="m7.5 198.511719v150.195312c0 15.535157 11.722656 28.886719 27.210938 30.136719 17.378906 1.402344 32.054687-12.4375 32.054687-29.535156v-58.738282c0-12.074218 9.789063-21.863281 21.863281-21.863281 12.074219 0 21.863282 9.789063 21.863282 21.863281v26.144532c0 16.296875 13.332031 29.632812 29.632812 29.632812 16.296875 0 29.632812-13.335937 29.632812-29.632812v-22.773438c0-13.933594 11.296876-25.234375 25.234376-25.234375h241.300781c16.527343 0 29.925781-13.398437 29.925781-29.925781v-40.269531c0-29.109375-23.597656-52.703125-52.703125-52.703125h-353.3125c-29.105469 0-52.703125 23.597656-52.703125 52.703125zm0 0" fill="#ffc2e1"/><path d="m121.566406 145.808594h-61.363281c-29.105469 0-52.703125 23.597656-52.703125 52.703125v150.195312c0 15.535157 11.722656 28.890625 27.210938 30.136719 17.375 1.402344 32.054687-12.433594 32.054687-29.535156v-58.738282c0-12.074218 9.789063-21.863281 21.863281-21.863281 12.074219 0 21.859375 9.789063 21.859375 21.863281v26.144532c0 16.296875 13.335938 29.632812 29.632813 29.632812 4.105468 0 8.019531-.847656 11.582031-2.371094-5.097656-99.515624-24.691406-78-49.476563-120.957031-27.621093-47.882812 19.339844-77.210937 19.339844-77.210937zm0 0" fill="#ffabcd"/><path d="m236.859375 247.21875c-15.519531 0-28.101563-12.582031-28.101563-28.101562v-20.429688c0-4.234375 3.433594-7.667969 7.671876-7.667969h40.859374c4.238282 0 7.671876 3.433594 7.671876 7.667969v20.429688c-.003907 15.519531-12.582032 28.101562-28.101563 28.101562zm0 0" fill="#57565c"/><path d="m172.835938 219.117188c0-13.183594-13.417969-23.867188-29.972657-23.867188-16.554687 0-29.972656 10.683594-29.972656 23.867188 0 13.183593 13.417969 23.871093 29.972656 23.871093 16.554688 0 29.972657-10.6875 29.972657-23.871093zm0 0" fill="#fff"/><path d="m360.828125 219.117188c0-13.183594-13.421875-23.867188-29.972656-23.867188-16.554688 0-29.972657 10.683594-29.972657 23.867188 0 13.183593 13.417969 23.871093 29.972657 23.871093 16.550781 0 29.972656-10.6875 29.972656-23.871093zm0 0" fill="#fff"/><path d="m317.515625 178.566406c-4.144531 0-7.5 3.355469-7.5 7.5v12.449219c0 4.140625 3.355469 7.5 7.5 7.5s7.5-3.359375 7.5-7.5v-12.449219c0-4.144531-3.355469-7.5-7.5-7.5zm0 0"/><path d="m156.203125 178.566406c-4.144531 0-7.5 3.355469-7.5 7.5v12.449219c0 4.140625 3.355469 7.5 7.5 7.5 4.140625 0 7.5-3.359375 7.5-7.5v-12.449219c0-4.144531-3.359375-7.5-7.5-7.5zm0 0"/><path d="m413.515625 138.308594h-76.507813v-43.769532c0-7.667968 6.238282-13.90625 13.90625-13.90625h9.953126c7.667968 0 13.90625 6.238282 13.90625 13.90625v18.898438c0 4.140625 3.355468 7.5 7.5 7.5 4.144531 0 7.5-3.359375 7.5-7.5v-18.898438c0-7.300781-2.726563-13.976562-7.210938-19.070312 4.667969-5.933594 7.3125-13.332031 7.3125-21.023438 0-16.632812-12.839844-54.445312-33.984375-54.445312s-33.984375 37.8125-33.984375 54.445312c0 7.742188 2.628906 15.121094 7.296875 21.042969-4.472656 5.089844-7.195313 11.757813-7.195313 19.050781v43.769532h-51.265624v-43.769532c0-7.300781-2.726563-13.976562-7.210938-19.070312 4.667969-5.933594 7.3125-13.332031 7.3125-21.027344 0-16.628906-12.839844-54.441406-33.984375-54.441406s-33.984375 37.8125-33.984375 54.445312c0 7.742188 2.628906 15.121094 7.296875 21.042969-4.472656 5.089844-7.195313 11.757813-7.195313 19.050781v43.769532h-51.265624v-43.769532c0-7.292968-2.71875-13.957031-7.191407-19.046874 4.695313-5.933594 7.292969-13.296876 7.292969-21.046876 0-16.632812-12.839844-54.445312-33.984375-54.445312-21.148437 0-33.988281 37.8125-33.988281 54.445312 0 7.742188 2.601562 15.109376 7.296875 21.042969-4.472657 5.09375-7.191407 11.757813-7.191407 19.050781v43.769532h-23.742187c-33.195313 0-60.203125 27.007812-60.203125 60.203125v150.199219c0 17.445312 11.941406 32.472656 28.105469 36.601562v75.320312c0 28.324219 23.042969 51.367188 51.367187 51.367188h315.386719c28.324219 0 51.367187-23.042969 51.367187-51.367188v-185.773437c15.828126-4.363281 27.492188-18.878906 27.492188-36.074219v-40.273437c0-33.195313-27.007812-60.203125-60.203125-60.203125zm-57.625-123.308594c7.097656 0 18.984375 24.699219 18.984375 39.445312 0 4.707032-1.773438 9.222657-4.867188 12.675782-2.875-.960938-14.117187-4.664063-28.246093.007812-3.09375-3.449218-4.855469-7.945312-4.855469-12.683594 0-14.746093 11.886719-39.445312 18.984375-39.445312zm-119.03125 0c7.097656 0 18.984375 24.699219 18.984375 39.445312 0 4.707032-1.773438 9.222657-4.867188 12.675782-2.875-.960938-14.117187-4.273438-28.246093.007812-3.09375-3.449218-4.855469-7.945312-4.855469-12.683594 0-14.746093 11.886719-39.445312 18.984375-39.445312zm-18.882813 79.539062c0-7.667968 6.238282-13.90625 13.90625-13.90625h9.953126c7.667968 0 13.90625 6.238282 13.90625 13.90625v43.769532h-37.765626zm-100.148437-79.539062c7.097656 0 18.984375 24.699219 18.984375 39.445312 0 4.742188-1.742188 9.21875-4.855469 12.683594-2.878906-.964844-14.128906-4.671875-28.253906-.003906-3.117187-3.460938-4.859375-7.945312-4.859375-12.679688-.003906-14.746093 11.886719-39.445312 18.984375-39.445312zm-18.882813 79.539062c0-7.667968 6.238282-13.90625 13.90625-13.90625h9.953126c7.667968 0 13.90625 6.238282 13.90625 13.90625v43.769532h-37.765626zm295.914063 402.460938h-315.386719c-20.050781 0-36.367187-16.316406-36.367187-36.367188v-28.484374h54.261719c4.140624 0 7.5-3.359376 7.5-7.5 0-4.140626-3.359376-7.5-7.5-7.5h-54.261719v-31.214844c7.097656-1.175782 25.34375-8.460938 30.320312-28.835938h357.800781v60.050782h-301.597656c-4.140625 0-7.5 3.359374-7.5 7.5 0 4.140624 3.359375 7.5 7.5 7.5h301.597656v28.484374c0 20.050782-16.3125 36.367188-36.367187 36.367188zm-281.800781-154.902344h-38.792969v-51.527344c0-7.917968 6.445313-14.363281 14.363281-14.363281 7.917969 0 14.363282 6.445313 14.363282 14.363281v26.144532c0 9.808594 3.828124 18.738281 10.066406 25.382812zm54.128906 0c6.238281-6.644531 10.070312-15.574218 10.070312-25.382812v-22.769532c0-9.78125 7.953126-17.738281 17.734376-17.738281h236.234374v65.890625zm291.53125-103.3125c0 12.363282-10.0625 22.421875-22.425781 22.421875h-241.300781c-18.050782 0-32.734376 14.6875-32.734376 32.738281v22.769532c0 12.203125-9.929687 22.132812-22.132812 22.132812-12.207031 0-22.132812-9.929687-22.132812-22.132812v-26.144532c0-16.191406-13.171876-29.363281-29.363282-29.363281s-29.363281 13.171875-29.363281 29.363281v58.738282c0 18.890625-17.726563 22.558594-23.953125 22.058594-11.390625-.917969-20.3125-10.871094-20.3125-22.660157v-150.195312c0-24.925781 20.28125-45.203125 45.203125-45.203125h353.3125c24.925781 0 45.203125 20.277344 45.203125 45.203125zm0 0"/><path d="m257.289062 183.519531h-40.859374c-8.363282 0-15.171876 6.804688-15.171876 15.167969v20.429688c0 19.632812 15.96875 35.601562 35.601563 35.601562 19.628906 0 35.597656-15.96875 35.601563-35.601562v-20.429688c0-8.363281-6.804688-15.167969-15.171876-15.167969zm.171876 35.597657c-.003907 11.359374-9.242188 20.601562-20.601563 20.601562s-20.601563-9.242188-20.601563-20.601562v-20.429688c0-.09375 41.203126-.09375 41.203126 0zm0 0"/></svg>