<svg viewBox="0 -45 512.001 512" xmlns="http://www.w3.org/2000/svg"><path d="m142.351562 92.265625c0 32.925781-26.691406 59.613281-59.617187 59.613281s-59.617187-26.6875-59.617187-59.613281 26.691406-59.617187 59.617187-59.617187 59.617187 26.691406 59.617187 59.617187zm0 0" fill="#ffc477"/><path d="m488.882812 92.265625c0 32.925781-26.691406 59.613281-59.617187 59.613281s-59.617187-26.6875-59.617187-59.613281 26.691406-59.617187 59.617187-59.617187 59.617187 26.691406 59.617187 59.617187zm0 0" fill="#ffcc8f"/><path d="m477.542969 329.589844v-100.546875c0-121.847657-99.695313-221.542969-221.542969-221.542969s-221.542969 99.695312-221.542969 221.542969v100.546875zm0 0" fill="#ffe3c2"/><path d="m236.035156 242.566406c-44.316406-11.429687-71.257812-56.394531-60.28125-100.820312 16.285156-65.921875 52.714844-111.289063 75.160156-134.1875-119.523437 2.730468-216.457031 101.339844-216.457031 221.484375v100.546875h403.203125c-51.089844-42.738282-139.90625-71.109375-201.625-87.023438zm0 0" fill="#ffdaaa"/><path d="m458.855469 413.871094h-405.710938c-25.207031 0-45.644531-20.433594-45.644531-45.644532v-40.40625c0-25.210937 20.4375-45.644531 45.644531-45.644531h405.710938c25.207031 0 45.644531 20.433594 45.644531 45.644531v40.40625c0 25.210938-20.4375 45.644532-45.644531 45.644532zm0 0" fill="#ffc2e1"/><path d="m131.46875 368.226562v-40.40625c0-25.207031 20.4375-45.644531 45.644531-45.644531h-123.96875c-25.207031 0-45.644531 20.433594-45.644531 45.644531v40.40625c0 25.210938 20.4375 45.644532 45.644531 45.644532h123.96875c-25.207031 0-45.644531-20.433594-45.644531-45.644532zm0 0" fill="#ffabcd"/><path d="m191.976562 174.773438c0-13.183594-13.417968-23.871094-29.972656-23.871094-16.554687 0-29.972656 10.6875-29.972656 23.871094 0 13.179687 13.417969 23.867187 29.972656 23.867187 16.554688 0 29.972656-10.6875 29.972656-23.867187zm0 0" fill="#ffa6bb"/><path d="m379.96875 174.773438c0-13.183594-13.417969-23.871094-29.972656-23.871094-16.554688 0-29.972656 10.6875-29.972656 23.871094 0 13.179687 13.417968 23.867187 29.972656 23.867187 16.554687 0 29.972656-10.6875 29.972656-23.867187zm0 0" fill="#ffa6bb"/><path d="m271.964844 174.773438c0 8.285156-6.714844 15-15 15s-15-6.714844-15-15c0-8.285157 6.714844-15 15-15s15 6.714843 15 15zm0 0" fill="#c68d6d"/><path d="m336.65625 161.667969c4.144531 0 7.5-3.355469 7.5-7.5v-12.449219c0-4.140625-3.355469-7.5-7.5-7.5-4.140625 0-7.5 3.359375-7.5 7.5v12.449219c0 4.144531 3.359375 7.5 7.5 7.5zm0 0"/><path d="m175.34375 161.667969c4.140625 0 7.5-3.355469 7.5-7.5v-12.449219c0-4.140625-3.359375-7.5-7.5-7.5-4.144531 0-7.5 3.359375-7.5 7.5v12.449219c0 4.144531 3.355469 7.5 7.5 7.5zm0 0"/><path d="m485.042969 281.605469v-52.5625c0-60.933594-23.890625-118.386719-67.273438-161.765625-6.117187-6.117188-12.519531-11.832032-19.164062-17.160156 8.855469-6.46875 19.488281-9.96875 30.660156-9.96875 28.738281 0 52.117187 23.378906 52.117187 52.117187 0 8.144531-1.824218 15.9375-5.421874 23.171875-1.84375 3.710938-.382813 8.3125 3.375 10.054688 4.683593 2.175781 8.746093-.738282 10.058593-3.375 4.636719-9.328126 6.988281-19.371094 6.988281-29.855469 0-37.007813-30.109374-67.113281-67.117187-67.113281-15.9375 0-31.023437 5.53125-43.085937 15.667968-38.050782-26.523437-83.070313-40.816406-130.179688-40.816406s-92.128906 14.292969-130.179688 40.816406c-12.0625-10.136718-27.144531-15.667968-43.085937-15.667968-37.007813 0-67.117187 30.109374-67.117187 67.117187 0 21.46875 9.953124 41.125 26.921874 53.761719-10.230468 26.148437-15.582031 54.191406-15.582031 83.015625v52.5625c-16.082031 9.148437-26.957031 26.429687-26.957031 46.214843v40.40625c0 29.304688 23.839844 53.148438 53.144531 53.148438h405.710938c29.304687 0 53.144531-23.84375 53.144531-53.148438v-40.40625c0-19.785156-10.875-37.066406-26.957031-46.214843zm-454.425781-189.339844c0-28.738281 23.378906-52.117187 52.117187-52.117187 11.171875 0 21.804687 3.5 30.660156 9.96875-27.789062 18.980468-53.527343 58.007812-64.691406 81.609374-11.441406-9.816406-18.085937-24.027343-18.085937-39.460937zm466.382812 275.960937c0 21.035157-17.113281 38.144532-38.144531 38.144532h-405.710938c-21.03125 0-38.144531-17.109375-38.144531-38.144532v-40.40625c0-21.035156 17.113281-38.144531 38.144531-38.144531h22.59375c4.144531 0 7.5-3.359375 7.5-7.5s-3.355469-7.5-7.5-7.5h-22.59375c-3.835937 0-7.578125.417969-11.1875 1.195313v-46.828125c0-56.925781 22.332031-110.613281 62.882813-151.160157 40.546875-40.550781 94.230468-62.882812 151.160156-62.882812s110.613281 22.332031 151.160156 62.882812c40.550782 40.546876 62.882813 94.234376 62.882813 151.160157v46.828125c-3.609375-.777344-7.351563-1.195313-11.1875-1.195313h-350.648438c-4.144531 0-7.5 3.359375-7.5 7.5s3.355469 7.5 7.5 7.5h350.648438c21.03125 0 38.144531 17.113281 38.144531 38.144531zm0 0"/><path d="m226.332031 247.367188c1.417969 1.226562 6.671875 3.628906 10.578125-.773438l20.054688-23.21875 20.054687 23.21875c4.308594 4.632812 9.160157 2 10.578125.773438 3.132813-2.707032 3.480469-7.441407.773438-10.578126l-23.90625-27.675781v-13.128906c8.730468-3.097656 15-11.433594 15-21.210937 0-12.40625-10.09375-22.5-22.5-22.5s-22.5 10.09375-22.5 22.5c0 9.777343 6.269531 18.113281 15 21.210937v13.128906l-23.90625 27.675781c-2.707032 3.132813-2.363282 7.871094.773437 10.578126zm30.632813-80.09375c4.136718 0 7.5 3.363281 7.5 7.5 0 4.132812-3.363282 7.5-7.5 7.5-4.136719 0-7.5-3.367188-7.5-7.5 0-4.136719 3.363281-7.5 7.5-7.5zm0 0"/></svg>