<svg viewBox="-54 0 512 512" xmlns="http://www.w3.org/2000/svg"><path d="m50.84375 504.5h302.730469c29.109375 0 45.347656-33.804688 26.980469-56.386719-32.902344-40.457031-90.25-87.859375-178.34375-87.859375-88.097657 0-145.445313 47.402344-178.347657 87.859375-18.367187 22.582031-2.128906 56.386719 26.980469 56.386719zm0 0" fill="#ffabcd"/><path d="m276.476562 374.15625c-18.667968-18.671875-47.828124-20.433594-68.492187-5.3125-3.429687 2.511719-8.121094 2.511719-11.550781 0-20.664063-15.121094-49.824219-13.359375-68.492188 5.3125-20.628906 20.628906-41.644531 75.085938-21.015625 95.714844 17.929688 17.929687 61.398438 4.40625 86.015625-12.980469 5.574219-3.9375 12.960938-3.9375 18.535156 0 24.617188 17.386719 68.089844 30.90625 86.015626 12.980469 20.628906-20.628906-.386719-75.089844-21.015626-95.714844zm0 0" fill="#ffc2e1"/><path d="m145.117188 367.402344c-56.605469 14.746094-96.082032 49.757812-121.253907 80.710937-18.367187 22.582031-2.128906 56.386719 26.980469 56.386719h116.914062c-33.0625-49.023438-32.226562-98.847656-22.640624-137.097656zm0 0" fill="#ff8fb4"/><path d="m145.117188 367.402344c-5.015626 1.304687-9.886719 2.789062-14.632813 4.394531-.867187.757813-1.71875 1.539063-2.542969 2.363281-20.628906 20.628906-41.644531 75.089844-21.015625 95.71875 9.804688 9.804688 27.242188 10.195313 45.066407 5.699219-16.625-39.246094-14.578126-77.449219-6.875-108.175781zm0 0" fill="#ffabcd"/><g fill="#ffaea1"><path d="m247.453125 404.941406c0-21.949218-21.765625-39.742187-48.617187-39.742187-26.851563 0-48.621094 17.792969-48.621094 39.742187 0 21.949219 21.769531 39.742188 48.621094 39.742188 26.851562 0 48.617187-17.792969 48.617187-39.742188zm0 0"/><path d="m105.316406 273.367188c0 27.011718-21.898437 48.90625-48.910156 48.90625-27.007812 0-48.90625-21.894532-48.90625-48.90625 0-27.011719 21.898438-48.910157 48.90625-48.910157 27.011719 0 48.910156 21.898438 48.910156 48.910157zm0 0"/><path d="m396.917969 273.367188c0 27.011718-21.898438 48.90625-48.90625 48.90625-27.011719 0-48.910157-21.894532-48.910157-48.90625 0-27.011719 21.898438-48.910157 48.910157-48.910157 27.007812 0 48.90625 21.898438 48.90625 48.910157zm0 0"/></g><path d="m202.210938 418.511719c-86.589844 0-157.433594-70.84375-157.433594-157.429688v-81.703125c0-86.585937 70.84375-157.429687 157.429687-157.429687 86.589844 0 157.433594 70.84375 157.433594 157.429687v81.703125c0 86.585938-70.84375 157.429688-157.429687 157.429688zm0 0" fill="#ffe2d9"/><path d="m202.210938 21.949219c-86.589844 0-157.433594 70.84375-157.433594 157.429687v81.703125c0 85.878907 69.714844 156.269531 155.332031 157.417969-70.867187-38.265625-78.230469-135.984375-74.558594-199.359375 1.789063-30.859375 19.832031-58.589844 47.460938-72.445313 46.738281-23.4375 60.941406-57.519531 60.941406-57.519531v-63.988281c-10.261719-2.121094-20.878906-3.238281-31.742187-3.238281zm0 0" fill="#ffcfc2"/><path d="m138.1875 291.769531c0-13.183593-13.421875-23.867187-29.972656-23.867187-16.554688 0-29.976563 10.683594-29.976563 23.867187 0 13.183594 13.421875 23.871094 29.976563 23.871094 16.550781 0 29.972656-10.6875 29.972656-23.871094zm0 0" fill="#ffa6bb"/><path d="m326.179688 291.769531c0-13.183593-13.421876-23.867187-29.976563-23.867187-16.550781 0-29.972656 10.683594-29.972656 23.867187 0 13.183594 13.421875 23.871094 29.972656 23.871094 16.554687 0 29.976563-10.6875 29.976563-23.871094zm0 0" fill="#ffa6bb"/><path d="m147.367188 7.5c25.363281 0 66.351562 20.5625 66.351562 45.925781 0 25.359375-40.988281 45.921875-66.351562 45.921875-25.363282 0-45.921876-20.5625-45.921876-45.921875 0-25.363281 20.558594-45.925781 45.921876-45.925781zm0 0" fill="#ffabcd"/><path d="m272.570312 7.5c-25.359374 0-66.347656 20.5625-66.347656 45.925781 0 25.359375 40.988282 45.921875 66.347656 45.921875 25.363282 0 45.925782-20.5625 45.925782-45.921875 0-25.363281-20.5625-45.925781-45.925782-45.925781zm0 0" fill="#ffabcd"/><path d="m244.042969 53.425781c0 18.816407-15.253907 34.070313-34.074219 34.070313-18.816406 0-34.070312-15.253906-34.070312-34.070313 0-18.820312 15.253906-34.074219 34.070312-34.074219 18.820312 0 34.074219 15.253907 34.074219 34.074219zm0 0" fill="#ffc2e1"/><path d="m282.867188 278.667969c4.140624 0 7.5-3.359375 7.5-7.5v-12.453125c0-4.140625-3.359376-7.5-7.5-7.5-4.144532 0-7.5 3.359375-7.5 7.5v12.453125c0 4.140625 3.355468 7.5 7.5 7.5zm0 0"/><path d="m121.550781 278.667969c4.144531 0 7.5-3.359375 7.5-7.5v-12.453125c0-4.140625-3.355469-7.5-7.5-7.5-4.140625 0-7.5 3.359375-7.5 7.5v12.453125c0 4.140625 3.359375 7.5 7.5 7.5zm0 0"/><path d="m174.695312 277.097656c8.101563 6.28125 17.808594 9.421875 27.515626 9.421875 9.703124 0 19.410156-3.140625 27.511718-9.421875 3.273438-2.539062 3.867188-7.25 1.328125-10.523437-2.535156-3.273438-7.25-3.871094-10.519531-1.332031-10.789062 8.367187-25.855469 8.367187-36.640625 0-3.273437-2.539063-7.988281-1.941407-10.523437 1.332031-2.539063 3.273437-1.945313 7.984375 1.328124 10.523437zm0 0"/><path d="m314.398438 381.703125c1.453124-1.351563 24.199218-21.449219 37.796874-52.101563 29.15625-2.152343 52.222657-26.542968 52.222657-56.234374 0-23.949219-15.269531-45.121094-37.277344-53.066407v-40.921875c0-41.277344-15.332031-80.535156-43.269531-111.070312 1.375-4.730469 3.78125-22.960938-1.925782-35.320313-1.734374-3.761719-5.972656-5.644531-9.800781-4.058593-3.824219 1.585937-5.640625 5.972656-4.058593 9.796874 1.933593 4.660157 10.410156 50.269532-35.515626 53.121094-9.835937.613282-22.230468-3.519531-33.109374-9.152344 7.460937-7.519531 12.082031-17.863281 12.082031-29.269531 0-11.410156-4.621094-21.753906-12.082031-29.273437 10.878906-5.632813 23.253906-9.152344 33.109374-9.152344 6.578126 0 13.0625 1.6875 18.753907 4.878906 3.613281 2.023438 8.1875.738282 10.210937-2.875 2.023438-3.613281.738282-8.1875-2.875-10.210937-7.929687-4.445313-16.949218-6.792969-26.089844-6.792969-14.546874 0-32.582031 5.761719-47.082031 14.867188-4.800781-1.9375-10.035156-3.015626-15.519531-3.015626s-10.722656 1.078126-15.519531 3.015626c-14.5-9.105469-32.535157-14.867188-47.082031-14.867188-54.464844 0-53.398438 54.585938-53.378907 55.167969-36.09375 31.484375-56.710937 76.507812-56.710937 124.210937v40.910156c-22.230469 7.953126-37.277344 28.949219-37.277344 53.078126 0 29.691406 23.066406 54.082031 52.222656 56.234374 8.09375 17.59375 22.992188 42.363282 37.804688 52.109376-26.75 15.085937-50.925782 35.777343-71.984375 61.667968-10.308594 12.679688-12.34375 29.738282-5.3125 44.527344 7.074219 14.863281 21.675781 24.09375 38.113281 24.09375h302.730469c16.4375 0 31.039062-9.230469 38.109375-24.09375 7.035156-14.789062 5-31.847656-5.3125-44.527344-21.0625-25.898437-45.230469-46.597656-71.972656-61.675781zm75.019531-108.335937c0 19.160156-13.082031 35.316406-30.78125 40.019531 5.589843-16.660157 8.503906-34.269531 8.503906-52.304688v-24.4375c13.371094 7 22.277344 21.046875 22.277344 36.722657zm-152.875-219.941407c0 14.648438-11.921875 26.570313-26.574219 26.570313s-26.570312-11.921875-26.570312-26.570313c0-14.652343 11.917968-26.574219 26.570312-26.574219s26.574219 11.917969 26.574219 26.574219zm-89.175781-38.425781c9.859374 0 22.230468 3.519531 33.113281 9.152344-7.464844 7.519531-12.082031 17.863281-12.082031 29.273437 0 11.40625 4.617187 21.75 12.082031 29.269531-10.882813 5.632813-23.253907 9.152344-33.113281 9.152344-21.183594 0-38.421876-17.234375-38.421876-38.421875s17.238282-38.425781 38.421876-38.425781zm-132.367188 258.367188c0-15.808594 8.792969-29.78125 22.277344-36.757813v24.472656c0 18.035157 2.914062 35.644531 8.503906 52.304688-17.699219-4.703125-30.78125-20.859375-30.78125-40.019531zm37.277344-12.285157v-81.703125c0-40.441406 16.316406-78.773437 45.15625-106.984375 7.671875 20.117188 27.15625 34.453125 49.933594 34.453125 14.546874 0 32.582031-5.757812 47.082031-14.867187 4.800781 1.941406 10.035156 3.015625 15.519531 3.015625s10.722656-1.074219 15.519531-3.015625c14.5 9.109375 32.535157 14.867187 47.082031 14.867187 18.46875 0 34.773438-9.417968 44.371094-23.703125 22.769532 27.03125 35.199219 60.820313 35.199219 96.234375v81.703125c0 39.875-15.644531 77.476563-44.050781 105.882813-28.402344 28.402344-66.007813 44.046875-105.882813 44.046875-39.871093 0-77.476562-15.644531-105.882812-44.046875-28.402344-28.40625-44.046875-66.007813-44.046875-105.882813zm54.457031 174.230469c1.558594-10.394531 5.410156-22.003906 10.800781-32.789062 8.476563 5.113281 17.367188 9.425781 26.570313 12.910156 4.898437 18.234375 22.257812 32.230468 43.773437 35.835937-11.949218 8.261719-27.929687 15.132813-41.957031 18.007813-15.515625 3.171875-27.480469 1.5-33.691406-4.707032-7.480469-7.480468-6.65625-21.542968-5.496094-29.257812zm92.101563 1.871094c-14.925782 0-28.148438-6.261719-35.355469-15.769532 12.542969 3.03125 25.519531 4.597657 38.730469 4.597657 10.359374 0 20.574218-.96875 30.558593-2.847657-7.464843 8.554688-19.96875 14.019532-33.933593 14.019532zm179.304687 44.277344c-4.628906 9.730468-13.8125 15.539062-24.566406 15.539062h-302.730469c-10.75 0-19.9375-5.808594-24.5625-15.539062-4.59375-9.652344-3.320312-20.351563 3.402344-28.617188 21.144531-26 45.550781-46.410156 72.601562-60.746094.894532.6875 1.792969 1.367188 2.699219 2.03125-6.53125 12.644532-11.21875 26.519532-13.085937 38.960938-2.761719 18.40625.601562 32.960937 9.726562 42.085937 22.144531 22.140625 70.164062 5.835938 95.644531-12.160156 3-2.121094 6.828125-2.039063 9.878907 0 57.125 38.140625 88.011718 19.792969 95.648437 12.160156 7.40625-7.410156 11.082031-18.644531 10.621094-32.496093-.136719-4.140626-3.648438-7.382813-7.742188-7.25-4.140625.136718-7.386719 3.605468-7.25 7.746093.222657 6.691407-.679687 15.835938-6.238281 21.390625-6.210938 6.210938-18.175781 7.886719-33.6875 4.707032-21.832031-4.472657-43.277344-18.890626-43.566406-19.078126 18.046875-4.542968 32.503906-16.53125 37.828125-32.117187 11.90625-3.847656 23.34375-9.054687 34.117187-15.554687 2.140625 4.296874 4.074219 8.777343 5.699219 13.253906 1.105469 3.046875 4.785156 6.070312 9.609375 4.488281 3.933594-1.289063 5.902344-5.714844 4.488281-9.609375-2.03125-5.59375-4.496093-11.203125-7.242187-16.527344.90625-.664062 1.804687-1.34375 2.699218-2.03125 27.046876 14.332032 51.449219 34.734375 72.605469 60.746094 6.71875 8.265625 7.992188 18.964844 3.402344 28.617188zm0 0"/></svg>