<svg viewBox="0 0 512.00028 512" xmlns="http://www.w3.org/2000/svg"><path d="m43.242188 206.8125c-26.6875 10.265625-41.304688 39.085938-33.71875 66.660156 9.960937 36.1875 33.210937 87.789063 87.171874 141.761719 54.078126 54.089844 105.777344 77.324219 141.972657 87.253906 27.460937 7.53125 56.164062-6.910156 66.535156-33.4375l167.007813-427.246093zm0 0" fill="#ccf8ff"/><path d="m421.542969 171.421875 50.667969-129.617187-428.96875 165.007812c-26.6875 10.265625-41.304688 39.085938-33.714844 66.660156 9.957031 36.1875 33.207031 87.789063 87.167968 141.761719 3.148438 3.148437 6.285157 6.191406 9.417969 9.136719-30.46875-142.929688 156.398438-243.054688 223.761719-243.039063 37.195312.003907 69.863281-5.222656 91.667969-9.910156zm0 0" fill="#9ff6ff"/><path d="m223.179688 288.957031c-44.117188-44.128906-67.6875-86.65625-80.269532-120.484375l-77.792968 29.925782c7.179687 35.894531 28.480468 95.191406 90.957031 157.679687 62.515625 62.527344 121.84375 83.820313 157.722656 90.988281l30.347656-77.636718c-33.902343-12.535157-76.625-36.125-120.964843-80.472657zm0 0" fill="#ffc2e1"/><path d="m376.484375 286.695312 34.109375-87.261718c-17.132812-11.875-35.027344-26.542969-53.199219-44.71875-17.707031-17.710938-32.085937-35.160156-43.792969-51.898438l-87.675781 33.726563c14.003907 26.226562 34.46875 55.394531 64.363281 85.292969 30.242188 30.25 59.738282 50.839843 86.195313 64.859374zm0 0" fill="#b1ef97"/><path d="m439.921875 22.945312 9.453125-10.472656c9.421875-10.4375 26.730469-3.265625 26.011719 10.777344l-.71875 14.089844 14.085937-.71875c14.042969-.71875 21.210938 16.59375 10.773438 26.015625l-10.46875 9.453125 10.46875 9.453125c10.4375 9.425781 3.269531 26.738281-10.773438 26.019531l-14.085937-.71875.71875 14.089844c.71875 14.042968-16.59375 21.214844-26.011719 10.777344l-9.453125-10.472657-9.453125 10.472657c-9.421875 10.4375-26.730469 3.265624-26.011719-10.777344l.71875-14.089844-14.085937.71875c-14.039063.71875-21.210938-16.59375-10.773438-26.019531l10.46875-9.453125-10.46875-9.453125c-10.4375-9.421875-3.265625-26.734375 10.773438-26.015625l14.085937.71875-.71875-14.089844c-.71875-14.042969 16.59375-21.214844 26.011719-10.777344zm0 0" fill="#ffeb99"/><path d="m418.839844 122.636719 6.128906-5.53125c3.628906-3.277344 3.628906-8.976563 0-12.253907l-6.128906-5.535156c-12.871094-11.625-4.027344-32.976562 13.292968-32.09375l6.070313.3125c6.046875.308594 11.035156-4.683594 10.726563-10.730468l-.308594-6.070313c-.75-14.710937 14.523437-23.296875 26.265625-17.679687l.503906-9.804688c.714844-14.042969-16.59375-21.214844-26.015625-10.777344l-9.453125 10.472656-9.449219-10.472656c-9.421875-10.4375-26.734375-3.265625-26.015625 10.777344l.71875 14.089844-14.085937-.71875c-14.039063-.71875-21.210938 16.59375-10.773438 26.015625l10.46875 9.453125-10.46875 9.453125c-10.4375 9.425781-3.265625 26.738281 10.773438 26.019531l14.085937-.71875-.71875 14.089844c-.335937 6.625 3.335938 11.71875 8.300781 14.160156.257813-4.449219 2.15625-8.90625 6.082032-12.457031zm0 0" fill="#ffde55"/><path d="m185.617188 245.707031c-21.023438-28.210937-34.3125-54.660156-42.707032-77.234375l-77.792968 29.925782c5.710937 28.5625 20.382812 71.957031 57.605468 119.972656 15.203125-27.90625 37.753906-52.402344 62.894532-72.664063zm0 0" fill="#ffabcd"/><path d="m329.875 181.332031c19.074219 0 36.945312-1.371093 52.785156-3.34375-8.332031-7.039062-16.761718-14.769531-25.265625-23.273437-17.707031-17.710938-32.085937-35.160156-43.792969-51.898438l-87.675781 33.726563c10.089844 18.894531 23.542969 39.328125 41.449219 60.449219 24.484375-10.195313 46.765625-15.664063 62.5-15.660157zm0 0" fill="#92dd7a"/><path d="m312.1875 471.78125 131.164062-335.550781s7.066407 13.070312 25.699219 6.203125c9.027344-3.328125 14.316407-12.269532 13.828125-21.882813l-.296875-5.792969 5.789063.296876c9.609375.492187 18.195312-4.9375 21.878906-13.824219 3.679688-8.890625 1.425781-18.8125-5.695312-25.25l-4.304688-3.886719 4.304688-3.886719c7.144531-6.449219 9.378906-16.363281 5.695312-25.253906-3.683594-8.886719-12.269531-14.3125-21.878906-13.824219l-5.789063.296875.296875-5.792969c.492188-9.613281-4.9375-18.203124-13.828125-21.882812-8.886719-3.679688-18.796875-1.445312-25.242187 5.699219l-3.886719 4.304687-3.882813-4.304687c-6.453124-7.152344-16.355468-9.378907-25.246093-5.699219-8.886719 3.683594-14.316407 12.273438-13.824219 21.882812l.296875 5.792969-5.792969-.292969c-9.605468-.492187-17.964844 5.03125-21.875 13.820313-7.863281 17.660156 7.902344 27.246094 7.902344 27.246094l-336.949219 129.613281c-30.457031 11.714844-46.902343 44.238281-38.257812 75.648438 3.429687 12.457031 7.953125 25.085937 13.445312 37.539062.386719.875 4.039063 6.425781 9.886719 3.832031 3.789062-1.675781 5.507812-6.097656 3.835938-9.886719-5.195313-11.78125-9.472657-23.714843-12.703126-35.464843-6.59375-23.941407 5.953126-48.734375 29.175782-57.667969l13.738281-5.285156c9.316406 38.925781 32.847656 94.589844 91.097656 152.851562.011719.011719.019531.019532.03125.03125 58.242188 58.242188 113.890625 81.773438 152.820313 91.089844l-5.402344 13.820312c-9 23.027344-33.75 35.464844-57.566406 28.933594-33.527344-9.195312-84.785156-31.453125-138.625-85.296875-.007813-.003906-.019532-.019531-.027344-.023437-24.140625-24.148438-44.054688-49.890625-59.183594-76.503906-2.046875-3.609376-6.625-4.863282-10.226562-2.816407-3.597656 2.046875-4.859375 6.625-2.8125 10.226563 15.792968 27.785156 36.523437 54.601562 61.617187 79.699218.007813.007813.015625.015626.027344.027344 56.160156 56.160156 109.992187 79.480469 145.265625 89.152344 31.238281 8.566406 63.695312-7.742188 75.5-37.9375zm-89.6875-325.886719c15.914062 28.359375 36.910156 55.664063 62.484375 81.246094.011719.011719.023437.019531.035156.035156 8.710938 8.710938 17.734375 16.992188 26.816407 24.613281 3.175781 2.664063 7.902343 2.25 10.566406-.921874 2.660156-3.171876 2.25-7.890626-.925782-10.566407-8.75-7.34375-17.445312-15.328125-25.851562-23.734375-.011719-.007812-.023438-.019531-.03125-.03125-24.035156-24.039062-43.816406-49.601562-58.929688-76.089844l74.222657-28.550781c12 16.570313 25.824219 32.738281 41.207031 48.125.007812.007813.019531.015625.027344.027344 15.769531 15.769531 32.355468 29.898437 49.359375 42.105469l-28.871094 73.855468c-9.207031-5.210937-18.351563-11.007812-27.277344-17.304687-3.382812-2.386719-8.292969-1.734375-10.453125 1.800781-3.785156 6.210938 1.445313 10.199219 1.804688 10.453125 9.933594 7.011719 20.140625 13.433594 30.410156 19.15625l-27.214844 69.621094c-39.117187-15.691406-76.554687-41.238281-111.367187-76.054687-.007813-.007813-.019531-.015626-.027344-.027344-34.660156-34.664063-60.140625-71.9375-75.851563-110.882813zm145.511719-55.972656c-.441407 3.730469.050781 7.609375 1.582031 11.308594 3.683594 8.890625 12.273438 14.316406 21.878906 13.824219l5.789063-.296876-.292969 5.792969c-.335938 6.539063 2 17.050781 13.824219 21.882813 4.460937 1.824218 9.160156 2.203125 13.558593 1.207031l-17.230468 44.082031c-15.257813-11.210937-30.160156-24.046875-44.390625-38.277344-.011719-.011718-.019531-.019531-.03125-.03125-13.820313-13.824218-26.332031-28.289062-37.3125-43.09375zm17.328125-32.847656c-3.613282-3.269531-2.359375-7.242188-1.886719-8.378907.46875-1.136718 2.386719-4.835937 7.253906-4.585937l14.085938.71875c2.121093.109375 8.660156.796875 7.871093-7.871094l-.71875-14.089843c-.25-4.871094 3.449219-6.789063 4.585938-7.257813 1.136719-.472656 5.121094-1.71875 8.371094 1.886719l9.449218 10.472656c5.75 7.613281 9.714844 1.574219 11.136719 0l9.453125-10.472656c3.265625-3.617188 7.230469-2.359375 8.367188-1.890625 1.140625.472656 4.835937 2.390625 4.589844 7.261719l-.722657 14.089843c-.238281 8.101563 5.753907 7.980469 7.875 7.871094l14.085938-.71875c4.867187-.25 6.785156 3.445313 7.253906 4.585937.472656 1.136719 1.730469 5.109376-1.886719 8.375l-10.46875 9.453126c-6.445312 5.789062-1.585937 9.707031 0 11.132812l10.46875 9.453125c3.609375 3.265625 2.359375 7.238281 1.886719 8.378906-.46875 1.136719-2.386719 4.832031-7.253906 4.585938l-14.085938-.71875c-8.382812-.519531-7.980469 5.75-7.871093 7.871093l.71875 14.089844c.246093 4.871094-3.449219 6.785156-4.585938 7.257813-1.140625.472656-5.105469 1.742187-8.371094-1.890625l-9.453125-10.46875c-5.511719-5.535156-9.710937-1.574219-11.132812 0l-9.453125 10.46875c-3.265625 3.621094-7.230469 2.363281-8.367188 1.890625-1.140625-.472657-4.835937-2.390625-4.589844-7.257813l.722657-14.089844c.105469-2.121093.339843-8.167968-7.871094-7.871093l-14.089844.71875c-4.867187.25-6.78125-3.445313-7.253906-4.585938s-1.730469-5.109375 1.886719-8.378906l10.472656-9.453125c1.574219-1.421875 6.175781-5.722656 0-11.132812zm-223.933594 293.730469c-.007812-.007813-.023438-.023438-.027344-.03125-56.828125-56.832032-79.070312-110.683594-87.574218-147.679688l64.820312-24.9375c16.464844 40.910156 43.09375 79.9375 79.25 116.101562.015625.011719.019531.019532.03125.03125 36.292969 36.289063 75.457031 62.980469 116.511719 79.421876l-25.28125 64.675781c-37.003907-8.488281-90.867188-30.71875-147.730469-87.582031zm0 0"/></svg>