<svg viewBox="-5 0 512 512" xmlns="http://www.w3.org/2000/svg"><path d="m250.773438 53.554688c-121.339844 0-219.707032 138.40625-219.707032 259.746093 0 121.335938 98.367188 191.199219 219.707032 191.199219 121.335937 0 219.703124-69.863281 219.703124-191.199219 0-121.339843-98.367187-259.746093-219.703124-259.746093zm-111.554688 119.363281c32.136719-40.230469 72.796875-63.300781 111.550781-63.300781 38.757813 0 79.417969 23.070312 111.550781 63.300781 21.371094 26.746093 37.09375 58.496093 45.394532 90.453125 4.644531 17.882812-8.898438 35.328125-27.375 35.328125h-259.136719c-18.476563 0-32.023437-17.445313-27.375-35.328125 8.300781-31.953125 24.023437-63.703125 45.390625-90.453125zm113.898438 284.523437c-92.4375 0-135.761719-33.527344-153.007813-73.414062-5.808594-13.429688 4.066406-28.417969 18.703125-28.417969h268.613281c14.632813 0 24.507813 14.984375 18.699219 28.417969-17.246094 39.886718-60.570312 73.414062-153.007812 73.414062zm0 0" fill="#92dd7a"/><path d="m331.722656 88.449219c0 44.710937-36.242187 80.953125-80.949218 80.953125-44.707032 0-80.953126-36.242188-80.953126-80.953125 0-44.707031 36.246094-80.949219 80.953126-80.949219 44.707031 0 80.949218 36.242188 80.949218 80.949219zm0 0" fill="#ffeb99"/><path d="m169.398438 186.617188c0 44.707031-36.242188 80.949218-80.949219 80.949218s-80.949219-36.242187-80.949219-80.949218c0-44.707032 36.242188-80.949219 80.949219-80.949219s80.949219 36.242187 80.949219 80.949219zm0 0" fill="#ccf8ff"/><path d="m494.046875 186.617188c0 44.707031-36.246094 80.949218-80.953125 80.949218s-80.949219-36.242187-80.949219-80.949218c0-44.707032 36.242188-80.949219 80.949219-80.949219s80.953125 36.242187 80.953125 80.949219zm0 0" fill="#ffc2e1"/><path d="m79.394531 169.402344c0-24.578125 10.984375-46.59375 28.269531-61.4375-6.15625-1.5-12.597656-2.296875-19.214843-2.296875-44.707031 0-80.949219 36.242187-80.949219 80.949219 0 44.707031 36.242188 80.949218 80.949219 80.949218 20.132812 0 38.554687-7.351562 52.714843-19.515625-35.433593-8.621093-61.769531-40.5625-61.769531-78.648437zm0 0" fill="#9ff6ff"/><path d="m241.71875 71.234375c0-24.578125 10.980469-46.59375 28.265625-61.4375-6.15625-1.5-12.59375-2.296875-19.210937-2.296875-44.710938 0-80.953126 36.242188-80.953126 80.949219s36.246094 80.949219 80.953126 80.949219c20.128906 0 38.558593-7.359376 52.71875-19.519532-35.433594-8.621094-61.773438-40.554687-61.773438-78.644531zm0 0" fill="#ffde55"/><path d="m404.039062 169.402344c0-24.578125 10.984376-46.59375 28.273438-61.4375-6.15625-1.5-12.601562-2.296875-19.21875-2.296875-44.707031 0-80.949219 36.242187-80.949219 80.949219 0 44.707031 36.242188 80.949218 80.949219 80.949218 20.132812 0 38.558594-7.355468 52.722656-19.519531-35.433594-8.621094-61.777344-40.558594-61.777344-78.644531zm0 0" fill="#ffabcd"/><path d="m340.507812 368.410156h-179.46875c-13.894531 0-25.15625-11.261718-25.15625-25.15625v-33.601562c0-13.894532 11.261719-25.15625 25.15625-25.15625h179.46875c13.890626 0 25.15625 11.261718 25.15625 25.15625v33.601562c0 13.894532-11.265624 25.15625-25.15625 25.15625zm0 0" fill="#d0f4be"/><path d="m161.039062 284.496094c-13.894531 0-25.15625 11.261718-25.15625 25.15625v33.601562c0 13.894532 11.261719 25.15625 25.15625 25.15625h29.390626c9.078124-14.695312 21.609374-31.5 36.304687-41.957031 15.578125-11.082031 27.203125-27.984375 34.882813-41.957031zm0 0" fill="#b1ef97"/><path d="m501.546875 186.617188c0-20.222657-7.003906-39.992188-19.71875-55.671876-2.609375-3.21875-7.332031-3.710937-10.546875-1.101562-3.21875 2.605469-3.710938 7.332031-1.101562 10.546875 10.554687 13.015625 16.367187 29.433594 16.367187 46.226563 0 40.5-32.953125 73.449218-73.453125 73.449218s-73.449219-32.949218-73.449219-73.449218 32.949219-73.449219 73.449219-73.449219c12.230469 0 24.335938 3.0625 35.007812 8.859375 3.640626 1.976562 8.195313.628906 10.167969-3.011719 1.976563-3.636719.628907-8.191406-3.007812-10.167969-12.863281-6.988281-27.445313-10.683594-42.167969-10.683594-10.167969 0-19.941406 1.734376-29.046875 4.90625-14.773437-13.71875-30.550781-25.179687-47-34.144531-8.914063-39.40625-44.210937-68.925781-86.273437-68.925781s-77.359376 29.515625-86.273438 68.921875c-16.449219 8.960937-32.230469 20.421875-47.011719 34.148437-9.097656-3.171874-18.871093-4.902343-29.039062-4.902343-48.769531 0-88.449219 39.679687-88.449219 88.449219 0 26.761718 11.945312 50.78125 30.785156 67.015624-4.789062 20.21875-7.214844 40.269532-7.214844 59.664063 0 60.078125 23.199219 110.875 67.089844 146.902344 40.699219 33.402343 97.5625 51.800781 160.113282 51.800781 35.296874 0 68.429687-5.675781 98.472656-16.867188 3.882812-1.445312 5.855468-5.765624 4.410156-9.644531-1.445312-3.882812-5.765625-5.855469-9.644531-4.410156-28.363281 10.566406-59.734375 15.921875-93.238281 15.921875-59.089844 0-112.574219-17.1875-150.597657-48.394531-40.304687-33.082031-61.609375-79.871094-61.609375-135.304688 0-16.324219 1.84375-33.171875 5.46875-50.214843 12.324219 7.183593 26.527344 11.472656 41.679688 11.9375.925781 7.109374 3.984375 13.878906 8.886718 19.332031 6.765626 7.527343 16.464844 11.84375 26.597657 11.84375h7.367187c-.121094 1.136719-.058594 40.324219.175782 41.910156h-9.929688c-9.417969 0-18.125 4.699219-23.296875 12.566406-5.164063 7.859375-6.019531 17.703125-2.289063 26.328125 10.195313 23.578125 27.558594 42.175782 51.605469 55.273438 27.605469 15.039062 64.039063 22.664062 108.285157 22.664062 44.246093 0 80.679687-7.625 108.289062-22.664062 24.042969-13.097656 41.40625-31.695313 51.601562-55.273438 3.730469-8.625 2.875-18.46875-2.289062-26.328125-5.171875-7.867187-13.878906-12.566406-23.292969-12.566406h-14.625c.234375-1.585937.296875-40.773437.179688-41.910156h7.363281c10.128906 0 19.820312-4.3125 26.589844-11.832031 4.90625-5.453126 7.96875-12.230469 8.894531-19.34375 15.152344-.464844 29.359375-4.753907 41.679687-11.9375 3.625 17.042968 5.46875 33.894531 5.46875 50.214843 0 68.316407-32.640624 123.5625-91.914062 155.554688-3.644531 1.964843-5.003906 6.515625-3.039062 10.160156 1.359374 2.511719 3.941406 3.9375 6.609374 3.9375 1.203126 0 2.421876-.289063 3.554688-.898437 64.347656-34.730469 99.789062-94.664063 99.789062-168.753907 0-19.394531-2.425781-39.449219-7.214843-59.667969 18.835937-16.234374 30.785156-40.257812 30.785156-67.015624zm-132.355469-76.765626c-12.109375 6.953126-22.421875 16.691407-30.070312 28.332032-3.386719-2.859375-6.835938-5.570313-10.320313-8.113282 11.996094-24.402343 10.414063-42.234374 10.410157-42.542968 10.332031 6.378906 20.363281 13.84375 29.980468 22.324218zm-118.417968-94.851562c40.5 0 73.449218 32.949219 73.449218 73.449219s-32.949218 73.449219-73.449218 73.449219-73.453126-32.949219-73.453126-73.449219 32.949219-73.449219 73.453126-73.449219zm-88.4375 72.519531c-.003907.308594-.9375 21.804688 10.40625 42.542969-3.488282 2.546875-6.933594 5.261719-10.320313 8.121094-7.644531-11.636719-17.957031-21.375-30.066406-28.328125 9.625-8.484375 19.648437-15.957031 29.980469-22.335938zm-147.335938 99.097657c0-40.5 32.949219-73.449219 73.449219-73.449219s73.449219 32.949219 73.449219 73.449219-32.949219 73.449218-73.449219 73.449218-73.449219-32.949218-73.449219-73.449218zm372.425781 176.492187c4.410157 0 8.332031 2.113281 10.757813 5.804687 2.414062 3.679688 2.800781 8.101563 1.058594 12.136719-8.835938 20.429688-23.980469 36.597657-45.011719 48.054688-25.382813 13.828125-59.402344 20.839843-101.113281 20.839843-41.710938 0-75.730469-7.011718-101.109376-20.839843-21.035156-11.457031-36.179687-27.625-45.015624-48.054688-1.742188-4.035156-1.355469-8.457031 1.0625-12.136719 2.421874-3.6875 6.34375-5.804687 10.757812-5.804687h16.324219c5.972656 7.773437 15.359375 12.800781 25.902343 12.800781h179.46875c10.539063 0 19.925782-5.027344 25.898438-12.800781zm-7.085937-71.910156h-12.910156c-5.890626-8.570313-15.761719-14.203125-26.921876-14.203125h-129.757812c-4.140625 0-7.5 3.355468-7.5 7.5 0 4.140625 3.359375 7.5 7.5 7.5h129.757812c9.734376 0 17.65625 7.917968 17.65625 17.65625v33.601562c0 9.734375-7.921874 17.65625-17.65625 17.65625h-179.46875c-9.738281 0-17.65625-7.921875-17.65625-17.65625v-33.601562c0-9.738282 7.917969-17.65625 17.65625-17.65625h18.570313c4.144531 0 7.5-3.359375 7.5-7.5 0-4.144532-3.355469-7.5-7.5-7.5h-18.570313c-11.164062 0-21.035156 5.632812-26.925781 14.203125h-12.910156c-5.976563 0-11.460937-2.441407-15.449219-6.875-2.59375-2.886719-4.300781-6.402344-4.992187-10.117188 42.964843-6.011719 76.136719-42.996093 76.136719-87.589843 0-12.394532-2.566407-24.199219-7.191407-34.917969 3.671875-3.210938 7.425781-6.234375 11.226563-9.039063 16.195312 20.820313 41.476562 34.238282 69.839844 34.238282 28.359374 0 53.640624-13.417969 69.839843-34.238282 3.796875 2.804688 7.550781 5.828125 11.222657 9.039063-4.625 10.71875-7.191407 22.523437-7.191407 34.917969 0 44.59375 33.171875 81.578124 76.136719 87.589843-.691406 3.714844-2.398438 7.234375-5 10.125-3.984375 4.429688-9.46875 6.867188-15.441406 6.867188zm0 0"/></svg>