<svg viewBox="-11 0 512 512" xmlns="http://www.w3.org/2000/svg"><path d="m23.8125 120.40625h44.925781v295.796875h-44.925781zm0 0" fill="#d8d7da"/><path d="m155.476562 120.40625h44.925782v295.796875h-44.925782zm0 0" fill="#d8d7da"/><path d="m112.109375 7.5c-57.535156 0-104.609375 47.074219-104.609375 104.609375v51.972656c0 17.859375 19.289062 29.121094 34.796875 20.257813 21.363281-12.210938 48.601563-24.851563 69.808594-24.851563 21.210937 0 48.449219 12.640625 69.8125 24.851563 15.507812 8.863281 34.796875-2.398438 34.796875-20.257813v-51.972656c0-57.535156-47.074219-104.609375-104.605469-104.609375zm0 0" fill="#9ff6ff"/><path d="m68.738281 416.203125v-141.722656c-16.351562 5.011719-31.507812 12.785156-44.925781 22.769531v118.953125zm0 0" fill="#c6c5ca"/><path d="m200.40625 416.203125v-118.953125c-13.417969-9.984375-28.578125-17.757812-44.929688-22.769531v141.722656zm0 0" fill="#c6c5ca"/><path d="m112.109375 327.90625c-48.765625 0-88.296875 39.53125-88.296875 88.296875s39.53125 88.296875 88.296875 88.296875c48.761719 0 88.296875-39.53125 88.296875-88.296875s-39.535156-88.296875-88.296875-88.296875zm0 131.664062c-23.914063 0-43.371094-19.453124-43.371094-43.367187s19.457031-43.367187 43.371094-43.367187c23.910156 0 43.367187 19.453124 43.367187 43.367187s-19.457031 43.367187-43.367187 43.367187zm0 0" fill="#eaeaea"/><path d="m82.9375 97.464844c-6.835938-39.347656 5.558594-70.707032 16.238281-89.164063-51.476562 6.433594-91.675781 50.660157-91.675781 103.804688v51.976562c0 17.859375 19.289062 29.117188 34.796875 20.257813 20.9375-11.964844 47.476563-24.34375 68.488281-24.835938-10.1875-14.515625-21.789062-27.152344-27.847656-62.039062zm0 0" fill="#7de7ff"/><path d="m290.382812 120.40625h44.929688v295.796875h-44.929688zm0 0" fill="#d8d7da"/><path d="m422.046875 120.40625h44.929687v295.796875h-44.929687zm0 0" fill="#d8d7da"/><path d="m378.679688 7.5c-57.535157 0-104.605469 47.074219-104.605469 104.605469v51.976562c0 17.859375 19.289062 29.117188 34.792969 20.257813 21.367187-12.210938 48.605468-24.851563 69.8125-24.851563 21.207031 0 48.445312 12.640625 69.8125 24.851563 15.503906 8.859375 34.792968-2.398438 34.792968-20.257813v-51.976562c.003906-57.53125-47.070312-104.605469-104.605468-104.605469zm0 0" fill="#ffc2e1"/><path d="m335.3125 416.203125v-141.722656c-16.351562 5.011719-31.511719 12.785156-44.929688 22.769531v118.953125zm0 0" fill="#c6c5ca"/><path d="m466.976562 416.203125v-118.953125c-13.417968-9.984375-28.578124-17.757812-44.929687-22.769531v141.722656zm0 0" fill="#c6c5ca"/><path d="m378.679688 327.90625c-48.765626 0-88.296876 39.53125-88.296876 88.296875s39.53125 88.296875 88.296876 88.296875c48.765624 0 88.296874-39.53125 88.296874-88.296875s-39.53125-88.296875-88.296874-88.296875zm0 131.664062c-23.914063 0-43.367188-19.453124-43.367188-43.367187s19.453125-43.367187 43.367188-43.367187c23.914062 0 43.367187 19.453124 43.367187 43.367187s-19.453125 43.367187-43.367187 43.367187zm0 0" fill="#eaeaea"/><path d="m349.507812 97.464844c-6.832031-39.347656 5.558594-70.707032 16.238282-89.164063-51.476563 6.433594-91.675782 50.660157-91.675782 103.804688v51.976562c0 17.859375 19.292969 29.117188 34.796876 20.257813 20.9375-11.964844 47.476562-24.34375 68.492187-24.835938-10.1875-14.515625-21.789063-27.152344-27.851563-62.039062zm0 0" fill="#ffabcd"/><path d="m189.6875 41.730469c-3.253906 2.558593-3.816406 7.273437-1.253906 10.53125 13.59375 17.273437 20.78125 37.96875 20.78125 59.847656v51.976563c0 5.699218-2.945313 10.816406-7.882813 13.683593-4.910156 2.847657-10.773437 2.867188-15.691406.058594-30-17.144531-54.738281-25.835937-73.53125-25.835937s-43.53125 8.691406-73.535156 25.835937c-4.914063 2.8125-10.78125 2.789063-15.6875-.0625-4.9375-2.863281-7.882813-7.976563-7.882813-13.679687v-51.976563c-.003906-53.546875 43.558594-97.109375 97.105469-97.109375 19.964844 0 39.179687 6.085938 55.570313 17.601562 3.386718 2.382813 8.066406 1.5625 10.449218-1.824218 2.378906-3.390625 1.5625-8.066406-1.828125-10.449219-18.925781-13.300781-41.125-20.328125-64.191406-20.328125-61.820313 0-112.109375 50.289062-112.109375 112.105469v51.976562c0 22.535157 15.992188 27 16.3125 27.171875v154.089844c0 4.140625 3.355469 7.5 7.5 7.5 4.140625 0 7.5-3.359375 7.5-7.5v-150.417969c14.960938 0 25.027344-9.792969 29.925781-12.242187v152.378906c-26.964843 16.96875-44.925781 46.996094-44.925781 81.140625 0 52.820313 42.972656 95.796875 95.796875 95.796875 52.820313 0 95.796875-42.976562 95.796875-95.796875 0-1.984375 0-224.949219 0-224.949219.316406-.171875 16.308594-3.824218 16.308594-27.171875v-51.976562c0-25.277344-8.296875-49.179688-23.992188-69.125-2.5625-3.25-7.28125-3.816407-10.535156-1.25zm-113.449219 134.097656c14.113281-5.8125 26.261719-8.839844 35.871094-8.839844 9.605469 0 21.753906 3.027344 35.867187 8.839844v151.550781c-11.085937-4.492187-23.191406-6.972656-35.867187-6.972656-12.679687 0-24.785156 2.480469-35.871094 6.972656zm35.871094 321.171875c-44.554687 0-80.796875-36.246094-80.796875-80.796875s36.242188-80.796875 80.796875-80.796875c44.550781 0 80.796875 36.246094 80.796875 80.796875s-36.246094 80.796875-80.796875 80.796875zm50.867187-161.9375v-152.378906c4.898438 2.449218 16.15625 12.238281 29.925782 12.238281v169.867187c-7.648438-11.980468-17.890625-22.152343-29.925782-29.726562zm0 0"/><path d="m112.109375 365.335938c-28.050781 0-50.871094 22.820312-50.871094 50.867187 0 28.050781 22.820313 50.867187 50.871094 50.867187 28.046875 0 50.867187-22.816406 50.867187-50.867187 0-28.046875-22.820312-50.867187-50.867187-50.867187zm0 86.734374c-19.78125 0-35.871094-16.089843-35.871094-35.867187s16.089844-35.867187 35.871094-35.867187c19.777344 0 35.867187 16.089843 35.867187 35.867187s-16.089843 35.867187-35.867187 35.867187zm0 0"/><path d="m378.679688 0c-61.816407 0-112.105469 50.289062-112.105469 112.105469v51.976562c0 21.632813 15.992187 27 16.308593 27.171875v224.949219c0 52.820313 42.976563 95.796875 95.796876 95.796875 21 0 40.9375-6.667969 57.65625-19.285156 3.304687-2.492188 3.960937-7.195313 1.46875-10.503906-2.496094-3.304688-7.199219-3.964844-10.503907-1.46875-14.097656 10.636718-30.910156 16.257812-48.621093 16.257812-44.550782 0-80.796876-36.246094-80.796876-80.796875s36.246094-80.796875 80.796876-80.796875c44.550781 0 80.796874 36.246094 80.796874 80.796875 0 14.871094-4.070312 29.402344-11.773437 42.023437-2.15625 3.535157-1.039063 8.152344 2.496094 10.308594 3.535156 2.15625 8.152343 1.042969 10.308593-2.496094 9.140626-14.972656 13.96875-32.207031 13.96875-49.835937 0-1.984375 0-224.949219 0-224.949219.320313-.171875 16.3125-6.695312 16.3125-27.171875v-51.976562c0-61.816407-50.292968-112.105469-112.109374-112.105469zm-80.796876 364.789062v-169.863281c14.964844 0 25.03125-9.792969 29.929688-12.242187v152.378906c-12.035156 7.574219-22.277344 17.746094-29.929688 29.726562zm44.929688-37.410156v-151.550781c14.113281-5.8125 26.261719-8.839844 35.867188-8.839844 9.609374 0 21.753906 3.027344 35.867187 8.839844v151.550781c-11.082031-4.492187-23.191406-6.972656-35.867187-6.972656-12.675782 0-24.78125 2.480469-35.867188 6.972656zm86.734375 7.6875v-152.382812c4.898437 2.449218 16.5 12.242187 29.929687 12.242187v169.863281c-7.652343-11.980468-17.890624-22.152343-29.929687-29.722656zm46.242187-170.984375c0 5.703125-2.949218 10.820313-7.886718 13.683594-4.910156 2.851563-10.773438 2.871094-15.6875.0625-30.003906-17.144531-54.742188-25.839844-73.535156-25.839844-18.792969 0-43.53125 8.695313-73.53125 25.839844-4.917969 2.8125-10.785157 2.785156-15.691407-.0625-4.9375-2.863281-7.882812-7.980469-7.882812-13.683594v-51.976562c0-53.542969 43.5625-97.105469 97.105469-97.105469 53.546874 0 97.109374 43.5625 97.109374 97.105469zm0 0"/><path d="m327.8125 416.203125c0 28.050781 22.820312 50.867187 50.867188 50.867187 28.046874 0 50.867187-22.816406 50.867187-50.867187 0-28.046875-22.820313-50.867187-50.867187-50.867187-28.046876 0-50.867188 22.820312-50.867188 50.867187zm86.734375 0c0 19.777344-16.089844 35.867187-35.867187 35.867187-19.777344 0-35.867188-16.089843-35.867188-35.867187s16.089844-35.867187 35.867188-35.867187c19.777343 0 35.867187 16.089843 35.867187 35.867187zm0 0"/></svg>