<svg viewBox="-26 0 512 512" xmlns="http://www.w3.org/2000/svg"><path d="m336.945312 29.753906c-18.964843-4.933594-38.84375 2.691406-49.984374 18.8125-11.222657 16.242188-29.632813 33.496094-57.199219 33.496094-27.5625 0-45.972657-17.253906-57.199219-33.496094-11.136719-16.121094-31.015625-23.746094-49.980469-18.8125l-83.238281 21.65625c-20.710938 5.390625-34.199219 25.316406-31.503906 46.542969l6.125 48.285156c3.25 25.621094 28.386718 42.464844 53.320312 35.726563l16.359375-4.417969 146.117188 17.167969 146.117187-17.167969 16.359375 4.417969c24.933594 6.738281 50.074219-10.105469 53.324219-35.726563l6.125-48.285156c2.691406-21.226563-10.796875-41.15625-31.503906-46.542969zm0 0" fill="#ccf8ff"/><path d="m222.0625 81.601562c-23.339844-2.847656-39.351562-18.355468-49.5-33.035156-11.136719-16.125-31.015625-23.746094-49.980469-18.8125l-83.238281 21.65625c-20.710938 5.390625-34.199219 25.316406-31.503906 46.542969l6.125 48.285156c3.25 25.621094 28.386718 42.464844 53.320312 35.726563l16.359375-4.417969 125.703125 14.769531c-4.019531-52.734375 3.707032-88.195312 12.714844-110.714844zm0 0" fill="#9ff6ff"/><path d="m375.878906 177.546875-24.019531-64.613281h-240.726563l-27.488281 64.613281-48.179687 241.492187c-6.496094 32.550782 14.605468 64.140626 47.128906 70.746094 36.3125 7.375 87.449219 14.714844 147.167969 14.714844 59.722656 0 110.855469-7.339844 147.171875-14.714844 32.523437-6.605468 53.625-38.199218 47.128906-70.746094zm0 0" fill="#ffabcd"/><path d="m111.132812 112.933594-27.488281 64.613281-48.179687 241.492187c-6.496094 32.550782 14.605468 64.140626 47.128906 70.746094 16.550781 3.363282 36.1875 6.71875 58.308594 9.371094 15.691406-28.519531 86.941406-165.8125 71.238281-280.789062-6.195313-45.347657-4.269531-79.800782.824219-105.433594zm0 0" fill="#ff8fb4"/><path d="m111.132812 218.367188c-14.71875 0-26.761718-12.046876-26.761718-26.765626v-157.335937c0-14.722656 12.042968-26.765625 26.761718-26.765625s26.765626 12.042969 26.765626 26.765625v157.335937c0 14.71875-12.046876 26.765626-26.765626 26.765626zm0 0" fill="#ffabcd"/><path d="m348.394531 218.367188c-14.722656 0-26.765625-12.046876-26.765625-26.765626v-157.335937c0-14.722656 12.042969-26.765625 26.765625-26.765625 14.71875 0 26.761719 12.042969 26.761719 26.765625v157.335937c0 14.71875-12.042969 26.765626-26.761719 26.765626zm0 0" fill="#ffc2e1"/><path d="m249.296875 289.054688c37.539063-65.019532-76.605469-65.019532-39.070313 0-37.535156-65.019532-94.605468 33.832031-19.53125 33.832031-75.074218 0-18.003906 98.851562 19.53125 33.835937-37.535156 65.015625 76.609376 65.015625 39.070313 0 37.539063 65.015625 94.609375-33.835937 19.535156-33.835937 75.074219 0 18.003907-98.847657-19.535156-33.832031zm0 0" fill="#ffeb99"/><path d="m214.257812 244.257812c-11.476562 6.632813-17.4375 21.566407-4.027343 44.792969-37.539063-65.015625-94.609375 33.835938-19.535157 33.835938-64.40625 0-31.550781 72.753906 2.785157 52.378906 12.675781-40.800781 22.125-86.796875 20.777343-131.007813zm0 0" fill="#ffde55"/><path d="m254.261719 322.886719c0 13.53125-10.96875 24.5-24.5 24.5-13.527344 0-24.496094-10.96875-24.496094-24.5 0-13.527344 10.96875-24.496094 24.496094-24.496094 13.53125 0 24.5 10.96875 24.5 24.496094zm0 0" fill="#eac2ff"/><path d="m146.902344 343.105469c-2.9375 16.667969 8.015625 35.644531 23.921875 41.433593 4.734375 1.722657 13.882812 3.644532 24.214843-1.507812.707032 11.523438 6.941407 18.484375 10.800782 21.726562 6.484375 5.4375 15.203125 8.15625 23.921875 8.15625s17.4375-2.71875 23.921875-8.15625c3.859375-3.242187 10.097656-10.203124 10.800781-21.726562 10.335937 5.148438 19.480469 3.230469 24.214844 1.507812 15.90625-5.789062 26.863281-24.765624 23.925781-41.433593-.878906-4.964844-3.785156-13.84375-13.414062-20.21875 9.628906-6.371094 12.535156-15.253907 13.414062-20.214844 2.9375-16.671875-8.019531-35.644531-23.925781-41.433594-4.730469-1.726562-13.878907-3.648437-24.214844 1.503907-.703125-11.523438-6.9375-18.484376-10.800781-21.722657-12.96875-10.878906-34.875-10.878906-47.84375 0-3.859375 3.238281-10.09375 10.199219-10.800782 21.722657-10.332031-5.148438-19.480468-3.230469-24.214843-1.503907-15.90625 5.789063-26.859375 24.761719-23.921875 41.433594.875 4.960937 3.785156 13.84375 13.414062 20.214844-9.628906 6.375-12.539062 15.253906-13.414062 20.21875zm43.792968-27.71875c-16.972656 0-27.277343-5.441407-29.019531-15.320313-1.695312-9.605468 5.113281-21.394531 14.28125-24.730468 9.425781-3.429688 19.292969 2.769531 27.777344 17.46875 2.070313 3.589843 6.65625 4.816406 10.246094 2.746093 2.40625-1.390625 5.703125-5.085937 2.742187-10.246093-8.441406-14.722657-8.925781-26.34375-1.238281-32.792969 7.472656-6.269531 21.085937-6.269531 28.558594 0 7.683593 6.449219 7.382812 18.175781-1.242188 32.792969-2.628906 4.460937.339844 8.855468 2.746094 10.246093 3.585937 2.066407 8.175781.839844 10.246094-2.746093 8.484375-14.699219 18.355469-20.898438 27.777343-17.46875 9.167969 3.335937 15.976563 15.125 14.28125 24.730468-1.742187 9.878906-12.050781 15.320313-29.019531 15.320313-4.144531 0-7.5 3.359375-7.5 7.5 0 4.144531 3.355469 7.5 7.5 7.5 16.96875 0 27.273438 5.441406 29.019531 15.324219 1.691407 9.605468-5.113281 21.394531-14.28125 24.730468-9.421874 3.429688-19.292968-2.769531-27.777343-17.46875-2.070313-3.589844-6.660157-4.816406-10.246094-2.746094-2.40625 1.390626-5.066406 5.652344-2.746094 10.246094 7.652344 15.148438 8.925781 26.34375 1.242188 32.792969-7.472657 6.269531-21.085938 6.269531-28.558594 0-7.6875-6.449219-7.308594-18.132813 1.238281-32.792969 2.566406-4.402344-.335937-8.855468-2.742187-10.246094-3.589844-2.070312-8.175781-.84375-10.246094 2.746094-8.484375 14.695313-18.351563 20.898438-27.777344 17.46875-9.167969-3.335937-15.976562-15.125-14.28125-24.730468 1.742188-9.882813 12.046875-15.324219 29.019531-15.324219 4.140626 0 7.5-3.355469 7.5-7.5 0-4.140625-3.359374-7.5-7.5-7.5zm0 0"/><path d="m422.070312 44.152344-39.421874-10.257813c-.203126-18.722656-15.488282-33.894531-34.253907-33.894531-14.382812 0-26.714843 8.910156-31.789062 21.496094-14.449219 2.367187-27.289063 10.46875-35.8125 22.804687-13.875 20.082031-31.042969 30.261719-51.03125 30.261719-19.984375 0-37.152344-10.179688-51.027344-30.261719-8.519531-12.328125-21.363281-20.429687-35.8125-22.800781-5.074219-12.589844-17.40625-21.5-31.789063-21.5-18.769531 0-34.054687 15.171875-34.253906 33.894531l-39.425781 10.257813c-24.28125 6.316406-40.214844 29.855468-37.054687 54.746094l6.125 48.285156c1.824218 14.363281 9.84375 27.109375 21.796874 35.285156 20.210938 13.824219 45.601563 5.472656 45.601563 5.472656l-45.8125 229.628906c-7.273437 36.457032 16.496094 72.148438 52.992187 79.5625 33.382813 6.78125 86.269532 14.867188 148.660157 14.867188s115.28125-8.085938 148.664062-14.863281c36.492188-7.414063 60.265625-43.105469 52.992188-79.566407l-11.019531-55.226562c-.808594-4.0625-4.765626-6.699219-8.824219-5.890625-4.058594.8125-6.695313 4.761719-5.886719 8.824219l11.019531 55.230468c5.664063 28.375-12.851562 56.152344-41.269531 61.925782-32.707031 6.644531-84.53125 14.566406-145.675781 14.566406-61.140625 0-112.964844-7.921875-145.671875-14.566406-28.417969-5.773438-46.933594-33.550782-41.269532-61.925782l41.4375-207.691406c6.28125 7.9375 15.988282 13.046875 26.875 13.046875 18.894532 0 34.265626-15.371093 34.265626-34.261719v-71.167968h168.730468v71.167968c0 18.890626 15.371094 34.261719 34.265625 34.261719 10.886719 0 20.59375-5.109375 26.875-13.046875l24.339844 121.992188c.710937 3.5625 3.410156 6.453125 8.824219 5.886718 4.117187-.429687 6.695312-4.761718 5.886718-8.824218l-28.71875-143.929688s22.980469 9.132813 45.605469-5.472656c12.164063-7.851562 19.972657-20.921875 21.796875-35.285156l6.125-48.285156c3.15625-24.894532-12.773437-48.429688-37.058594-54.746094zm-291.671874 147.449218c0 10.625-8.644532 19.265626-19.265626 19.265626-10.621093 0-19.261718-8.640626-19.261718-19.265626v-84.703124c0-4.144532-3.359375-7.5-7.5-7.5-4.144532 0-7.5 3.355468-7.5 7.5v64.710937s-23.449219 8.722656-40.203125-1.601563c-8.632813-5.320312-13.988281-14.652343-15.265625-24.710937l-6.125-48.289063c-2.210938-17.433593 8.945312-33.914062 25.953125-38.335937l35.636719-9.273437v25.457031c0 4.144531 3.359374 7.5 7.5 7.5 4.144531 0 7.5-3.355469 7.5-7.5v-40.589844c0-10.621094 8.644531-19.265625 19.265624-19.265625 10.621094 0 19.261719 8.644531 19.261719 19.265625v157.335937zm15-86.167968v-68.003906c8.417968 2.539062 15.804687 7.890624 20.996093 15.398437 16.605469 24.03125 38.519531 36.734375 63.367188 36.734375 24.851562 0 46.765625-12.703125 63.371093-36.734375 5.191407-7.511719 12.578126-12.859375 20.996094-15.398437v68.003906zm222.257812 86.167968c0 10.625-8.640625 19.265626-19.265625 19.265626-10.621094 0-19.261719-8.640626-19.261719-19.265626v-157.335937c0-10.621094 8.640625-19.265625 19.261719-19.265625 10.625 0 19.265625 8.644531 19.265625 19.265625zm76.589844-94.59375-6.125 48.289063c-1.277344 10.058594-6.945313 18.914063-15.265625 24.710937-17.003907 11.839844-40.199219 1.601563-40.199219 1.601563v-122.210937l35.640625 9.273437c17.003906 4.421875 28.160156 20.902344 25.949219 38.335937zm0 0"/></svg>