<svg viewBox="-69 0 512 512" xmlns="http://www.w3.org/2000/svg"><path d="m68.578125 274.386719c-21.738281 0-39.527344-17.789063-39.527344-39.53125v-187.824219c0-21.742188 17.789063-39.53125 39.527344-39.53125 21.742187 0 39.53125 17.789062 39.53125 39.53125v187.824219c0 21.742187-17.789063 39.53125-39.53125 39.53125zm0 0" fill="#ffeb99"/><path d="m29.050781 114.550781v120.304688c0 21.742187 17.789063 39.53125 39.527344 39.53125 21.742187 0 39.53125-17.789063 39.53125-39.53125v-173.023438c-21.222656 7.585938-51.015625 22.761719-79.058594 52.71875zm0 0" fill="#ffde55"/><path d="m256.589844 504.5c41.28125 0 77.429687-27.667969 88.25-67.507812 15.484375-57.011719 20.871094-116.023438 20.871094-155.183594 0-98.917969-80.1875-179.105469-179.105469-179.105469s-179.105469 80.1875-179.105469 179.105469c0 39.160156 5.382812 98.171875 20.867188 155.183594 10.820312 39.839843 46.972656 67.507812 88.253906 67.507812zm0 0" fill="#ccf8ff"/><path d="m110.722656 256c-9.136718-61.632812 12.023438-116.546875 27.394532-146.65625-75.355469 21.144531-130.617188 90.351562-130.617188 172.464844 0 39.160156 5.382812 98.171875 20.867188 155.183594 10.820312 39.839843 46.96875 67.507812 88.25 67.507812h139.972656c1.996094 0 3.976562-.085938 5.949218-.210938-41.265624-148.503906-139.523437-165.359374-151.816406-248.289062zm0 0" fill="#9ff6ff"/><path d="m311.699219 380.585938c-40.507813-41.984376-57.277344-105.097657-125.09375-106.199219-67.816407 1.101562-84.589844 64.210937-125.097657 106.199219-12.011718 12.449218-26.25 20.84375-40.34375 26.492187 2.113282 9.957031 4.5 19.964844 7.203126 29.914063 10.820312 39.839843 46.96875 67.507812 88.25 67.507812h139.972656c41.28125 0 77.429687-27.667969 88.25-67.507812 2.699218-9.949219 5.089844-19.957032 7.199218-29.914063-14.085937-5.648437-28.328124-14.042969-40.339843-26.492187zm0 0" fill="#ffeb99"/><path d="m126.695312 298.5c-24.347656 22.464844-40.277343 56.269531-65.1875 82.085938-12.011718 12.449218-26.25 20.84375-40.34375 26.492187 2.113282 9.957031 4.5 19.964844 7.203126 29.914063 10.820312 39.839843 46.96875 67.507812 88.25 67.507812h139.972656c1.996094 0 3.984375-.066406 5.953125-.191406-33.203125-119.496094-103.320313-153.777344-135.847657-205.808594zm0 0" fill="#ffde55"/><path d="m292.804688 274.386719c0 58.652343-47.546876 106.199219-106.199219 106.199219-58.65625 0-106.203125-47.546876-106.203125-106.199219 0-58.65625 47.546875-106.203125 106.203125-106.203125 58.652343 0 106.199219 47.546875 106.199219 106.203125zm0 0" fill="#d8d7da"/><g fill="#acabb1"><path d="m226.246094 320.671875c0 8.28125-6.71875 15-15 15-8.285156 0-15-6.71875-15-15 0-8.285156 6.714844-15 15-15 8.28125 0 15 6.714844 15 15zm0 0"/><path d="m176.964844 320.671875c0 8.28125-6.71875 15-15 15-8.285156 0-15-6.71875-15-15 0-8.285156 6.714844-15 15-15 8.28125 0 15 6.714844 15 15zm0 0"/><path d="m250.886719 274.386719c0 8.28125-6.714844 15-15 15-8.285157 0-15-6.71875-15-15 0-8.285157 6.714843-15 15-15 8.285156 0 15 6.714843 15 15zm0 0"/><path d="m201.605469 274.386719c0 8.28125-6.71875 15-15 15-8.285157 0-15-6.71875-15-15 0-8.285157 6.714843-15 15-15 8.28125 0 15 6.714843 15 15zm0 0"/><path d="m152.320312 274.386719c0 8.28125-6.714843 15-15 15-8.28125 0-15-6.71875-15-15 0-8.285157 6.71875-15 15-15 8.285157 0 15 6.714843 15 15zm0 0"/><path d="m226.246094 228.101562c0 8.285157-6.71875 15-15 15-8.285156 0-15-6.714843-15-15 0-8.285156 6.714844-15 15-15 8.28125 0 15 6.714844 15 15zm0 0"/><path d="m176.964844 228.101562c0 8.285157-6.71875 15-15 15-8.285156 0-15-6.714843-15-15 0-8.285156 6.714844-15 15-15 8.28125 0 15 6.714844 15 15zm0 0"/></g><path d="m135.835938 430.601562c0 13.871094-11.242188 25.113282-25.113282 25.113282s-25.117187-11.242188-25.117187-25.113282c0-13.871093 11.246093-25.117187 25.117187-25.117187s25.113282 11.246094 25.113282 25.117187zm0 0" fill="#ff8fb4"/><path d="m230.503906 455.714844h-43.425781c-13.8125 0-25.117187-11.300782-25.117187-25.113282 0-13.816406 11.304687-25.117187 25.117187-25.117187h43.425781c13.8125 0 25.117188 11.300781 25.117188 25.117187 0 13.8125-11.304688 25.113282-25.117188 25.113282zm0 0" fill="#ffabcd"/><path d="m217.136719 405.484375h-30.058594c-13.8125 0-25.113281 11.300781-25.113281 25.117187 0 13.8125 11.300781 25.113282 25.113281 25.113282h43.425781c4.785156 0 9.273438-1.359375 13.089844-3.703125-8.113281-17.6875-17.097656-32.96875-26.457031-46.527344zm0 0" fill="#ff8fb4"/><path d="m186.605469 380.585938c3.742187 0 7.433593-.191407 11.078125-.570313-39.332032-47.003906-79.402344-73.019531-86.960938-124.015625-2.847656-19.195312-2.753906-37.734375-.8125-55.078125-18.277344 19.074219-29.507812 44.957031-29.507812 73.464844 0 58.652343 47.546875 106.199219 106.203125 106.199219zm0 0" fill="#c6c5ca"/><path d="m211.246094 298.171875c-12.40625 0-22.5 10.09375-22.5 22.5 0 12.402344 10.09375 22.5 22.5 22.5s22.5-10.097656 22.5-22.5c0-12.40625-10.09375-22.5-22.5-22.5zm0 30c-4.136719 0-7.5-3.367187-7.5-7.5 0-4.136719 3.363281-7.5 7.5-7.5 4.136718 0 7.5 3.363281 7.5 7.5 0 4.132813-3.363282 7.5-7.5 7.5zm0 0"/><path d="m161.960938 298.171875c-12.40625 0-22.5 10.09375-22.5 22.5 0 12.402344 10.09375 22.5 22.5 22.5s22.5-10.097656 22.5-22.5c0-12.40625-10.09375-22.5-22.5-22.5zm0 30c-4.136719 0-7.5-3.367187-7.5-7.5 0-4.136719 3.363281-7.5 7.5-7.5 4.136718 0 7.5 3.363281 7.5 7.5 0 4.132813-3.363282 7.5-7.5 7.5zm0 0"/><path d="m235.886719 251.886719c-12.40625 0-22.5 10.09375-22.5 22.5s10.09375 22.5 22.5 22.5 22.5-10.09375 22.5-22.5-10.09375-22.5-22.5-22.5zm0 30c-4.136719 0-7.5-3.363281-7.5-7.5s3.363281-7.5 7.5-7.5 7.5 3.363281 7.5 7.5-3.363281 7.5-7.5 7.5zm0 0"/><path d="m209.105469 274.386719c0-12.40625-10.09375-22.5-22.5-22.5s-22.5 10.09375-22.5 22.5 10.09375 22.5 22.5 22.5 22.5-10.09375 22.5-22.5zm-22.5 7.5c-4.136719 0-7.5-3.363281-7.5-7.5s3.363281-7.5 7.5-7.5c4.132812 0 7.5 3.363281 7.5 7.5s-3.367188 7.5-7.5 7.5zm0 0"/><path d="m159.820312 274.386719c0-12.40625-10.09375-22.5-22.5-22.5s-22.5 10.09375-22.5 22.5 10.09375 22.5 22.5 22.5 22.5-10.09375 22.5-22.5zm-22.5 7.5c-4.132812 0-7.5-3.363281-7.5-7.5s3.367188-7.5 7.5-7.5c4.136719 0 7.5 3.363281 7.5 7.5s-3.363281 7.5-7.5 7.5zm0 0"/><path d="m211.246094 250.601562c12.40625 0 22.5-10.09375 22.5-22.5s-10.09375-22.5-22.5-22.5-22.5 10.09375-22.5 22.5 10.09375 22.5 22.5 22.5zm0-30c4.136718 0 7.5 3.363282 7.5 7.5 0 4.136719-3.363282 7.5-7.5 7.5-4.136719 0-7.5-3.363281-7.5-7.5 0-4.136718 3.363281-7.5 7.5-7.5zm0 0"/><path d="m161.960938 250.601562c12.40625 0 22.5-10.09375 22.5-22.5s-10.09375-22.5-22.5-22.5-22.5 10.09375-22.5 22.5 10.09375 22.5 22.5 22.5zm0-30c4.136718 0 7.5 3.363282 7.5 7.5 0 4.136719-3.363282 7.5-7.5 7.5-4.136719 0-7.5-3.363281-7.5-7.5 0-4.136718 3.367187-7.5 7.5-7.5zm0 0"/><path d="m143.335938 430.601562c0-17.984374-14.632813-32.617187-32.617188-32.617187s-32.613281 14.632813-32.613281 32.617187c0 17.984376 14.628906 32.613282 32.613281 32.613282s32.617188-14.628906 32.617188-32.613282zm-50.230469 0c0-9.714843 7.902343-17.617187 17.613281-17.617187 9.714844 0 17.617188 7.902344 17.617188 17.617187 0 9.710938-7.902344 17.613282-17.617188 17.613282-9.710938 0-17.613281-7.902344-17.613281-17.613282zm0 0"/><path d="m230.503906 463.214844c17.984375 0 32.617188-14.628906 32.617188-32.613282 0-17.984374-14.632813-32.617187-32.617188-32.617187h-43.425781c-17.984375 0-32.617187 14.632813-32.617187 32.617187 0 17.984376 14.632812 32.613282 32.617187 32.613282zm-61.042968-32.613282c0-9.714843 7.902343-17.617187 17.617187-17.617187h43.425781c9.714844 0 17.617188 7.902344 17.617188 17.617187 0 9.710938-7.902344 17.613282-17.617188 17.613282h-43.425781c-9.714844 0-17.617187-7.902344-17.617187-17.613282zm0 0"/><path d="m332.699219 165.703125c-2.578125-3.242187-7.300781-3.777344-10.539063-1.199219-3.242187 2.582032-3.777344 7.296875-1.199218 10.539063 24.367187 30.621093 37.25 67.542969 37.25 106.765625 0 14.757812-.984376 60.289062-11.636719 114.652344-11.453125-5.582032-21.339844-12.648438-29.476563-21.082032-11.328125-11.742187-32.0625-41.394531-32.941406-42.644531 10.25-17.070313 16.148438-37.03125 16.148438-58.347656 0-62.695313-51.003907-113.703125-113.699219-113.703125-62.695313 0-113.703125 51.007812-113.703125 113.703125 0 21.316406 5.902344 41.277343 16.152344 58.347656-14.820313 25.511719-40.1875 49.578125-44.230469 52.636719-3.304688 2.5-3.957031 7.203125-1.457031 10.507812 1.472656 1.949219 6.519531 4.324219 10.503906 1.457032 4.75-3.414063 29.441406-26.710938 44.332031-51.527344 20.863281 25.769531 52.738281 42.277344 88.402344 42.277344 35.660156 0 67.535156-16.507813 88.398437-42.277344 9.507813 13.597656 19.363282 27.613281 31.300782 39.984375 10.167968 10.542969 22.628906 19.183593 37.101562 25.75-1.726562 7.714843-3.652344 15.5625-5.804688 23.484375-9.910156 36.488281-43.222656 61.972656-81.011718 61.972656h-139.972656c-37.789063 0-71.101563-25.484375-81.011719-61.972656-19.121094-70.402344-20.605469-135.074219-20.605469-153.21875 0-94.621094 76.980469-171.605469 171.605469-171.605469 41.925781 0 82.289062 15.285156 113.65625 43.03125 3.101562 2.746094 7.839843 2.457031 10.585937-.644531 2.746094-3.105469 2.453125-7.84375-.648437-10.585938-34.109375-30.179687-78.003907-46.800781-123.59375-46.800781-61.441407 0-116.035157 29.851563-150.054688 75.808594v-123.980469c0-17.664062 14.367188-32.03125 32.027344-32.03125 17.664063 0 32.03125 14.367188 32.03125 32.03125v40.082031c0 4.144531 3.359375 7.5 7.5 7.5 4.144531 0 7.5-3.355469 7.5-7.5v-40.082031c0-25.933594-21.097656-47.03125-47.027344-47.03125-25.933593 0-47.03125 21.097656-47.03125 47.03125v147.683594c0 .039062.003907.074218.003907.113281-13.75 25.988281-21.554688 55.589844-21.554688 86.980469 0 18.613281 1.523438 84.957031 21.132812 157.148437 11.675782 43.007813 50.945313 73.042969 95.484376 73.042969h139.972656c44.542968 0 83.808594-30.035156 95.488281-73.042969 19.609375-72.191406 21.132813-138.535156 21.132813-157.148437 0-42.652344-14.011719-82.800782-40.511719-116.105469zm-146.09375 207.382813c-54.425781 0-98.703125-44.277344-98.703125-98.699219 0-54.425781 44.277344-98.703125 98.703125-98.703125 54.421875 0 98.699219 44.277344 98.699219 98.703125 0 54.421875-44.277344 98.699219-98.699219 98.699219zm0 0"/></svg>