<svg viewBox="0 -29 512 512" xmlns="http://www.w3.org/2000/svg"><path d="m256 414.730469c-19.960938 0-36.289062-16.332031-36.289062-36.289063v-334.652344c0-19.960937 16.328124-36.289062 36.289062-36.289062s36.289062 16.328125 36.289062 36.289062v334.652344c0 19.957032-16.328124 36.289063-36.289062 36.289063zm0 0" fill="#ffc477"/><path d="m219.710938 52.886719v325.554687c0 19.960938 16.328124 36.289063 36.289062 36.289063s36.289062-16.332031 36.289062-36.289063v-325.554687zm0 0" fill="#ffb864"/><path d="m325.488281 192.449219h-138.976562c-26.71875 0-48.582031-21.863281-48.582031-48.585938 0-26.71875 21.863281-48.582031 48.582031-48.582031h138.972656c26.722656 0 48.585937 21.863281 48.585937 48.582031 0 26.722657-21.863281 48.585938-48.582031 48.585938zm0 0" fill="#ffc2e1"/><path d="m213.777344 143.867188c0-26.722657 21.863281-48.585938 48.585937-48.585938h-75.851562c-26.71875 0-48.582031 21.863281-48.582031 48.585938 0 26.71875 21.863281 48.582031 48.582031 48.582031h75.851562c-26.722656 0-48.585937-21.863281-48.585937-48.582031zm0 0" fill="#ffabcd"/><path d="m372.570312 278.609375h-233.140624c-26.71875 0-48.582032-21.859375-48.582032-48.582031 0-26.71875 21.863282-48.582032 48.582032-48.582032h233.140624c26.71875 0 48.582032 21.863282 48.582032 48.582032 0 26.722656-21.863282 48.582031-48.582032 48.582031zm0 0" fill="#ccf8ff"/><path d="m185.28125 228.640625c0-25.957031 21.234375-47.195313 47.191406-47.195313h-93.042968c-26.71875 0-48.582032 21.863282-48.582032 48.582032 0 26.722656 21.863282 48.585937 48.582032 48.585937h93.042968c-50.871094-.003906-47.191406-49.972656-47.191406-49.972656zm0 0" fill="#9ff6ff"/><path d="m408.441406 364.773438h-304.882812c-26.722656 0-48.585938-21.863282-48.585938-48.582032s21.863282-48.582031 48.585938-48.582031h304.882812c26.722656 0 48.585938 21.859375 48.585938 48.582031 0 26.71875-21.863282 48.582032-48.585938 48.582032zm0 0" fill="#b1ef97"/><path d="m143.789062 316.191406c0-26.71875 21.863282-48.582031 48.585938-48.582031h-88.816406c-26.722656 0-48.585938 21.863281-48.585938 48.582031s21.863282 48.582032 48.585938 48.582032h88.816406c-26.722656 0-48.585938-21.863282-48.585938-48.582032zm0 0" fill="#92dd7a"/><path d="m474.492188 446.121094h-436.984376c-16.574218 0-30.007812-13.433594-30.007812-30.007813v-21.332031c0-16.570312 13.433594-30.007812 30.007812-30.007812h436.984376c16.570312 0 30.007812 13.433593 30.007812 30.007812v21.332031c0 16.574219-13.433594 30.007813-30.007812 30.007813zm0 0" fill="#ffdaaa"/><path d="m111.894531 416.113281v-21.332031c0-16.570312 13.433594-30.007812 30.007813-30.007812h-104.394532c-16.574218 0-30.007812 13.4375-30.007812 30.007812v21.332031c0 16.574219 13.433594 30.007813 30.007812 30.007813h104.394532c-16.574219 0-30.007813-13.433594-30.007813-30.007813zm0 0" fill="#ffc477"/><path d="m474.492188 357.273438h-27.925782c11.035156-10.25 17.957032-24.871094 17.957032-41.082032 0-27.257812-19.546876-50.027344-45.359376-55.042968 6.125-9.121094 9.488282-19.890626 9.488282-31.121094 0-30.859375-25.054688-55.972656-55.890625-56.078125 5.691406-8.894531 8.808593-19.273438 8.808593-30.082031 0-30.925782-25.160156-56.085938-56.085937-56.085938h-25.695313v-43.992188c0-24.144531-19.644531-43.789062-43.789062-43.789062s-43.789062 19.644531-43.789062 43.789062v17.476563c0 4.144531 3.355468 7.5 7.5 7.5 4.140624 0 7.5-3.355469 7.5-7.5v-17.476563c0-15.875 12.914062-28.789062 28.789062-28.789062s28.789062 12.914062 28.789062 28.789062v43.992188h-98.273437c-30.925781 0-56.085937 25.160156-56.085937 56.085938 0 10.808593 3.117187 21.1875 8.808593 30.082031-30.835937.105469-55.890625 25.21875-55.890625 56.078125 0 11.230468 3.363282 22 9.488282 31.121094-25.8125 5.019531-45.363282 27.785156-45.363282 55.042968 0 16.210938 6.925782 30.832032 17.960938 41.082032h-27.925782c-20.683593 0-37.507812 16.828124-37.507812 37.507812v21.332031c0 20.683594 16.824219 37.507813 37.507812 37.507813h436.984376c20.683593 0 37.507812-16.824219 37.507812-37.507813v-21.332031c0-20.679688-16.824219-37.507812-37.507812-37.507812zm-335.0625-168.328126h138.171874c4.140626 0 7.5-3.355468 7.5-7.5 0-4.140624-3.359374-7.5-7.5-7.5h-118.976562c-8.414062-7.796874-13.195312-18.621093-13.195312-30.078124 0-22.652344 18.429687-41.085938 41.082031-41.085938h138.972656c22.65625 0 41.085937 18.433594 41.085937 41.085938 0 11.460937-4.78125 22.28125-13.195312 30.078124h-44.035156c-4.140625 0-7.5 3.359376-7.5 7.5 0 4.144532 3.359375 7.5 7.5 7.5h63.230468c22.652344 0 41.082032 18.429688 41.082032 41.082032 0 11.460937-4.78125 22.28125-13.191406 30.082031h-288.921876c-8.410156-7.800781-13.191406-18.621094-13.191406-30.082031 0-22.652344 18.429688-41.082032 41.082032-41.082032zm357.570312 227.167969c0 12.410157-10.097656 22.507813-22.507812 22.507813h-436.984376c-12.410156 0-22.507812-10.097656-22.507812-22.507813v-21.332031c0-12.410156 10.097656-22.507812 22.507812-22.507812h154.863282c4.144531 0 7.5-3.359376 7.5-7.5 0-4.140626-3.355469-7.5-7.5-7.5h-88.8125c-22.65625 0-41.085938-18.429688-41.085938-41.082032s18.429688-41.082031 41.085938-41.082031h304.882812c22.652344 0 41.082032 18.429687 41.082032 41.082031s-18.429688 41.082032-41.082032 41.082032h-182.933594c-4.144531 0-7.5 3.359374-7.5 7.5 0 4.140624 3.355469 7.5 7.5 7.5h248.984376c12.410156 0 22.507812 10.097656 22.507812 22.507812zm0 0"/></svg>