<svg viewBox="-100 0 512 512.00202" xmlns="http://www.w3.org/2000/svg"><path d="m63.34375 186.199219s-33.507812-78.601563 64.691406-116.054688c43.753906-16.691406 60.433594-39.726562 68.023438-53.914062 5.335937-9.972657 18.890625-11.785157 26.492187-3.414063 13.621094 14.996094 27.5625 40.589844 20.519531 79.429688l6.519532 71.324218zm0 0" fill="#9ff6ff"/><path d="m199.265625 134.34375c-47.023437-12.476562-42.019531-55.132812-31.550781-85.550781-9.867188 7.484375-22.734375 14.886719-39.679688 21.351562-98.199218 37.457031-64.691406 116.054688-64.691406 116.054688l135.921875-16.511719zm0 0" fill="#7de7ff"/><path d="m30.128906 265.773438s-11.597656-112.25 110.929688-121.289063c110.183594-8.132813 102.011718-52.238281 102.011718-52.238281s85.515626 110.972656.0625 173.527344c-2.070312.265624-213.003906 0-213.003906 0zm0 0" fill="#ccf8ff"/><path d="m199.238281 134.335938c-14.292969 4.613281-33.175781 8.320312-58.179687 10.164062-122.523438 9.042969-110.929688 121.289062-110.929688 121.289062s52.640625.066407 105.585938.101563c-7-30.75 6.503906-60.179687 23.675781-69.769531 30.507813-17.035156 39.847656-61.785156 39.847656-61.785156zm0 0" fill="#9ff6ff"/><path d="m28.433594 282.019531 11.019531 76.902344c2.050781 14.324219 12.570313 26.664063 27.707031 32.503906 0 0 22.613282 7.171875 27.664063 32.203125l8.679687 57.117188c2.066406 13.597656 15.355469 23.753906 31.078125 23.753906h42.058594c15.722656 0 29.015625-10.160156 31.082031-23.753906l8.675782-57.117188c2.160156-14.207031 12.640624-26.40625 27.664062-32.203125 0 0 25.296875-6.328125 27.710938-32.503906l11.019531-76.902344zm0 0" fill="#ffc477"/><path d="m282.792969 282.019531h-254.359375l11.019531 76.902344c2.050781 14.324219 12.570313 26.664063 27.707031 32.503906 0 0 22.613282 7.171875 27.664063 32.203125l8.679687 57.117188c2.066406 13.59375 15.355469 23.753906 31.078125 23.753906h30.433594c-11.183594-24.257812-15.273437-62.894531-16.542969-93.09375-.976562-23.132812 15.070313-43.359375 37.757813-47.988281 46.355469-9.460938 89.929687-35.101563 89.929687-35.101563zm0 0" fill="#ffb864"/><path d="m256.230469 313.269531h-201.234375c-26.230469 0-47.496094-21.265625-47.496094-47.496093 0-26.230469 21.265625-47.496094 47.496094-47.496094h201.234375c26.230469 0 47.496093 21.265625 47.496093 47.496094 0 26.230468-21.265624 47.496093-47.496093 47.496093zm0 0" fill="#ffdaaa"/><path d="m96.519531 265.773438c0-26.230469 21.265625-47.496094 47.496094-47.496094h-89.019531c-26.230469 0-47.496094 21.265625-47.496094 47.496094 0 26.230468 21.265625 47.496093 47.496094 47.496093h89.019531c-26.230469 0-47.496094-21.265625-47.496094-47.496093zm0 0" fill="#ffc477"/><path d="m311.222656 265.773438c0-19.683594-10.398437-36.976563-25.984375-46.695313 6.769531-25.230469 3.074219-55.203125-10.835937-87.171875-8.800782-20.226562-19.148438-35.59375-23.414063-41.554688 6.296875-40.355468-8.84375-67.113281-22.886719-82.578124-5.25-5.78125-12.710937-8.542969-20.457031-7.585938-7.714843.953125-14.519531 5.628906-18.195312 12.503906-11.597657 21.675782-33.160157 38.648438-64.089844 50.445313-3.867187 1.476562-5.808594 5.808593-4.332031 9.679687 1.476562 3.871094 5.808594 5.808594 9.679687 4.335938 34.402344-13.121094 58.613281-32.429688 71.964844-57.386719 1.402344-2.621094 3.886719-4.332031 6.8125-4.691406 2.847656-.351563 5.300781.964843 7.515625 2.785156 16.835938 13.824219 33.507812 66.621094 8.261719 93.207031-9.78125 10.296875-26.867188 21.664063-84.753907 25.9375-30.441406 2.246094-55.5625 10.894532-74.851562 25.691406-.683594-7.5625-.441406-16.425781 1.964844-25.773437 4.816406-18.710937 17.128906-34.441406 36.589844-46.75 3.5-2.214844 4.542968-6.847656 2.328124-10.351563-2.214843-3.496093-6.84375-4.539062-10.347656-2.328124-49.734375 31.460937-48.210937 75.976562-43.878906 97.410156-10.839844 11.839844-18.875 26.175781-23.960938 42.78125-16.890624 9.398437-28.351562 27.425781-28.351562 48.089844 0 19.320312 10.027344 36.335937 25.140625 46.148437l6.886719 48.0625c2.425781 16.925781 14.855468 31.65625 32.433594 38.441406.113281.042969.273437.097657.390624.136719.753907.25 18.449219 6.324219 22.585938 26.382812l8.652344 56.933594c2.609375 17.171875 19.160156 30.125 38.492187 30.125h42.0625c19.335938 0 35.882813-12.953125 38.492188-30.125l8.679687-57.121094c1.726563-11.351562 10.375-21.359374 22.613282-26.199218 4.222656-1.207032 30.007812-9.726563 32.792968-38.753906l6.863282-47.882813c15.113281-9.8125 25.136718-26.828125 25.136718-46.148437zm-241.726562-86.828126c17.449218-15.660156 41.710937-24.738281 72.113281-26.984374 51.605469-3.804688 85.566406-15.84375 100.9375-35.769532 1.5-1.941406 2.730469-3.851562 3.738281-5.695312 13.007813 21.214844 34.273438 63.660156 25.054688 102.410156-4.804688-1.375-9.871094-2.128906-15.109375-2.128906h-201.234375c-2.867188 0-5.6875.222656-8.4375.648437 5.425781-12.769531 13.109375-23.65625 22.9375-32.480469zm194.851562 178.910157c-.015625.125-.8125 19.917969-22.980468 26.574219-17.890626 5.371093-29.832032 21.3125-32.378907 38.070312l-8.679687 57.121094c-1.507813 9.90625-11.679688 17.378906-23.664063 17.378906h-42.0625c-11.984375 0-22.15625-7.472656-23.664062-17.378906 0 0-8.71875-57.355469-8.742188-57.476563-5.597656-27.757812-29.433593-36.738281-32.464843-37.773437-12.441407-4.855469-21.183594-15.003906-22.832032-26.515625l-5.5625-38.8125c4.375 1.125 8.960938 1.722656 13.679688 1.722656h144.242187c4.140625 0 7.5-3.355469 7.5-7.5 0-4.140625-3.359375-7.5-7.5-7.5h-144.242187c-22.050782 0-39.996094-17.941406-39.996094-39.996094 0-22.050781 17.945312-39.996093 39.996094-39.996093h201.234375c22.050781 0 39.996093 17.945312 39.996093 39.996093 0 22.054688-17.945312 39.996094-39.996093 39.996094h-24.398438c-4.140625 0-7.5 3.359375-7.5 7.5 0 4.144531 3.359375 7.5 7.5 7.5h24.398438c4.71875 0 9.304687-.597656 13.679687-1.722656zm0 0"/></svg>