<svg viewBox="-9 0 512 512.001" xmlns="http://www.w3.org/2000/svg"><path d="m169.910156 114.507812h154.898438l-58.617188-96.417968c-8.585937-14.117188-29.078125-14.117188-37.660156 0zm0 0" fill="#ffeb99"/><path d="m266.191406 18.089844c-8.585937-14.117188-29.078125-14.117188-37.660156 0l-58.621094 96.417968h58.089844l48.402344-79.621093zm0 0" fill="#ffde55"/><path d="m371.046875 238.054688h-247.375v-99.882813c0-20.257813 16.421875-36.679687 36.679687-36.679687h174.019532c20.257812 0 36.679687 16.421874 36.679687 36.679687v99.882813zm0 0" fill="#ccf8ff"/><path d="m222 101.492188h-61.648438c-20.257812 0-36.679687 16.421874-36.679687 36.679687v99.882813h61.648437v-99.882813c0-20.257813 16.421876-36.679687 36.679688-36.679687zm0 0" fill="#9ff6ff"/><path d="m69.929688 229.539062v193.515626h107.871093v-52.039063c0-38.257813 31.300781-69.558594 69.558594-69.558594s69.558594 31.300781 69.558594 69.558594v52.039063h107.871093v-193.515626c0-26.136718-21.1875-47.324218-47.324218-47.324218h-260.210938c-26.136718 0-47.324218 21.1875-47.324218 47.324218zm0 0" fill="#ffdaaa"/><path d="m247.359375 301.457031c38.257813 0 69.558594 31.300781 69.558594 69.558594v52.039063h53.738281v-52.039063c0-93.832031-115.019531-73.054687-123.296875-69.558594zm0 0" fill="#ffc477"/><path d="m170.996094 182.214844h-53.742188c-26.136718 0-47.324218 21.1875-47.324218 47.324218v193.511719h53.738281v-193.511719c.003906-26.136718 21.191406-47.324218 47.328125-47.324218zm0 0" fill="#ffc477"/><path d="m149.703125 504.5h-114.105469c-15.515625 0-28.097656-12.578125-28.097656-28.097656v-68.90625c0-15.519532 12.582031-28.097656 28.097656-28.097656h110.792969c17.347656 0 31.410156 14.0625 31.410156 31.414062v65.589844c0 15.519531-12.578125 28.097656-28.097656 28.097656zm0 0" fill="#ffc2e1"/><path d="m69.929688 476.402344v-68.90625c0-15.519532 12.582031-28.097656 28.097656-28.097656h-62.429688c-15.515625 0-28.097656 12.578124-28.097656 28.097656v68.90625c0 15.519531 12.582031 28.097656 28.097656 28.097656h62.429688c-15.515625 0-28.097656-12.578125-28.097656-28.097656zm0 0" fill="#ffabcd"/><path d="m459.121094 504.5h-114.105469c-15.519531 0-28.097656-12.578125-28.097656-28.097656v-65.589844c0-17.351562 14.0625-31.414062 31.414062-31.414062h110.789063c15.519531 0 28.097656 12.578124 28.097656 28.097656v68.90625c0 15.519531-12.582031 28.097656-28.097656 28.097656zm0 0" fill="#ffc2e1"/><path d="m379.347656 476.402344v-68.90625c0-15.519532 12.578125-28.097656 28.097656-28.097656h-59.117187c-17.347656 0-31.414063 14.0625-31.414063 31.414062v65.589844c0 15.519531 12.582032 28.097656 28.097657 28.097656h62.433593c-15.519531 0-28.097656-12.578125-28.097656-28.097656zm0 0" fill="#ffabcd"/><path d="m335.515625 247.449219v-12.449219c0-4.144531-3.355469-7.5-7.5-7.5-4.140625 0-7.5 3.355469-7.5 7.5v12.449219c0 4.144531 3.359375 7.5 7.5 7.5 4.144531 0 7.5-3.355469 7.5-7.5zm0 0"/><path d="m166.703125 227.5c-4.144531 0-7.5 3.355469-7.5 7.5v12.449219c0 4.144531 3.355469 7.5 7.5 7.5 4.140625 0 7.5-3.355469 7.5-7.5v-12.449219c0-4.144531-3.359375-7.5-7.5-7.5zm0 0"/><path d="m265.679688 241.527344c-10.789063 8.367187-25.855469 8.367187-36.640626 0-3.273437-2.539063-7.984374-1.945313-10.523437 1.328125-2.539063 3.273437-1.941406 7.984375 1.328125 10.523437 8.101562 6.285156 17.808594 9.425782 27.515625 9.425782s19.414063-3.140626 27.515625-9.425782c3.273438-2.539062 3.867188-7.25 1.328125-10.523437-2.539063-3.273438-7.25-3.867188-10.523437-1.328125zm0 0"/><path d="m459.121094 371.898438h-26.832032v-142.359376c0-30.230468-24.59375-54.824218-54.824218-54.824218h-246.292969v-36.542969c0-16.089844 13.089844-29.179687 29.179687-29.179687h174.019532c16.089844 0 29.179687 13.089843 29.179687 29.179687v10.75c0 4.140625 3.355469 7.5 7.5 7.5 4.140625 0 7.5-3.359375 7.5-7.5v-10.75c0-24.359375-19.820312-44.179687-44.179687-44.179687h-13.257813l-48.515625-79.800782c-5.402344-8.886718-14.839844-14.191406-25.238281-14.191406s-19.835937 5.304688-25.238281 14.191406l-14.285156 23.5c-2.152344 3.539063-1.027344 8.152344 2.511718 10.304688 3.539063 2.152344 8.152344 1.023437 10.304688-2.511719l14.289062-23.5c2.65625-4.375 7.300782-6.984375 12.417969-6.984375s9.761719 2.609375 12.421875 6.984375l43.777344 72.007813h-112.398438l13.175782-21.671876c2.152343-3.539062 1.027343-8.152343-2.511719-10.304687-3.539063-2.152344-8.15625-1.027344-10.304688 2.511719l-17.914062 29.464844h-13.257813c-24.359375 0-44.179687 19.820312-44.179687 44.179687v36.570313c-29.726563.582031-53.738281 24.929687-53.738281 54.796874v142.359376h-26.832032c-19.628906 0-35.597656 15.96875-35.597656 35.597656v68.90625c0 19.628906 15.96875 35.597656 35.597656 35.597656h114.105469c19.628906 0 35.597656-15.96875 35.597656-35.597656v-105.386719c0-34.21875 27.839844-62.058594 62.058594-62.058594s62.058594 27.839844 62.058594 62.058594v105.386719c0 19.628906 15.96875 35.597656 35.597656 35.597656h114.105469c19.628906 0 35.597656-15.96875 35.597656-35.597656v-68.90625c0-19.628906-15.96875-35.597656-35.597656-35.597656zm-211.761719-77.941407c-42.488281 0-77.058594 34.566407-77.058594 77.058594v9.132813c-6.601562-5.164063-14.898437-8.25-23.914062-8.25h-22.71875c-4.140625 0-7.5 3.355468-7.5 7.5 0 4.140624 3.359375 7.5 7.5 7.5h22.71875c13.1875 0 23.914062 10.726562 23.914062 23.914062v65.589844c0 11.359375-9.238281 20.597656-20.597656 20.597656h-114.105469c-11.355468 0-20.597656-9.238281-20.597656-20.597656v-68.90625c0-11.355469 9.242188-20.597656 20.597656-20.597656h57.054688c4.140625 0 7.5-3.359376 7.5-7.5 0-4.144532-3.359375-7.5-7.5-7.5h-15.222656v-142.359376c0-21.960937 17.867187-39.824218 39.824218-39.824218h260.210938c21.957031 0 39.824218 17.863281 39.824218 39.824218v142.359376h-68.960937c-9.007813 0-17.308594 3.085937-23.914063 8.246093v-9.128906c.003907-42.492187-34.566406-77.058594-77.054687-77.058594zm232.359375 182.445313c0 11.355468-9.242188 20.597656-20.597656 20.597656h-114.105469c-11.359375 0-20.597656-9.238281-20.597656-20.597656v-65.589844c0-13.1875 10.726562-23.914062 23.914062-23.914062h110.789063c11.359375 0 20.597656 9.238281 20.597656 20.597656zm0 0"/></svg>