<svg viewBox="0 -45 511.99979 511" xmlns="http://www.w3.org/2000/svg"><path d="m374.453125 41.453125c-28.351563 0-53.640625 13.082031-70.179687 33.535156-5.980469 7.402344-15.027344 11.535157-24.535157 11.941407-8.5625.363281-17.199219 2.375-25.460937 6.207031-13.210938 6.125-23.492188 15.984375-30.195313 27.738281-4.203125 7.375-12.746093 11.25-20.921875 8.980469-12.167968-3.378907-25.460937-3.15625-38.246094 1.445312-15.253906 5.492188-27.089843 16.242188-34.214843 29.476563-3.484375 6.464844-10.441407 10.210937-17.769531 9.683594-11.222657-.804688-22.765626 2.421874-32.285157 9.957031-20.191406 15.996093-23.597656 45.332031-7.601562 65.527343 15.996093 20.191407 391.628906-64.445312 391.628906-114.273437 0-49.824219-40.390625-90.21875-90.21875-90.21875zm0 0" fill="#ccf8ff"/><path d="m478.105469 125.042969-211.582031 114.414062-224.777344 21.316407s-11.429688 64.472656 22.800781 123.109374c10.628906 18.207032 30.097656 29.445313 51.179687 29.445313h282.953126c36.539062 0 69.578124-21.960937 83.488281-55.746094 42.328125-102.800781-4.0625-232.539062-4.0625-232.539062zm0 0" fill="#66d3d0"/><path d="m266.523438 239.457031-224.777344 21.316407s-11.429688 64.472656 22.800781 123.109374c10.628906 18.210938 30.097656 29.449219 51.179687 29.449219h142.710938c36.574219-24.878906 61.445312-45.871093 85.464844-115.386719 27.585937-79.824218 98.121094-153.390624 98.121094-153.390624zm0 0" fill="#57c1bc"/><path d="m191.980469 283.796875h-152.480469c-17.671875 0-32-14.324219-32-32 0-17.671875 14.328125-32 32-32h152.480469c33.792969 0 65.871093-13.285156 90.320312-37.410156 34.746094-34.28125 94.8125-79.050781 183.636719-97.640625 17.296875-3.617188 34.257812 7.46875 37.878906 24.761718 3.621094 17.300782-7.46875 34.257813-24.765625 37.878907-73.59375 15.402343-123.167969 52.3125-151.800781 80.558593-36.5 36.019532-84.542969 55.851563-135.269531 55.851563zm0 0" fill="#7de2e2"/><path d="m104.539062 251.796875c0-17.671875 14.324219-32 32-32h-97.039062c-17.671875 0-32 14.328125-32 32 0 17.675781 14.328125 32.003906 32 32.003906h97.039062c-17.675781-.003906-32-14.328125-32-32.003906zm0 0" fill="#66d3d0"/><path d="m222.820312 41.453125c0 18.476563-14.976562 33.457031-33.453124 33.457031-18.476563 0-33.457032-14.980468-33.457032-33.457031s14.980469-33.453125 33.457032-33.453125c18.476562 0 33.453124 14.976562 33.453124 33.453125zm0 0" fill="#ccf8ff"/><path d="m131.441406 82.996094c0 11.664062-9.453125 21.121094-21.117187 21.121094-11.664063 0-21.117188-9.457032-21.117188-21.121094 0-11.660156 9.453125-21.117188 21.117188-21.117188 11.664062 0 21.117187 9.457032 21.117187 21.117188zm0 0" fill="#ccf8ff"/><path d="m279.878906 380.679688c-15.519531 0-28.097656-12.582032-28.097656-28.101563v-20.429687c0-4.234376 3.433594-7.671876 7.667969-7.671876h40.859375c4.238281 0 7.671875 3.4375 7.671875 7.671876v20.429687c0 15.519531-12.582031 28.101563-28.101563 28.101563zm0 0" fill="#57565c"/><path d="m215.859375 352.578125c0-13.183594-13.421875-23.867187-29.976563-23.867187-16.550781 0-29.972656 10.683593-29.972656 23.867187s13.421875 23.871094 29.972656 23.871094c16.554688 0 29.976563-10.6875 29.976563-23.871094zm0 0" fill="#ffa6bb"/><path d="m403.851562 352.578125c0-13.183594-13.421874-23.867187-29.972656-23.867187-16.554687 0-29.972656 10.683593-29.972656 23.867187s13.417969 23.871094 29.972656 23.871094c16.550782 0 29.972656-10.6875 29.972656-23.871094zm0 0" fill="#ffa6bb"/><path d="m360.539062 312.023438c-4.144531 0-7.5 3.359374-7.5 7.5v12.453124c0 4.140626 3.355469 7.5 7.5 7.5 4.140626 0 7.5-3.359374 7.5-7.5v-12.453124c0-4.140626-3.359374-7.5-7.5-7.5zm0 0"/><path d="m199.222656 312.023438c-4.140625 0-7.5 3.359374-7.5 7.5v12.453124c0 4.140626 3.359375 7.5 7.5 7.5 4.144532 0 7.5-3.359374 7.5-7.5v-12.453124c0-4.140626-3.355468-7.5-7.5-7.5zm0 0"/><path d="m493.175781 149.714844c13.785157-8.488282 21.484375-25.007813 17.980469-41.742188-4.457031-21.308594-20.625-34.855468-54.339844-28.894531-13.785156-21.550781-35.554687-36.972656-60.53125-42.675781-4.035156-.921875-8.058594 1.605468-8.980468 5.644531-.921876 4.039063 1.601562 8.058594 5.640624 8.980469 19.484376 4.449218 36.648438 15.902344 48.359376 31.953125-78.027344 21.3125-131.910157 62.140625-164.269532 94.070312-23.039062 22.730469-53.242187 35.246094-85.050781 35.246094h-121.234375c1.230469-10.15625 6.40625-19.542969 14.554688-26 7.6875-6.089844 17.308593-9.050781 27.089843-8.351563 10.285157.746094 20.054688-4.605468 24.90625-13.609374 6.511719-12.097657 17.222657-21.320313 30.152344-25.976563 10.910156-3.929687 22.5625-4.367187 33.699219-1.277344 11.347656 3.152344 23.457031-1.984375 29.449218-12.492187 6.183594-10.851563 15.464844-19.375 26.832032-24.648438 7.175781-3.328125 14.785156-5.183594 22.625-5.519531 11.945312-.507813 22.898437-5.871094 30.046875-14.714844 14.101562-17.441406 34.097656-28.226562 56.300781-30.367187 4.125-.398438 7.144531-4.0625 6.746094-8.183594-.398438-4.125-4.058594-7.128906-8.1875-6.746094-26.246094 2.53125-49.871094 15.269532-66.523438 35.863282-4.441406 5.496093-11.378906 8.835937-19.023437 9.164062-9.808594.417969-19.328125 2.738281-28.296875 6.894531-14.210938 6.59375-25.8125 17.253907-33.554688 30.832031-2.582031 4.527344-7.679687 6.773438-12.402344 5.464844-14.144531-3.929687-28.945312-3.371094-42.789062 1.617188-16.417969 5.90625-30.011719 17.621094-38.28125 32.976562-2.054688 3.816406-6.21875 6.070313-10.625 5.761719-13.53125-.96875-26.84375 3.128906-37.480469 11.558594-11.75 9.304687-19.007812 23.027343-20.296875 37.753906h-16.191406c-21.78125 0-39.5 17.722656-39.5 39.5 0 19.371094 14.019531 35.519531 32.441406 38.855469.382813 26.332031 5.5 62.527344 25.628906 97.011718 11.941407 20.457032 34.035157 33.164063 57.65625 33.164063h282.953126c39.824218 0 75.320312-23.703125 90.425781-60.390625 14.246093-34.605469 20.257812-75.652344 17.867187-121.996094-1.832031-35.515625-8.265625-67.136718-13.796875-88.726562zm-17.941406 205.011718c-12.78125 31.042969-42.832031 51.101563-76.554687 51.101563h-282.953126c-18.308593 0-35.4375-9.855469-44.699218-25.726563-18.300782-31.351562-23.125-64.449218-23.578125-88.804687h73.5625c4.144531 0 7.5-3.355469 7.5-7.5 0-4.140625-3.355469-7.5-7.5-7.5h-81.511719c-13.511719 0-24.5-10.988281-24.5-24.5s10.992188-24.5 24.5-24.5h152.480469c35.777343 0 69.726562-14.054687 95.585937-39.570313 34.03125-33.574218 92.867188-77.425781 179.90625-95.640624 13.226563-2.769532 26.234375 5.742187 29.003906 18.960937 2.765626 13.222656-5.742187 26.230469-18.964843 29-75.378907 15.777344-126.183594 53.605469-155.527344 82.5625-35.09375 34.621094-81.261719 53.6875-130.003906 53.6875h-40.105469c-4.140625 0-7.5 3.359375-7.5 7.5 0 4.144531 3.359375 7.5 7.5 7.5h40.105469c52.710937 0 102.621093-20.601563 140.539062-58.011719 27.710938-27.34375 75.578125-63 146.539063-78.21875 26.949218 106.101563 6.425781 174.769532-3.824219 199.660156zm0 0"/><path d="m300.3125 316.976562h-40.863281c-8.363281 0-15.167969 6.804688-15.167969 15.171876v20.429687c0 19.632813 15.96875 35.601563 35.597656 35.601563s35.601563-15.96875 35.601563-35.601563v-20.429687c0-8.367188-6.804688-15.171876-15.167969-15.171876zm.167969 35.601563c0 11.359375-9.242188 20.601563-20.601563 20.601563s-20.597656-9.242188-20.597656-20.601563v-20.429687c0-.09375 41.199219-.09375 41.199219 0zm0 0"/><path d="m189.367188 82.410156c22.582031 0 40.953124-18.371094 40.953124-40.957031 0-22.582031-18.371093-40.953125-40.953124-40.953125-22.582032 0-40.957032 18.371094-40.957032 40.953125 0 22.585937 18.375 40.957031 40.957032 40.957031zm0-66.910156c14.3125 0 25.953124 11.644531 25.953124 25.953125 0 14.3125-11.640624 25.957031-25.953124 25.957031s-25.957032-11.644531-25.957032-25.957031c0-14.308594 11.644532-25.953125 25.957032-25.953125zm0 0"/><path d="m110.324219 111.617188c15.777343 0 28.617187-12.839844 28.617187-28.621094 0-15.777344-12.839844-28.617188-28.617187-28.617188-15.78125 0-28.621094 12.839844-28.621094 28.617188 0 15.78125 12.839844 28.621094 28.621094 28.621094zm0-42.238282c7.507812 0 13.617187 6.109375 13.617187 13.617188 0 7.511718-6.109375 13.621094-13.617187 13.621094-7.511719 0-13.621094-6.109376-13.621094-13.621094 0-7.507813 6.109375-13.617188 13.621094-13.617188zm0 0"/></svg>