<svg viewBox="0 -37 512.00017 512" xmlns="http://www.w3.org/2000/svg"><path d="m186.921875 404.484375c-35.191406 35.191406-92.253906 35.191406-127.445313 0-35.195312-35.195313-35.195312-92.257813 0-127.449219 35.191407-35.195312 118.003907-60.945312 153.199219-25.75 35.191407 35.191406 9.441407 118.003906-25.753906 153.199219zm0 0" fill="#9ff6ff"/><path d="m139.5 429.398438c17.371094-3.179688 33.992188-11.484376 47.421875-24.914063 35.195313-35.195313 60.945313-118.007813 25.753906-153.199219-35.195312-35.195312-118.007812-9.445312-153.199219 25.75-9.003906 9.003906-15.703124 19.433594-20.101562 30.566406 17.308594 16.445313 43.199219 35.914063 72.648438 41.019532 22.589843 3.917968 37.96875 25.320312 34.765624 48.023437-1.476562 10.496094-3.808593 21.75-7.289062 32.753907zm0 0" fill="#7de7ff"/><path d="m203.414062 75.933594c44.828126 44.828125 72.65625 145.34375 27.828126 190.171875-44.828126 44.832031-145.34375 17-190.175782-27.828125-44.828125-44.832032-44.828125-117.515625 0-162.34375 44.832032-44.832032 117.515625-44.832032 162.347656 0zm0 0" fill="#ffc2e1"/><path d="m231.242188 266.109375c44.828124-44.832031 17-145.347656-27.828126-190.175781-8.839843-8.835938-18.757812-15.929688-29.332031-21.285156-23.535156 39.277343-64.816406 128.976562-29.984375 232.507812 33.617188 4.898438 66.363282-.265625 87.144532-21.046875zm0 0" fill="#ffabcd"/><path d="m215.394531 138.453125c30.875 30.875 46.722657 96.78125 15.847657 127.65625s-96.777344 15.027344-127.652344-15.847656-30.875-80.933594 0-111.808594 80.929687-30.875 111.804687 0zm0 0" fill="#ffabcd"/><path d="m231.242188 266.097656c30.875-30.871094 15.027343-96.777344-15.847657-127.652344-18.980469-18.984374-45.207031-26.289062-69.773437-21.929687-14.074219 42.011719-22.351563 96.855469-5.695313 157.023437 31.71875 12.925782 69.925781 13.953126 91.316407-7.441406zm0 0" fill="#ff8fb4"/><path d="m325.019531 404.484375c35.195313 35.191406 92.253907 35.191406 127.449219 0 35.191406-35.195313 35.191406-92.257813 0-127.449219-35.195312-35.195312-118.007812-60.945312-153.199219-25.75-35.195312 35.191406-9.445312 118.003906 25.75 153.199219zm0 0" fill="#9ff6ff"/><path d="m372.441406 429.398438c-17.367187-3.179688-33.992187-11.484376-47.421875-24.914063-35.195312-35.195313-60.945312-118.007813-25.75-153.199219 35.191407-35.195312 118.003907-9.445312 153.199219 25.75 9.003906 9.003906 15.699219 19.433594 20.097656 30.566406-17.308594 16.445313-43.199218 35.914063-72.644531 41.019532-22.59375 3.917968-37.972656 25.320312-34.769531 48.023437 1.480468 10.496094 3.808594 21.75 7.289062 32.753907zm0 0" fill="#7de7ff"/><path d="m308.53125 75.933594c-44.828125 44.828125-72.660156 145.34375-27.828125 190.171875 44.828125 44.832031 145.34375 17 190.171875-27.828125 44.832031-44.832032 44.832031-117.515625 0-162.34375-44.828125-44.832032-117.511719-44.832032-162.34375 0zm0 0" fill="#ffc2e1"/><path d="m280.703125 266.109375c-44.832031-44.832031-17-145.347656 27.828125-190.175781 8.835938-8.835938 18.753906-15.929688 29.328125-21.285156 23.535156 39.277343 64.820313 128.976562 29.988281 232.507812-33.617187 4.898438-66.367187-.265625-87.144531-21.046875zm0 0" fill="#ffabcd"/><path d="m296.546875 138.453125c-30.875 30.875-46.71875 96.78125-15.84375 127.65625s96.777344 15.027344 127.652344-15.847656 30.875-80.933594 0-111.808594-80.933594-30.875-111.808594 0zm0 0" fill="#ffabcd"/><path d="m280.703125 266.097656c-30.875-30.871094-15.03125-96.777344 15.84375-127.652344 18.984375-18.984374 45.207031-26.289062 69.777344-21.929687 14.070312 42.011719 22.351562 96.855469 5.695312 157.023437-31.722656 12.925782-69.925781 13.953126-91.316406-7.441406zm0 0" fill="#ff8fb4"/><path d="m255.972656 410.207031c-21.46875 0-39.03125-17.5625-39.03125-39.027343v-204.980469c0-21.464844 17.5625-39.027344 39.03125-39.027344 21.464844 0 39.027344 17.5625 39.027344 39.027344v204.980469c0 21.464843-17.5625 39.027343-39.027344 39.027343zm0 0" fill="#ffde55"/><path d="m302.027344 104.347656c0 25.433594-20.621094 46.054688-46.054688 46.054688-25.4375 0-46.054687-20.621094-46.054687-46.054688 0-25.4375 20.617187-46.054687 46.054687-46.054687 25.433594 0 46.054688 20.617187 46.054688 46.054687zm0 0" fill="#ffeb99"/><path d="m449.71875 264.449219c10.011719-6.363281 19-13.40625 26.460938-20.867188 22.789062-22.789062 35.507812-53.085937 35.816406-85.308593.304687-32.179688-11.789063-62.667969-34.054688-85.851563-2.871094-2.984375-7.617187-3.082031-10.605468-.210937-2.988282 2.867187-3.085938 7.617187-.214844 10.605468 19.53125 20.335938 30.140625 47.082032 29.871094 75.3125-.265626 28.269532-11.21875 55.058594-31.417969 74.84375-34.0625 33.359375-81.289063 43.285156-81.859375 43.425782 11.605468-5.710938 21.96875-12.859376 29.945312-20.832032 33.75-33.753906 33.75-88.667968 0-122.417968-16.351562-16.347657-38.085937-25.351563-61.207031-25.351563-16.328125 0-31.949219 4.507813-45.484375 12.898437 1.65625-5.15625 5.566406-16.347656.175781-32.164062 40.613281-43.527344 95.0625-48.777344 137.214844-23.789062 3.5625 2.109374 8.164063.9375 10.277344-2.628907 2.109375-3.5625.933593-8.164062-2.628907-10.277343-48.050781-28.480469-104.25-23.726563-151.972656 22.117187-3.597656-5.199219-8.089844-9.726563-13.25-13.371094l21.558594-50.113281c1.636719-3.808594-.121094-8.21875-3.925781-9.855469-3.804688-1.636719-8.21875.121094-9.855469 3.925781l-21.15625 49.179688c-5.46875-1.886719-11.332031-2.929688-17.433594-2.929688-6.105468 0-11.964844 1.042969-17.4375 2.929688l-21.15625-49.179688c-1.636718-3.804687-6.046875-5.5625-9.851562-3.925781-3.804688 1.636719-5.5625 6.046875-3.925782 9.855469l21.558594 50.113281c-5.164062 3.644531-9.65625 8.171875-13.25 13.371094-54.84375-53.640625-128.464844-51.007813-176.148437-3.324219-47.683594 47.683594-47.683594 125.269532 0 172.953125 21.09375 21.09375 53.742187 40.566407 88.398437 47.273438 36.804688 7.121093 72.773438 3.039062 85.28125-1.917969v66.769531c-7.398437 17.492188-17.242187 32.890625-27.820312 43.472657-32.214844 32.210937-84.628906 32.210937-116.839844 0-29.863281-29.863282-32.480469-77.179688-6.082031-110.0625 2.59375-3.230469 2.078125-7.949219-1.152344-10.542969s-7.949219-2.078125-10.542969 1.152343c-31.203125 38.859376-28.121094 94.773438 7.167969 130.0625 19.03125 19.027344 44.03125 28.542969 69.027344 28.542969 25 0 50-9.515625 69.03125-28.542969 6.835937-6.839843 13.367187-15.386718 19.230469-25.0625 5.816406 19.070313 23.566406 32.984376 44.511718 32.984376 20.941406 0 38.691406-13.914063 44.511719-32.976563 5.863281 9.671875 12.394531 18.214844 19.230469 25.054687 19.03125 19.027344 44.03125 28.542969 69.027344 28.542969 25 0 50-9.515625 69.03125-28.542969 38.058593-38.066406 39.238281-104.96875-8.054688-145.339843zm-155.191406-160.101563c0 21.257813-17.296875 38.554688-38.554688 38.554688-21.261718 0-38.554687-17.296875-38.554687-38.554688 0-21.261718 17.292969-38.558594 38.554687-38.558594 21.257813 0 38.554688 17.296876 38.554688 38.558594zm-81.070313 43.007813c-2.625 5.886719-4.015625 12.292969-4.015625 18.84375v105c-31.214844 11.792969-77.519531-3.214844-100.546875-26.242188-27.902343-27.902343-27.902343-73.296875 0-101.199219 13.511719-13.515624 31.484375-20.960937 50.597657-20.960937 34.539062 0 52.855468 23.300781 53.964843 24.558594zm-167.085937 85.617187c-42.265625-41.394531-41.835938-109.902344 0-151.734375 41.832031-41.835937 114.761718-39.820312 158.429687 7.292969-4.777343 18.128906-1.480469 27.007812.175781 32.164062-13.535156-8.390624-29.160156-12.898437-45.484374-12.898437-23.121094 0-44.859376 9.003906-61.207032 25.355469-16.347656 16.347656-25.355468 38.085937-25.355468 61.207031s9.007812 44.855469 25.355468 61.207031c7.976563 7.980469 18.34375 15.128906 29.949219 20.839844-.152344-.039062-47.800781-10.074219-81.863281-43.433594zm241.128906 138.207032c0 17.382812-14.144531 31.527343-31.527344 31.527343-17.382812 0-31.527344-14.144531-31.527344-31.527343v-204.980469c0-5.578125 1.496094-11.003907 4.273438-15.773438 7.992188 4.742188 17.308594 7.476563 27.253906 7.476563 9.945313 0 19.261719-2.734375 27.25-7.476563 2.78125 4.777344 4.277344 10.226563 4.277344 15.773438v41.324219c0 4.144531 3.359375 7.503906 7.503906 7.503906 4.140625 0 7.5-3.359375 7.5-7.503906v-41.324219c0-6.511719-1.398437-12.933594-4.023437-18.835938 1.109375-1.257812 24.15625-24.566406 53.972656-24.566406 19.113281 0 37.082031 7.445313 50.597656 20.960937 27.902344 27.898438 27.902344 73.296876 0 101.199219-23.027343 23.027344-69.332031 38.035157-100.546875 26.242188v-32.300781c0-4.144532-3.355468-7.5-7.5-7.5-4.144531 0-7.5 3.355468-7.5 7.5v132.28125zm159.664062 28c-32.210937 32.210937-84.628906 32.210937-116.839843 0-10.582031-10.582032-20.425781-25.984376-27.820313-43.472657v-66.777343c12.511719 4.953124 49.058594 9.480468 86.636719 1.582031 16.359375-3.4375 32.109375-10.339844 46.582031-17.957031 43.140625 30.675781 43.652344 94.410156 11.441406 126.625zm0 0"/></svg>