<?xml version="1.0" encoding="iso-8859-1"?>
<!-- Generator: Adobe Illustrator 19.0.0, SVG Export Plug-In . SVG Version: 6.00 Build 0)  -->
<svg xmlns="http://www.w3.org/2000/svg" xmlns:xlink="http://www.w3.org/1999/xlink" version="1.1" id="Layer_1" x="0px" y="0px" viewBox="0 0 511.99 511.99" style="enable-background:new 0 0 511.99 511.99;" xml:space="preserve" width="512" height="512">
<g>
	<g>
		<path style="fill:#E381A5;" d="M370.107,115.956c0,0-44.265-8.384-114.112-8.384s-114.112,8.384-114.112,8.384l-25.907-63.953    l25.907-36.123c0,0,44.265-8.384,114.112-8.384s114.112,8.384,114.112,8.384L390.841,57.2L370.107,115.956z"/>
		<g>
			<g>
				<path style="fill:#38484A;" d="M185.766,72.344c-4.142,0-7.5-3.358-7.5-7.5v-12.71c0-4.142,3.358-7.5,7.5-7.5s7.5,3.358,7.5,7.5      v12.71C193.266,68.986,189.908,72.344,185.766,72.344z"/>
			</g>
			<g>
				<path style="fill:#38484A;" d="M326.225,72.344c-4.142,0-7.5-3.358-7.5-7.5v-12.71c0-4.142,3.358-7.5,7.5-7.5s7.5,3.358,7.5,7.5      v12.71C333.725,68.986,330.367,72.344,326.225,72.344z"/>
			</g>
			<g>
				<path style="fill:#38484A;" d="M255.995,79.129c-8.92,0-17.296-3.73-22.981-10.233c-2.726-3.119-2.408-7.856,0.711-10.583      c3.119-2.726,7.856-2.408,10.583,0.711c2.836,3.244,7.096,5.105,11.687,5.105c4.591,0,8.851-1.861,11.687-5.105      c2.726-3.12,7.464-3.437,10.583-0.711c3.119,2.727,3.437,7.464,0.711,10.583C273.291,75.399,264.915,79.129,255.995,79.129z"/>
			</g>
		</g>
		<path style="fill:#FAB3CE;" d="M452.944,144.034c-5.847-118.409-82.837-128.154-82.837-128.154    c9.808,222.783-185.125,342.264-245.326,376.31c-7.195,4.069-11.705,11.559-12.125,19.814    c-1.634,32.088-11.726,63.283-18.305,80.584c-2.421,6.366,3.014,12.965,9.719,11.765    C259.272,476.576,458.602,258.6,452.944,144.034z"/>
		<path style="fill:#E381A5;" d="M276.444,271.687c23.193,23.572,49.863,45.64,79.762,65.992    c-36.567,41.701-80.396,80.958-125.897,111.184c-27.394-21.161-54.153-45.357-78.921-71.485c-0.195-0.206-0.387-0.412-0.582-0.618    C184.89,355.523,233.569,320.856,276.444,271.687z"/>
		<path style="fill:#FAB3CE;" d="M417.639,492.588c-6.579-17.301-16.672-48.497-18.305-80.584    c-0.42-8.255-4.93-15.745-12.125-19.814c-60.2-34.046-255.134-153.527-245.326-376.31c0,0-76.99,9.745-82.837,128.154    C53.388,258.6,252.718,476.576,407.92,504.353C414.625,505.553,420.06,498.954,417.639,492.588z"/>
	</g>
	<g>
		<path d="M185.765,72.349c4.143,0,7.5-3.358,7.5-7.5v-12.71c0-4.142-3.357-7.5-7.5-7.5c-4.142,0-7.5,3.358-7.5,7.5v12.71    C178.265,68.991,181.624,72.349,185.765,72.349z"/>
		<path d="M326.225,72.349c4.142,0,7.5-3.358,7.5-7.5v-12.71c0-4.142-3.358-7.5-7.5-7.5s-7.5,3.358-7.5,7.5v12.71    C318.725,68.991,322.083,72.349,326.225,72.349z"/>
		<path d="M255.995,79.134c8.92,0,17.296-3.73,22.98-10.233c2.726-3.119,2.408-7.857-0.711-10.583s-7.856-2.408-10.583,0.711    c-2.835,3.244-7.095,5.105-11.687,5.105c-4.591,0-8.851-1.861-11.687-5.105c-2.726-3.118-7.464-3.437-10.583-0.711    c-3.119,2.727-3.437,7.464-0.711,10.583C238.699,75.404,247.076,79.134,255.995,79.134z"/>
		<path d="M460.435,143.669c-3.152-63.819-26.865-97.104-46.203-113.79c-20.381-17.584-40.221-21.004-42.894-21.395    C367.911,7.847,324.363,0,255.995,0c-68.368,0-111.917,7.847-115.343,8.485c-2.673,0.391-22.513,3.811-42.894,21.395    c-35.036,30.229-44.464,78.564-46.203,113.789c-1.419,28.744,9.375,64.952,31.217,104.708    c19.875,36.176,48.2,74.272,82.026,110.404c-13.796,9.253-28.167,18.096-43.708,26.885c-9.415,5.324-15.367,15.03-15.923,25.961    c-1.607,31.568-11.858,62.607-17.826,78.3c-1.904,5.006-1.228,10.624,1.808,15.026c3.582,5.195,10.035,7.899,16.243,6.788    c45.852-8.206,97.817-32.952,150.568-71.652c51.829,37.972,104.484,63.392,150.639,71.652c6.232,1.116,12.651-1.577,16.243-6.787    c3.036-4.402,3.711-10.02,1.808-15.027c-5.967-15.691-16.218-46.729-17.825-78.3c-0.557-10.932-6.509-20.637-15.923-25.961    c-15.194-8.593-29.756-17.568-43.675-26.901C419.961,281.111,463.179,199.241,460.435,143.669z M255.988,282.925    c-4.136-4.316-8.169-8.677-12.086-13.088c-40.937-46.101-68.706-95.992-83.153-149.118c19.386-2.491,52.38-5.642,95.248-5.642    c42.839,0,75.818,3.147,95.208,5.637c-4.956,18.225-11.467,36.069-19.533,53.466C313.898,212.511,288.446,249.06,255.988,282.925z     M362.825,22.279c0.284,0.044,0.122,8.382,0.123,9.135c0.016,13.788-0.775,27.572-2.399,41.265    c-1.344,11.248-3.252,22.378-5.714,33.379c-19.584-2.577-53.956-5.981-98.839-5.981c-44.905,0-79.29,3.408-98.869,5.985    c-3.724-16.647-6.164-33.679-7.318-50.96c-0.693-10.368-0.907-20.766-0.68-31.155c0.013-0.556,0.039-1.115,0.054-1.671    C163.356,20.091,202.153,15,255.995,15C309.861,15,348.667,20.095,362.825,22.279z M102.749,496.975    c-0.966,0.17-1.727-0.826-1.388-1.716c6.281-16.517,17.074-49.247,18.786-82.869c0.294-5.775,3.407-10.884,8.327-13.667    c16.687-9.437,32.068-18.936,46.84-28.932c21.977,22.473,44.905,42.899,68.121,60.864    C193.798,466.481,145.32,489.356,102.749,496.975z M391.844,412.39c1.712,33.623,12.504,66.351,18.785,82.868    c0.342,0.9-0.422,1.89-1.387,1.717c-45.079-8.068-96.889-33.489-147.946-71.537c-0.252-0.253-0.517-0.495-0.808-0.712    c-29.348-21.925-56.689-46.558-81.884-73.141c-34.255-36.135-62.847-74.321-82.686-110.431    c-20.504-37.322-30.664-70.776-29.382-96.745c2.265-45.859,16.21-81.326,40.327-102.568c10.219-9,20.33-13.735,27.216-16.155    c-0.008,0.45-0.002,15.35,0.312,22.351c3.664,84.478,36.625,162.313,98.293,231.76c19.141,21.556,40.23,41.349,62.664,59.439    c11.69,9.426,36.369,27.133,36.514,27.22c16.336,11.268,33.562,22.036,51.653,32.268    C388.437,401.505,391.55,406.615,391.844,412.39z M415.157,242.808c-19.572,35.211-47.31,72.222-80.429,107.357    c-10.136-7.156-20.051-14.624-29.716-22.405c-3.274-2.638-39.175-33.417-38.467-34.156    c31.911-33.238,59.315-71.236,78.733-113.115c14.504-31.281,24.454-64.694,29.23-98.845c1.979-14.155,3.113-28.434,3.382-42.723    c0.083-4.41,0.092-8.825,0.018-13.235c6.892,2.421,17.001,7.156,27.218,16.154c24.118,21.242,38.063,56.709,40.327,102.568    C446.756,170.783,436.279,204.809,415.157,242.808z"/>
	</g>
</g>















</svg>
