<?xml version="1.0" encoding="iso-8859-1"?>
<!-- Generator: Adobe Illustrator 19.0.0, SVG Export Plug-In . SVG Version: 6.00 Build 0)  -->
<svg xmlns="http://www.w3.org/2000/svg" xmlns:xlink="http://www.w3.org/1999/xlink" version="1.1" id="Layer_1" x="0px" y="0px" viewBox="0 0 512.022 512.022" style="enable-background:new 0 0 512.022 512.022;" xml:space="preserve" width="512" height="512">
<g>
	<g>
		<path style="fill:#D9D9D9;" d="M236.946,116.75c-10.717-16.542-13.584-38.004-14.294-50.688    c-0.341-6.099-5.441-10.844-11.549-10.772c-62.629,0.734-86.619,16.63-85.73,31.569l7.071,28.126l32.127,26.125L236.946,116.75z"/>
		<path style="fill:#F5F5F5;" d="M360.711,189.83c0,0,22.096-20.77,25.918-85.321c0.73-12.333-7.932-23.255-20.129-25.227    c-23.735-3.837-68.072-4.112-133.945,22.639c-58.683,23.831-105.972,5.269-107.182-15.063c0,79.934,25.938,102.971,25.938,102.971    l104.7,33.892L360.711,189.83z"/>
		<path style="fill:#FAB3CE;" d="M256.011,223.722L27.78,257.615l22.798,146.939c4.659,30.028,30.511,52.179,60.898,52.179h289.07    c30.388,0,56.24-22.15,60.898-52.179l22.798-146.939L256.011,223.722z"/>
		<path style="fill:#E381A5;" d="M80.577,404.554L57.78,257.615l213.231-31.665l-15-2.228L27.78,257.615l22.797,146.939    c4.659,30.028,30.511,52.179,60.898,52.179h30C111.088,456.733,85.236,434.582,80.577,404.554z"/>
		<path style="fill:#FC7176;" d="M503.575,231.318L503.575,231.318c-7.713-24.682-30.572-41.488-56.432-41.488H64.878    c-25.859,0-48.718,16.806-56.432,41.488v0c-4.076,13.043,5.668,26.297,19.333,26.297h456.462    C497.906,257.615,507.651,244.361,503.575,231.318z"/>
		<path style="fill:#E6676C;" d="M38.447,231.318L38.447,231.318c7.713-24.682,30.572-41.488,56.432-41.488h-30    c-25.859,0-48.718,16.806-56.432,41.488l0,0c-4.076,13.043,5.668,26.297,19.333,26.297h30    C44.115,257.615,34.371,244.361,38.447,231.318z"/>
	</g>
	<g>
		<path d="M169.167,331.161c0-4.142-3.358-7.5-7.5-7.5s-7.5,3.358-7.5,7.5v17.075c0,4.142,3.358,7.5,7.5,7.5s7.5-3.358,7.5-7.5    V331.161z"/>
		<path d="M357.855,348.236v-17.075c0-4.142-3.358-7.5-7.5-7.5s-7.5,3.358-7.5,7.5v17.075c0,4.142,3.358,7.5,7.5,7.5    S357.855,352.378,357.855,348.236z"/>
		<path d="M256.011,364.85c11.239,0,21.785-4.689,28.932-12.866c2.727-3.119,2.408-7.856-0.71-10.583    c-3.119-2.727-7.857-2.409-10.583,0.71c-4.299,4.918-10.728,7.738-17.639,7.738c-6.911,0-13.34-2.82-17.638-7.738    c-2.726-3.119-7.464-3.437-10.583-0.711s-3.437,7.464-0.711,10.583C234.225,360.16,244.771,364.85,256.011,364.85z"/>
		<path d="M510.733,229.081c-8.738-27.963-34.293-46.751-63.59-46.751h-72.064c7.312-13.13,16.663-37.304,19.037-77.377    c0.963-16.265-10.395-30.484-26.418-33.074c-8.071-1.305-16.823-1.966-26.013-1.966c-32.004,0-68.007,7.792-107.064,23.127    c-2.951-10.175-4.077-20.202-4.48-27.397c-0.56-10.012-8.862-17.854-18.901-17.854l-0.225,0.001    c-43.447,0.509-73.288,8.163-86.298,22.133c-4.73,5.08-7.087,10.941-6.844,16.975c0.006,51.432,10.657,80.561,18.934,95.431    H64.879c-29.297,0-54.852,18.788-63.59,46.75c-2.662,8.519-1.157,17.528,4.129,24.719c3.959,5.385,9.524,9.049,15.818,10.551    l21.931,141.354c2.527,16.291,10.813,31.169,23.332,41.896c12.519,10.726,28.492,16.633,44.978,16.633h37.981    c4.142,0,7.5-3.358,7.5-7.5s-3.358-7.5-7.5-7.5h-37.981c-26.873,0-49.367-19.274-53.487-45.829l-21.455-138.29h348.923    c4.142,0,7.5-3.358,7.5-7.5c0-4.142-3.358-7.5-7.5-7.5c0,0-356.894,0-357.675,0c-8.232,0-14.738-8.361-12.176-16.56    c6.771-21.667,26.572-36.225,49.273-36.225h382.265c22.7,0,42.501,14.557,49.272,36.224c2.536,8.116-3.694,16.56-12.174,16.56    h-68.785c-4.142,0-7.5,3.358-7.5,7.5c0,4.142,3.358,7.5,7.5,7.5h60.031l-21.455,138.29c-4.121,26.555-26.615,45.829-53.487,45.829    H179.457c-4.142,0-7.5,3.358-7.5,7.5s3.358,7.5,7.5,7.5h221.089c16.485,0,32.458-5.907,44.977-16.633s20.805-25.605,23.333-41.896    l21.931-141.354c6.294-1.501,11.859-5.166,15.818-10.551C511.89,246.609,513.395,237.599,510.733,229.081z M135.695,80.146    c14.39-15.453,61.424-17.192,75.545-17.357c2.085,0,3.809,1.622,3.924,3.692c0.464,8.286,1.799,19.968,5.39,31.887    c-0.095,0.032-0.191,0.067-0.286,0.098c-13.975,4.649-28.599,7.387-43.359,7.137c-10.079-0.211-21.05-2.142-29.562-5.65    C140.342,96.937,127.593,88.845,135.695,80.146z M154.669,182.33c-4.688-5.967-17.676-26.394-21.009-72.664    c6.861,4.237,15.6,7.416,25.506,9.229c25.604,4.689,52.338-0.331,76.211-10.025c39.147-15.897,74.915-23.958,106.308-23.958    c8.391,0,16.337,0.597,23.619,1.773c8.395,1.357,14.344,8.829,13.838,17.38c-2.922,49.344-16.906,71.765-21.875,78.264H154.669z"/>
	</g>
</g>















</svg>
