<?xml version="1.0" encoding="iso-8859-1"?>
<!-- Generator: Adobe Illustrator 19.0.0, SVG Export Plug-In . SVG Version: 6.00 Build 0)  -->
<svg xmlns="http://www.w3.org/2000/svg" xmlns:xlink="http://www.w3.org/1999/xlink" version="1.1" id="Layer_1" x="0px" y="0px" viewBox="0 0 512 512" style="enable-background:new 0 0 512 512;" xml:space="preserve" width="512" height="512">
<g>
	<g>
		<path style="fill:#E381A5;" d="M486.589,271.909h-21.108l-19.829,64.927l19.829,64.927h21.108c9.892,0,17.911-8.019,17.911-17.91    v-94.032C504.5,279.927,496.481,271.909,486.589,271.909z"/>
		<path style="fill:#E381A5;" d="M25.41,271.909h21.108l19.829,64.927l-19.829,64.927H25.41c-9.892,0-17.911-8.019-17.911-17.91    v-94.032C7.5,279.927,15.519,271.909,25.41,271.909z"/>
		<g>
			<path style="fill:#FAB3CE;" d="M409.513,202.35h-38.378v-86.293c0-15.11-12.293-27.403-27.403-27.403H168.267     c-15.11,0-27.403,12.293-27.403,27.403v86.293h-38.378v-86.293c0-36.272,29.509-65.781,65.781-65.781h175.465     c36.272,0,65.781,29.509,65.781,65.781V202.35z"/>
		</g>
		<g>
			<rect x="102.486" y="141.327" style="fill:#E381A5;" width="38.378" height="61.023"/>
			<rect x="371.135" y="141.327" style="fill:#E381A5;" width="38.378" height="61.023"/>
		</g>
		<path style="fill:#80C9FF;" d="M414.283,171.328H97.717c-28.276,0-51.199,22.922-51.199,51.199v179.235    c0,33.116,26.846,59.962,59.962,59.962h299.039c33.116,0,59.962-26.846,59.962-59.962V222.526    C465.482,194.25,442.56,171.328,414.283,171.328z"/>
		<path style="fill:#6DAAD9;" d="M76.518,401.762V222.526c0-28.276,22.922-51.198,51.199-51.198h-30    c-28.276,0-51.199,22.922-51.199,51.198v179.235c0,33.116,26.846,59.962,59.962,59.962h30    C103.364,461.724,76.518,434.878,76.518,401.762z"/>
		<path style="fill:#E381A5;" d="M398.959,274.444v103.353c0,19.276-15.62,34.896-34.896,34.896H147.936    c-19.276,0-34.896-15.62-34.896-34.896V274.444H398.959z"/>
		<path style="fill:#FAB3CE;" d="M364.064,239.548H147.936c-19.276,0-34.896,15.62-34.896,34.896l11.333,11.333    c14.048,14.049,33.102,21.941,52.97,21.941h157.313c19.868,0,38.921-7.892,52.97-21.941l11.333-11.333    C398.959,255.168,383.339,239.548,364.064,239.548z"/>
	</g>
	<g>
		<path d="M172.006,345.058v13.844c0,4.142,3.358,7.5,7.5,7.5s7.5-3.358,7.5-7.5v-13.844c0-4.142-3.358-7.5-7.5-7.5    S172.006,340.916,172.006,345.058z"/>
		<path d="M339.994,358.902v-13.844c0-4.142-3.358-7.5-7.5-7.5s-7.5,3.358-7.5,7.5v13.844c0,4.142,3.358,7.5,7.5,7.5    S339.994,363.044,339.994,358.902z"/>
		<path d="M269.232,353.003c-3.215,3.679-8.039,5.789-13.232,5.789s-10.017-2.11-13.233-5.789    c-2.727-3.119-7.464-3.437-10.583-0.711c-3.119,2.726-3.437,7.464-0.711,10.583c6.064,6.938,15.004,10.917,24.527,10.917    s18.462-3.979,24.526-10.917c2.726-3.119,2.408-7.857-0.711-10.583S271.958,349.884,269.232,353.003z"/>
		<path d="M266.898,266.944h-21.796c-4.142,0-7.5,3.358-7.5,7.5s3.358,7.5,7.5,7.5h21.796c4.142,0,7.5-3.358,7.5-7.5    S271.04,266.944,266.898,266.944z"/>
		<path d="M486.589,264.408h-13.607v-41.882c0-31.451-24.865-57.197-55.969-58.629v-47.84c0-40.407-32.874-73.281-73.281-73.281    H168.268c-40.407,0-73.281,32.874-73.281,73.281v47.84c-31.103,1.432-55.968,27.178-55.968,58.629v41.882H25.411    C11.399,264.408,0,275.807,0,289.819v94.032c0,14.011,11.399,25.41,25.411,25.41h14.034c3.744,33.681,32.373,59.962,67.035,59.962    H405.52c34.663,0,63.292-26.282,67.035-59.962h14.034c14.011,0,25.411-11.399,25.411-25.41v-94.032    C512,275.807,500.601,264.408,486.589,264.408z M109.986,116.057c0-32.136,26.145-58.281,58.281-58.281h175.465    c32.136,0,58.281,26.145,58.281,58.281v47.771h-23.378v-47.771c0-19.246-15.657-34.903-34.903-34.903H168.268    c-19.246,0-34.903,15.657-34.903,34.903v47.771h-23.378V116.057z M15,383.851v-94.032c0-5.741,4.67-10.411,10.411-10.411h13.607    v114.853H25.411C19.67,394.261,15,389.592,15,383.851z M405.52,454.224H106.48c-28.928,0-52.462-23.535-52.462-52.462V222.526    c0-24.095,19.603-43.698,43.698-43.698h80.031c4.142,0,7.5-3.358,7.5-7.5s-3.358-7.5-7.5-7.5h-29.383v-47.771    c0-10.975,8.928-19.903,19.903-19.903h175.465c10.975,0,19.903,8.928,19.903,19.903v47.771H207.748c-4.142,0-7.5,3.358-7.5,7.5    s3.358,7.5,7.5,7.5h206.536c24.096,0,43.699,19.603,43.699,43.698v179.235C457.982,430.689,434.447,454.224,405.52,454.224z     M497,383.851c0,5.74-4.67,10.41-10.411,10.41h-13.607V279.408h13.607c5.74,0,10.411,4.67,10.411,10.411V383.851z"/>
		<path d="M364.064,232.048H147.936c-23.377,0-42.396,19.019-42.396,42.396v103.353c0,23.377,19.019,42.396,42.396,42.396h161.812    c4.142,0,7.5-3.358,7.5-7.5s-3.358-7.5-7.5-7.5H147.936c-15.106,0-27.396-12.29-27.396-27.396v-85.281    c0.258,0.246,0.528,0.475,0.789,0.717c10.078,9.362,22.53,16.149,35.871,19.509c6.577,1.657,13.362,2.476,20.143,2.476h157.313    c8.338,0,16.75-1.179,24.688-3.761c11.654-3.79,22.326-9.872,31.324-18.224c0.261-0.243,0.532-0.472,0.791-0.718v85.282    c0,15.106-12.29,27.396-27.396,27.396h-24.316c-4.142,0-7.5,3.358-7.5,7.5s3.358,7.5,7.5,7.5h24.316    c23.377,0,42.396-19.019,42.396-42.396V274.444C406.459,251.067,387.441,232.048,364.064,232.048z M177.344,300.218    c-18.006,0-34.935-7.012-47.667-19.744l-8.979-8.979c1.475-13.725,13.127-24.447,27.238-24.447h216.128    c14.11,0,25.763,10.722,27.238,24.447l-8.979,8.979c-12.732,12.732-29.661,19.744-47.667,19.744H177.344z"/>
	</g>
</g>















</svg>
