<?xml version="1.0" encoding="iso-8859-1"?>
<!-- Generator: Adobe Illustrator 19.0.0, SVG Export Plug-In . SVG Version: 6.00 Build 0)  -->
<svg xmlns="http://www.w3.org/2000/svg" xmlns:xlink="http://www.w3.org/1999/xlink" version="1.1" id="Layer_1" x="0px" y="0px" viewBox="0 0 511.996 511.996" style="enable-background:new 0 0 511.996 511.996;" xml:space="preserve" width="512" height="512">
<g>
	<g>
		<g>
			<path style="fill:#FFB641;" d="M176.302,405.389c-3.54-0.563-35.511-6.21-67.488-30.669c-12.29-9.4-14.633-26.984-5.233-39.274     c9.4-12.29,26.985-14.634,39.275-5.232c20.842,15.941,42.249,19.836,42.463,19.873l-0.209-0.035L176.302,405.389z"/>
		</g>
		<g>
			<path style="fill:#FFB641;" d="M335.694,405.389c3.54-0.563,35.511-6.21,67.488-30.669c12.29-9.4,14.633-26.984,5.233-39.274     c-9.4-12.29-26.985-14.634-39.275-5.232c-20.842,15.941-42.249,19.836-42.463,19.873l0.209-0.035L335.694,405.389z"/>
		</g>
		<path style="fill:#FA9E25;" d="M354.635,343.223c-8.8-16.841-17.853-26.663-17.853-26.663H175.455    c0,0-10.152,11.015-19.405,29.714c-35.062,70.86,14.461,154.941,93.458,158.093c2.163,0.086,4.366,0.131,6.611,0.131    c0.841,0,1.675-0.006,2.504-0.019C340.95,503.257,392.766,416.198,354.635,343.223z"/>
		<circle style="fill:#FA9E25;" cx="129.207" cy="66.887" r="54.966"/>
		<circle style="fill:#FFDE76;" cx="129.207" cy="66.887" r="28.46"/>
		<circle style="fill:#FA9E25;" cx="382.789" cy="66.887" r="54.966"/>
		<circle style="fill:#FFDE76;" cx="382.789" cy="66.887" r="28.46"/>
		<circle style="fill:#FFB641;" cx="255.998" cy="172.542" r="165.044"/>
		<path style="fill:#FFDE76;" d="M280.459,144.6c30.401,10.208,52.284,38.938,52.284,72.772c0,42.382-34.354,76.746-76.745,76.746    s-76.746-34.364-76.746-76.746c0-33.834,21.884-62.564,52.284-72.772H280.459z"/>
		<path style="fill:#38484A;" d="M280.459,144.6c-1.895,11.798-12.124,20.814-24.461,20.814s-22.566-9.016-24.461-20.814    c7.682-2.588,15.914-3.984,24.461-3.984C264.546,140.617,272.777,142.012,280.459,144.6z"/>
		<path style="fill:#FFB641;" d="M196.747,430.719c15.218,15.218,19.541,44.214,4.322,59.432    c-15.218,15.218-44.214,10.896-59.432-4.322s-15.218-39.892,0-55.11C156.856,415.501,181.529,415.501,196.747,430.719z"/>
		<path style="fill:#FFB641;" d="M315.249,430.719c-15.218,15.218-19.541,44.214-4.322,59.432s44.214,10.896,59.432-4.322    c15.218-15.218,15.218-39.892,0-55.11C355.141,415.501,330.467,415.501,315.249,430.719z"/>
		<path style="fill:#6DAAD9;" d="M238.058,350.724c0,0-47.518,35.849-47.518-13.138s47.518-13.138,47.518-13.138V350.724z"/>
		<path style="fill:#6DAAD9;" d="M273.938,350.724c0,0,47.518,35.849,47.518-13.138s-47.518-13.138-47.518-13.138V350.724z"/>
		<path style="fill:#80C9FF;" d="M259.879,316.871h-7.762c-9.297,0-16.835,7.537-16.835,16.835v7.762    c0,9.298,7.537,16.835,16.835,16.835h7.762c9.297,0,16.835-7.537,16.835-16.835v-7.762    C276.713,324.408,269.176,316.871,259.879,316.871z"/>
	</g>
	<g>
		<path d="M172.967,126.067c-4.142,0-7.5,3.358-7.5,7.5v15.366c0,4.142,3.358,7.5,7.5,7.5s7.5-3.358,7.5-7.5v-15.366    C180.467,129.425,177.109,126.067,172.967,126.067z"/>
		<path d="M346.53,148.934v-15.366c0-4.142-3.358-7.5-7.5-7.5s-7.5,3.358-7.5,7.5v15.366c0,4.142,3.358,7.5,7.5,7.5    S346.53,153.076,346.53,148.934z"/>
		<path d="M284.756,178.039c-3.118-2.725-7.856-2.409-10.583,0.711c-4.43,5.069-11.055,7.976-18.175,7.976    c-7.121,0-13.745-2.907-18.175-7.976c-2.726-3.119-7.464-3.437-10.583-0.711s-3.437,7.464-0.711,10.583    c7.279,8.328,18.021,13.104,29.469,13.104c11.449,0,22.189-4.776,29.469-13.104C288.193,185.503,287.875,180.765,284.756,178.039z    "/>
		<path d="M445.256,66.889c0-34.444-28.022-62.466-62.466-62.466c-16.136,0-31.521,6.239-43.094,17.283    C314.89,7.888,286.35,0,255.998,0s-58.893,7.888-83.697,21.706c-11.574-11.044-26.958-17.283-43.095-17.283    c-34.444,0-62.466,28.022-62.466,62.466c0,20.005,9.728,38.838,25.748,50.518c-5.856,17.321-9.034,35.865-9.034,55.137    c0,21.832,4.026,43.113,11.967,63.254c1.519,3.854,5.875,5.748,9.728,4.226c3.854-1.519,5.746-5.875,4.226-9.728    c-7.247-18.381-10.921-37.812-10.921-57.752C98.454,85.674,169.128,15,255.998,15s157.544,70.674,157.544,157.544    c0,57.603-31.092,109.81-80.521,137.462c-0.01,0.006-0.021,0.009-0.032,0.015c-3,1.715-6.078,3.261-9.197,4.748    c-0.475-0.76-0.981-1.485-1.522-2.173c-2.311-2.934-5.189-5.113-8.539-6.511c-8.781-3.663-18.547-1.19-26.923,2.366    c-4.596,1.951-8.705,4.271-11.794,6.204c-0.096-0.076-0.199-0.141-0.296-0.216c-4.212-3.246-9.495-5.067-14.838-5.067h-7.762    c-5.449,0-10.874,1.881-15.137,5.281c-3.111-1.947-7.254-4.285-11.888-6.244c-5.515-2.332-11.382-4.112-17.42-4.112    c-7.466,0-13.672,2.869-17.947,8.298c-0.542,0.688-1.048,1.413-1.523,2.173c-0.911-0.434-7.03-3.533-9.12-4.705    c-0.01-0.006-0.022-0.009-0.033-0.015c-23.233-12.982-42.733-31.571-56.981-54.509c-2.185-3.518-6.809-4.599-10.329-2.414    c-3.519,2.186-4.599,6.81-2.414,10.329c14.026,22.58,32.706,41.304,54.823,55.188c-2.243,3.013-4.962,6.924-7.844,11.648    c-3.102-1.882-6.088-3.887-8.892-6.032c-15.396-11.776-38.039-8.73-49.789,6.632c-11.752,15.365-8.697,38.063,6.633,49.788    c10.149,7.762,21.243,14.423,33.026,19.854c0.352,7.149,1.367,14.287,3.053,21.328c-1.388,1.104-2.729,2.284-4.002,3.557    c-18.118,18.118-18.118,47.599,0,65.717c10.018,10.018,24.832,15.999,39.628,15.999c9.657,0,18.49-2.657,25.493-7.566    c14.78,7.479,30.816,11.62,47.753,12.296c3.174,0.127,6.349,0.155,9.525,0.117c18.368-0.273,35.698-4.5,51.602-12.552    c7.035,5,15.948,7.704,25.699,7.705c14.795,0,29.609-5.981,39.627-15.999c18.118-18.118,18.118-47.599,0-65.717    c-1.289-1.289-2.647-2.482-4.054-3.598c1.698-7.029,2.723-14.149,3.092-21.282c11.789-5.433,22.888-12.095,33.039-19.859    c15.356-11.745,18.373-34.44,6.634-49.788c-11.744-15.353-34.447-18.369-49.789-6.633c-2.753,2.106-5.68,4.077-8.718,5.928    c-2.887-4.722-5.608-8.631-7.845-11.633c49.667-31.243,80.522-85.951,80.522-146.009c0-19.272-3.178-37.816-9.034-55.137    C435.527,105.727,445.256,86.894,445.256,66.889z M108.247,66.889c0-11.557,9.402-20.959,20.959-20.959    c2.763,0,5.447,0.533,7.933,1.549c-9.714,9.225-18.284,19.493-25.599,30.674C109.42,74.829,108.247,70.931,108.247,66.889z     M81.741,66.889c0-26.173,21.293-47.466,47.466-47.466c10.896,0,21.347,3.74,29.714,10.467c-3.317,2.264-6.55,4.641-9.693,7.124    c-5.876-3.955-12.788-6.084-20.021-6.084c-19.828,0-35.959,16.131-35.959,35.959c0,9.428,3.721,18.394,10.18,25.048    c-1.88,3.545-3.637,7.157-5.266,10.833C87.872,93.833,81.741,80.729,81.741,66.889z M283.353,347.872    c0.571-2.079,0.861-4.246,0.861-6.403v-7.762c0-2.153-0.293-4.318-0.858-6.394c-0.012-0.044-0.02-0.09-0.033-0.135    c5.706-3.496,14.393-7.881,21.001-7.881c8.408,0,9.532,11.084,9.624,17.236c0.005,0.352,0.008,0.703,0.008,1.055    c0,9.346-1.887,13.703-3.469,15.713c-0.945,1.2-2.5,2.578-6.162,2.578c-6.648,0-15.265-4.342-21.004-7.873    C283.333,347.961,283.341,347.916,283.353,347.872z M259.879,324.373c5.039,0,9.334,4.301,9.334,9.334v7.762    c0,4.932-4.115,9.17-9.041,9.33c-0.098,0.003-8.054,0.005-8.055,0.005c-5.059,0-9.334-4.272-9.334-9.334v-7.762    c0-5.054,4.286-9.334,9.335-9.334C252.117,324.373,259.877,324.373,259.879,324.373z M228.676,348.006    c-5.742,3.533-14.356,7.873-21.003,7.873c-2.882,0-9.632-0.001-9.632-18.291c0-4.985,0.223-11.106,3.208-15.343    c2.728-3.871,8.156-3.174,12.108-2.102c4.526,1.228,9.458,3.602,13.58,5.989c0.583,0.34,1.164,0.684,1.738,1.038    c-0.013,0.048-0.022,0.098-0.035,0.146c-0.566,2.076-0.858,4.239-0.858,6.391v7.762c0,2.154,0.285,4.322,0.86,6.399    C228.655,347.914,228.663,347.961,228.676,348.006z M105.659,355.157c-0.703-5.24,0.51-10.748,3.879-15.153    c6.792-8.88,19.887-10.62,28.761-3.832c3.401,2.602,7.006,5.043,10.772,7.3c-0.186,0.38-2.052,4.428-2.064,4.455    c-5.109,11.608-8.259,23.695-9.403,36.099c-8.572-4.381-16.689-9.491-24.233-15.261    C109.019,365.436,106.367,360.433,105.659,355.157z M146.941,480.528c-5.944-5.944-9.217-13.846-9.217-22.252    c0-17.107,14.373-31.468,31.469-31.468c18.653,0,31.646,16.315,33.597,33.792c0.878,9.311-1.486,18.181-6.383,23.566    C183.783,498.046,158.807,492.394,146.941,480.528z M365.055,480.528c-7.159,7.159-18.279,11.605-29.021,11.605    c-7.919,0-14.83-2.493-19.523-7.019c-6.416-6.186-8.117-16.125-7.288-24.653c2.006-17.442,14.94-33.653,33.561-33.653    c0.016,0,0.031,0,0.046,0c8.276,0,16.377,3.368,22.226,9.216C377.325,448.294,377.325,468.258,365.055,480.528z M373.697,336.172    c8.893-6.802,21.973-5.044,28.761,3.832c6.873,8.985,5.153,21.887-3.832,28.76c-7.532,5.761-15.638,10.865-24.196,15.242    c-1.202-13.415-4.74-26.47-10.559-38.993c-0.055-0.118-0.565-1.217-0.772-1.646C366.801,341.141,370.347,338.734,373.697,336.172z     M346.646,344.196c1.221,2.23,2.492,4.5,3.479,6.845c9.321,19.998,12.017,42.03,7.783,63.271    c-1.248-0.432-2.519-0.761-3.788-1.124c-15.71-3.967-32.731,0.789-44.175,12.229c-7.633,7.632-12.978,18.156-15.051,29.422    c-2.047,11.127-0.943,23.162,4.873,33.042c-12.813,5.827-26.651,8.883-41.255,9.1c-2.877,0.042-5.843,0.007-8.706-0.107    c-13.281-0.53-25.916-3.487-37.677-8.809c6.599-11.043,7.391-24.907,3.976-37.641c-3.868-14.42-13.32-27.755-27.189-34.247    c-10.838-5.073-23.562-5.779-34.874-1.85c-3.999-20.337-1.648-41.42,6.795-60.572c4.283-9.715,9.943-19.151,16.458-27.627    c0.207,0.106,5.733,2.799,6.241,3.034c-0.327,2.6-0.495,5.4-0.495,8.426c0,11.104,2.187,19.279,6.686,24.992    c4.275,5.429,10.48,8.299,17.948,8.299c6.896,0,14.919-2.428,23.843-7.217c2.033-1.091,3.877-2.181,5.455-3.166    c4.159,3.317,9.422,5.307,15.144,5.307h7.762c5.722,0,10.985-1.99,15.145-5.308c1.578,0.984,3.423,2.075,5.456,3.166    c8.925,4.789,16.947,7.217,23.847,7.218c7.464,0,13.67-2.87,17.945-8.298c4.498-5.712,6.685-13.888,6.685-24.993    c0-3.022-0.168-5.82-0.495-8.418c2.164-1.001,4.302-2.042,6.41-3.124C337.817,329.875,342.206,336.086,346.646,344.196z     M382.789,19.423c26.173,0,47.466,21.293,47.466,47.466c0,13.839-6.131,26.944-16.421,35.881    c-1.629-3.675-3.387-7.288-5.266-10.833c6.46-6.654,10.18-15.62,10.18-25.048c0-19.828-16.131-35.959-35.959-35.959    c-7.233,0-14.145,2.13-20.021,6.084c-3.143-2.483-6.376-4.86-9.693-7.124C361.442,23.163,371.893,19.423,382.789,19.423z     M374.857,47.479c2.486-1.016,5.169-1.549,7.933-1.549c11.557,0,20.959,9.402,20.959,20.959c0,4.042-1.173,7.939-3.293,11.263    C393.14,66.972,384.571,56.704,374.857,47.479z"/>
		<path d="M282.854,137.495L282.854,137.495L282.854,137.495c-0.003-0.001-0.005-0.002-0.007-0.002    c-0.002-0.001-0.005-0.001-0.008-0.002c-8.616-2.901-17.646-4.372-26.842-4.372c-9.196,0-18.228,1.472-26.844,4.373    c-0.001,0-0.002,0-0.004,0.001c-0.001,0-0.002,0.001-0.003,0.001s-0.003,0.001-0.004,0.001c-0.002,0.001-0.004,0.002-0.006,0.002    c-34.323,11.532-57.384,43.63-57.384,79.877c0,46.453,37.792,84.246,84.246,84.246s84.245-37.792,84.245-84.246    C340.243,181.125,317.181,149.025,282.854,137.495z M270.73,149.687c-2.301,3.764-6.067,6.577-10.348,7.673    c-6.996,1.792-14.653-1.007-18.707-7.023c-0.143-0.212-0.275-0.432-0.408-0.65C250.884,147.604,261.114,147.604,270.73,149.687z     M255.998,286.62c-38.182,0-69.246-31.063-69.246-69.246c0-27.228,15.825-51.607,40.079-62.839    c0.617,1.301,1.321,2.56,2.108,3.766c4.385,6.722,11.214,11.609,18.991,13.606c11.913,3.06,24.913-1.069,32.825-10.492    c1.752-2.087,3.249-4.414,4.41-6.88c24.253,11.232,40.079,35.611,40.079,62.839C325.243,255.556,294.18,286.62,255.998,286.62z"/>
	</g>
</g>















</svg>
