<?xml version="1.0" encoding="iso-8859-1"?>
<!-- Generator: Adobe Illustrator 19.0.0, SVG Export Plug-In . SVG Version: 6.00 Build 0)  -->
<svg xmlns="http://www.w3.org/2000/svg" xmlns:xlink="http://www.w3.org/1999/xlink" version="1.1" id="Layer_1" x="0px" y="0px" viewBox="0 0 512.022 512.022" style="enable-background:new 0 0 512.022 512.022;" xml:space="preserve" width="512" height="512">
<g>
	<g>
		<path style="fill:#FAB3CE;" d="M269.104,494.177h26.123c65.063-94.475-6.239-159.93,25.847-214.297s90.91-262.034-65.063-262.034    s-97.149,207.666-65.063,262.034s-39.216,119.823,25.847,214.297h26.123l13.093-17.75L269.104,494.177z"/>
		<path style="fill:#FC7176;" d="M501.037,129.147c-5.741-14.304-20.907-32.225-60.559-36.369    c-29.392-3.07-67.74,2.001-114.138,15.077c-1.716-11.468-4.891-21.955-9.927-30.776c-6.872-12.041-20.606-28.039-60.402-28.039    c-16.444,0-30.045,2.816-40.428,8.369c-8.467,4.528-15,10.963-19.973,19.67c-5.036,8.82-8.211,19.308-9.927,30.776    c-46.398-13.076-84.747-18.147-114.138-15.077c-39.652,4.144-54.818,22.066-60.559,36.369    c-6.461,16.099-3.851,34.995,7.347,53.208c10.042,16.333,26.227,30.698,45.572,40.448c15.911,8.019,32.944,12.028,50.617,12.028    c17.947,0,34.494-3.244,53.251-11.51l-7.874-30.655c-28.821,12.702-58.151,14.279-81.955,2.281    c-29.289-14.762-43.538-40.402-38.008-54.181c3.598-8.965,15.975-14.99,34.851-16.962c26.503-2.77,64.266,2.802,109.497,16.116    c2.118,48.14,20.416,101.888,33.527,124.105c19.617,33.236,12.727,64.787,7.193,90.134c-6.114,28.004-2.576,103.78,17.915,140.019    h26.186c20.49-36.239,24.029-112.015,17.915-140.019c-5.535-25.348-12.424-56.899,7.193-90.134    c13.112-22.217,31.409-75.964,33.527-124.105c45.231-13.314,82.994-18.886,109.497-16.116    c18.876,1.973,31.253,7.997,34.851,16.962c5.53,13.779-8.72,39.419-38.008,54.181c-23.805,11.997-53.134,10.421-81.955-2.281    l-7.874,30.655c18.758,8.267,35.305,11.51,53.251,11.51c17.673,0,34.705-4.009,50.617-12.028    c19.346-9.75,35.53-24.115,45.572-40.448C504.889,164.141,507.498,145.245,501.037,129.147z"/>
		<path style="fill:#E6676C;" d="M114.52,234.831c8.739,0,17.147-0.777,25.64-2.521c3.396-10.509,3.469-21.846,0.345-32.812    c-22.301,5.888-44.094,4.755-62.562-4.552c-24.086-12.139-37.989-31.631-39.097-45.837c-11.079,3.824-20.598,10.29-27.552,18.769    c1.749,4.831,4.087,9.677,7.038,14.477c10.042,16.333,26.227,30.698,45.572,40.448C79.815,230.822,96.848,234.831,114.52,234.831z    "/>
		<path style="fill:#E6676C;" d="M397.501,234.831c-8.739,0-17.147-0.777-25.64-2.521c-3.396-10.509-3.469-21.846-0.345-32.812    c22.301,5.888,44.094,4.755,62.562-4.552c24.086-12.139,37.989-31.631,39.097-45.837c11.079,3.824,20.598,10.29,27.552,18.769    c-1.749,4.831-4.087,9.677-7.038,14.477c-10.042,16.333-26.227,30.698-45.572,40.448    C432.206,230.822,415.174,234.831,397.501,234.831z"/>
		
			<ellipse transform="matrix(0.9345 0.3559 -0.3559 0.9345 78.9739 -11.5656)" style="fill:#F5F5F5;" cx="70.923" cy="208.875" rx="48.129" ry="37.136"/>
		<path style="fill:#D9D9D9;" d="M45.945,201.747c6.826-17.925,30.056-25.967,53.356-19.197c-4.422-3.363-9.514-6.23-15.162-8.381    c-24.841-9.459-50.895-1.589-58.194,17.578s6.922,42.374,31.763,51.833c1.609,0.613,3.224,1.149,4.838,1.619    C47.52,233.77,40.306,216.556,45.945,201.747z"/>
		
			<ellipse transform="matrix(-0.9345 0.3559 -0.3559 -0.9345 927.6523 247.1043)" style="fill:#F5F5F5;" cx="441.098" cy="208.875" rx="48.129" ry="37.136"/>
		<path style="fill:#D9D9D9;" d="M464.314,223.58c-24.841,9.459-50.895,1.589-58.194-17.578c-1.962-5.152-2.356-10.596-1.42-15.987    c-9.37,10.737-13.094,24.132-8.58,35.987c7.299,19.167,33.353,27.037,58.194,17.578c18.163-6.917,30.635-21.183,33.182-35.846    C481.716,214.358,473.791,219.971,464.314,223.58z"/>
	</g>
	<g>
		<path d="M209.116,132.895c-4.142,0-7.5,3.358-7.5,7.5v8.487c0,4.142,3.358,7.5,7.5,7.5s7.5-3.358,7.5-7.5v-8.487    C216.616,136.253,213.258,132.895,209.116,132.895z"/>
		<path d="M302.906,132.895c-4.142,0-7.5,3.358-7.5,7.5v8.487c0,4.142,3.358,7.5,7.5,7.5s7.5-3.358,7.5-7.5v-8.487    C310.406,136.253,307.048,132.895,302.906,132.895z"/>
		<path d="M272.521,142.645c-3.118-2.727-7.857-2.409-10.583,0.71c-1.421,1.625-3.582,2.557-5.928,2.557    c-2.347,0-4.507-0.932-5.928-2.557c-2.727-3.118-7.465-3.438-10.583-0.71c-3.119,2.726-3.437,7.464-0.71,10.583    c4.269,4.884,10.546,7.685,17.221,7.685s12.952-2.801,17.221-7.685C275.958,150.109,275.64,145.371,272.521,142.645z"/>
		<path d="M441.258,85.318c-21.731-2.27-48.125-0.25-78.753,5.983c-11.729-52.996-48.386-80.956-106.493-80.956    c-13.228,0-25.547,1.482-36.613,4.405c-4.005,1.058-6.394,5.162-5.336,9.167c1.058,4.005,5.161,6.393,9.167,5.336    c9.817-2.593,20.847-3.908,32.783-3.908c50.809,0,81.682,23.266,91.865,69.172c-5.109,1.208-10.321,2.518-15.642,3.941    c-2.094-9.511-5.213-17.926-9.307-25.096c-13.853-24.262-40.506-31.823-66.916-31.823c-31.106,0-60.599,12.417-72.146,43.051    c-1.627,4.317-2.993,8.942-4.077,13.868c-5.321-1.423-10.533-2.734-15.642-3.941c5.491-24.747,17.027-43.051,34.351-54.475    c3.458-2.281,4.413-6.932,2.132-10.39c-2.281-3.458-6.933-4.412-10.39-2.132c-20.71,13.658-34.372,35.105-40.72,63.781    c-30.629-6.233-57.023-8.252-78.755-5.983c-43.368,4.533-60.23,24.817-66.74,41.036c-7.368,18.358-4.556,39.642,7.918,59.93    c1.632,2.654,3.47,5.319,5.473,7.958c-4.762,21.823,11.074,46.237,37.623,56.348c7.834,2.983,15.877,4.496,23.905,4.496    c14.196,0,26.512-4.667,34.904-12.757c0.226,0.002,0.453,0.003,0.673,0.003c17.156,0,32.446-2.804,48.578-8.981    c6.88,21.186,14.7,39.007,21.39,50.342c11.943,20.237,7.653,43.236,2.685,69.868c-7.248,38.853-16.269,87.206,23.444,144.872    c1.399,2.032,3.709,3.246,6.177,3.246h78.432c2.468,0,4.777-1.214,6.177-3.246c39.713-57.666,30.693-106.02,23.445-144.872    c-4.968-26.631-9.259-49.63,2.684-69.867c6.69-11.335,14.51-29.156,21.39-50.342c16.133,6.177,31.422,8.981,48.579,8.981    c0.22,0,0.447-0.002,0.673-0.003c8.392,8.09,20.708,12.757,34.904,12.757c8.027,0,16.071-1.513,23.904-4.496    c26.55-10.11,42.386-34.524,37.624-56.347c2.002-2.639,3.841-5.303,5.473-7.958c12.474-20.288,15.286-41.571,7.918-59.93    C496.204,96.97,465.195,87.82,441.258,85.318z M46.895,143.559c2.439-6.079,13.158-10.675,28.671-12.296    c18.06-1.889,41.857,0.324,69.961,6.417c0.438,16.774,2.594,33.901,5.818,50.412c-10.638,4.13-21.113,6.574-31.26,7.296    c-0.507-0.959-1.038-1.914-1.618-2.861c-11.46-18.704-33.891-29.862-55.565-29.862c-3.671,0-7.214,0.318-10.599,0.921    C46.544,154.889,45.336,147.445,46.895,143.559z M78.944,240.085c-6.197,0-12.444-1.183-18.567-3.514    c-20.631-7.857-32.865-26.333-27.652-41.483c0.005-0.013,0.012-0.025,0.017-0.039c6.643-19.229,32.95-19.878,48.729-13.87    c14.37,5.472,29.82,18.921,28.789,35.751c-0.005,0.084-0.012,0.168-0.018,0.253C109.11,232.834,92.929,240.085,78.944,240.085z     M123.492,227.027c0.03-0.091,0.052-0.184,0.081-0.275c1.72-5.391,2.153-11.139,1.364-16.737    c9.723-1.036,19.632-3.414,29.621-7.102c1.299,5.467,2.696,10.829,4.171,16.045C146.865,223.594,135.564,226.189,123.492,227.027z     M220.784,486.677c-33.657-51.064-25.808-93.148-18.865-130.367c5.292-28.367,10.291-55.161-4.512-80.243    c-7.011-11.88-15.334-31.318-22.308-54.312c-0.021-0.1-0.037-0.201-0.063-0.301l-7.874-30.655    c-0.018-0.07-0.045-0.135-0.064-0.204c-3.376-16.045-5.755-32.836-6.449-49.366c5.367,1.351,10.862,2.826,16.442,4.415    c3.216,47.801,20.933,98.309,33.101,120.167c8.139,14.621,13.182,29.48,13.19,46.402c0.007,14.178-2.942,27.683-5.706,40.345    c-1.745,7.991-2.3,16.2-2.619,24.355c-1.045,26.676,1.037,53.95,6.888,80.013c2.229,10.126,5.06,20.164,9.039,29.751H220.784z     M436.456,131.263c15.513,1.621,26.23,6.218,28.67,12.296c1.56,3.886,0.352,11.33-5.408,20.026    c-3.385-0.603-6.928-0.921-10.599-0.921c-22.71,0-46.386,12.318-57.183,32.723c-10.147-0.721-20.622-3.166-31.26-7.296    c3.225-16.51,5.38-33.637,5.818-50.412C394.598,131.587,418.397,129.373,436.456,131.263z M353.292,218.958    c1.475-5.217,2.872-10.578,4.171-16.045c9.989,3.688,19.898,6.066,29.621,7.102c-0.304,2.152-0.426,4.299-0.369,6.431    c0.095,3.585,0.697,7.171,1.814,10.581C376.458,226.189,365.157,223.594,353.292,218.958z M451.645,236.571    c-14.3,5.446-34.972,5.749-45.292-7.572c-6.522-8.419-5.338-19.939-0.009-28.635c5.138-8.384,13.735-15.197,24.208-19.186    c15.843-6.033,41.986-5.337,48.725,13.86c0.005,0.014,0.012,0.027,0.017,0.041C484.515,210.231,472.281,228.713,451.645,236.571z     M487.301,178.427c-0.067,0.11-0.135,0.22-0.204,0.33c-3.417-4.177-7.745-7.644-12.778-10.276    c6.353-11.019,8.145-21.994,4.729-30.508c-3.314-8.257-13.124-18.711-41.032-21.628c-20.812-2.176-48.251,0.576-80.463,7.976    c-0.052,0.011-0.104,0.015-0.156,0.027c-10.663,2.515-21.265,5.284-31.777,8.377c-3.075,0.905-5.234,3.664-5.375,6.865    c-2.126,48.331-20.646,100.549-32.494,120.622c-21.113,35.771-13.569,70.319-8.061,95.546c2.101,9.623,2.967,25.899,2.316,43.541    c-0.152,4.14,3.08,7.619,7.219,7.771c4.163,0.146,7.619-3.08,7.771-7.219c0.704-19.11-0.262-36.348-2.652-47.294    c-5.529-25.321-11.795-54.021,6.324-84.721c12.098-20.498,30.713-72.224,34.193-121.31c0.021-0.293,0.048-0.588,0.068-0.881    c5.58-1.589,11.075-3.064,16.442-4.415c-0.694,16.531-3.072,33.321-6.449,49.366c-0.02,0.069-0.047,0.135-0.064,0.204    l-7.874,30.655c-0.026,0.1-0.042,0.201-0.063,0.301c-6.974,22.994-15.297,42.431-22.308,54.312    c-14.802,25.082-9.804,51.875-4.512,80.242c6.943,37.218,14.792,79.302-18.865,130.367h-10.204    c5.519-13.334,8.895-27.49,11.337-41.68c0.841-4.856,1.518-9.732,2.169-14.616c0.513-4.11-2.403-7.858-6.514-8.371    c-4.114-0.511-7.858,2.404-8.371,6.514c-1.96,15.715-4.936,31.495-10.223,46.455c-1.408,3.984-3.001,7.907-4.868,11.698l-17.121,0    c-4.624-9.362-7.592-19.401-9.987-29.534c-6.817-28.85-9.404-60.015-6.804-89.565c0.348-3.958,0.809-7.939,1.679-11.821    c5.508-25.226,13.052-59.774-8.062-95.545c-9.626-16.31-23.657-53.841-29.721-93.264c-1.394-9.063-2.37-18.196-2.773-27.358    c-0.139-3.167-2.339-5.972-5.375-6.865c-10.511-3.094-21.098-5.922-31.776-8.377c-0.054-0.012-0.108-0.017-0.162-0.028    c-32.208-7.399-59.644-10.149-80.456-7.975c-27.91,2.917-37.718,13.372-41.032,21.628c-3.417,8.514-1.625,19.489,4.729,30.508    c-5.033,2.633-9.361,6.1-12.778,10.277c-0.069-0.11-0.137-0.22-0.204-0.33c-9.923-16.139-12.329-32.648-6.775-46.486    c7.131-17.768,25.935-28.73,54.378-31.704c21.909-2.289,49.221,0.178,81.414,7.294c0.013,0.003,0.026,0.008,0.04,0.011    c10.036,2.152,19.993,4.746,29.87,7.532c4.292,1.21,8.794-1.711,9.452-6.109c1.664-11.118,4.7-20.595,9.022-28.166    c11.058-19.368,33.12-24.26,53.889-24.26c20.935,0,42.735,4.714,53.888,24.259c3.242,5.678,5.76,12.428,7.519,20.139    c0.586,2.57,1.088,5.248,1.504,8.027c0.683,4.563,5.499,7.219,9.778,6.02c2.514-0.707,24.73-6.378,29.544-7.443    c0.013-0.003,0.026-0.008,0.04-0.011c32.194-7.116,59.505-9.582,81.415-7.294c28.443,2.973,47.247,13.936,54.378,31.704    C499.63,145.779,497.224,162.287,487.301,178.427z"/>
	</g>
</g>















</svg>
