<?xml version="1.0" encoding="iso-8859-1"?>
<!-- Generator: Adobe Illustrator 19.0.0, SVG Export Plug-In . SVG Version: 6.00 Build 0)  -->
<svg xmlns="http://www.w3.org/2000/svg" xmlns:xlink="http://www.w3.org/1999/xlink" version="1.1" id="Layer_1" x="0px" y="0px" viewBox="0 0 511.908 511.908" style="enable-background:new 0 0 511.908 511.908;" xml:space="preserve" width="512" height="512">
<g>
	<g>
		<path style="fill:#FA9E25;" d="M436.911,244.027l-19.308-17.378l-161.649-27.16l-161.649,27.16l-19.308,17.378    c-9.319,8.383-16.343,18.796-20.648,30.283l201.606,28.194l201.605-28.194C453.255,262.823,446.231,252.41,436.911,244.027z"/>
		<path style="fill:#FA9E25;" d="M250.693,426.629L54.348,456.794c4.305,11.487,11.329,21.899,20.648,30.283    c12.366,11.131,28.645,17.377,45.286,17.377c0,0,271.26,0,271.343,0c29.667,0,55.825-20.141,65.934-47.66L250.693,426.629z"/>
		<path style="fill:#80C9FF;" d="M462.495,301.449v128.204c0,9.368-1.704,18.55-4.935,27.14H54.348    c-3.231-8.59-4.935-17.772-4.935-27.14V301.449c0-9.369,1.704-18.55,4.935-27.14H457.56    C460.791,282.899,462.495,292.081,462.495,301.449z"/>
		<ellipse style="fill:#87BA7D;" cx="337.561" cy="371.134" rx="53.525" ry="50.156"/>
		<path style="fill:#FFDE76;" d="M189.076,346.573c-20.957-17.471-38.197-50.473-62.825-28.8    c-30.913,27.204-15,103.517,31.412,103.517S217.914,385.716,189.076,346.573z"/>
		<g>
			<path style="fill:#FC7176;" d="M333.273,213.354c-3.475,0-6.999-0.819-10.289-2.547c-10.837-5.693-15.008-19.094-9.314-29.931     l84.873-161.56c5.692-10.836,19.092-15.008,29.931-9.314c10.837,5.693,15.008,19.094,9.314,29.931l-84.873,161.56     C348.95,209.04,341.245,213.354,333.273,213.354z"/>
		</g>
		<path style="fill:#E6676C;" d="M333.917,142.332l-20.248,38.544c-5.693,10.837-1.523,24.238,9.314,29.931    c3.29,1.728,6.814,2.547,10.289,2.547c7.972,0,15.677-4.314,19.642-11.861l31.079-59.16H333.917z"/>
		<path style="fill:#FFB641;" d="M417.605,172.332H94.304c-14.999,0-27.158,12.159-27.158,27.158v0    c0,14.999,12.159,27.158,27.158,27.158h323.301c14.999,0,27.158-12.159,27.158-27.158v0    C444.763,184.492,432.604,172.332,417.605,172.332z"/>
		<path style="fill:#FC7176;" d="M277.304,320.977c-6.936,0-13.573,1.138-19.702,3.203c-6.13-2.065-12.767-3.203-19.702-3.203    c-30.921,0-55.988,22.456-55.988,50.156c0,27.701,25.067,50.156,55.988,50.156c2.078,0,4.13-0.102,6.149-0.301    c9.007-0.886,18.1-0.886,27.107,0c2.019,0.199,4.071,0.301,6.149,0.301c30.921,0,55.988-22.456,55.988-50.156    C333.292,343.433,308.225,320.977,277.304,320.977z"/>
	</g>
	<g>
		<path d="M47.328,271.623c-3.593,9.554-5.416,19.574-5.416,29.78v128.204c0,10.202,1.821,20.218,5.416,29.782    c4.752,12.675,12.585,24.161,22.65,33.215c13.829,12.448,31.693,19.304,50.304,19.304h271.342    c32.074,0,61.381-21.099,72.961-52.54c0.004-0.012,0.009-0.023,0.021-0.061c3.574-9.529,5.388-19.521,5.388-29.7V301.403    c0-10.201-1.82-20.214-5.413-29.772c-4.752-12.678-12.586-24.168-22.654-33.225l-8.848-7.963    c11.361-5.695,19.182-17.447,19.182-30.998c0-19.111-15.547-34.658-34.658-34.658h-36.959c0,0,63.729-121.313,63.781-121.412    c7.525-14.323,1.817-32.556-12.466-40.058c-14.186-7.452-32.493-1.935-40.058,12.466l-78.277,149.005H180.683    c-4.142,0-7.5,3.358-7.5,7.5s3.358,7.5,7.5,7.5h236.921c10.839,0,19.658,8.819,19.658,19.658s-8.819,19.658-19.66,19.658    c0,0-323.298,0-323.299,0c-10.839,0-19.658-8.819-19.658-19.658s8.819-19.658,19.658-19.658h56.379c4.142,0,7.5-3.358,7.5-7.5    s-3.358-7.5-7.5-7.5H94.304c-19.111,0-34.658,15.548-34.658,34.658c0,13.551,7.821,25.302,19.182,30.998l-8.847,7.962    C59.916,247.458,52.085,258.94,47.328,271.623z M330.569,164.786c0,0,74.507-141.829,74.612-142.029    c3.717-7.075,12.736-9.874,19.803-6.163c7.082,3.719,9.887,12.716,6.163,19.803l-67.446,128.388H330.569z M391.625,496.908    H120.283c-14.682,0-29.359-5.632-40.27-15.454c-5.505-4.952-10.199-10.788-13.875-17.207h281.898c4.142,0,7.5-3.358,7.5-7.5    s-3.358-7.5-7.5-7.5H59.74c-1.878-6.372-2.828-12.958-2.828-19.64V301.403c0-6.682,0.95-13.268,2.828-19.64h392.428    c1.877,6.372,2.827,12.957,2.827,19.64v128.204c0,6.683-0.95,13.269-2.827,19.64H377.9c-4.142,0-7.5,3.358-7.5,7.5    s3.358,7.5,7.5,7.5h67.946C434.551,484.144,413.893,496.908,391.625,496.908z M80.014,249.555l17.169-15.452h317.542l17.17,15.453    c5.505,4.953,10.198,10.789,13.875,17.207H66.137C69.814,260.344,74.508,254.508,80.014,249.555z"/>
		<path d="M398.586,371.088c0-31.792-27.376-57.656-61.025-57.656c-10.404,0-20.533,2.482-29.555,7.211    c-9.106-4.589-19.571-7.212-30.702-7.212c-3.541,0-7.048,0.271-10.503,0.795c0.91-4.428,2.121-7.959,3.569-10.301    c2.179-3.523,1.089-8.145-2.433-10.324c-3.524-2.179-8.145-1.089-10.324,2.433c-2.819,4.558-4.881,10.837-6.161,18.729    c-4.434-0.878-8.966-1.332-13.553-1.332c-20.198,0-38.209,8.62-49.845,22.011c-2.69-2.635-5.364-5.447-7.985-8.209    c-11.26-11.867-22.902-24.139-37.661-24.139c-7.221,0-14.324,3.029-21.112,9.002c-20.849,18.347-22.289,53.039-12.935,77.827    c9.173,24.308,27.604,38.821,49.302,38.821c20.336,0,32.839-6.108,40.429-12.786c10.897,7.989,24.743,12.786,39.806,12.786    c6.602,0,13.189-0.515,19.787-0.673c6.575-0.158,13.062,0.673,19.618,0.673c11.131,0,21.596-2.623,30.702-7.212    c9.022,4.729,19.151,7.212,29.555,7.212C371.21,428.744,398.586,402.88,398.586,371.088z M157.664,413.744    c-21.915,0-31.965-20.362-35.268-29.117c-8.643-22.904-4.855-49.245,8.81-61.27c4.024-3.542,7.689-5.263,11.203-5.263    c8.313,0,17.7,9.895,26.779,19.463c3.382,3.564,6.845,7.215,10.452,10.608c-0.053,0.111-0.097,0.225-0.149,0.335    c-4.596,9.763-6.147,20.834-4.323,31.475c1.583,9.31,5.639,18.081,11.879,25.636C180.266,410.894,170.095,413.744,157.664,413.744    z M271.889,413.479c-4.726-0.465-9.533-0.701-14.288-0.701c-6.589,0-13.128,0.965-19.703,0.965    c-13.977,0-26.584-5.236-35.441-13.588c-13.629-12.852-17.107-33.575-7.026-49.627c12.272-19.54,38.516-26.453,59.776-19.287    c1.553,0.523,3.236,0.523,4.79,0c14.509-4.888,31.095-3.388,44.306,4.432c19.313,11.432,27.73,35.692,15.716,55.577    c-3.801,6.291-9.408,11.516-15.714,15.25C294.614,412.238,283.069,414.578,271.889,413.479z M337.561,413.744    c-5.118,0-10.143-0.78-14.904-2.292c7.821-7.229,13.366-16.179,16.133-25.973c2.65-9.378,2.648-19.406-0.001-28.785    c-2.764-9.788-8.31-18.739-16.133-25.97c4.761-1.513,9.786-2.292,14.904-2.292c25.378,0,46.025,19.136,46.025,42.656    S362.939,413.744,337.561,413.744z"/>
	</g>
</g>















</svg>
