<?xml version="1.0" encoding="iso-8859-1"?>
<!-- Generator: Adobe Illustrator 19.0.0, SVG Export Plug-In . SVG Version: 6.00 Build 0)  -->
<svg xmlns="http://www.w3.org/2000/svg" xmlns:xlink="http://www.w3.org/1999/xlink" version="1.1" id="Layer_1" x="0px" y="0px" viewBox="0 0 512 512" style="enable-background:new 0 0 512 512;" xml:space="preserve" width="512" height="512">
<g>
	<g>
		<path style="fill:#F5F5F5;" d="M357.174,391.266L256,370.202l-101.174,21.063v65.201L256,480.483    c0,0,95.087-24.017,101.174-24.017V391.266z"/>
		<path style="fill:#D9D9D9;" d="M184.826,456.467v-65.201L271,373.325l-15-3.123l-101.174,21.063v65.201L256,480.483    c0,0,5.784-1.461,14.582-3.66L184.826,456.467z"/>
		<path style="fill:#FAB3CE;" d="M256,30.009L123.324,52.518c-71.379,0,31.502,338.747,31.502,338.747h202.349    c0,0,102.881-338.747,31.502-338.747L256,30.009"/>
		<path style="fill:#E381A5;" d="M153.324,52.518L271,32.554l-15-2.545L123.324,52.518c-71.379,0,31.502,338.747,31.502,338.747h30    C184.826,391.266,81.944,52.518,153.324,52.518z"/>
		<ellipse style="fill:#F5F5F5;" cx="256" cy="221.892" rx="63.46" ry="118.445"/>
		<path style="fill:#F5F5F5;" d="M368.089,7.5H143.911c-11.37,0-20.588,9.217-20.588,20.588v24.43h265.353v-24.43    C388.676,16.717,379.459,7.5,368.089,7.5z"/>
		<path style="fill:#D9D9D9;" d="M173.911,7.5h-30c-11.37,0-20.588,9.217-20.588,20.588v24.43h30v-24.43    C153.324,16.717,162.541,7.5,173.911,7.5z"/>
		<path style="fill:#FAB3CE;" d="M154.826,456.467v16.696c0,17.307,14.03,31.338,31.338,31.338h139.673    c17.307,0,31.338-14.03,31.338-31.338v-16.696H154.826z"/>
		<path style="fill:#E381A5;" d="M184.826,473.162v-16.696h-30v16.696c0,17.307,14.03,31.338,31.338,31.338h30    C198.856,504.5,184.826,490.47,184.826,473.162z"/>
	</g>
	<g>
		<path d="M256,95.947c-39.791,0-70.96,55.322-70.96,125.945c0,70.624,31.169,125.945,70.96,125.945    c39.791,0,70.96-55.322,70.96-125.945C326.96,151.269,295.791,95.947,256,95.947z M256,332.837    c-30.333,0-55.96-50.807-55.96-110.945c0-60.138,25.627-110.945,55.96-110.945s55.96,50.807,55.96,110.945    C311.96,282.031,286.334,332.837,256,332.837z"/>
		<path d="M368.089,0H143.911c-15.487,0-28.087,12.6-28.087,28.088v17.969c-5.48,1.583-10.228,4.958-13.964,9.997    c-17.326,23.369-14.732,85.723,7.93,190.623c15.257,70.623,34.804,136.574,37.536,145.692v80.793    c0,21.416,17.422,38.838,38.838,38.838h139.673c21.416,0,38.838-17.422,38.838-38.838v-80.793    c2.732-9.118,22.28-75.069,37.536-145.692c22.662-104.9,25.256-167.254,7.93-190.623c-3.736-5.04-8.484-8.415-13.964-9.997V28.088    C396.176,12.6,383.576,0,368.089,0z M349.674,473.162c0,13.144-10.694,23.838-23.838,23.838H186.164    c-13.144,0-23.838-10.694-23.838-23.838v-9.196h125.133c4.142,0,7.5-3.358,7.5-7.5s-3.358-7.5-7.5-7.5H162.326v-50.201h187.349    v50.201h-32.216c-4.142,0-7.5,3.358-7.5,7.5s3.358,7.5,7.5,7.5h32.216V473.162z M387.568,243.424    c-13.645,63.177-30.761,122.621-35.985,140.342H160.418c-5.224-17.721-22.341-77.165-35.985-140.342    C96.401,113.629,105.808,75.916,113.91,64.987c2.548-3.437,5.451-4.969,9.414-4.969h56.135c4.142,0,7.5-3.358,7.5-7.5    s-3.358-7.5-7.5-7.5h-48.635v-16.93c0-7.217,5.871-13.088,13.087-13.088h224.177c7.217,0,13.088,5.871,13.088,13.088v16.93    H209.459c-4.142,0-7.5,3.358-7.5,7.5s3.358,7.5,7.5,7.5h179.218c3.963,0,6.866,1.532,9.414,4.969    C406.193,75.916,415.599,113.629,387.568,243.424z"/>
	</g>
</g>















</svg>
