<?xml version="1.0" encoding="iso-8859-1"?>
<!-- Generator: Adobe Illustrator 19.0.0, SVG Export Plug-In . SVG Version: 6.00 Build 0)  -->
<svg xmlns="http://www.w3.org/2000/svg" xmlns:xlink="http://www.w3.org/1999/xlink" version="1.1" id="Layer_1" x="0px" y="0px" viewBox="0 0 512.008 512.008" style="enable-background:new 0 0 512.008 512.008;" xml:space="preserve" width="512" height="512">
<g>
	<g>
		<path style="fill:#F5F5F5;" d="M428.951,277.031c26.868,0,48.65-21.781,48.65-48.65c0-26.868-21.781-48.65-48.65-48.65    c-2.069,0-4.103,0.144-6.104,0.395c-2.662-27.612-25.923-49.202-54.233-49.202c-23.108,0-42.842,14.391-50.767,34.693    c-9.57-8.33-22.066-13.385-35.749-13.385c-29.526,0-53.55,23.486-54.451,52.794c-8.826-6.154-19.55-9.774-31.125-9.774    c-30.096,0-54.494,24.398-54.494,54.494c0,2.307,0.16,4.576,0.438,6.808c-8.958-12.086-23.323-19.924-39.523-19.924    c-27.154,0-49.167,22.013-49.167,49.167c0,15.427,7.105,29.194,18.221,38.208L428.951,277.031z"/>
		<path style="fill:#87BA7D;" d="M480.201,295.256l-47.599,133.295c-8.852,24.788-32.331,41.334-58.651,41.334l-253.343-0.002    c-26.638,0-50.326-16.942-58.936-42.151l-29.865-87.447l11.327-20.573l87.66,16.883l135.874-68.18l162.172-14.664L480.201,295.256    z"/>
		<circle style="fill:#F5F5F5;" cx="118.669" cy="146.665" r="31.493"/>
		<circle style="fill:#F5F5F5;" cx="204.398" cy="113.224" r="23.701"/>
		<circle style="fill:#F5F5F5;" cx="419.312" cy="65.823" r="23.701"/>
		<path style="fill:#9AD48D;" d="M103.013,363.095c-24.061,0-50.727-6.36-81.384-22.809c-13.035-6.994-17.932-23.231-10.938-36.265    c6.994-13.036,23.231-17.931,36.266-10.939c58.035,31.142,88.448,13.824,138.835-14.863    c31.387-17.871,66.961-38.125,114.993-48.139c54.905-11.446,115.292-6.912,184.614,13.861    c14.171,4.246,22.216,19.176,17.97,33.346c-4.246,14.171-19.176,22.217-33.346,17.97    c-60.567-18.148-112.349-22.314-158.304-12.733c-39.782,8.293-70.1,25.555-99.42,42.249    C179.007,343.727,144.985,363.095,103.013,363.095z"/>
	</g>
	<g>
		<path d="M169.991,373.355c-4.142,0-7.5,3.358-7.5,7.5v15.568c0,4.142,3.358,7.5,7.5,7.5s7.5-3.358,7.5-7.5v-15.568    C177.491,376.713,174.133,373.355,169.991,373.355z"/>
		<path d="M349.531,396.423v-15.568c0-4.142-3.358-7.5-7.5-7.5s-7.5,3.358-7.5,7.5v15.568c0,4.142,3.358,7.5,7.5,7.5    S349.531,400.565,349.531,396.423z"/>
		<path d="M256.011,412.233c10.438,0,20.235-4.358,26.877-11.957c2.727-3.119,2.408-7.856-0.71-10.583    c-3.118-2.727-7.856-2.409-10.583,0.71c-3.794,4.34-9.474,6.829-15.584,6.829c-6.11,0-11.791-2.489-15.584-6.83    c-2.726-3.119-7.464-3.437-10.583-0.711c-3.119,2.726-3.437,7.464-0.711,10.583C235.776,407.875,245.572,412.233,256.011,412.233z    "/>
		<path d="M157.669,146.665c0-21.501-17.492-38.993-38.993-38.993s-38.993,17.492-38.993,38.993s17.492,38.993,38.993,38.993    S157.669,168.166,157.669,146.665z M94.684,146.665c0-13.229,10.763-23.993,23.993-23.993s23.993,10.763,23.993,23.993    c0,13.23-10.763,23.993-23.993,23.993S94.684,159.895,94.684,146.665z"/>
		<path d="M235.606,113.224c0-17.204-13.997-31.201-31.201-31.201s-31.201,13.997-31.201,31.201s13.997,31.201,31.201,31.201    S235.606,130.429,235.606,113.224z M188.205,113.224c0-8.933,7.268-16.201,16.201-16.201s16.201,7.268,16.201,16.201    s-7.268,16.201-16.201,16.201S188.205,122.158,188.205,113.224z"/>
		<path d="M450.52,65.823c0-17.204-13.997-31.201-31.201-31.201c-17.205,0-31.201,13.997-31.201,31.201    c0,17.204,13.997,31.201,31.201,31.201C436.523,97.024,450.52,83.027,450.52,65.823z M403.118,65.823    c0-8.933,7.268-16.201,16.201-16.201s16.201,7.268,16.201,16.201s-7.268,16.201-16.201,16.201S403.118,74.756,403.118,65.823z"/>
		<path d="M18.091,346.895c3.273,1.756,6.518,3.396,9.746,4.954l26.744,78.309c9.647,28.248,36.184,47.227,66.033,47.227l46.373,0    c4.142,0,7.5-3.358,7.5-7.5s-3.358-7.5-7.5-7.5l-46.373,0c-23.433,0-44.265-14.899-51.838-37.074l-22.368-65.495    c18.079,6.754,37.27,10.781,56.612,10.781c43.963,0,79.058-19.981,112.997-39.305c28.814-16.407,58.61-33.372,97.24-41.425    c19.157-3.994,39.747-5.51,61.284-4.534c5.533,0.251,13.416,1.091,13.93-6.665c0.547-8.264-8.389-8.114-14.103-8.356    c-21.474-0.912-43.111,0.479-64.172,4.87c-40.94,8.535-71.778,26.094-101.6,43.074c-32.243,18.357-65.583,37.34-105.575,37.34    c-27.337,0-53.962-9.109-77.837-21.918c-9.258-4.967-12.847-16.845-7.875-26.111c5.027-9.369,16.742-12.902,26.111-7.875    c18.393,9.869,38.609,17.447,59.737,17.446c31.568-0.003,59.799-17.28,86.356-32.4c28.008-15.947,59.404-33.822,99.934-44.308    c38.206-9.884,78.323-11.027,117.354-6.01c25.917,3.333,51.424,9.268,76.454,16.706c10.186,3.052,15.99,13.823,12.938,24.009    c-3.01,10.048-13.939,15.958-24.009,12.938c-18.289-5.48-36.038-9.751-52.874-12.728c-2.739-0.484-5.874-1.479-8.674-1.28    c-8.685,0.619-9.561,13.527-0.814,14.902c15.983,2.513,32.936,6.298,50.494,11.271c3.066,0.868,6.108,1.888,9.202,2.652    l-43.973,123.14c-7.766,21.746-28.498,36.356-51.588,36.356l-176.97-0.001c-4.142,0-7.5,3.358-7.5,7.5s3.358,7.5,7.5,7.5    l176.97,0.001c29.414,0,55.823-18.611,65.714-46.312L485.4,303.017c2.956-0.684,5.84-1.759,8.583-3.237    c8.062-4.345,13.949-11.568,16.578-20.341c5.426-18.11-4.892-37.258-23.001-42.684c-0.99-0.297-1.971-0.578-2.958-0.868    c0.336-2.488,0.506-4.996,0.506-7.506c0-30.876-25.053-56.011-55.897-56.149c-6.055-28.281-30.945-48.808-60.59-48.808    c-22.473,0-42.613,11.82-53.585,30.791c-9.816-6.162-21.219-9.482-32.931-9.482c-16.221,0-31.559,6.225-43.187,17.529    c-8.734,8.49-14.669,19.151-17.281,30.794c-7.854-3.491-16.365-5.303-25.107-5.303c-30.651,0-56.178,22.361-61.126,51.625    c-9.423-6.57-20.758-10.247-32.452-10.247c-30.838,0-55.984,24.765-56.636,55.45c-15.817-5.929-34.024,0.61-42.224,15.893    c-4.33,8.07-5.258,17.343-2.614,26.11C4.121,335.352,10.021,342.565,18.091,346.895z M102.951,244.131    c13.333,0,25.542,6.155,33.497,16.888c4.49,6.058,14.401,2.083,13.469-5.393c-3.448-27.64,18.717-52.873,46.613-52.873    c9.65,0,18.929,2.913,26.834,8.426c4.813,3.356,11.608-0.087,11.787-5.921c0.784-25.528,21.409-45.524,46.954-45.524    c11.326,0,22.273,4.099,30.824,11.541c3.865,3.364,10.055,1.827,11.911-2.929c7.095-18.176,24.28-29.92,43.781-29.92    c24.331,0,44.436,18.237,46.768,42.421c0.401,4.162,4.251,7.244,8.397,6.723c1.809-0.226,3.5-0.336,5.172-0.336    c22.69,0,41.15,18.459,41.15,41.149c0,1.137-0.047,2.272-0.142,3.405c-15.144-4.027-30.476-7.424-45.937-9.992    c-0.054-0.009-0.108-0.018-0.163-0.027c-33.52-5.556-67.886-7.145-101.65-2.858c-0.012,0.001-0.025,0.003-0.037,0.005    c-21.631,2.749-42.91,7.919-63.417,15.326c-29.709,10.729-54.249,24.692-76.679,37.463    c-28.132,16.017-58.262,34.847-92.057,29.301c-9.754-1.601-19.185-4.87-28.176-8.921c-0.033-0.015-0.066-0.03-0.099-0.045    c-0.311-2.063-0.468-4.152-0.468-6.241C61.284,262.822,79.976,244.131,102.951,244.131z"/>
	</g>
</g>















</svg>
