<?xml version="1.0" encoding="iso-8859-1"?>
<!-- Generator: Adobe Illustrator 19.0.0, SVG Export Plug-In . SVG Version: 6.00 Build 0)  -->
<svg xmlns="http://www.w3.org/2000/svg" xmlns:xlink="http://www.w3.org/1999/xlink" version="1.1" id="Layer_1" x="0px" y="0px" viewBox="0 0 512.001 512.001" style="enable-background:new 0 0 512.001 512.001;" xml:space="preserve" width="512" height="512">
<g>
	<g>
		<polygon style="fill:#FFDE76;" points="366.936,203.913 113.301,457.548 143.311,487.558 383.608,247.261   "/>
		<g>
			<path style="fill:#FFDE76;" d="M81.448,443.35L150.18,7.5l0,0c23.153,3.651,38.962,25.38,35.311,48.532l-62.121,393.929     L81.448,443.35z"/>
		</g>
		<path style="fill:#FFB641;" d="M174.441,396.409l-61.139,61.139l30.01,30.01l46.688-46.688    C188.975,425.216,183.788,409.796,174.441,396.409z"/>
		<path style="fill:#FFB641;" d="M136.653,365.725c-10.693-4.526-22.284-6.913-34.245-6.913c-2.582,0-5.142,0.13-7.684,0.349    L81.448,443.35l41.921,6.612L136.653,365.725z"/>
		<circle style="fill:#FA9E25;" cx="102.409" cy="446.656" r="57.844"/>
		<circle style="fill:#FFDE76;" cx="102.409" cy="446.656" r="28.984"/>
		<path style="fill:#FFB641;" d="M450.637,96.44c-23.398-24.014-61.839-24.197-85.475-0.562l-66.468,66.468l0,0    c14.732,14.732,38.618,14.732,53.35,0l39.793-39.793c8.611-8.611,22.564-8.708,31.287-0.278c8.982,8.68,8.749,23.368-0.083,32.201    l-30.369,30.369c-9.592-4.24-21.21-2.436-29.071,5.424l0,0c-10.213,10.213-10.213,26.772,0,36.985l20.006,20.006l65.834-65.834    C472.778,158.091,473.668,120.077,450.637,96.44z"/>
	</g>
	<g>
		<path d="M128.234,420.858c-14.064-14.064-37.547-14.049-51.597,0c-14.225,14.225-14.225,37.371,0,51.597    c14.064,14.065,37.546,14.05,51.597,0C142.459,458.229,142.459,435.084,128.234,420.858z M117.628,461.848    c-8.285,8.285-22.106,8.277-30.384,0c-8.376-8.377-8.376-22.007,0-30.384c8.285-8.285,22.109-8.273,30.384,0    C126.004,439.842,126.004,453.471,117.628,461.848z"/>
		<path d="M407.653,70.79c-18.044,0-35.008,7.027-47.767,19.786l-66.468,66.468c-2.929,2.929-2.929,7.678,0,10.606    c8.542,8.542,19.898,13.246,31.979,13.246s23.437-4.704,31.979-13.246c0,0,39.743-39.743,39.792-39.793    c5.635-5.636,15.042-5.726,20.772-0.188c5.967,5.767,5.582,15.749-0.174,21.505l-27.051,27.051    c-2.791-0.737-5.669-1.109-8.603-1.109c-8.986,0-17.433,3.499-23.786,9.852c-7.296,7.295-10.528,17.134-9.711,26.688    L153.88,406.391c-1.612-2.056-3.346-4.047-5.239-5.939c-2.709-2.709-5.625-5.135-8.694-7.296l41.367-262.317    c0.645-4.092-2.149-7.932-6.24-8.577c-4.09-0.645-7.932,2.148-8.577,6.24l-40.554,257.165c-0.051-0.02-0.103-0.035-0.154-0.055    c-6.088-2.388-12.629-3.742-19.148-4.148c-2.588-0.161-5.185-0.186-7.775-0.048c-0.01,0-0.021,0-0.031,0L156.322,16.87    c6.171,2.398,11.538,6.514,15.527,11.996c5.491,7.547,7.714,16.78,6.26,25.999l-6.882,43.636c-0.645,4.092,2.149,7.932,6.24,8.577    c4.092,0.645,7.932-2.148,8.577-6.24l6.881-43.636c2.078-13.177-1.1-26.374-8.948-37.16C176.131,9.255,164.552,2.17,151.375,0.093    c-4.086-0.646-7.931,2.148-8.577,6.24L83.214,384.175c-10.08,3.087-19.317,8.61-26.983,16.276    c-12.342,12.342-19.139,28.751-19.139,46.205s6.797,33.864,19.139,46.206c12.342,12.342,28.751,19.139,46.205,19.139    s33.864-6.797,46.206-19.139l67.468-67.468c2.929-2.929,2.929-7.677,0-10.606c-2.929-2.929-7.678-2.929-10.606,0l-38.045,38.045    c0.038-0.4,0.056-0.802,0.086-1.203c0.591-7.827-0.198-15.709-2.384-23.252c-0.871-3.005-1.958-5.952-3.254-8.8l192.188-192.188    c1.234,1.855,2.657,3.593,4.233,5.167l14.703,14.703L226.716,393.575c-2.929,2.929-2.929,7.677,0,10.606    c2.929,2.929,7.678,2.929,10.606,0l151.617-151.617l65.834-65.834c26.347-26.347,26.913-69.198,1.263-95.523    C443.208,78.041,426.025,70.79,407.653,70.79z M66.837,482.255c-9.509-9.509-14.746-22.151-14.746-35.599    c0-23.197,16.547-44,39.195-49.097c0.064-0.012,0.129-0.016,0.193-0.031c21.369-4.872,44.436,5.636,55.006,24.774    c5.514,9.983,7.474,21.822,5.506,33.052c-0.004,0.024-0.008,0.048-0.012,0.073c-4.274,23.748-25.387,41.574-49.544,41.574    C88.989,497.001,76.346,491.764,66.837,482.255z M444.166,176.124l-60.531,60.53l-14.703-14.703    c-2.186-2.187-3.819-4.928-4.692-7.895c-3.452-11.735,5.647-23.942,17.871-23.942c2.626,0,5.169,0.535,7.556,1.591    c2.833,1.251,6.145,0.634,8.335-1.557c0,0,30.365-30.365,30.369-30.369c11.615-11.615,11.897-31.393-0.008-42.897    c-11.545-11.156-30.465-10.971-41.803,0.368l-39.792,39.793c-5.709,5.709-13.299,8.853-21.372,8.853    c-5.509,0-10.794-1.464-15.409-4.209c0,0,60.482-60.482,60.505-60.505c20.455-20.455,54.642-20.197,74.8,0.492    C465.245,122.152,464.74,155.55,444.166,176.124z"/>
	</g>
</g>















</svg>
