<?xml version="1.0" encoding="iso-8859-1"?>
<!-- Generator: Adobe Illustrator 19.0.0, SVG Export Plug-In . SVG Version: 6.00 Build 0)  -->
<svg xmlns="http://www.w3.org/2000/svg" xmlns:xlink="http://www.w3.org/1999/xlink" version="1.1" id="Layer_1" x="0px" y="0px" viewBox="0 0 511.992 511.992" style="enable-background:new 0 0 511.992 511.992;" xml:space="preserve" width="512" height="512">
<g>
	<g>
		<path style="fill:#80C9FF;" d="M246.283,323.229l-57.52-57.52c-45.008,45.008-112.37,65.988-151.521,105.139    s-37.897,79.056-6.525,110.427s71.276,32.626,110.428-6.525S201.276,368.237,246.283,323.229z M57.571,454.422    c-12.267-12.267-6.199-38.223,13.552-57.974c19.752-19.752,45.708-25.819,57.974-13.552c12.267,12.267,6.199,38.223-13.552,57.974    S69.837,466.689,57.571,454.422z"/>
		<g>
			<path style="fill:#6DAAD9;" d="M246.283,323.229l-21.213-21.213c-45.008,45.008-65.988,112.37-105.139,151.521     c-34.544,34.544-69.669,37.616-99.007,16.318c2.841,3.914,6.1,7.728,9.792,11.421c31.371,31.371,71.276,32.626,110.428-6.525     S201.276,368.237,246.283,323.229z"/>
		</g>
		<path style="fill:#FFDE76;" d="M504.177,172.417c-28.475-15.194-61.363-39.995-92.985-71.617s-56.423-64.51-71.617-92.985    c41.328,2.477,81.947,19.5,113.525,51.078S501.7,131.09,504.177,172.417z"/>
		<path style="fill:#FFDE76;" d="M318.418,358.177c-41.328-2.477-81.947-19.501-113.525-51.078s-48.601-72.197-51.078-113.524    c28.475,15.194,61.363,39.995,92.985,71.617S303.224,329.701,318.418,358.177z"/>
		<path style="fill:#80C9FF;" d="M480.754,271.253l-96.167-143.847L240.74,31.238c-12.807,7.461-24.876,16.685-35.846,27.655    c-10.97,10.97-20.193,23.039-27.655,35.846l104.7,135.314l135.314,104.7c12.807-7.461,24.876-16.685,35.846-27.655    S473.293,284.06,480.754,271.253z"/>
		<path style="fill:#FC7176;" d="M417.253,334.753c-30.335,17.656-64.818,25.471-98.835,23.423L153.816,193.574    c-2.048-34.017,5.767-68.5,23.423-98.835L417.253,334.753z"/>
		<path style="fill:#FC7176;" d="M480.754,271.253L240.74,31.238c30.335-17.656,64.818-25.471,98.835-23.423l164.602,164.602    C506.225,206.434,498.41,240.918,480.754,271.253z"/>
		<path style="fill:#FFB641;" d="M306.032,337.268c-2.944-0.03-5.887-0.128-8.827-0.305c-36.65-2.197-72.738-15.844-102.447-40.907    c0.788,0.933,1.586,1.86,2.395,2.781c0.035,0.039,0.07,0.078,0.104,0.117c2.449,2.742,5.008,5.517,7.636,8.145    c27.63,27.63,62.184,44.117,98.076,49.467c5.122,0.765,10.279,1.301,15.448,1.611C314.818,351.43,310.673,344.434,306.032,337.268    z"/>
		<path style="fill:#6DAAD9;" d="M480.754,271.253l-18.017-26.95c-1.027,1.928-2.092,3.84-3.196,5.737    c-7.461,12.807-16.685,24.876-27.655,35.846s-23.039,20.193-35.846,27.655c-1.189,0.692-2.385,1.363-3.586,2.024l24.799,19.189    l0,0c12.807-7.461,24.876-16.685,35.846-27.655c1.371-1.371,2.715-2.76,4.032-4.165    C466.348,293.1,474.225,282.459,480.754,271.253L480.754,271.253z"/>
		<path style="fill:#FFB641;" d="M482.964,151.204c0.177,2.94,0.275,5.883,0.305,8.827c7.166,4.641,14.162,8.786,20.909,12.386    C501.7,131.09,484.677,90.47,453.1,58.893c-1.557-1.557-3.117-3.152-4.784-4.593c-2.051-1.9-4.14-3.754-6.277-5.558    C467.12,78.466,480.767,114.554,482.964,151.204z"/>
		<path style="fill:#E6676C;" d="M318.418,358.177L318.418,358.177c34.017,2.048,68.5-5.767,98.835-23.423L396.04,313.54    c-30.335,17.656-64.818,25.471-98.835,23.423l0,0L318.418,358.177z"/>
		<path style="fill:#E6676C;" d="M482.964,151.204c2.048,34.017-5.767,68.5-23.423,98.835l21.213,21.213    c13.793-23.699,21.581-49.93,23.351-76.493c0.496-7.435,0.52-14.904,0.072-22.342L482.964,151.204z"/>
	</g>
	<g>
		<path d="M273.63,115.92l-10.121,10.121c-2.929,2.929-2.929,7.677,0,10.606c2.823,2.823,7.674,2.932,10.606,0l10.121-10.121    c2.929-2.929,2.929-7.678,0-10.606C281.308,112.991,276.559,112.991,273.63,115.92z"/>
		<path d="M385.477,227.767l-10.121,10.121c-2.929,2.929-2.929,7.677,0,10.606c2.895,2.895,7.712,2.895,10.607,0l10.121-10.121    c2.929-2.929,2.929-7.678,0-10.606C393.154,224.837,388.405,224.837,385.477,227.767z"/>
		<path d="M338.74,192.883c-5.114,0.345-10.254-1.667-14.104-5.516s-5.859-8.99-5.516-14.104c0.278-4.133-2.847-7.708-6.98-7.986    c-4.138-0.279-7.708,2.848-7.986,6.98c-0.634,9.433,2.965,18.806,9.875,25.716c6.388,6.388,14.882,9.947,23.581,9.947    c4.785,0,9.481-2.593,9.114-8.057C346.448,195.731,342.865,192.606,338.74,192.883z"/>
		<path d="M134.404,377.599c-15.429-15.43-45.554-9.476-68.581,13.552c-10.528,10.529-17.909,23.097-20.783,35.39    c-3.172,13.569-0.604,25.356,7.231,33.191c5.786,5.786,13.634,8.564,22.404,8.564c14.616,0,31.784-7.724,46.176-22.116    C143.88,423.152,149.833,393.028,134.404,377.599z M82.047,452.357c-4.826,1.127-13.732,2.208-19.17-3.231    c-5.439-5.438-4.359-14.345-3.231-19.169c2.246-9.606,8.206-19.621,16.783-28.198c11.32-11.32,25.075-17.796,35.559-17.796    c4.808,0,8.928,1.362,11.81,4.244c9.165,9.165,2.958,30.857-13.553,47.368C101.668,444.151,91.654,450.111,82.047,452.357z"/>
		<path d="M87.691,511.66c4.122-0.412,7.129-4.087,6.718-8.208c-0.412-4.122-4.081-7.133-8.208-6.718    c-17.748,1.772-34.633-5.21-50.177-20.754c-14.507-14.508-21.57-30.229-20.992-46.73c0.617-17.586,9.875-35.448,27.517-53.09    c18.194-18.193,42.943-32.448,69.146-47.539c22.363-12.879,45.411-26.154,65.881-42.798c2.555,3.754,5.258,7.412,8.09,10.973    c11.52,14.481,25.216,27.22,40.515,37.632c-16.644,20.469-29.918,43.518-42.797,65.88c-15.092,26.203-29.346,50.953-47.54,69.146    c-8.16,8.159-16.519,14.615-24.844,19.186c-3.631,1.994-4.958,6.553-2.964,10.184c1.995,3.631,6.554,4.958,10.184,2.964    c9.569-5.254,19.067-12.565,28.23-21.728c19.596-19.596,34.331-45.18,49.931-72.267c12.897-22.393,26.207-45.486,42.675-65.397    c24.008,13.553,50.946,21.597,78.926,23.274c51.752,3.113,103.755-16.591,140.423-53.261    c36.821-36.823,56.389-88.443,53.261-140.434c-2.678-44.669-21.593-86.71-53.261-118.379    c-31.669-31.669-73.71-50.584-118.381-53.261C288.11-2.774,236.358,16.83,199.594,53.597    c-36.831,36.83-56.378,88.437-53.261,140.434c1.677,27.97,9.721,54.908,23.274,78.916c-19.912,16.469-43.005,29.779-65.398,42.675    c-27.087,15.601-52.671,30.335-72.267,49.931C11.528,385.966,0.795,407.22,0.041,428.724c-0.72,20.533,8.055,40.542,25.376,57.862    C41.812,502.982,64.085,514.02,87.691,511.66z M336.311,15.163c0,0,47.214,47.214,47.253,47.253c2.816,2.816,7.673,2.935,10.607,0    c2.929-2.929,2.929-7.678,0-10.606l-33.877-33.876c32.992,6.237,63.495,22.261,87.505,46.271    c24.01,24.01,40.034,54.512,46.271,87.505l-79.426-79.426c-2.929-2.929-7.677-2.929-10.606,0c-2.891,2.891-2.885,7.724,0,10.607    l92.802,92.802c1.267,28.994-4.878,57.503-17.875,83.17L253.142,33.038C278.811,20.04,307.32,13.897,336.311,15.163z     M210.2,64.204c8.937-8.937,18.806-16.823,29.398-23.496l231.696,231.697c-6.673,10.592-14.558,20.461-23.495,29.398    c-8.938,8.937-18.807,16.822-29.398,23.495L186.705,93.602C193.377,83.01,201.262,73.142,210.2,64.204z M179.035,107.146    l225.82,225.82c-25.555,12.917-54.195,19.135-83.167,17.878L161.159,190.315C159.893,161.322,166.037,132.813,179.035,107.146z     M297.705,348.074c-22.666-4.285-44.156-13.189-63.173-26.128c-0.021-0.014-0.041-0.027-0.061-0.041    c-13.217-8.917-25.127-19.902-35.252-32.207c-17.845-21.685-30.073-47.804-35.29-75.4L297.705,348.074z"/>
	</g>
</g>















</svg>
