<?xml version="1.0" encoding="iso-8859-1"?>
<!-- Generator: Adobe Illustrator 19.0.0, SVG Export Plug-In . SVG Version: 6.00 Build 0)  -->
<svg xmlns="http://www.w3.org/2000/svg" xmlns:xlink="http://www.w3.org/1999/xlink" version="1.1" id="Layer_1" x="0px" y="0px" viewBox="0 0 512 512" style="enable-background:new 0 0 512 512;" xml:space="preserve" width="512" height="512">
<g>
	<g>
		<path style="fill:#FC7176;" d="M440.997,52.696c-12.227-20.65-34.484-33.268-58.482-33.268h-72.534    c-7.854,0-14.221,6.367-14.221,14.221V63.79c0,5.267,2.896,10.133,7.569,12.564c32.908,17.116,55.384,51.522,55.384,91.179    c0,56.786-46.589,103.07-103.374,102.712c-56.423-0.356-102.052-46.205-102.052-102.711c0-39.639,22.455-74.031,55.338-91.156    c4.688-2.441,7.616-7.3,7.616-12.586V33.649c0-7.854-6.367-14.221-14.221-14.221h-72.534c-23.998,0-46.255,12.618-58.482,33.268    C45.675,95.473,7.5,175.592,7.5,269.916c0,141.148,90.454,222.656,248.5,222.656s248.5-81.508,248.5-222.656    C504.5,175.592,466.325,95.473,440.997,52.696z"/>
		<path style="fill:#F5F5F5;" d="M411.06,70.42c-5.917-9.994-16.855-16.202-28.545-16.202h-28.352    c-6.425,0-9.575,7.905-4.849,12.258c27.847,25.651,44.189,61.991,44.189,101.056c0.001,36.646-14.337,71.158-40.373,97.179    c-26.021,26.005-60.518,40.326-97.136,40.326l-0.874-0.003c-36.546-0.23-70.866-14.634-96.639-40.561    c-25.784-25.938-39.985-60.365-39.985-96.939c0-39.062,16.343-75.406,44.191-101.058c4.726-4.353,1.576-12.258-4.849-12.258    h-28.354c-11.69,0-22.628,6.209-28.545,16.203C79.035,107.414,42.29,182.522,42.29,269.916    c0,59.999,17.976,106.552,53.428,138.365c17.544,15.745,39.549,27.931,65.402,36.222c27.477,8.811,59.399,13.279,94.88,13.279    s67.403-4.468,94.88-13.279c25.852-8.291,47.857-20.477,65.401-36.222c35.453-31.813,53.428-78.366,53.428-138.365    C469.71,182.522,432.964,107.414,411.06,70.42z"/>
		<path style="fill:#FC7176;" d="M271.304,345.671c0,19.738-6.852,35.738-15.304,35.738c-8.452,0-15.304-16.001-15.304-35.738    S271.304,325.934,271.304,345.671z"/>
		<path style="fill:#FC7176;" d="M294.787,384.054c-18.631,6.518-35.996,5.334-38.787-2.645s10.05-19.729,28.68-26.247    C303.311,348.645,313.418,377.536,294.787,384.054z"/>
		<path style="fill:#FC7176;" d="M265.195,419.184c-11.841-15.792-15.957-32.704-9.195-37.774    c6.762-5.07,21.843,3.621,33.684,19.412S277.036,434.975,265.195,419.184z"/>
		<path style="fill:#FC7176;" d="M217.213,384.054c18.631,6.518,35.996,5.334,38.787-2.645s-10.05-19.729-28.68-26.247    C208.689,348.645,198.582,377.536,217.213,384.054z"/>
		<path style="fill:#FC7176;" d="M246.805,419.184c11.841-15.792,15.957-32.704,9.195-37.774    c-6.762-5.07-21.843,3.621-33.684,19.412S234.964,434.975,246.805,419.184z"/>
		<circle style="fill:#FFDE76;" cx="256" cy="381.41" r="16.898"/>
	</g>
	<g>
		<path d="M474.082,119.809c-3.87,1.477-5.811,5.811-4.334,9.681C487.831,176.902,497,224.148,497,269.916    c0,33.983-5.407,64.789-16.07,91.562c-10.471,26.289-26.09,48.87-46.421,67.115c-20.425,18.328-45.758,32.425-75.294,41.896    c-30.174,9.677-64.9,14.583-103.214,14.583s-73.04-4.906-103.213-14.583c-29.537-9.472-54.87-23.568-75.295-41.896    c-20.332-18.245-35.95-40.826-46.421-67.115C20.407,334.705,15,303.899,15,269.916c0-93.895,39.131-174.004,62.457-213.399    c10.807-18.251,30.743-29.589,52.028-29.589h72.533c3.707,0,6.722,3.016,6.722,6.722v30.143c0,2.51-1.372,4.784-3.58,5.934    c-36.623,19.072-59.373,56.55-59.373,97.809c0,29.315,11.382,56.91,32.048,77.699c20.658,20.781,48.166,32.327,77.457,32.512    c0.238,0.001,0.472,0.002,0.709,0.002c29.216-0.001,56.756-11.39,77.613-32.115c21.022-20.891,32.6-48.626,32.599-78.099    c0-41.281-22.77-78.769-59.423-97.833c-2.178-1.133-3.53-3.397-3.53-5.91V33.649c0-3.706,3.015-6.722,6.721-6.722h72.534    c21.286,0,41.222,11.338,52.028,29.589c8.671,14.645,16.717,30.101,23.912,45.937c1.714,3.771,6.16,5.439,9.931,3.726    c3.771-1.713,5.439-6.159,3.726-9.931c-7.418-16.326-15.715-32.266-24.661-47.374c-13.494-22.79-38.375-36.947-64.936-36.947    h-72.534c-11.977,0-21.721,9.744-21.721,21.722v30.141c0,8.129,4.448,15.493,11.608,19.217    c31.67,16.473,51.344,48.86,51.345,84.525c0,25.448-10.005,49.405-28.172,67.458c-18.026,17.913-41.813,27.755-67.042,27.755    c-0.203,0-0.408,0-0.612-0.002c-52.163-0.328-94.6-43.04-94.6-95.211c0-35.645,19.658-68.025,51.302-84.504    c7.187-3.743,11.651-11.115,11.651-19.238V33.649c0-11.978-9.744-21.722-21.722-21.722h-72.533    c-26.56,0-51.442,14.157-64.936,36.947C40.442,89.59,0,172.447,0,269.916c0,35.893,5.765,68.565,17.135,97.112    c11.334,28.456,28.271,52.926,50.338,72.729c22.008,19.749,49.17,34.895,80.732,45.016    c31.657,10.152,67.924,15.299,107.794,15.299c39.871,0,76.138-5.147,107.794-15.299c31.562-10.122,58.724-25.267,80.732-45.016    c22.068-19.803,39.004-44.272,50.338-72.729c11.37-28.546,17.135-61.22,17.135-97.112c0-47.602-9.5-96.646-28.238-145.772    C482.286,120.274,477.953,118.333,474.082,119.809z"/>
		<path d="M108.503,409.175c-3.27-2.543-7.982-1.954-10.524,1.315c-2.543,3.27-1.954,7.981,1.315,10.524    c16.747,13.026,36.777,23.331,59.536,30.63c28.22,9.049,60.912,13.638,97.17,13.638c36.257,0,68.95-4.588,97.171-13.638    c26.867-8.616,49.785-21.328,68.119-37.781c37.105-33.295,55.919-81.727,55.919-143.947c0-89.18-37.401-165.663-59.696-203.316    c-7.261-12.264-20.672-19.882-35-19.882h-28.352c-6.059,0-11.4,3.653-13.607,9.307c-2.195,5.621-0.751,11.889,3.677,15.969    c26.546,24.452,41.771,59.275,41.771,95.54c0.001,34.642-13.557,67.27-38.175,91.873c-24.604,24.589-57.218,38.131-91.809,38.131    l-0.852-0.003c-34.553-0.217-67.001-13.836-91.367-38.349c-24.378-24.523-37.804-57.072-37.804-91.651    c0-36.265,15.226-71.088,41.772-95.542c4.428-4.079,5.872-10.347,3.678-15.968c-2.207-5.654-7.548-9.307-13.608-9.307h-28.353    c-14.327,0-27.738,7.618-35,19.882C72.191,104.253,34.79,180.734,34.79,269.916c0,53.634,14.077,97.219,41.841,129.547    c2.699,3.142,7.433,3.502,10.576,0.803c3.142-2.698,3.501-7.434,0.803-10.576C62.649,360.16,49.79,319.862,49.79,269.916    c0-85.607,36.09-159.341,57.603-195.673c4.574-7.726,13.04-12.525,22.092-12.525h27.304    c-29.117,27.245-45.793,65.745-45.793,105.816c0,38.569,14.975,74.874,42.166,102.227c27.177,27.34,63.37,42.531,101.933,42.773    l0.899,0.003c38.621,0,75-15.101,102.438-42.521c27.454-27.437,42.573-63.833,42.572-102.483    c0-40.069-16.673-78.566-45.792-105.815h27.303c9.053,0,17.519,4.799,22.092,12.523c21.513,36.334,57.603,110.069,57.603,195.675    c0,57.779-17.138,102.454-50.938,132.783c-16.751,15.033-37.841,26.695-62.682,34.662c-26.738,8.573-57.89,12.921-92.591,12.921    s-65.853-4.348-92.589-12.921C142.332,430.601,123.859,421.118,108.503,409.175z"/>
		<path d="M221.996,346.712c-10.722,0-19.906,8.254-21.838,19.625c-1.889,11.12,3.97,21.085,14.579,24.797    c1.524,0.533,3.045,1.005,4.563,1.449c-1.018,1.216-2.021,2.456-2.983,3.74c-5.271,7.03-6.125,15.399-2.344,22.961    c4.021,8.042,12.628,13.445,21.416,13.445c6.859,0,13.044-3.213,17.418-9.046c1.125-1.5,2.181-3.033,3.195-4.578    c1.014,1.544,2.07,3.078,3.195,4.578c4.373,5.833,10.559,9.045,17.419,9.046c8.787,0,17.393-5.402,21.415-13.443    c3.782-7.562,2.928-15.932-2.344-22.963c-0.963-1.284-1.965-2.523-2.983-3.74c1.518-0.443,3.039-0.916,4.563-1.449    c10.608-3.711,16.467-13.676,14.578-24.797c-1.932-11.371-11.115-19.625-21.837-19.625c-3.965,0-7.64,1.228-11.281,2.674    c0.051-1.232,0.08-2.471,0.08-3.714c0-11.083-7.833-22.303-22.804-22.303c-14.971,0-22.804,11.22-22.804,22.303    c0,1.244,0.029,2.482,0.08,3.714C229.63,347.938,225.967,346.712,221.996,346.712z M255.92,372.015    c5.124-0.035,9.481,4.278,9.478,9.403c-0.004,5.099-4.302,9.39-9.398,9.39c-5.1,0-9.398-4.296-9.398-9.398    C246.602,376.347,250.857,372.049,255.92,372.015z M240.805,414.685c-1.536,2.048-3.308,3.044-5.417,3.044    c-3.091,0-6.531-2.216-8-5.154c-1.214-2.428-0.91-4.8,0.929-7.253c2.568-3.425,5.357-6.551,8.202-9.215    c2.537,3.37,5.923,6.021,9.811,7.699c0.143,0.062,0.821,0.353,1.021,0.428C245.589,407.709,243.371,411.262,240.805,414.685z     M284.613,412.575c-1.469,2.938-4.908,5.153-8,5.153c-2.11,0-3.882-0.996-5.417-3.044c-2.566-3.423-4.785-6.976-6.545-10.452    c0.009,0.018,0.967-0.405,1.018-0.427c3.888-1.678,7.276-4.33,9.813-7.7c2.844,2.665,5.634,5.791,8.202,9.215    C285.523,407.774,285.827,410.147,284.613,412.575z M287.157,362.242c1.005-0.352,1.964-0.53,2.848-0.53    c3.832,0,6.446,3.591,7.049,7.138c0.387,2.279,0.286,6.366-4.743,8.125c-4.026,1.408-8.093,2.451-11.95,3.082    c-0.003-0.054-0.011-0.106-0.014-0.159c-0.263-4.29-1.659-8.552-4.106-12.096c-0.007-0.01-0.186-0.29-0.274-0.415    c0.016-0.058,0.033-0.116,0.049-0.174C279.386,365.333,283.163,363.64,287.157,362.242z M248.196,345.671    c0-6.951,6.501-7.303,7.804-7.303c1.303,0,7.804,0.352,7.804,7.303c0,4.23-0.351,8.355-1.013,12.157    c-0.051,0.036-0.102,0.072-0.153,0.108c-0.009-0.003-0.019-0.005-0.029-0.007c-2.174-0.557-4.358-0.917-6.609-0.917    c-2.243,0-4.479,0.318-6.637,0.924c-0.051-0.036-0.102-0.072-0.153-0.108C248.547,354.027,248.196,349.902,248.196,345.671z     M236.033,367.387c-1.735,2.469-3.003,5.286-3.729,8.212c-0.349,1.406-0.562,2.851-0.651,4.296    c-0.003,0.054-0.012,0.106-0.015,0.16c-3.856-0.63-7.924-1.673-11.95-3.081c-5.03-1.759-5.131-5.846-4.744-8.126    c0.827-4.87,4.976-8.328,9.898-6.607c3.993,1.397,7.771,3.091,11.14,4.971C236,367.271,236.017,367.329,236.033,367.387z"/>
	</g>
</g>















</svg>
