<?xml version="1.0" encoding="iso-8859-1"?>
<!-- Generator: Adobe Illustrator 19.0.0, SVG Export Plug-In . SVG Version: 6.00 Build 0)  -->
<svg xmlns="http://www.w3.org/2000/svg" xmlns:xlink="http://www.w3.org/1999/xlink" version="1.1" id="Layer_1" x="0px" y="0px" viewBox="0 0 512 512" style="enable-background:new 0 0 512 512;" xml:space="preserve" width="512" height="512">
<g>
	<g>
		<path style="fill:#80C9FF;" d="M406.74,504.5c27.943-54.36,60.689-147.502,60.689-285.571C467.429,102.16,372.769,7.5,256,7.5    S44.571,102.16,44.571,218.929c0,138.069,32.747,231.211,60.689,285.571H406.74z"/>
		<path style="fill:#6DAAD9;" d="M410.193,497.623c-39.206-91.609-114.025-135.227-117.272-137.084l-24.884,19.444    c0,0,74.293,38.187,112.993,124.518h25.71C407.884,502.275,409.036,499.979,410.193,497.623z"/>
		<circle style="fill:#FBBCA1;" cx="256" cy="218.929" r="161.499"/>
		<path style="fill:#E3A98E;" d="M276,360.429c-89.194,0-161.499-72.306-161.499-161.5c0-39.505,14.192-75.69,37.746-103.754    c-35.299,29.625-57.746,74.065-57.746,123.754c0,89.194,72.306,161.5,161.499,161.5c49.689,0,94.129-22.447,123.754-57.746    C351.69,346.236,315.505,360.429,276,360.429z"/>
		<g id="XMLID_118_">
			<path style="fill:#F97579;" d="M352.915,266.434H330.25c-4.143,0-7.5-3.358-7.5-7.5s3.357-7.5,7.5-7.5h22.665     c4.143,0,7.5,3.358,7.5,7.5S357.057,266.434,352.915,266.434z"/>
		</g>
		<g id="XMLID_117_">
			<path style="fill:#F97579;" d="M181.75,266.434h-22.665c-4.143,0-7.5-3.358-7.5-7.5s3.357-7.5,7.5-7.5h22.665     c4.143,0,7.5,3.358,7.5,7.5S185.892,266.434,181.75,266.434z"/>
		</g>
		<path style="fill:#7A5946;" d="M274.464,112.721c-1.103,3.321-2.722,6.619-2.399,10.213c0.293,3.26,2.069,6.378,4.58,8.444    c4.309,3.546,9.726,5.15,14.998,6.653c11.392,3.249,9.059,20.669-2.845,20.738c-16.716,0.098-32.867-4.303-43.044-18.429    c-7.973-11.067-9.895-24.51-8.15-37.777c0.003-0.022,0.005-0.041,0.007-0.055c0.004-0.03,0.006-0.045,0.006-0.045    c1.392-10.551,11.074-17.976,21.625-16.584c12.724,1.679,18.843,15.2,15.279,26.663    C274.503,112.602,274.484,112.661,274.464,112.721z"/>
	</g>
	<g>
		<path d="M413.41,507.929c28.064-54.598,61.519-149.056,61.519-289c0-58.478-22.772-113.456-64.123-154.806    C369.456,22.772,314.478,0,256,0c-56.211,0-109.647,21.276-150.463,59.908c-3.008,2.848-3.139,7.595-0.291,10.603    c2.847,3.008,7.593,3.139,10.603,0.292C153.866,34.817,203.64,15,256,15c112.447,0,203.93,91.482,203.93,203.929    c0,133.508-30.939,224.37-57.795,278.071h-16.299c-20.486-43.5-49.68-74.364-70.896-92.794    c-9.512-8.264-18.228-14.783-25.323-19.667c36.22-7.352,69.364-26.447,94.033-54.855c2.716-3.127,2.382-7.865-0.746-10.581    s-7.865-2.381-10.581,0.746c-29.292,33.733-71.69,53.08-116.323,53.08c-84.916,0-153.999-69.084-153.999-154    s69.083-154,153.999-154s154,69.084,154,154c0,27.424-7.307,54.356-21.13,77.885c-2.098,3.572-0.904,8.167,2.667,10.266    c3.572,2.098,8.167,0.904,10.266-2.667c15.176-25.831,23.197-55.391,23.197-85.484c0-93.187-75.813-169-169-169    s-168.999,75.813-168.999,169s75.813,169,168.999,169c3.458,0,6.903-0.118,10.333-0.327    c10.646,6.014,68.089,40.829,102.807,109.398H109.866C83.01,443.3,52.071,352.439,52.071,218.929    c0-46.801,15.431-90.822,44.624-127.304c2.588-3.234,2.064-7.954-1.17-10.542c-3.234-2.588-7.955-2.064-10.542,1.17    c-31.344,39.17-47.912,86.432-47.912,136.676c0,139.945,33.455,234.402,61.519,289c1.285,2.5,3.86,4.071,6.67,4.071h301.48    C409.551,512,412.125,510.428,413.41,507.929z"/>
		<path d="M349.083,234.475v-16.641c0-4.142-3.358-7.5-7.5-7.5s-7.5,3.358-7.5,7.5v16.641c0,4.142,3.358,7.5,7.5,7.5    S349.083,238.617,349.083,234.475z"/>
		<path d="M177.917,234.475v-16.641c0-4.142-3.358-7.5-7.5-7.5s-7.5,3.358-7.5,7.5v16.641c0,4.142,3.358,7.5,7.5,7.5    S177.917,238.617,177.917,234.475z"/>
		<path d="M265.661,246.286c-2.338,2.675-5.859,4.208-9.661,4.208c-3.801,0-7.322-1.534-9.661-4.208    c-2.726-3.119-7.464-3.437-10.583-0.71s-3.437,7.464-0.71,10.583c5.187,5.934,12.824,9.336,20.954,9.336    s15.768-3.403,20.954-9.336c2.727-3.118,2.408-7.856-0.71-10.583C273.125,242.849,268.386,243.167,265.661,246.286z"/>
		<path d="M288.842,166.269c9.076-0.053,16.291-6.487,17.544-15.647c1.255-9.172-3.962-17.315-12.686-19.803    c-4.463-1.273-9.078-2.589-12.289-5.232c-1.035-0.852-1.771-2.156-1.876-3.326c-0.239-2.671,1.384-5.034,2.148-7.492    c2.578-8.29,1.386-17.508-3.186-24.657c-4.733-7.399-13.027-11.9-21.799-11.9c-13.366,0-24.765,10.004-26.516,23.27    c0,0.001-0.014,0.103-0.014,0.104c-2.179,16.57,1.106,31.487,9.501,43.139C250.949,160.381,270.249,166.333,288.842,166.269z     M251.84,135.956c-7.731-10.732-7.965-23.551-6.787-32.512c0.77-5.834,5.776-10.232,11.644-10.232    c10.046,0,12.871,11.091,10.001,18.973c-1.118,3.071-2.51,6.893-2.104,11.419c0.466,5.195,3.121,10.14,7.284,13.565    c5.624,4.628,12.323,6.539,17.707,8.075c1.906,0.543,2.106,2.119,1.938,3.344c-0.252,1.837-1.503,2.676-3.267,2.683    C271.176,151.271,259.264,146.261,251.84,135.956z"/>
	</g>
</g>















</svg>
