<?xml version="1.0" encoding="iso-8859-1"?>
<!-- Generator: Adobe Illustrator 19.0.0, SVG Export Plug-In . SVG Version: 6.00 Build 0)  -->
<svg xmlns="http://www.w3.org/2000/svg" xmlns:xlink="http://www.w3.org/1999/xlink" version="1.1" id="Layer_1" x="0px" y="0px" viewBox="0 0 512 512" style="enable-background:new 0 0 512 512;" xml:space="preserve" width="512" height="512">
<g>
	<g>
		<path style="fill:#E0D8E3;" d="M412.518,7.5H99.482C71.049,7.5,48,30.549,48,58.982v394.035c0,28.433,23.049,51.482,51.482,51.482    h313.035c28.433,0,51.482-23.049,51.482-51.482V58.982C464,30.549,440.951,7.5,412.518,7.5z"/>
		<path style="fill:#A49EA6;" d="M191.27,128.787c-8.5-8.52-20.26-13.79-33.25-13.79c-25.96,0-47,21.05-47,47    c0,13,5.28,24.77,13.81,33.28c8.5,8.48,20.23,13.72,33.19,13.72c25.96,0,47-21.04,47-47    C205.02,149.027,199.77,137.297,191.27,128.787z"/>
		<path style="fill:#A49EA6;" d="M387.23,128.787c-8.5-8.52-20.26-13.79-33.25-13.79c-25.96,0-47,21.05-47,47    c0,13,5.28,24.77,13.81,33.28c8.5,8.48,20.23,13.72,33.19,13.72c25.96,0,47-21.04,47-47    C400.98,149.027,395.73,137.297,387.23,128.787z"/>
		<path style="fill:#A49EA6;" d="M191.27,262.787c-8.5-8.52-20.26-13.79-33.25-13.79c-25.96,0-47,21.05-47,47    c0,13,5.28,24.77,13.81,33.28c8.5,8.48,20.23,13.72,33.19,13.72c25.96,0,47-21.04,47-47    C205.02,283.027,199.77,271.297,191.27,262.787z"/>
		<path style="fill:#A49EA6;" d="M387.23,262.787c-8.5-8.52-20.26-13.79-33.25-13.79c-25.96,0-47,21.05-47,47    c0,13,5.28,24.77,13.81,33.28c8.5,8.48,20.23,13.72,33.19,13.72c25.96,0,47-21.04,47-47    C400.98,283.027,395.73,271.297,387.23,262.787z"/>
		<path style="fill:#A49EA6;" d="M191.27,397.622c-8.5-8.52-20.26-13.79-33.25-13.79c-25.96,0-47,21.05-47,47    c0,13,5.28,24.77,13.81,33.28c8.5,8.48,20.23,13.72,33.19,13.72c25.96,0,47-21.04,47-47    C205.02,417.862,199.77,406.132,191.27,397.622z"/>
		<path style="fill:#A49EA6;" d="M387.23,397.622c-8.5-8.52-20.26-13.79-33.25-13.79c-25.96,0-47,21.05-47,47    c0,13,5.28,24.77,13.81,33.28c8.5,8.48,20.23,13.72,33.19,13.72c25.96,0,47-21.04,47-47    C400.98,417.862,395.73,406.132,387.23,397.622z"/>
		<path style="fill:#FCD0E4;" d="M191.22,108.797l-66.4,66.41l0.01,0.07c-8.53-8.51-13.81-20.28-13.81-33.28c0-25.95,21.04-47,47-47    c12.99,0,24.75,5.27,33.25,13.79L191.22,108.797z"/>
		<path style="fill:#FAB3CE;" d="M205.02,141.997c0,25.96-21.04,47-47,47c-12.96,0-24.69-5.24-33.19-13.72l-0.01-0.07l66.4-66.41    l0.05-0.01C199.77,117.297,205.02,129.027,205.02,141.997z"/>
		<path style="fill:#FCD0E4;" d="M387.22,108.777l-0.03,0.02l-66.41,66.41l-0.02,0.04c-8.52-8.51-13.78-20.26-13.78-33.25    c0-25.95,21.04-47,47-47C366.97,94.997,378.72,100.267,387.22,108.777z"/>
		<path style="fill:#FAB3CE;" d="M400.98,141.997c0,25.96-21.04,47-47,47c-12.97,0-24.72-5.26-33.22-13.75l0.02-0.04l66.41-66.41    l0.03-0.02C395.72,117.287,400.98,129.027,400.98,141.997z"/>
		<path style="fill:#FCD0E4;" d="M191.28,242.797h-0.06l-66.4,66.41l-0.03,0.03c-8.51-8.51-13.77-20.26-13.77-33.24    c0-25.95,21.04-47,47-47C171.02,228.997,182.78,234.267,191.28,242.797z"/>
		<path style="fill:#FAB3CE;" d="M205.02,275.997c0,25.96-21.04,47-47,47c-12.98,0-24.73-5.26-33.23-13.76l0.03-0.03l66.4-66.41    h0.06C199.77,251.307,205.02,263.037,205.02,275.997z"/>
		<path style="fill:#FCD0E4;" d="M387.23,242.787l-0.04,0.01l-66.41,66.41l-0.02,0.04c-8.52-8.51-13.78-20.26-13.78-33.25    c0-25.95,21.04-47,47-47C366.97,228.997,378.73,234.267,387.23,242.787z"/>
		<path style="fill:#FAB3CE;" d="M400.98,275.997c0,25.96-21.04,47-47,47c-12.97,0-24.72-5.26-33.22-13.75l0.02-0.04l66.41-66.41    l0.04-0.01C395.73,251.297,400.98,263.027,400.98,275.997z"/>
		<path style="fill:#FCD0E4;" d="M191.22,376.797l-66.4,66.41l0.02,0.08c-8.54-8.51-13.82-20.28-13.82-33.29c0-25.95,21.04-47,47-47    c12.99,0,24.74,5.27,33.24,13.78L191.22,376.797z"/>
		<path style="fill:#FAB3CE;" d="M205.02,409.997c0,25.96-21.04,47-47,47c-12.95,0-24.68-5.24-33.18-13.71l-0.02-0.08l66.4-66.41    l0.04-0.02C199.76,385.287,205.02,397.027,205.02,409.997z"/>
		<path style="fill:#FCD0E4;" d="M387.19,376.797l-66.41,66.41l0.04,0.1c-8.55-8.52-13.84-20.29-13.84-33.31c0-25.95,21.04-47,47-47    c12.99,0,24.74,5.27,33.24,13.78L387.19,376.797z"/>
		<path style="fill:#FAB3CE;" d="M400.98,409.997c0,25.96-21.04,47-47,47c-12.94,0-24.67-5.23-33.16-13.69l-0.04-0.1l66.41-66.41    l0.03-0.02C395.72,385.287,400.98,397.027,400.98,409.997z"/>
	</g>
	<g>
		<path d="M40.5,453.018C40.5,485.541,66.959,512,99.482,512h313.035c32.523,0,58.982-26.459,58.982-58.982v-90.603    c0-4.142-3.358-7.5-7.5-7.5s-7.5,3.358-7.5,7.5v90.603c0,24.252-19.73,43.982-43.982,43.982H99.482    C75.23,497,55.5,477.27,55.5,453.018V221.415c0-4.142-3.358-7.5-7.5-7.5s-7.5,3.358-7.5,7.5V453.018z"/>
		<path d="M464,339.915c4.142,0,7.5-3.358,7.5-7.5V58.982C471.5,26.459,445.041,0,412.518,0H99.482    C66.959,0,40.5,26.459,40.5,58.982v132.433c0,4.142,3.358,7.5,7.5,7.5s7.5-3.358,7.5-7.5V58.982C55.5,34.73,75.23,15,99.482,15    h313.035C436.77,15,456.5,34.73,456.5,58.982v273.433C456.5,336.557,459.858,339.915,464,339.915z"/>
		<path d="M158.02,87.5c-30.051,0-54.5,24.449-54.5,54.5c0,30.052,24.449,54.5,54.5,54.5s54.5-24.448,54.5-54.5    C212.52,111.949,188.071,87.5,158.02,87.5z M158.02,102.5c8.185,0,15.796,2.504,22.11,6.784l-54.826,54.826    c-4.28-6.313-6.784-13.924-6.784-22.11C118.52,120.22,136.239,102.5,158.02,102.5z M158.02,181.5    c-8.185,0-15.796-2.503-22.11-6.784l54.826-54.826c4.28,6.313,6.784,13.924,6.784,22.109C197.52,163.781,179.8,181.5,158.02,181.5    z"/>
		<path d="M353.981,87.5c-30.051,0-54.5,24.449-54.5,54.5c0,30.052,24.449,54.5,54.5,54.5s54.5-24.448,54.5-54.5    C408.481,111.949,384.032,87.5,353.981,87.5z M353.981,102.5c8.185,0,15.796,2.504,22.11,6.784l-54.826,54.826    c-4.28-6.313-6.784-13.924-6.784-22.11C314.481,120.22,332.201,102.5,353.981,102.5z M353.981,181.5    c-8.185,0-15.796-2.503-22.11-6.784l54.826-54.826c4.28,6.313,6.784,13.924,6.784,22.109    C393.481,163.781,375.761,181.5,353.981,181.5z"/>
		<path d="M158.02,221.5c-30.051,0-54.5,24.449-54.5,54.5c0,30.052,24.449,54.5,54.5,54.5s54.5-24.448,54.5-54.5    C212.52,245.949,188.071,221.5,158.02,221.5z M158.02,236.5c8.185,0,15.796,2.504,22.11,6.784l-54.826,54.826    c-4.28-6.313-6.784-13.924-6.784-22.11C118.52,254.22,136.239,236.5,158.02,236.5z M158.02,315.5    c-8.185,0-15.796-2.503-22.11-6.784l54.826-54.826c4.28,6.313,6.784,13.924,6.784,22.109C197.52,297.781,179.8,315.5,158.02,315.5    z"/>
		<path d="M353.981,221.5c-30.051,0-54.5,24.449-54.5,54.5c0,30.052,24.449,54.5,54.5,54.5s54.5-24.448,54.5-54.5    C408.481,245.949,384.032,221.5,353.981,221.5z M353.981,236.5c8.185,0,15.796,2.504,22.11,6.784l-54.826,54.826    c-4.28-6.313-6.784-13.924-6.784-22.11C314.481,254.22,332.201,236.5,353.981,236.5z M353.981,315.5    c-8.185,0-15.796-2.503-22.11-6.784l54.826-54.826c4.28,6.313,6.784,13.924,6.784,22.109    C393.481,297.781,375.761,315.5,353.981,315.5z"/>
		<path d="M158.02,355.5c-30.051,0-54.5,24.449-54.5,54.5c0,30.052,24.449,54.5,54.5,54.5s54.5-24.448,54.5-54.5    C212.52,379.949,188.071,355.5,158.02,355.5z M158.02,370.5c8.185,0,15.796,2.504,22.11,6.784l-54.826,54.826    c-4.28-6.313-6.784-13.924-6.784-22.11C118.52,388.22,136.239,370.5,158.02,370.5z M158.02,449.5    c-8.185,0-15.796-2.503-22.11-6.784l54.826-54.826c4.28,6.313,6.784,13.924,6.784,22.109C197.52,431.781,179.8,449.5,158.02,449.5    z"/>
		<path d="M353.981,355.5c-30.051,0-54.5,24.449-54.5,54.5c0,30.052,24.449,54.5,54.5,54.5s54.5-24.448,54.5-54.5    C408.481,379.949,384.032,355.5,353.981,355.5z M353.981,370.5c8.185,0,15.796,2.504,22.11,6.784l-54.826,54.826    c-4.28-6.313-6.784-13.924-6.784-22.11C314.481,388.22,332.201,370.5,353.981,370.5z M353.981,449.5    c-8.185,0-15.796-2.503-22.11-6.784l54.826-54.826c4.28,6.313,6.784,13.924,6.784,22.109    C393.481,431.781,375.761,449.5,353.981,449.5z"/>
		<path d="M196.441,58.632V46.496c0-4.142-3.358-7.5-7.5-7.5s-7.5,3.358-7.5,7.5v12.137c0,4.142,3.358,7.5,7.5,7.5    S196.441,62.774,196.441,58.632z"/>
		<path d="M330.559,58.632V46.496c0-4.142-3.358-7.5-7.5-7.5s-7.5,3.358-7.5,7.5v12.137c0,4.142,3.358,7.5,7.5,7.5    S330.559,62.774,330.559,58.632z"/>
		<path d="M266.905,52.852c-2.644,3.024-6.619,4.759-10.905,4.759s-8.261-1.734-10.905-4.759c-2.726-3.119-7.464-3.437-10.583-0.71    s-3.437,7.464-0.71,10.583c5.492,6.283,13.583,9.887,22.198,9.887s16.706-3.604,22.198-9.886c2.726-3.119,2.408-7.856-0.71-10.583    C274.369,49.416,269.631,49.733,266.905,52.852z"/>
	</g>
</g>















</svg>
