<?xml version="1.0" encoding="iso-8859-1"?>
<!-- Generator: Adobe Illustrator 19.0.0, SVG Export Plug-In . SVG Version: 6.00 Build 0)  -->
<svg xmlns="http://www.w3.org/2000/svg" xmlns:xlink="http://www.w3.org/1999/xlink" version="1.1" id="Layer_1" x="0px" y="0px" viewBox="0 0 512 512" style="enable-background:new 0 0 512 512;" xml:space="preserve" width="512" height="512">
<g>
	<g>
		<path style="fill:#FC7176;" d="M256,13.88L256,13.88c-64.101,0-116.064,51.964-116.064,116.064v20.011L258.99,187.69    l113.074-37.735v-20.011C372.064,65.843,320.1,13.88,256,13.88z"/>
		<path style="fill:#E6676C;" d="M169.936,149.954v-20.011c0-59.017,44.05-107.744,101.064-115.101    c-4.911-0.634-9.917-0.963-15-0.963h0c-64.1,0-116.064,51.963-116.064,116.064v20.011L258.99,187.69l14.614-4.877L169.936,149.954    z"/>
		<path style="fill:#FFB641;" d="M372.064,149.955H139.936c-24.036,0-43.521,19.485-43.521,43.521v0    c0,24.036,19.485,43.521,43.521,43.521L256,280.517l116.064-43.521c24.036,0,43.521-19.485,43.521-43.521v0    C415.585,169.439,396.1,149.955,372.064,149.955z"/>
		<path style="fill:#FA9E25;" d="M169.936,236.996c-24.036,0-43.521-19.485-43.521-43.521l0,0c0-24.036,19.485-43.521,43.521-43.521    h-30c-24.036,0-43.521,19.485-43.521,43.521l0,0c0,24.036,19.485,43.521,43.521,43.521L256,280.517l15-5.625L169.936,236.996z"/>
		<path style="fill:#FFDE76;" d="M401.702,236.996H110.297c-24.036,0-43.521,19.485-43.521,43.521v0    c0,24.036,19.485,43.521,43.521,43.521L256,367.558l145.702-43.521c24.036,0,43.521-19.485,43.521-43.521v0    C445.223,256.481,425.738,236.996,401.702,236.996z"/>
		<path style="fill:#FFB641;" d="M140.297,324.037c-24.036,0-43.521-19.485-43.521-43.521l0,0c0-24.036,19.485-43.521,43.521-43.521    h-30c-24.036,0-43.521,19.485-43.521,43.521l0,0c0,24.036,19.485,43.521,43.521,43.521L256,367.558l15-4.48L140.297,324.037z"/>
		<path style="fill:#9AD48D;" d="M431.341,324.037H80.659c-24.036,0-43.521,19.485-43.521,43.521v0    c0,24.036,19.485,43.521,43.521,43.521L256,454.6l175.341-43.521c24.036,0,43.521-19.485,43.521-43.521v0    C474.861,343.522,455.377,324.037,431.341,324.037z"/>
		<path style="fill:#87BA7D;" d="M110.659,411.079c-24.036,0-43.521-19.485-43.521-43.521v0c0-24.036,19.485-43.521,43.521-43.521    h-30c-24.036,0-43.521,19.485-43.521,43.521v0c0,24.036,19.485,43.521,43.521,43.521L256,454.599l15-3.723L110.659,411.079z"/>
		<path style="fill:#80C9FF;" d="M460.979,411.079H51.021C26.985,411.079,7.5,430.564,7.5,454.6v0    c0,24.036,19.485,43.521,43.521,43.521h409.959c24.036,0,43.521-19.485,43.521-43.521v0    C504.5,430.564,485.015,411.079,460.979,411.079z"/>
		<path style="fill:#6DAAD9;" d="M37.5,454.6L37.5,454.6c0-24.036,19.485-43.521,43.521-43.521h-30    c-24.036,0-43.521,19.485-43.521,43.521v0c0,24.036,19.485,43.521,43.521,43.521h30C56.985,498.12,37.5,478.636,37.5,454.6z"/>
	</g>
	<g>
		<path d="M197.138,78.276c-4.143,0-7.5,3.358-7.5,7.5v10.653c0,4.142,3.357,7.5,7.5,7.5c4.142,0,7.5-3.358,7.5-7.5V85.776    C204.638,81.634,201.28,78.276,197.138,78.276z"/>
		<path d="M314.862,78.276c-4.142,0-7.5,3.358-7.5,7.5v10.653c0,4.142,3.358,7.5,7.5,7.5s7.5-3.358,7.5-7.5V85.776    C322.362,81.634,319.004,78.276,314.862,78.276z"/>
		<path d="M275.464,90.041c-3.118-2.726-7.856-2.408-10.583,0.71c-2.146,2.456-5.383,3.864-8.881,3.864s-6.735-1.408-8.881-3.864    c-2.725-3.118-7.464-3.437-10.583-0.711c-3.119,2.726-3.437,7.464-0.711,10.583c4.995,5.714,12.349,8.992,20.175,8.992    c7.826,0,15.179-3.277,20.175-8.992C278.9,97.505,278.582,92.767,275.464,90.041z"/>
		<path d="M51.021,505.62h409.958c28.133,0,51.021-22.888,51.021-51.021c0-26.077-19.67-47.634-44.95-50.646    c9.44-9.265,15.311-22.154,15.311-36.395c0-26.078-19.67-47.635-44.95-50.647c9.44-9.264,15.311-22.154,15.311-36.394    c0-26.078-19.67-47.635-44.95-50.647c9.441-9.265,15.312-22.154,15.312-36.394c0-25.585-18.931-46.826-43.521-50.465v-13.066    C379.564,61.81,324.133,6.38,256,6.38c-68.133,0-123.564,55.431-123.564,123.564v13.066c-24.589,3.639-43.521,24.88-43.521,50.465    c0,14.24,5.871,27.129,15.312,36.394c-25.28,3.013-44.951,24.57-44.951,50.647c0,14.24,5.871,27.13,15.312,36.394    c-25.28,3.013-44.95,24.57-44.95,50.647c0,14.24,5.871,27.13,15.311,36.395C19.67,406.966,0,428.522,0,454.599    C0,482.732,22.888,505.62,51.021,505.62z M147.436,129.944C147.436,70.081,196.137,21.38,256,21.38    c59.862,0,108.564,48.702,108.564,108.564v12.511H147.436V129.944z M110.297,244.496h74.34c4.046,0,7.5-3.449,7.5-7.5    c0-4.049-3.446-7.5-7.5-7.5h-44.706c-19.86-0.002-36.017-16.161-36.017-36.021c0-19.862,16.159-36.021,36.021-36.021h232.128    c19.862,0,36.021,16.159,36.021,36.021c0,19.859-16.157,36.018-36.016,36.021H214.638c-4.044,0-7.5,3.451-7.5,7.5    c0,4.037,3.457,7.5,7.5,7.5h187.064c19.862,0,36.021,16.159,36.021,36.021c0,19.861-16.158,36.019-36.018,36.021H110.295    c-19.861-0.001-36.019-16.16-36.019-36.021C74.276,260.655,90.435,244.496,110.297,244.496z M51.021,418.579h291.759    c4.042,0,7.5-3.453,7.5-7.5c0-4.036-3.429-7.5-7.5-7.5H80.659c-19.862,0-36.021-16.159-36.021-36.021    c0-19.862,16.159-36.021,36.021-36.021h350.682c19.862,0,36.021,16.159,36.021,36.021c0,19.862-16.159,36.021-36.021,36.021    h-58.562c-4.049,0-7.5,3.447-7.5,7.5c0,4.012,3.488,7.5,7.5,7.5h88.2c19.862,0,36.021,16.159,36.021,36.021    c0,19.862-16.159,36.021-36.021,36.021H51.021C31.159,490.62,15,474.462,15,454.599C15,434.738,31.159,418.579,51.021,418.579z"/>
	</g>
</g>















</svg>
