<svg viewBox="0 -39 512.00049 512" xmlns="http://www.w3.org/2000/svg"><path d="m384.855469 9.265625c-12.816407-3.203125-26.300781 2.625-32.417969 14.335937-26.019531 49.8125-72.125 52.421876-96.382812 52.421876-24.300782 0-70.53125-2.617188-96.523438-52.703126-6.003906-11.5625-18.828125-17.871093-31.589844-15.238281-25.585937 5.28125-66.886718 13.539063-94.835937 19.105469-16.625 3.308594-27.726563 19.066406-25.261719 35.835938l7.574219 51.542968c1.714843 11.675782 9.753906 21.445313 20.882812 25.378906l26.527344 9.375c16.515625 5.835938 27.554687 21.449219 27.554687 38.964844v101.171875c0 28.238281 11.1875 55.335938 31.15625 75.304688l44.714844 44.667969c10.714844 10.714843 25.246094 16.734374 40.402344 16.734374h98.804688c15.152343 0 29.6875-6.019531 40.402343-16.734374l44.683594-44.683594c19.96875-19.96875 31.183594-47.050782 31.183594-75.289063v-101.171875c0-17.515625 11.042969-33.128906 27.558593-38.964844l26.726563-9.445312c11.023437-3.898438 19.019531-13.519531 20.832031-25.070312l7.273438-46.316407c2.570312-16.359375-7.839844-31.957031-23.929688-35.863281-27.710937-6.726562-69.332031-16.863281-95.335937-23.359375zm0 0" fill="#ffabcd"/><path d="m161.257812 146.0625c-58.679687-27.878906-74.601562-94.570312-78.925781-128.722656-17.3125 3.480468-35 7.011718-49.226562 9.84375-16.625 3.3125-27.726563 19.070312-25.261719 35.839844l7.574219 51.542968c1.714843 11.675782 9.753906 21.445313 20.882812 25.378906l26.527344 9.375c16.515625 5.835938 27.554687 21.449219 27.554687 38.964844v101.167969c0 28.238281 11.1875 55.339844 31.15625 75.308594l44.714844 44.664062c10.714844 10.714844 25.246094 16.738281 40.402344 16.738281h52.328125c5-107.34375-26.277344-246.15625-97.726563-280.101562zm0 0" fill="#ff8fb4"/><path d="m90.382812 261.65625v27.796875c0 28.238281 11.167969 55.320313 31.136719 75.289063l44.703125 44.65625c10.714844 10.714843 25.226563 16.761718 40.378906 16.761718h98.808594c15.152344 0 29.714844-5.996094 40.429688-16.710937l44.707031-44.707031c19.96875-19.96875 31.183594-47.050782 31.183594-75.289063v-27.769531c-35.753907-2.933594-103.027344-1.785156-131.558594 43.082031-3.390625 5.332031-9.234375 8.605469-15.554687 8.609375-10.617188 0-26.703126 0-37.320313 0-6.324219-.003906-12.164063-3.277344-15.558594-8.613281-28.503906-44.820313-95.574219-46.027344-131.355469-43.105469zm0 0" fill="#ccf8ff"/><path d="m251.746094 313.375c-5.222656 0-10.261719 0-14.449219 0-6.324219-.003906-12.167969-3.277344-15.558594-8.613281-28.507812-44.820313-95.574219-46.027344-131.355469-43.105469v27.796875c0 28.238281 11.167969 55.320313 31.132813 75.289063l44.707031 44.65625c10.714844 10.714843 25.226563 16.761718 40.378906 16.761718h52.382813c1.664063-35.78125-.699219-75.054687-7.238281-112.785156zm0 0" fill="#9ff6ff"/><path d="m420.871094 302.972656c-87.3125-25.777344-126.308594 49-126.308594 49h-77.210938s-38.875-74.753906-126.117187-49.058594c2.964844 23.269532 13.519531 45.0625 30.285156 61.832032l44.703125 44.652344c10.714844 10.71875 25.226563 16.765624 40.378906 16.765624h98.808594c15.152344 0 29.710938-5.996093 40.425782-16.710937l44.707031-44.707031c16.761719-16.761719 27.355469-38.515625 30.328125-61.773438zm0 0" fill="#ff8fb4"/><path d="m256.953125 351.972656h-39.601563s-38.875-74.753906-126.121093-49.0625c2.96875 23.273438 13.523437 45.066406 30.289062 61.832032l44.703125 44.65625c10.714844 10.714843 25.226563 16.765624 40.378906 16.765624h52.382813c1.101563-23.6875.4375-48.90625-2.03125-74.191406zm0 0" fill="#ff76a7"/><path d="m294.578125 351.972656h-77.179687l-43.710938 63.714844c9.578125 6.765625 21.066406 10.472656 32.949219 10.472656h98.804687c11.855469 0 23.335938-3.671875 32.898438-10.40625zm0 0" fill="#ffc2e1"/><path d="m256.953125 351.972656h-39.554687l-43.710938 63.714844c9.578125 6.765625 21.066406 10.472656 32.949219 10.472656h52.347656c1.101563-23.683594.4375-48.902344-2.03125-74.1875zm0 0" fill="#ffabcd"/><path d="m33.105469 27.1875c-16.625 3.308594-27.726563 19.066406-25.261719 35.835938l7.574219 51.542968c1.714843 11.675782 9.753906 21.445313 20.882812 25.378906l17.710938 6.257813-16.914063-119.8125c-1.355468.269531-2.695312.535156-3.992187.796875zm0 0" fill="#9ff6ff"/><path d="m496.847656 114.804688 7.273438-46.316407c2.566406-16.359375-7.839844-31.957031-23.929688-35.863281-1.917968-.464844-3.910156-.949219-5.953125-1.445312l-16.242187 115.0625 18.019531-6.371094c11.019531-3.894532 19.019531-13.515625 20.832031-25.066406zm0 0" fill="#ccf8ff"/><path d="m253.152344 116.15625c102.601562 0 138.5-67.882812 150.113281-102.324219-6.652344-1.640625-12.886719-3.1875-18.410156-4.566406-12.816407-3.203125-26.304688 2.625-32.417969 14.335937-26.019531 49.8125-72.125 52.421876-96.382812 52.421876-24.300782 0-70.535157-2.617188-96.527344-52.703126-6-11.5625-18.824219-17.871093-31.585938-15.238281-6.089844 1.257813-13.074218 2.683594-20.550781 4.199219 9.460937 33.910156 41.59375 103.875 145.761719 103.875zm0 0" fill="#ccf8ff"/><path d="m481.960938 25.335938c-29.414063-7.140626-69.824219-16.988282-95.289063-23.347657-16.355469-4.085937-33.167969 3.371094-40.882813 18.140625-22.402343 42.894532-59.722656 48.394532-89.730468 48.394532-12.429688 0-28.765625-.800782-44.921875-7.0625-19.40625-7.519532-34.527344-21.515626-44.949219-41.59375-7.542969-14.539063-23.898438-22.40625-39.761719-19.128907-25.148437 5.1875-65.425781 13.246094-94.785156 19.089844-20.554687 4.09375-34.265625 23.542969-31.21875 44.285156l7.574219 51.542969c2.128906 14.46875 12.011718 26.484375 25.800781 31.359375l26.53125 9.375c13.488281 4.769531 22.554687 17.585937 22.554687 31.894531v101.167969c0 30.476563 11.84375 59.105469 33.351563 80.613281l44.710937 44.664063c12.210938 12.207031 28.441407 18.933593 45.707032 18.933593h98.808594c17.261718 0 33.496093-6.726562 45.703124-18.933593l44.683594-44.683594c21.527344-21.527344 33.382813-50.148437 33.382813-80.589844v-101.171875c0-14.308594 9.0625-27.125 22.554687-31.890625l26.730469-9.449219c13.636719-4.816406 23.5-16.6875 25.742187-30.976562l7.273438-46.316406c3.148438-20.0625-9.839844-39.527344-29.570312-44.316406zm-459.125 88.140624-7.574219-51.546874c-1.691407-11.519532 4.980469-22.390626 15.5625-26.324219l14.03125 99.410156s-18.886719-3.269531-22.019531-21.539063zm104.003906 245.980469c-14.136719-14.132812-23.457032-31.816406-27.15625-51.054687 30.996094-7.554688 58.675781-2.5 82.359375 15.058594 13.875 10.289062 22.613281 22.316406 26.429687 28.265624l-36.332031 52.957032c-.195313-.191406-45.300781-45.226563-45.300781-45.226563zm79.8125 59.207031c-7.871094 0-15.457032-1.835937-22.289063-5.277343l36.988281-53.914063h69.277344l37.023438 53.960938c-6.804688 3.410156-14.359375 5.226562-22.191406 5.226562h-98.808594zm178.589844-59.222656s-45.128907 45.105469-45.351563 45.316406l-36.414063-53.074218c3.84375-5.96875 12.59375-17.960938 26.457032-28.222656 23.730468-17.554688 51.453125-22.589844 82.480468-15.003907-3.710937 19.195313-13.039062 36.851563-27.171874 50.984375zm28.988281-171.15625v65.371094c-39.609375-2.171875-101.96875 2.390625-130.386719 47.085938-2.046875 3.210937-5.496094 5.132812-9.230469 5.132812-10.617187.003906-26.699219.003906-37.316406 0-3.734375 0-7.1875-1.921875-9.230469-5.136719-18.492187-29.082031-54.777344-45.453125-104.925781-47.34375-4.164063-.152343-7.621094 3.070313-7.777344 7.210938-.15625 4.136719 3.074219 7.621093 7.210938 7.777343 56.855469 2.144532 81.867187 23.15625 92.835937 40.40625 4.8125 7.566407 12.992188 12.082032 21.882813 12.085938h37.324219c8.890624-.003906 17.070312-4.519531 21.882812-12.085938 11.394531-17.917968 31.035156-30.085937 58.371094-36.167968 21.058594-4.683594 42.910156-4.886719 59.359375-3.941406 0 0-.035157 23.445312-.085938 24.773437-43.457031-9.984375-74.703125 4.148437-93.667969 18.347656-16.140624 12.089844-26.003906 25.960938-30.203124 32.671875h-68.628907c-4.191406-6.710937-14.027343-20.574218-30.136719-32.664062-18.925781-14.203125-50.125-28.351563-93.542968-18.410156-.050782-1.308594-.082032-105.109376-.082032-105.109376 0-38.730468-37.082031-47.636718-37.082031-47.636718l-15.285156-108.292969c17.960937-3.582031 38.441406-7.683594 56.675781-11.371094 5.839844 17.949219 16.824219 41.28125 37.324219 61.308594 28.082031 27.441406 66.3125 41.355469 113.636719 41.355469 32.082031 0 60.550781-6.492188 84.621094-19.300782 3.65625-1.945312 5.042968-6.488281 3.097656-10.144531-1.945313-3.65625-6.484375-5.042969-10.144532-3.097656-21.875 11.640625-47.976562 17.542969-77.574218 17.542969-43.265625 0-77.972656-12.476563-103.152344-37.082032-17.769531-17.363281-27.601562-37.605468-33-53.589843 4.4375-.902344 15.269531-2.984375 16.667969-2.984375 7.894531 0 15.414062 4.46875 19.207031 11.777344 12.152344 23.421874 29.933594 39.796874 52.84375 48.675781 18.472656 7.15625 36.605469 8.074219 50.339844 8.074219 13.699218 0 31.792968-.910157 50.230468-8.035157 22.867188-8.832031 40.628907-25.121093 52.796876-48.417969 4.492187-8.597656 14.34375-12.929687 23.953124-10.53125 3.214844.804688 6.667969 1.664063 10.308594 2.566407-6.820312 17.21875-18.921875 38.945312-40.03125 56.742187-3.167968 2.667969-3.570312 7.398438-.902344 10.566406 1.484376 1.761719 6.34375 4.394532 10.570313.898438 24.402344-20.179688 37.6875-45.339844 45.046875-64.585938 18.441406 4.539063 39.378906 9.648438 57.832031 14.136719l-14.65625 103.824219s-36.976562 8.136719-36.976562 47.597656zm82.480469-120.960937-7.269532 46.316406c-3.503906 17.214844-22.289062 21.410156-22.289062 21.410156l13.34375-94.53125c11.023437 3.753907 18.050781 15.113281 16.214844 26.804688zm0 0"/></svg>