<svg viewBox="0 0 511 511.99929" xmlns="http://www.w3.org/2000/svg"><path d="m223.476562 289.019531c-49.308593-49.308593-129.25-49.308593-178.558593 0-49.308594 49.308594-49.308594 129.25 0 178.558594 49.308593 49.308594 129.253906 49.308594 178.558593 0 49.308594-49.308594 49.308594-129.25 0-178.558594zm-144.652343 144.652344c-30.53125-30.535156-30.53125-80.214844 0-110.746094 30.535156-30.53125 80.210937-30.53125 110.746093 0 30.53125 30.53125 30.53125 80.210938 0 110.742188-30.535156 30.535156-80.210937 30.535156-110.746093.003906zm0 0" fill="#7de7ff"/><path d="m463.234375 49.261719c-55.707031-55.703125-146.019531-55.703125-201.722656 0-33.132813 33.128906-46.554688 78.503906-40.277344 121.554687 0 0 7.164063 65-73.742187 94.507813l99.679687 99.679687c29.503906-80.90625 94.507813-73.742187 94.507813-73.742187 43.050781 6.277343 88.421874-7.148438 121.554687-40.277344 55.703125-55.703125 55.703125-146.019531 0-201.722656zm0 0" fill="#ffeb99"/><path d="m291.484375 280.496094c-18.605469-20.136719-23.832031-49.238282-13.472656-74.625 0 0 63.851562-160.546875 197.15625-143.082032-3.644531-4.695312-7.621094-9.214843-11.933594-13.527343-55.703125-55.703125-146.019531-55.703125-201.722656 0-33.132813 33.128906-46.554688 78.503906-40.277344 121.554687 0 0 7.164063 65-73.742187 94.507813l99.679687 99.679687c15.464844-42.410156 40.679687-60.621094 61.179687-68.347656-6.441406-5.480469-12.03125-10.929688-16.867187-16.160156zm0 0" fill="#ffde55"/><path d="m223.476562 289.019531c-42.800781-42.800781-108.683593-48.449219-157.578124-16.945312 8.527343 13.554687 17.625 26.738281 27.277343 39.511719 30.164063-18.546876 70.28125-14.769532 96.394531 11.339843 26.109376 26.113281 29.886719 66.230469 11.339844 96.394531 12.773438 9.652344 25.957032 18.75 39.515625 27.273438 31.5-48.894531 25.851563-114.777344-16.949219-157.574219zm0 0" fill="#4ad6ed"/><path d="m178.644531 333.851562c-54.214843-54.210937-95.996093-121.207031-120.832031-193.742187-7.09375-20.714844 3.949219-43.253906 24.664062-50.347656 20.710938-7.089844 43.253907 3.953125 50.34375 24.664062 20.941407 61.164063 56.171876 117.652344 101.886719 163.367188 45.710938 45.710937 102.199219 80.941406 163.363281 101.882812 20.714844 7.089844 31.753907 29.632813 24.664063 50.34375-7.089844 20.714844-29.632813 31.757813-50.34375 24.664063-72.539063-24.835938-139.535156-66.617188-193.746094-120.832032zm0 0" fill="#9ff6ff"/><path d="m334.179688 177.695312c-10.976563-10.976562-10.976563-28.773437 0-39.746093l14.445312-14.449219c2.996094-2.996094 7.855469-2.996094 10.851562 0l28.894532 28.898438c2.996094 2.996093 2.996094 7.851562 0 10.847656l-14.445313 14.449218c-10.976562 10.972657-28.769531 10.972657-39.746093 0zm0 0" fill="#57565c"/><path d="m304.453125 74.464844c-11.703125-11.707032-28.753906-13.636719-38.074219-4.316406-9.324218 9.324218-7.390625 26.371093 4.316406 38.078124 11.707032 11.707032 28.753907 13.640626 38.078126 4.316407 9.320312-9.320313 7.386718-26.371094-4.320313-38.078125zm0 0" fill="#ffa6bb"/><path d="m437.402344 207.417969c-11.707032-11.707031-28.753906-13.640625-38.078125-4.316407-9.320313 9.320313-7.386719 26.367188 4.320312 38.074219 11.703125 11.707031 28.753907 13.640625 38.074219 4.316407 9.324219-9.320313 7.390625-26.367188-4.316406-38.074219zm0 0" fill="#ffa6bb"/><path d="m165.714844 187.214844c-13.214844-23.1875-24.265625-47.589844-32.894532-72.789063-7.089843-20.710937-29.628906-31.753906-50.34375-24.664062-20.714843 7.089843-31.753906 29.632812-24.664062 50.34375 15.226562 44.476562 36.847656 86.894531 63.773438 125.535156 0 0-8.964844-32.765625 3.289062-56.582031 12.257812-23.816406 40.839844-21.84375 40.839844-21.84375zm0 0" fill="#7de7ff"/><path d="m430.96875 205.59375 8.804688-8.804688c2.929687-2.929687 2.929687-7.675781 0-10.605468-2.929688-2.929688-7.679688-2.929688-10.609376 0l-8.804687 8.804687c-2.929687 2.929688-2.929687 7.675781 0 10.605469s7.679687 2.929688 10.609375 0zm0 0"/><path d="m316.882812 91.511719 8.808594-8.804688c2.929688-2.929687 2.929688-7.679687 0-10.609375-2.929687-2.929687-7.679687-2.929687-10.609375 0l-8.804687 8.804688c-2.929688 2.929687-2.929688 7.679687 0 10.609375 2.929687 2.929687 7.679687 2.929687 10.605468 0zm0 0"/><path d="m429.832031 432.449219c4.078125-11.914063 3.273438-24.699219-2.265625-36.011719-5.539062-11.308594-15.152344-19.78125-27.066406-23.859375-39.296875-13.453125-76.628906-32.914063-110.320312-57.332031 24.253906-18.519532 48.589843-16.722656 50.585937-16.539063 22.609375 3.269531 46.019531 1.3125 67.707031-5.664062 22.804688-7.335938 43.011719-19.703125 60.0625-36.753907 58.542969-58.539062 58.542969-153.789062 0-212.328124-16.871094-16.875-37.726562-29.609376-60.304687-36.832032-21.839844-6.984375-45.398438-8.882812-68.132813-5.492187-4.097656.613281-6.925781 4.429687-6.3125 8.527343.609375 4.097657 4.425782 6.921876 8.527344 6.3125 20.472656-3.054687 41.683594-1.347656 61.347656 4.941407 20.601563 6.589843 38.859375 17.742187 54.269532 33.152343 52.6875 52.6875 52.6875 138.421876 0 191.113282-15.351563 15.347656-33.535157 26.480468-54.050782 33.078125-19.574218 6.296875-40.710937 8.054687-61.117187 5.078125-.085938-.011719-.171875-.023438-.261719-.035156-1.4375-.15625-33.96875-3.371094-64.679688 22.125-13.269531-10.382813-25.914062-21.546876-37.808593-33.441407-11.859375-11.855469-23.027344-24.515625-33.429688-37.828125 25.480469-30.707031 22.269531-63.226562 22.109375-64.664062-.007812-.085938-.019531-.175782-.03125-.261719-2.976562-20.40625-1.222656-41.542969 5.074219-61.117187 6.601563-20.515626 17.730469-38.699219 33.082031-54.050782 14.097656-14.097656 30.667969-24.671875 49.246094-31.433594 3.894531-1.417968 5.902344-5.722656 4.484375-9.613281-1.414063-3.894531-5.71875-5.902343-9.613281-4.484375-20.65625 7.515625-39.070313 19.265625-54.726563 34.925782-17.050781 17.050781-29.417969 37.257812-36.753906 60.058593-6.976563 21.691407-8.933594 45.101563-5.664063 67.710938.152344 1.695312 1.960938 26.273437-16.519531 50.550781-20.417969-28.195312-37.449219-58.992188-50.28125-91.191406-1.535156-3.84375-5.898437-5.722656-9.746093-4.1875-3.847657 1.53125-5.722657 5.894531-4.1875 9.742187 21.71875 54.5 55.039062 105.140625 96.347656 146.449219 46.515625 46.519531 104 82.367188 166.238281 103.679688 8.125 2.78125 29.503906 18.179687 19.996094 40.816406-9.503907 22.636718-32.695313 22.777344-40.816407 19.996094-71.460937-24.464844-137.460937-65.628907-190.871093-119.035157-53.410157-53.410156-94.570313-119.414062-119.039063-190.871093-2.78125-8.125-4.488281-31.59375 19.996094-40.820313 13.984375-5.269531 29.589844.585937 37.5625 13.191406 2.210938 3.496094 6.847656 4.542969 10.347656 2.324219 3.503906-2.214844 4.542969-6.847656 2.328125-10.347656-11.703125-18.5-34.359375-26.460938-55.097656-19.363282-11.914063 4.078126-21.523437 12.554688-27.0625 23.863282-5.542969 11.308594-6.347656 24.097656-2.265625 36.011718 12.703125 37.101563 29.78125 72.773438 50.636719 106.082032-23.335938 5.871094-44.507813 17.859375-61.742188 35.09375-52.152343 52.15625-52.152343 137.015625 0 189.167968 52.15625 52.15625 137.015625 52.15625 189.171875 0 11.945313-11.945312 21.390625-25.789062 28.078125-41.152343 1.652344-3.796875-.085937-8.21875-3.886719-9.871094-3.796874-1.652344-8.214843.085937-9.871093 3.882813-5.929688 13.632812-14.320313 25.921874-24.929688 36.53125-46.304687 46.304687-121.648437 46.304687-167.953125 0-46.304687-46.304688-46.304687-121.644532 0-167.949219 16.527344-16.527344 37.121094-27.628907 59.816406-32.3125 6.996094 10.445312 14.371094 20.632812 22.109376 30.535156-21.84375.515625-42.878907 9.328125-58.625 25.074219-33.457032 33.457031-33.457032 87.898437 0 121.355468 33.457031 33.457032 87.894531 33.457032 121.351562 0 15.757812-15.757812 24.566406-36.78125 25.082031-58.625 45.042969 35.1875 96.007813 62.941407 150.003907 81.429688 11.914062 4.078125 24.703124 3.273438 36.011718-2.265625 11.304688-5.539063 19.78125-15.152344 23.859375-27.066406zm-245.566406-4.082031c-27.609375 27.605468-72.527344 27.605468-100.136719 0-27.609375-27.609376-27.605468-72.53125 0-100.136719 15.976563-15.976563 38.558594-23.296875 60.875-19.875 9.023438 10.652343 18.472656 20.9375 28.335938 30.800781 9.859375 9.859375 20.144531 19.308594 30.796875 28.332031 3.425781 22.324219-3.882813 44.890625-19.871094 60.878907zm0 0"/><path d="m379.230469 183 14.445312-14.449219c5.917969-5.917969 5.917969-15.542969 0-21.457031l-28.894531-28.898438c-5.917969-5.914062-15.542969-5.914062-21.457031 0l-14.449219 14.449219c-13.882812 13.882813-13.882812 36.46875 0 50.351563 13.882812 13.882812 36.46875 13.882812 50.355469.003906zm-39.746094-39.75 14.445313-14.445312c.070312-.070313 29.207031 29.070312 29.140624 29.136718l-14.449218 14.449219c-8.035156 8.03125-21.105469 8.03125-29.136719 0-8.035156-8.035156-8.035156-21.105469 0-29.140625zm0 0"/></svg>