<svg viewBox="-57 0 511 511.99987" xmlns="http://www.w3.org/2000/svg"><path d="m96.195312 147.855469s-32.167968-51.296875 23.472657-89.550781c46.402343-31.902344 66.804687-17.246094 86.421875-42.257813 8.269531-10.542969 23.816406-11.519531 33.140625-1.898437 16.816406 17.351562 36.5625 44.789062 30.847656 72.847656 0 0 13.042969 60.859375-173.882813 60.859375zm0 0" fill="#ff8fb4"/><path d="m144.074219 44.300781c-7.269531 3.320313-15.339844 7.769531-24.40625 14.003907-55.640625 38.253906-23.472657 89.550781-23.472657 89.550781 25.425782 0 47.144532-1.128907 65.707032-3.074219-21.582032-32.808594-21.46875-73.152344-17.828125-100.480469zm0 0" fill="#ff76a7"/><path d="m62.289062 229.582031s-26.953124-79.117187 46.949219-103.464843c73.898438-24.34375 137.367188 5.21875 160.839844-39.121094 0 0 64.339844 29.558594 52.167969 98.242187 0 0-18.222656 61.730469-123.441406 61.730469s-136.515626-17.386719-136.515626-17.386719zm0 0" fill="#ffabcd"/><path d="m148.941406 117.34375c-12.757812 1.625-26.050781 4.277344-39.707031 8.773438-73.898437 24.347656-46.945313 103.464843-46.945313 103.464843s26.457032 14.691407 112.480469 17.0625c-48.234375-51.574219-25.828125-129.300781-25.828125-129.300781zm0 0" fill="#ff8fb4"/><path d="m38.8125 332.171875s-36.515625-67.816406 11.300781-113.894531c47.820313-46.078125 213.011719 41.730468 272.128907-33.039063.871093-.867187 77.125 38.148438 35.648437 146.933594 0 .871094-319.078125 0-319.078125 0zm0 0" fill="#ffc2e1"/><path d="m150.679688 208.425781c-42.847657-5.53125-81.265626-8.746093-100.5625 9.851563-47.820313 46.078125-11.304688 113.894531-11.304688 113.894531s59.074219.292969 149.40625.371094c-65.9375-36.324219-37.539062-124.117188-37.539062-124.117188zm0 0" fill="#ffabcd"/><path d="m370.105469 294.511719-33.191407 22.855469c-7.527343 5.183593-17.394531 5.484374-25.226562.765624l-36.359375-21.914062c-7.277344-4.386719-16.359375-4.503906-23.75-.308594l-41.273437 23.441406c-7.132813 4.050782-15.867188 4.050782-23 0l-41.273438-23.441406c-7.390625-4.195312-16.472656-4.078125-23.75.308594l-36.359375 21.914062c-7.828125 4.71875-17.695313 4.417969-25.226563-.765624l-33.1875-22.855469c-9.183593-6.324219-21.375 1.824219-19.042968 12.730469l32.621094 152.53125c5.582031 26.085937 28.628906 44.726562 55.304687 44.726562h204.832031c26.675782 0 49.722656-18.640625 55.300782-44.726562l32.625-152.53125c2.332031-10.90625-9.863282-19.054688-19.042969-12.730469zm0 0" fill="#ccf8ff"/><path d="m187.304688 319.351562-41.273438-23.4375c-7.390625-4.199218-16.472656-4.082031-23.75.304688l-36.359375 21.914062c-3.972656 2.394532-8.46875 3.492188-12.917969 3.320313l40.371094 183.046875h84.484375v-182.136719c-3.652344-.152343-7.273437-1.148437-10.554687-3.011719zm0 0" fill="#9ff6ff"/><path d="m356.523438 459.773438 32.625-152.53125c2.332031-10.90625-9.863282-19.054688-19.042969-12.730469l-33.191407 22.855469c-4.25 2.925781-9.25 4.296874-14.203124 4.082031l-40.367188 183.050781h18.878906c26.675782 0 49.722656-18.640625 55.300782-44.726562zm0 0" fill="#9ff6ff"/><g fill="#ffeb99"><path d="m117.4375 256c0 8.421875-6.824219 15.246094-15.246094 15.246094-8.417968 0-15.246094-6.824219-15.246094-15.246094s6.828126-15.246094 15.246094-15.246094c8.421875 0 15.246094 6.824219 15.246094 15.246094zm0 0"/><path d="m214.050781 274.140625c0 8.417969-6.824219 15.246094-15.246093 15.246094-8.421876 0-15.246094-6.828125-15.246094-15.246094 0-8.421875 6.824218-15.25 15.246094-15.25 8.421874 0 15.246093 6.828125 15.246093 15.25zm0 0"/><path d="m323.777344 246.96875c0 8.421875-6.828125 15.246094-15.246094 15.246094-8.421875 0-15.25-6.824219-15.25-15.246094s6.828125-15.246094 15.25-15.246094c8.417969 0 15.246094 6.824219 15.246094 15.246094zm0 0"/><path d="m165.925781 163.101562c0 8.421876-6.828125 15.246094-15.246093 15.246094-8.421876 0-15.25-6.824218-15.25-15.246094 0-8.421874 6.828124-15.246093 15.25-15.246093 8.417968 0 15.246093 6.824219 15.246093 15.246093zm0 0"/><path d="m265.226562 166.980469c0 8.421875-6.828124 15.25-15.246093 15.25-8.421875 0-15.25-6.828125-15.25-15.25 0-8.417969 6.828125-15.246094 15.25-15.246094 8.417969 0 15.246093 6.828125 15.246093 15.246094zm0 0"/><path d="m213.105469 71.746094c0 8.421875-6.828125 15.25-15.246094 15.25-8.421875 0-15.25-6.828125-15.25-15.25 0-8.417969 6.828125-15.246094 15.25-15.246094 8.417969 0 15.246094 6.828125 15.246094 15.246094zm0 0"/></g><path d="m198.804688 432.726562c-15.519532 0-28.101563-12.582031-28.101563-28.101562v-20.429688c0-4.238281 3.433594-7.671874 7.671875-7.671874h40.859375c4.238281 0 7.671875 3.433593 7.671875 7.671874v20.429688c0 15.519531-12.582031 28.101562-28.101562 28.101562zm0 0" fill="#57565c"/><path d="m134.78125 404.625c0-13.183594-13.417969-23.871094-29.972656-23.871094-16.554688 0-29.972656 10.6875-29.972656 23.871094s13.417968 23.867188 29.972656 23.867188c16.554687 0 29.972656-10.683594 29.972656-23.867188zm0 0" fill="#ffa6bb"/><path d="m322.773438 404.625c0-13.183594-13.417969-23.871094-29.972657-23.871094-16.554687 0-29.972656 10.6875-29.972656 23.871094s13.417969 23.867188 29.972656 23.867188c16.554688 0 29.972657-10.683594 29.972657-23.867188zm0 0" fill="#ffa6bb"/><path d="m271.960938 371.570312v12.453126c0 4.140624 3.359374 7.5 7.5 7.5 4.144531 0 7.5-3.359376 7.5-7.5v-12.453126c0-4.140624-3.355469-7.5-7.5-7.5-4.140626 0-7.5 3.359376-7.5 7.5zm0 0"/><path d="m110.648438 371.570312v12.453126c0 4.140624 3.355468 7.5 7.5 7.5 4.144531 0 7.5-3.359376 7.5-7.5v-12.453126c0-4.140624-3.355469-7.5-7.5-7.5-4.144532 0-7.5 3.359376-7.5 7.5zm0 0"/><path d="m377.117188 284.820312c2.621093-27.945312-2.855469-52.691406-16.347657-73.679687-11.085937-17.246094-24.449219-26.636719-30.308593-30.195313 4.421874-35.503906-10.480469-60.597656-24.191407-75.636718-10.496093-11.511719-21.691406-18.839844-27.992187-22.453125 1.75-17.371094-3.617188-42.925781-33.660156-73.925781-5.90625-6.09375-14.144532-9.332032-22.597657-8.8906255-8.554687.4492185-16.511719 4.5976565-21.832031 11.3789065-8.242188 10.511719-16.113281 12.546875-29.152344 15.914062-13.960937 3.609375-31.332031 8.097657-55.613281 24.792969-38.800781 26.675781-38.609375 59.585938-33.746094 79.300781-11.226562 7.949219-19.589843 18.210938-24.945312 30.730469-7.023438 16.425781-7.378907 33.6875-6.210938 46.148438-1.980469 1.382812-36.585937 23.414062-32.289062 76.65625-18.2031252.34375-18.808594 15.855468-17.101563 23.847656l32.625 152.535156c6.277344 29.351562 32.617188 50.65625 62.632813 50.65625h204.835937c30.015625 0 56.355469-21.304688 62.636719-50.65625l14.558594-68.070312c.867187-4.050782-1.714844-8.035157-5.765625-8.902344-4.054688-.871094-8.039063 1.714844-8.902344 5.765625l-14.558594 68.070312c-4.808594 22.480469-24.984375 38.792969-47.96875 38.792969h-204.835937c-22.984375 0-43.160157-16.3125-47.964844-38.792969l-32.625-152.535156c-.96875-6.039063 3.492187-7.445313 7.457031-4.984375l33.1875 22.855469c9.929688 6.839843 23.023438 7.238281 33.351563 1.011719l36.359375-21.910157c4.949218-2.984375 11.148437-3.066406 16.175781-.210937l41.273437 23.441406c9.378907 5.324219 21.027344 5.324219 30.40625 0l41.277344-23.441406c5.023438-2.851563 11.222656-2.773438 16.171875.210937l36.359375 21.910157c10.328125 6.226562 23.421875 5.828124 33.351563-1.011719l33.1875-22.855469c4.003906-2.550781 8.558593-.597656 7.457031 4.984375l-11.667969 54.554687c-.867187 4.050782 1.714844 8.035157 5.765625 8.902344 4.050782.867188 8.035156-1.714844 8.902344-5.765625l11.667969-54.554687c2.269531-12.40625-4.238281-25.636719-19.363281-23.988282zm-253.199219-220.335937c22.101562-15.195313 38.050781-19.316406 50.867187-22.628906 13.859375-3.578125 25.828125-6.671875 37.207032-21.179688 2.644531-3.375 6.585937-5.4375 10.8125-5.65625 4.191406-.21875 8.109374 1.324219 11.039062 4.347657 12.898438 13.308593 33.625 39.304687 29.066406 65.082031-11.242187 20.03125-32.605468 21.59375-69.011718 22.570312-25.851563.695313-62.265626.71875-98.566407 16.546875-3.113281-17.53125.703125-39.910156 28.585938-59.082031zm-12.335938 68.757813c29.773438-9.804688 57.898438-10.5625 82.71875-11.226563 32.964844-.882813 61.785157-1.65625 78.421875-25.027344 5.539063 3.355469 14.25 9.417969 22.460938 18.425781 17.234375 18.90625 23.953125 41.300782 19.992187 66.578126-13.363281 15.949218-33.875 24.738281-62.660156 26.804687-27.304687 1.960937-58.1875-2.148437-88.054687-6.121094-37.738282-5.023437-73.863282-9.816406-99.402344-1.453125-1.0625-25.363281 7.203125-55.027344 46.523437-67.980468zm221.078125 177.949218c-5.09375 3.503906-11.804687 3.710938-17.101562.519532l-36.359375-21.914063c-9.585938-5.777344-21.589844-5.933594-31.324219-.40625l-41.273438 23.441406c-4.808593 2.730469-10.785156 2.730469-15.59375 0l-41.273437-23.441406c-9.734375-5.527344-21.738281-5.375-31.324219.40625l-36.359375 21.914063c-5.296875 3.191406-12.007812 2.988281-17.101562-.519532l-31.214844-21.496094c-3.300781-26.820312 3.945313-49.019531 21.585937-66.015624 18.597657-17.921876 61.617188-12.199219 107.164063-6.136719 58.734375 7.816406 125.015625 16.636719 161.585937-22.90625 5.039063 3.222656 14.085938 10.109375 22.378907 22.066406 14.207031 20.484375 19.15625 45.660156 14.734375 74.84375zm0 0"/><path d="m178.375 369.023438c-8.363281 0-15.171875 6.808593-15.171875 15.171874v20.429688c0 19.628906 15.972656 35.601562 35.601563 35.601562 19.628906 0 35.601562-15.972656 35.601562-35.601562v-20.429688c0-8.367187-6.808594-15.171874-15.171875-15.171874zm41.03125 15.171874v20.429688c0 11.359375-9.242188 20.601562-20.601562 20.601562-11.359376 0-20.601563-9.242187-20.601563-20.601562v-20.429688c0-.09375 41.203125-.09375 41.203125 0zm0 0"/><path d="m102.191406 233.253906c-12.542968 0-22.746094 10.203125-22.746094 22.746094 0 4.140625 3.355469 7.5 7.5 7.5 4.140626 0 7.5-3.359375 7.5-7.5 0-4.273438 3.476563-7.746094 7.746094-7.746094 4.273438 0 7.746094 3.472656 7.746094 7.746094 0 3.121094-1.855469 5.925781-4.730469 7.140625-3.816406 1.613281-5.601562 6.015625-3.988281 9.828125 1.210938 2.863281 4.949219 6.175781 9.828125 3.988281 8.363281-3.75 13.890625-11.796875 13.890625-20.957031.003906-12.542969-10.203125-22.746094-22.746094-22.746094zm0 0"/><path d="m198.804688 251.390625c-12.542969 0-22.746094 10.207031-22.746094 22.746094 0 12.542969 10.203125 22.75 22.746094 22.75 12.542968 0 22.746093-10.207031 22.746093-22.75 0-12.539063-10.203125-22.746094-22.746093-22.746094zm0 30.496094c-4.273438 0-7.746094-3.476563-7.746094-7.746094 0-4.273437 3.472656-7.75 7.746094-7.75 4.273437 0 7.746093 3.476563 7.746093 7.75 0 4.269531-3.472656 7.746094-7.746093 7.746094zm0 0"/><path d="m308.53125 224.222656c-12.542969 0-22.75 10.203125-22.75 22.746094s10.207031 22.746094 22.75 22.746094 22.746094-10.203125 22.746094-22.746094-10.203125-22.746094-22.746094-22.746094zm0 30.492188c-4.273438 0-7.75-3.472656-7.75-7.746094s3.476562-7.746094 7.75-7.746094c4.269531 0 7.746094 3.472656 7.746094 7.746094s-3.476563 7.746094-7.746094 7.746094zm0 0"/><path d="m150.679688 185.847656c12.542968 0 22.746093-10.203125 22.746093-22.746094 0-12.542968-10.203125-22.746093-22.746093-22.746093-12.542969 0-22.75 10.203125-22.75 22.746093 0 12.542969 10.207031 22.746094 22.75 22.746094zm0-30.492187c4.269531 0 7.746093 3.476562 7.746093 7.746093 0 4.273438-3.476562 7.746094-7.746093 7.746094-4.273438 0-7.75-3.472656-7.75-7.746094 0-4.269531 3.476562-7.746093 7.75-7.746093zm0 0"/><path d="m249.980469 189.730469c4.140625 0 7.5-3.359375 7.5-7.5 0-4.144531-3.359375-7.5-7.5-7.5-4.273438 0-7.75-3.476563-7.75-7.75 0-4.269531 3.476562-7.746094 7.75-7.746094 3.121093 0 5.921875 1.859375 7.140625 4.734375 1.613281 3.816406 6.015625 5.597656 9.828125 3.984375s5.597656-6.011719 3.984375-9.828125c-3.566406-8.4375-11.792969-13.890625-20.957032-13.890625-12.542968 0-22.746093 10.203125-22.746093 22.746094s10.203125 22.75 22.75 22.75zm0 0"/><path d="m197.859375 94.496094c12.542969 0 22.746094-10.207032 22.746094-22.75 0-12.542969-10.203125-22.746094-22.746094-22.746094-12.546875 0-22.75 10.203125-22.75 22.746094 0 12.542968 10.203125 22.75 22.75 22.75zm0-30.496094c4.269531 0 7.746094 3.476562 7.746094 7.746094 0 4.273437-3.476563 7.75-7.746094 7.75-4.273437 0-7.75-3.476563-7.75-7.75 0-4.269532 3.476563-7.746094 7.75-7.746094zm0 0"/></svg>