<svg viewBox="0 -48 511.99973 511" xmlns="http://www.w3.org/2000/svg"><path d="m170.847656 41.636719s-59.972656-58.308594-99.953125-21.324219c-28.28125 26.160156-51.066406 123.851562-61.980469 178.777344-5.660156 28.480468 6.03125 57.6875 29.953126 74.144531 29.183593 20.070313 73.886718 34.492187 127.722656-1.683594 1.257812.640625 4.257812-229.914062 4.257812-229.914062zm0 0" fill="#acabb1"/><path d="m166.589844 271.554688c.832031.421874 2.421875-99.945313 3.40625-168.191407l-16.136719-39.832031s-89.453125 4.5625-92.191406 123.226562c-1.183594 51.328126 12.660156 84.882813 28.753906 106.449219 22.273437 2.355469 47.964844-2.703125 76.167969-21.652343zm0 0" fill="#898890"/><path d="m341.152344 41.636719s59.972656-58.308594 99.953125-21.324219c28.28125 26.160156 51.066406 123.851562 61.980469 178.777344 5.65625 28.480468-6.03125 57.6875-29.953126 74.144531-29.183593 20.070313-73.890624 34.492187-127.722656-1.683594-1.257812.640625-4.257812-229.914062-4.257812-229.914062zm0 0" fill="#acabb1"/><path d="m345.410156 271.554688c-.832031.421874-2.421875-99.945313-3.40625-168.191407l16.136719-39.832031s89.453125 4.5625 92.191406 123.226562c1.183594 51.328126-12.660156 84.882813-28.753906 106.449219-22.273437 2.355469-47.964844-2.703125-76.167969-21.652343zm0 0" fill="#898890"/><path d="m409.027344 167.226562c0 86.058594-69.761719 123.144532-155.824219 123.144532-86.058594 0-155.820313-37.085938-155.820313-123.144532 0-86.058593 69.761719-155.824218 155.820313-155.824218 86.0625 0 155.824219 69.765625 155.824219 155.824218zm0 0" fill="#d8d7da"/><path d="m321.175781 200.632812c4.539063-91.734374-99.769531-83.25-111.632812-126.152343-6.425781-23.222657 4.488281-45.265625 15.851562-60.601563-72.789062 13.113282-128.011719 76.78125-128.011719 153.347656 0 86.058594 69.761719 123.144532 155.820313 123.144532 13.582031 0 26.753906-.925782 39.3125-2.820313zm0 0" fill="#c6c5ca"/><path d="m188.503906 191.199219s-16.304687 54.507812-55.480468 94.628906c-10.203126 10.453125-.773438 27.886719 13.539062 24.96875 26.644531-5.429687 58.449219-20.695313 76.859375-59.484375-.066406-.8125-34.917969-60.113281-34.917969-60.113281zm0 0" fill="#ccf8ff"/><path d="m317.90625 191.199219s16.304688 54.507812 55.480469 94.628906c10.203125 10.453125.773437 27.886719-13.535157 24.96875-26.644531-5.429687-58.449218-20.695313-76.859374-59.484375.066406-.8125 34.914062-60.113281 34.914062-60.113281zm0 0" fill="#ccf8ff"/><path d="m321.175781 185.402344c0 37.539062-30.433593 222.273437-67.96875 222.273437-37.539062 0-67.96875-184.734375-67.96875-222.273437 0-37.539063 30.429688-54.453125 67.96875-54.453125 37.535157 0 67.96875 16.914062 67.96875 54.453125zm0 0" fill="#eaeaea"/><path d="m229.339844 133.539062c-25.761719 6.019532-44.105469 22.726563-44.105469 51.863282 0 37.539062 30.433594 222.273437 67.96875 222.273437 11.078125 0 21.535156-16.085937 30.773437-39.722656-69.332031-73.441406-54.671874-234.027344-54.636718-234.414063zm0 0" fill="#d8d7da"/><path d="m341.359375 130.824219v-12.449219c0-4.140625-3.355469-7.5-7.5-7.5-4.140625 0-7.5 3.359375-7.5 7.5v12.449219c0 4.144531 3.359375 7.5 7.5 7.5 4.144531 0 7.5-3.355469 7.5-7.5zm0 0"/><path d="m172.550781 110.875c-4.140625 0-7.5 3.359375-7.5 7.5v12.453125c0 4.140625 3.359375 7.5 7.5 7.5 4.144531 0 7.5-3.359375 7.5-7.5v-12.453125c0-4.140625-3.355469-7.5-7.5-7.5zm0 0"/><path d="m510.441406 197.628906c-8.328125-41.921875-21.859375-100.480468-39.015625-141.382812-1.601562-3.820313-5.996093-5.613282-9.816406-4.015625-3.816406 1.601562-5.617187 5.996093-4.015625 9.816406 16.671875 39.75 29.941406 97.257813 38.136719 138.503906 5.101562 25.671875-5.4375 51.773438-26.851563 66.5-10.332031 7.109375-20.835937 12.246094-31.476562 15.414063 14.429687-26.023438 21.296875-58.179688 20.425781-95.882813-.941406-40.820312-11.917969-73.234375-32.621094-96.34375-16.484375-18.398437-35.664062-26.964843-49.539062-30.949219-6.304688-7.140624-13.21875-13.730468-20.664063-19.679687 16.792969-13.324219 54.800782-38.035156 81.007813-13.792969 2.632812 2.433594 5.371093 5.789063 8.140625 9.976563 2.285156 3.453125 6.9375 4.398437 10.390625 2.117187 3.457031-2.285156 4.40625-6.9375 2.117187-10.394531-3.429687-5.183594-6.949218-9.460937-10.464844-12.710937-36.691406-33.941407-86.402343 1.289062-103.757812 15.699218-25.667969-16.808594-56.324219-26.601562-89.230469-26.601562-31.578125 0-61.082031 9.019531-86.097656 24.597656-19.050781-15.242188-66.164063-46.203125-101.308594-13.695312-15.605469 14.4375-39.417969 57.875-64.242187 182.824218-6.269532 31.554688 6.707031 63.65625 33.058594 81.78125 21.019531 14.460938 43.445312 21.789063 66.128906 21.789063 6.886718 0 13.796875-.6875 20.695312-2.046875.375 2.652344 1.710938 19.472656 21.953125 19.472656 18.082031 0 37.84375-10.773438 51.171875-20.464844 2.125 9.558594 4.339844 18.773438 6.609375 27.394532 1.050781 4.003906 5.152344 6.398437 9.160157 5.34375 4.003906-1.050782 6.398437-5.152344 5.34375-9.160157-14.007813-53.253906-22.945313-116.316406-22.945313-136.335937 0-15.289063 5.65625-27.140625 16.8125-35.234375 10.570313-7.667969 25.667969-11.71875 43.65625-11.71875 17.992187 0 33.085937 4.050781 43.660156 11.71875 11.152344 8.09375 16.8125 19.945312 16.8125 35.234375 0 17.15625-7.015625 70.988281-19.699219 123.449218-17.429687 72.089844-33.828124 91.324219-40.769531 91.324219-2.09375 0-13.324219-2.375-28.914062-49.207031-1.308594-3.929688-5.554688-6.054688-9.484375-4.746094-3.929688 1.308594-6.058594 5.554688-4.75 9.484375 13.507812 40.570313 27.214844 59.46875 43.144531 59.46875 12.054687 0 22.941406-11.074219 33.285156-33.851562 7.660157-16.863281 15.082031-40.058594 22.066407-68.945313 1.132812-4.679687 2.230468-9.433594 3.289062-14.222656 13.324219 9.691406 34.867188 20.46875 51.171875 20.46875 21.421875 0 21.832031-17.628906 22.09375-20.6875 8.753906 2.175781 17.519531 3.265625 26.242187 3.265625 22.632813 0 44.972657-7.308594 66.027344-21.792969 26.355469-18.125 39.332032-50.226562 33.0625-81.78125zm-467.324218 69.425782c-21.410157-14.726563-31.949219-40.832032-26.847657-66.503907 18.484375-93.039062 40.25-156.726562 59.71875-174.734375 12.105469-11.199218 28-13.238281 47.238281-6.058594 12.109376 4.519532 23.09375 11.714844 30.960938 17.679688-9.414062 7.199219-18.019531 15.394531-25.667969 24.429688-13.214843 4.929687-31.902343 14.949218-47.109375 34.878906-17.21875 22.5625-26.386718 52.789062-27.238281 89.835937-.671875 29.027344 3.324219 55.070313 11.875 77.410157 1.140625 2.988281 4.609375 6.449218 9.683594 4.324218 3.820312-1.601562 5.804687-5.816406 4.324219-9.6875-7.851563-20.507812-11.515626-44.632812-10.890626-71.699218.78125-33.8125 8.914063-61.09375 24.171876-81.085938 5.132812-6.730469 10.734374-12.128906 16.328124-16.480469-12.609374 23.160157-19.78125 49.6875-19.78125 77.863281 0 43.09375 17.015626 77.59375 49.320313 100.320313-3.597656 4.457031-12.804687 14.4375-13.367187 15.171875-28.320313 7.882812-56.132813 2.621094-82.71875-15.664062zm101.945312 36.394531c-4.886719 1-7.25-2.558594-7.855469-3.671875-.617187-1.128906-2.347656-5.089844 1.183594-8.707032 19.941406-20.425781 34.140625-44.460937 43.378906-63.476562.699219 4.960938 1.472657 10.144531 2.324219 15.488281 2.0625 12.949219 4.433594 26.027344 7.007812 38.746094-12.671874 10.699219-28.144531 17.976563-46.039062 21.621094zm108.144531-180c-86.058593 0-75.265625 69.367187-74.875 74.242187-4.421875 11.851563-14.160156 34.914063-30.136719 57.855469-28.75-19.988281-43.3125-49.667969-43.3125-88.320313 0-81.785156 66.539063-148.324218 148.324219-148.324218 81.785157 0 148.320313 66.539062 148.320313 148.324218 0 38.644532-14.558594 68.320313-43.300782 88.308594-16.238281-23.347656-26.019531-46.78125-30.132812-57.8125l-.015625.007813c.390625-4.898438 11.183594-74.28125-74.871094-74.28125zm116 176.328125c-.605469 1.117187-2.972656 4.667968-7.859375 3.671875-17.910156-3.648438-33.375-10.925781-46.046875-21.628907 3.832031-18.976562 7.023438-37.8125 9.324219-54.167968 9.121094 18.828125 22.714844 41.691406 41.714844 61.65625.59375 1.351562 6.121094 4.4375 2.867187 10.46875zm9.203125-19.546875c-3.972656-4.089844-7.699218-8.351563-11.195312-12.6875 32.300781-22.722657 49.3125-57.226563 49.3125-100.316407 0-30.777343-8.5625-59.59375-23.421875-84.195312 7.011719 4.171875 14.234375 9.742188 20.929687 17.21875 18.253906 20.371094 27.941406 49.535156 28.796875 86.679688.9375 40.574218-7.59375 73.910156-25.359375 99.15625-12.878906.863281-25.921875-1.089844-39.0625-5.855469zm0 0"/></svg>