<svg viewBox="-46 0 511 511.99963" xmlns="http://www.w3.org/2000/svg"><path d="m382.085938 80.082031c-20.550782-31.894531-54.835938-63.585937-111.429688-72.253906-17.132812-2.621094-32.625 10.566406-32.832031 27.894531-.003907.296875-1.339844 20.832032 20.484375 28.636719 17.757812 6.351563 44.164062 17.714844 63.3125 44.902344 11.585937 16.449219-.167969 39.136719-20.289063 39.136719h-183.101562c-20.121094 0-31.875-22.6875-20.289063-39.136719 19.148438-27.1875 45.246094-39.484375 63.3125-44.902344 21.027344-6.304687 20.488282-28.339844 20.484375-28.636719-.207031-17.328125-15.699219-30.515625-32.832031-27.894531-56.6875 8.683594-90.992188 40.464844-111.53125 72.414063-19.472656 30.285156-29.378906 65.734374-29.378906 101.742187v168.195313c0 111.441406 90.34375 154.320312 201.785156 154.320312s201.78125-42.878906 201.78125-154.320312v-168.199219c0-36.066407-9.941406-71.578125-29.476562-101.898438zm0 0" fill="#ccf8ff"/><path d="m250.851562 502.398438c-42.101562-77.378907-151.199218-123.929688-151.199218-212.246094 0-106.925782 65.804687-141.757813 65.804687-141.757813h-47.226562c-20.121094 0-31.875-22.683593-20.289063-39.136719 19.148438-27.183593 45.246094-39.480468 63.3125-44.898437 21.027344-6.304687 20.488282-28.339844 20.484375-28.636719-.207031-17.328125-15.699219-30.515625-32.832031-27.894531-56.6875 8.683594-90.992188 40.464844-111.53125 72.414063-19.472656 30.285156-29.378906 65.734374-29.378906 101.738281v168.199219c0 111.4375 90.34375 154.320312 201.785156 154.320312 14.074219 0 27.8125-.683594 41.070312-2.101562zm0 0" fill="#9ff6ff"/><path d="m367.175781 369.882812c0 41.785157-30.296875 77.472657-71.554687 84.074219-25.429688 4.066407-55.351563 7.335938-85.839844 7.335938s-60.410156-3.269531-85.839844-7.335938c-41.257812-6.601562-71.554687-42.289062-71.554687-84.074219v-150.78125c0-19.234374 15.589843-34.824218 34.824219-34.824218h245.144531c19.230469 0 34.824219 15.589844 34.824219 34.824218v150.78125zm0 0" fill="#ffc2e1"/><path d="m203.972656 264.253906c-18.773437-13.570312-45.230468-11.726562-61.917968 5.527344-17.855469 18.464844-17.039063 48.96875 1.121093 67.128906l44 44.003906c12.484375 12.480469 32.726563 12.480469 45.207031 0l44-44.003906c18.164063-18.160156 18.980469-48.664062 1.125-67.128906-16.6875-17.253906-43.144531-19.097656-61.917968-5.527344-3.488282 2.519532-8.128906 2.519532-11.617188 0zm0 0" fill="#ffeb99"/><path d="m87.210938 184.277344c-19.234376 0-34.824219 15.589844-34.824219 34.824218v150.78125c0 41.785157 30.296875 77.472657 71.554687 84.074219 25.429688 4.066407 55.351563 7.335938 85.839844 7.335938 3.691406 0 7.375-.046875 11.046875-.140625-49.578125-55.316406-121.175781-99.453125-121.175781-170.996094 0-49.535156 14.113281-83.585938 29.273437-105.878906zm0 0" fill="#ffabcd"/><path d="m52.386719 340.660156c-4.144531 0-7.5 3.355469-7.5 7.5v21.722656c0 21.996094 7.84375 43.335938 22.089843 60.089844 14.261719 16.769532 34.070313 27.917969 55.78125 31.390625 30.824219 4.929688 60.105469 7.429688 87.023438 7.429688s56.195312-2.5 87.023438-7.429688c21.707031-3.472656 41.519531-14.621093 55.78125-31.390625 14.246093-16.753906 22.089843-38.09375 22.089843-60.089844v-150.78125c0-23.339843-18.988281-42.324218-42.324219-42.324218h-245.140624c-23.339844 0-42.324219 18.984375-42.324219 42.324218v98.332032c0 4.144531 3.355469 7.5 7.5 7.5 4.140625 0 7.5-3.355469 7.5-7.5v-98.332032c0-15.066406 12.257812-27.324218 27.324219-27.324218h245.140624c15.066407 0 27.324219 12.257812 27.324219 27.324218v150.78125c0 18.441407-6.574219 36.328126-18.519531 50.371094-11.945312 14.050782-28.539062 23.390625-46.71875 26.296875-30.046875 4.804688-58.53125 7.242188-84.65625 7.242188-26.128906 0-54.609375-2.4375-84.65625-7.242188-18.179688-2.90625-34.773438-12.246093-46.722656-26.296875-11.941406-14.042968-18.519532-31.929687-18.519532-50.371094v-21.722656c.003907-4.144531-3.355468-7.5-7.496093-7.5zm0 0"/><path d="m136.664062 264.566406c-10.003906 10.34375-15.347656 24.207032-15.054687 39.042969.292969 14.699219 6.066406 28.410156 16.265625 38.605469l44 44c7.695312 7.695312 17.796875 11.542968 27.90625 11.542968 10.105469 0 20.210938-3.847656 27.90625-11.542968l44-44c10.195312-10.195313 15.96875-23.90625 16.261719-38.605469.292969-14.835937-5.050781-28.699219-15.050781-39.042969-18.894532-19.53125-49.71875-22.28125-71.703126-6.390625-.875.628907-1.957031.628907-2.832031 0h.003907c-21.988282-15.890625-52.8125-13.140625-71.703126 6.390625zm83.316407 5.765625c15.980469-11.550781 38.394531-9.542969 52.136719 4.664063 14.808593 15.3125 14.335937 41.242187-1.035157 56.613281l-44 44c-9.539062 9.539063-25.0625 9.539063-34.601562 0l-44-44c-15.371094-15.375-15.847657-41.300781-1.035157-56.613281 7.757813-8.023438 18.277344-12.152344 28.84375-12.152344 8.152344 0 16.332032 2.460938 23.292969 7.488281 6.101563 4.410157 14.296875 4.410157 20.398438 0zm0 0"/><path d="m388.390625 76.019531c-2.242187-3.480469-6.886719-4.484375-10.367187-2.242187-3.480469 2.246094-4.484376 6.886718-2.242188 10.367187 18.503906 28.714844 28.28125 62.546875 28.28125 97.835938v168.199219c0 49.808593-18.773438 87.738281-55.796875 112.734374-33.03125 22.300782-80.917969 34.085938-138.484375 34.085938-57.5625 0-105.453125-11.789062-138.484375-34.085938-37.023437-24.996093-55.796875-62.921874-55.796875-112.734374v-168.199219c0-35.226563 9.746094-69.003907 28.183594-97.683594 24.96875-38.835937 60.722656-62.277344 106.359375-69.054687 18.523437-2.75 24.125 14.46875 24.199219 20.621093.03125 1.707031-.144532 16.816407-15.144532 21.3125-19.457031 5.835938-46.925781 18.859375-67.285156 47.765625-6.984375 9.914063-7.851562 22.757813-2.265625 33.519532 5.578125 10.753906 16.570313 17.4375 28.683594 17.4375h183.101562c12.117188 0 23.109375-6.683594 28.6875-17.4375 5.582031-10.761719 4.714844-23.605469-2.265625-33.519532-20.007812-28.40625-47.773437-40.796875-66.917968-47.644531-15.402344-5.507813-15.628907-18.636719-15.519532-21.210937 0-.078126 1.347656-23.59375 24.203125-20.84375 34.042969 4.09375 62.621094 19.546874 85.375 42.664062 2.90625 2.949219 7.65625 2.988281 10.605469.082031 2.953125-2.90625 2.992188-7.652343.085938-10.605469-25.078126-25.472656-56.632813-41.277343-93.796876-46.96875-10.292968-1.574218-20.765624 1.390626-28.722656 8.136719-7.945312 6.742188-12.585937 16.566407-12.742187 26.976563-.113281 3.082031-.136719 26.738281 25.460937 35.894531 18.679688 6.679687 42.34375 17.507813 59.703125 42.15625 3.800781 5.398437 4.253907 12.117187 1.214844 17.972656-3.035156 5.851563-8.78125 9.34375-15.371094 9.34375h-183.101562c-6.589844 0-12.335938-3.492187-15.371094-9.34375-3.039063-5.855469-2.585937-12.574219 1.214844-17.972656 17.890625-25.402344 42.140625-36.878906 59.332031-42.035156 20.773438-6.226563 26.011719-25.519531 25.832031-35.910157-.125-10.445312-4.769531-20.316406-12.742187-27.082031-7.957032-6.746093-18.425782-9.714843-28.722656-8.136719-27.238282 4.171876-51.644532 13.859376-72.546876 28.792969-17.128906 12.238281-31.988281 28.042969-44.160156 46.976563-19.996094 31.105468-30.566406 67.6875-30.566406 105.796875v168.195312c0 55.101563 20.996094 97.214844 62.40625 125.167969 35.519531 23.980469 86.308594 36.65625 146.875 36.65625s111.355469-12.675781 146.878906-36.65625c41.410156-27.953125 62.40625-70.0625 62.40625-125.167969v-168.191406c-.003906-38.179687-10.609375-74.820313-30.675781-105.964844zm0 0"/></svg>