<svg viewBox="0 0 511 511.99939" xmlns="http://www.w3.org/2000/svg"><path d="m19.039062 493.460938c-14.6875-14.683594-14.6875-38.714844 0-53.398438l172.03125-172.03125c14.683594-14.683594 38.714844-14.683594 53.398438 0s14.683594 38.714844 0 53.398438l-172.03125 172.03125c-14.683594 14.6875-38.714844 14.6875-53.398438 0zm0 0" fill="#ffeb99"/><path d="m244.46875 268.03125c-14.683594-14.683594-38.714844-14.683594-53.398438 0l-100.242187 100.242188c6.667969 10.453124 14.597656 20.402343 23.796875 29.601562s19.148438 17.128906 29.601562 23.796875l100.242188-100.242187c14.683594-14.683594 14.683594-38.714844 0-53.398438zm0 0" fill="#ffde55"/><path d="m168.71875 231.152344c18.644531 18.640625 32.335938 62.5625 13.691406 81.207031-18.644531 18.644531-62.5625 4.953125-81.207031-13.691406s-12.058594-42.289063 6.585937-60.929688c18.640626-18.644531 42.285157-25.230469 60.929688-6.585937zm0 0" fill="#9ff6ff"/><path d="m165.261719 261.664062c9.261719 9.261719 19.285156 34.304688 10.019531 43.566407-9.261719 9.265625-34.304688-.757813-43.566406-10.019531-9.261719-9.265626-9.261719-24.285157 0-33.546876 9.261718-9.265624 24.28125-9.265624 33.546875 0zm0 0" fill="#7de7ff"/><path d="m281.347656 343.78125c-18.640625-18.644531-62.5625-32.335938-81.207031-13.691406-18.644531 18.644531-4.949219 62.5625 13.691406 81.207031 18.644531 18.644531 42.289063 12.058594 60.929688-6.585937 18.648437-18.640626 25.230469-42.285157 6.585937-60.929688zm0 0" fill="#9ff6ff"/><path d="m250.835938 347.238281c-9.261719-9.261719-34.304688-19.285156-43.566407-10.019531-9.265625 9.261719.757813 34.304688 10.019531 43.566406 9.265626 9.261719 24.285157 9.261719 33.546876 0 9.265624-9.261718 9.265624-24.28125 0-33.546875zm0 0" fill="#7de7ff"/><path d="m229.035156 321.226562c0 20.851563-16.90625 37.757813-37.757812 37.757813-20.855469 0-37.761719-16.90625-37.761719-37.757813 0-20.855468 16.90625-37.761718 37.761719-37.761718 20.851562 0 37.757812 16.90625 37.757812 37.761718zm0 0" fill="#ccf8ff"/><path d="m504.941406 186.945312c0 99.070313-80.3125 179.386719-179.386718 179.386719-99.070313 0-179.386719-80.316406-179.386719-179.386719 0-99.074218 80.316406-179.386718 179.386719-179.386718 99.074218 0 179.386718 80.3125 179.386718 179.386718zm0 0" fill="#ffc2e1"/><path d="m283.332031 102.34375c42.769531-42.519531 105.082031-60.328125 161.816407-49.113281-70.4375-63.097657-178.757813-60.8125-246.4375 6.871093-70.054688 70.050782-70.054688 183.632813 0 253.691407 26.089843 26.089843 58.222656 42.464843 91.890624 49.121093-2.46875-2.214843-130.34375-138.226562-7.269531-260.570312zm0 0" fill="#ffabcd"/><path d="m325.554688 186.945312c120.929687-40.570312 126.84375-126.84375 126.84375-126.84375-46.945313-46.949218-113.4375-62.429687-173.28125-46.457031 77.558593 54.507813 46.4375 173.300781 46.4375 173.300781zm0 0" fill="#ffabcd"/><path d="m445.144531 53.230469c-46.382812-41.535157-109.21875-54.75-166.023437-39.585938 22.425781 15.761719 35.863281 37.179688 43.496094 59.269531 37.640624-21.105468 81.210937-27.84375 122.527343-19.683593zm0 0" fill="#ff8fb4"/><path d="m325.554688 186.945312c-95.597657-84.445312-173.308594-46.414062-173.308594-46.414062-17.183594 64.128906 2.707031 129.421875 46.460937 173.257812 8.429688-94.417968 126.847657-126.84375 126.847657-126.84375zm0 0" fill="#ffabcd"/><path d="m252.070312 141.761719c-59.578124-21.222657-99.824218-1.230469-99.824218-1.230469-17.183594 64.128906 2.710937 129.421875 46.464844 173.257812 2.605468-29.207031 15.898437-52.65625 32.796874-70.878906-4.039062-27.984375-1.617187-64.28125 20.5625-101.148437zm0 0" fill="#ff8fb4"/><path d="m325.554688 186.945312c-25.332032 125.011719 46.460937 173.296876 46.460937 173.296876 64.128906-17.183594 110.757813-67.050782 126.84375-126.863282-85.984375 39.910156-173.304687-46.433594-173.304687-46.433594zm0 0" fill="#ffabcd"/><path d="m457.703125 319.09375c72.867187-72.867188 72.867187-191.429688 0-264.296875-56.6875-56.6875-143.042969-70.945313-214.882813-35.480469-3.714843 1.835938-5.238281 6.332032-3.40625 10.042969 1.832032 3.714844 6.332032 5.238281 10.042969 3.40625 9.164063-4.523437 18.585938-8.164063 28.152344-10.949219 28.3125 21.265625 43.890625 54.523438 46.300781 98.917969 1.164063 21.417969-1.167968 40.589844-3.171875 52.320313-47.15625-38.152344-89.5-47.542969-117.4375-48.476563-16.585937-.554687-30.050781 1.691406-39.433593 4.105469 8.285156-23.113282 21.660156-44.796875 40.144531-63.28125 6.074219-6.070313 12.621093-11.714844 19.464843-16.78125 3.328126-2.464844 4.03125-7.160156 1.566407-10.488282-2.464844-3.332031-7.160157-4.03125-10.488281-1.566406-7.4375 5.503906-14.554688 11.636719-21.148438 18.230469-42.976562 42.980469-60.59375 101.851563-52.875 157.871094-12.820312.957031-26.023438 7.742187-38.046875 19.765625-10.84375 10.839844-17.542969 22.808594-19.382813 34.613281-2.125 13.65625 2.300782 26.421875 12.796876 36.921875 11.957031 11.953125 32.015624 21.304688 50.644531 23.976562 1.378906 9.257813 5.617187 18.167969 12.730469 25.28125 7.113281 7.109376 16.023437 11.351563 25.28125 12.730469.195312 1.359375.421874 2.722657.683593 4.09375l-118.105469 118.109375c-11.796874 11.800782-30.996093 11.800782-42.792968 0-11.800782-11.796875-11.796875-30.996094 0-42.792968l96.132812-96.132813c2.925782-2.929687 2.925782-7.679687 0-10.605469-2.929687-2.929687-7.675781-2.929687-10.605468 0l-96.132813 96.132813c-17.644531 17.644531-17.644531 46.355469 0 64.003906 17.644531 17.644531 46.359375 17.644531 64.003906 0l112.226563-112.226563c4.453125 11.652344 10.984375 22.480469 18.566406 30.0625 10.5 10.496094 23.265625 14.921876 36.921875 12.796876 11.800781-1.839844 23.769531-8.539063 34.613281-19.382813 12.046875-12.046875 18.816406-25.234375 19.761719-38.046875 56.019531 7.722656 114.894531-9.898438 157.875-52.875zm34.714844-91.058594c-32.542969 13.828125-69.09375 10.671875-108.699219-9.410156-19.132812-9.699219-34.570312-21.308594-43.722656-28.90625 56.613281-21.761719 85.917968-53.726562 100.695312-77.445312 8.789063-14.109376 13.574219-26.90625 16.171875-36.242188 36.425781 43.058594 48.28125 99.945312 35.554688 152.003906zm-153.507813-107.691406c-2.289062-43.597656-17.085937-78.769531-43.023437-102.765625 53.023437-9.289063 108.429687 6.761719 148.585937 45.257813-1.132812 6.75-4.945312 23.214843-16.992187 42.273437-18.984375 30.042969-50.601563 54.15625-91.890625 70.234375 2.125-12.460938 4.503906-32.398438 3.320312-55zm-180.25 25.648438c14.285156-5.320313 76.125-22.753907 151.835938 38.0625-11.855469 4.386718-30.304688 12.289062-49.289063 24.617187-36.589843 23.761719-59.640625 54.144531-67.464843 88.585937-35.996094-42.949218-47.699219-99.484374-35.082032-151.265624zm-6.667968 152.769531c-6.445313-2.421875-12.101563-5.980469-14.972657-8.855469-6.328125-6.324219-6.328125-16.617188 0-22.941406 4.769531-4.773438 12.046875-6.054688 18.117188-3.332032 3.097656 6.902344 6.632812 13.65625 10.609375 20.214844-7.285156 4.5625-11.804688 11.5-13.753906 14.914063zm-38.902344-55.722657c9.960937-9.960937 20.472656-15.324218 30.101562-15.488281 1.46875 6.644531 3.308594 13.222657 5.507813 19.703125-8.160157-.039062-16.261719 3.082032-22.285157 9.105469-12.171874 12.171875-12.171874 31.980469 0 44.152344 4.765626 4.765625 12.402344 9.308593 20.355469 12.296875-14.914062-2.546875-30.964843-10.144532-40.265625-19.445313-6.574218-6.574219-19.097656-24.640625 6.585938-50.324219zm56.789062 99.582032c-11.796875-11.796875-11.796875-30.996094 0-42.792969 1.292969-1.292969 2.683594-2.449219 4.15625-3.476563 5.757813 7.964844 12.207032 15.574219 19.371094 22.742188 7.167969 7.164062 14.777344 13.613281 22.738281 19.367188-1.023437 1.472656-2.179687 2.867187-3.472656 4.160156-11.796875 11.800781-30.996094 11.800781-42.792969 0zm78.972656 14.738281c2.757813 6.082031 1.523438 13.285156-3.316406 18.125-6.324218 6.324219-16.617187 6.324219-22.941406 0-2.882812-2.882813-6.4375-8.53125-8.855469-14.976563 3.410157-1.949218 9.222657-4.671874 14.90625-13.757812 6.554688 3.972656 13.304688 7.511719 20.207031 10.609375zm20.609376 42.050781c-25.683594 25.683594-43.75 13.160156-50.324219 6.585938-9.304688-9.304688-16.894531-25.339844-19.445313-40.25 2.988282 7.945312 7.523438 15.570312 12.296875 20.339844 12.171875 12.175781 31.976563 12.175781 44.148438 0 6.097656-6.09375 9.230469-14.140626 9.175781-22.261719 6.460938 2.1875 13.011719 4.019531 19.632812 5.484375-.160156 9.625-5.503906 20.121094-15.484374 30.101562zm-62.914063-88.449218c4.273437-35.132813 25.28125-65.226563 62.5-89.496094 17.96875-11.71875 35.742187-19.28125 46.898437-23.40625-5.417968 34.171875-4.171874 65.6875 3.839844 93.808594 1.496094 5.257812 6.554688 5.9375 9.261719 5.164062 3.984375-1.128906 6.296875-5.277344 5.164063-9.261719-7.308594-25.738281-8.523438-54.730469-3.632813-86.339843 9.726563 8.070312 25.804687 20.101562 45.980469 30.378906 38.859375 19.796875 76.6875 24.578125 110.410156 14.152344-8.308594 22.828124-21.589844 44.242187-39.871094 62.527343-21.199218 21.195313-46.605468 35.679688-73.550781 43.46875-5.246094-4.339843-17.296875-15.617187-27.648437-35.015625-1.949219-3.652344-6.492188-5.035156-10.144532-3.085937-3.65625 1.953125-5.035156 6.496093-3.085937 10.148437 7.800781 14.621094 16.460937 25.136719 23.238281 32.058594-52.402344 9.328125-108.324219-5.703125-149.359375-45.101562zm0 0"/></svg>