<svg viewBox="0 -17 511.9997 511" xmlns="http://www.w3.org/2000/svg"><path d="m128.511719 103.28125c-15.214844 38.984375-50.695313 112.324219-116.691407 162.574219-8.242187 6.28125-3.871093 19.417969 6.492188 19.425781 13.125.011719 24.832031.027344 24.832031.027344l-6.324219 36.769531c-1.5 8.714844 7.523438 15.4375 15.449219 11.511719 38.308594-18.96875 124.4375-74.804688 156.691407-204.1875 13.160156-52.804688-41.082032-52.777344-41.480469-52.777344-17.25-.011719-32.695313 10.585938-38.96875 26.65625zm0 0" fill="#ff76a7"/><path d="m383.488281 103.28125c15.214844 38.984375 50.699219 112.324219 116.691407 162.574219 8.246093 6.28125 3.871093 19.417969-6.492188 19.425781-13.125.011719-24.832031.027344-24.832031.027344l6.324219 36.769531c1.496093 8.714844-7.523438 15.4375-15.449219 11.511719-38.308594-18.96875-124.4375-74.804688-156.691407-204.1875-13.160156-52.804688 41.082032-52.777344 41.480469-52.777344 17.25-.011719 32.699219 10.585938 38.96875 26.65625zm0 0" fill="#ff76a7"/><path d="m370.285156 125.328125c-30.367187 16.183594-104.03125 23.832031-120.21875-6.535156-16.183594-30.367188 31.242188-87.253907 61.609375-103.4375 30.371094-16.183594 68.105469-4.6875 84.292969 25.679687 16.183594 30.367188 4.6875 68.105469-25.683594 84.292969zm0 0" fill="#ff8fb4"/><path d="m141.714844 125.328125c30.367187 16.183594 104.03125 23.832031 120.214844-6.535156 16.1875-30.367188-31.238282-87.253907-61.605469-103.4375-30.371094-16.183594-68.109375-4.6875-84.292969 25.679687-16.183594 30.367188-4.6875 68.105469 25.683594 84.292969zm0 0" fill="#ff8fb4"/><path d="m313.152344 103.4375c0 31.5625-25.589844 57.152344-57.152344 57.152344s-57.152344-25.589844-57.152344-57.152344 25.589844-57.152344 57.152344-57.152344 57.152344 25.589844 57.152344 57.152344zm0 0" fill="#ffabcd"/><path d="m365.617188 470.007812h-219.234376c-37.402343 0-67.722656-30.320312-67.722656-67.722656v-225.261718h354.679688v225.261718c0 37.402344-30.320313 67.722656-67.722656 67.722656zm0 0" fill="#9ff6ff"/><path d="m78.660156 177.023438v160.605468c165.507813-75.332031 354.679688-80.085937 354.679688-80.085937v-80.519531zm0 0" fill="#7de7ff"/><path d="m415.007812 230.457031h-318.011718c-35.078125 0-63.511719-28.433593-63.511719-63.507812s28.433594-63.511719 63.511719-63.511719h318.011718c35.074219 0 63.507813 28.4375 63.507813 63.511719s-28.433594 63.507812-63.507813 63.507812zm0 0" fill="#ccf8ff"/><path d="m121.636719 166.949219c0-35.074219 28.433593-63.511719 63.507812-63.511719h-88.148437c-35.078125 0-63.511719 28.4375-63.511719 63.511719s28.433594 63.507812 63.511719 63.507812h88.152344c-35.078126 0-63.511719-28.433593-63.511719-63.507812zm0 0" fill="#9ff6ff"/><path d="m198.847656 103.4375h114.304688v366.570312h-114.304688zm0 0" fill="#ffc2e1"/><path d="m198.847656 230.457031h114.304688v239.550781h-114.304688zm0 0" fill="#ffabcd"/><path d="m198.847656 294.710938c40.875-11.242188 80.0625-19.105469 114.304688-24.597657v-39.65625h-114.304688zm0 0" fill="#ff8fb4"/><path d="m256 364.089844c-15.519531 0-28.097656-12.578125-28.097656-28.097656v-20.429688c0-4.234375 3.433594-7.667969 7.667968-7.667969h40.859376c4.234374 0 7.667968 3.433594 7.667968 7.667969v20.429688c0 15.519531-12.578125 28.097656-28.097656 28.097656zm0 0" fill="#57565c"/><path d="m191.980469 335.992188c0-13.183594-13.417969-23.867188-29.972657-23.867188-16.550781 0-29.96875 10.683594-29.96875 23.867188 0 13.179687 13.417969 23.867187 29.96875 23.867187 16.554688 0 29.972657-10.6875 29.972657-23.867187zm0 0" fill="#ffa6bb"/><path d="m379.960938 335.992188c0-13.183594-13.417969-23.867188-29.96875-23.867188-16.554688 0-29.972657 10.683594-29.972657 23.867188 0 13.179687 13.417969 23.867187 29.972657 23.867187 16.550781 0 29.96875-10.6875 29.96875-23.867187zm0 0" fill="#ffa6bb"/><path d="m336.652344 295.441406c-4.144532 0-7.5 3.355469-7.5 7.5v12.449219c0 4.140625 3.355468 7.5 7.5 7.5 4.144531 0 7.5-3.359375 7.5-7.5v-12.449219c0-4.144531-3.355469-7.5-7.5-7.5zm0 0"/><path d="m175.347656 295.441406c-4.144531 0-7.5 3.355469-7.5 7.5v12.449219c0 4.140625 3.355469 7.5 7.5 7.5 4.140625 0 7.5-3.359375 7.5-7.5v-12.449219c0-4.144531-3.359375-7.5-7.5-7.5zm0 0"/><path d="m276.429688 300.394531h-40.859376c-8.363281 0-15.167968 6.804688-15.167968 15.167969v20.429688c0 19.628906 15.96875 35.597656 35.597656 35.597656s35.597656-15.96875 35.597656-35.597656v-20.429688c0-8.363281-6.804687-15.167969-15.167968-15.167969zm.171874 35.597657c-.003906 11.355468-9.242187 20.597656-20.601562 20.597656s-20.597656-9.242188-20.597656-20.597656v-20.429688c0-.09375 41.027344-.171875 41.027344-.171875.09375 0 .171874 20.601563.171874 20.601563zm0 0"/><path d="m504.722656 259.890625c-14.980468-11.40625-29.289062-24.796875-42.621094-39.859375 14.652344-13.019531 23.914063-31.984375 23.914063-53.082031 0-39.15625-31.855469-71.011719-71.011719-71.011719h-94.800781c-2.527344-21.75-15.886719-40.234375-34.535156-49.910156 9.875-10.539063 20.503906-19.242188 29.535156-24.054688 26.671875-14.214844 59.929687-4.078125 74.144531 22.589844 4.027344 7.554688 6.191406 15.691406 6.433594 24.179688.113281 4.070312 3.449219 7.289062 7.492188 7.289062.070312 0 .140624 0 .214843-.003906 4.140625-.117188 7.402344-3.570313 7.285157-7.707032-.308594-10.828124-3.0625-21.191406-8.1875-30.8125-18.105469-33.96875-60.472657-46.875-94.4375-28.773437-11.738282 6.257813-25.570313 17.945313-37.652344 31.714844-4.664063-1.074219-14.496094-3.585938-28.996094 0-12.078125-13.769531-25.910156-25.457031-37.648438-31.714844-16.457031-8.7695312-35.34375-10.605469-53.179687-5.171875-17.835937 5.4375-32.488281 17.492188-41.257813 33.945312-9.683593 18.164063-10.714843 39.605469-3.324218 58.429688h-9.09375c-39.15625 0-71.011719 31.855469-71.011719 71.011719 0 21.097656 9.257813 40.0625 23.914063 53.082031-13.328126 15.0625-27.636719 28.449219-42.617188 39.859375-6.375 4.851563-8.839844 12.882813-6.289062 20.457031 2.542968 7.546875 9.339843 12.429688 17.316406 12.433594 5.914062.003906 11.542968.011719 15.9375.015625l-4.816406 28.011719c-1.171876 6.824218-.445313 21.417968 18.023437 21.417968 9.550781 0 18.519531-7.292968 23.707031-10.316406v70.375c0 41.476563 33.746094 75.222656 75.222656 75.222656h219.234376c41.476562 0 75.222656-33.746093 75.222656-75.222656v-70.375c5.1875 3.023438 11.855468 10.316406 23.707031 10.316406 19.226563 0 19.195313-14.59375 18.023437-21.417968l-4.820312-28.011719c4.398438-.003906 10.027344-.011719 15.941406-.015625 7.976563-.003906 14.773438-4.886719 17.316406-12.433594 2.550782-7.574218.085938-15.605468-6.285156-20.457031zm-33.707031-92.941406c0 30.882812-25.125 56.007812-56.011719 56.007812h-208.65625v-112.019531h99.304688v90.867188c0 4.140624 3.355468 7.5 7.5 7.5 4.140625 0 7.5-3.359376 7.5-7.5v-90.867188h94.355468c30.882813 0 56.007813 25.125 56.007813 56.011719zm-165.929687-71.011719h-98.171876c3.628907-23.832031 24.257813-42.152344 49.085938-42.152344s45.457031 18.320313 49.085938 42.152344zm-182.4375-51.375c6.886718-12.917969 18.390624-22.382812 32.394531-26.648438 14.003906-4.269531 28.832031-2.824218 41.753906 4.058594 9.03125 4.816406 19.65625 13.515625 29.53125 24.054688-18.644531 9.675781-32.003906 28.160156-34.53125 49.914062h-69.242187c-8.414063-15.988281-8.464844-35.316406.09375-51.378906zm-81.664063 122.386719c0-30.886719 25.125-56.011719 56.011719-56.011719h94.351562v112.019531h-94.351562c-30.886719 0-56.011719-25.125-56.011719-56.007812zm7.957031 159.921875c-1.585937.785156-5.414062.699218-4.730468-3.519532l6.324218-36.769531c.375-2.179687-.226562-4.410156-1.652344-6.101562-1.421874-1.691407-3.515624-2.667969-5.726562-2.671875 0 0-11.710938-.207032-24.835938-.023438-3.667968.050782-5.753906-3-1.953124-5.960937 16.007812-12.480469 31.527343-26.757813 45.796874-43.03125 2.882813 1.628906 5.886719 3.058593 8.996094 4.277343v81.308594c-7.375 4.640625-14.835937 8.835938-22.21875 12.492188zm316.675782 135.636718h-219.234376c-33.207031 0-60.222656-27.015624-60.222656-60.222656v-165.152344c3.53125.542969 7.152344.824219 10.835938.824219h94.355468v24.628907c0 4.140624 3.355469 7.496093 7.5 7.496093 4.140626 0 7.496094-3.355469 7.496094-7.496093v-24.628907h208.660156c3.683594 0 7.300782-.28125 10.835938-.824219v165.152344c0 33.207032-27.019531 60.222656-60.226562 60.222656zm128.0625-184.722656c-13.121094.378906-24.835938.023438-24.835938.023438-2.210938.003906-4.304688.980468-5.726562 2.671875-1.425782 1.691406-2.027344 3.921875-1.65625 6.101562l6.328124 36.769531c.785157 4.871094-3.140624 4.304688-4.730468 3.519532-7.378906-3.65625-14.835938-7.851563-22.21875-12.492188v-81.308594c3.113281-1.21875 6.117187-2.648437 8.996094-4.277343 14.269531 16.277343 29.523437 30.910156 45.796874 43.03125 3.507813 2.609375 1.628907 5.855469-1.953124 5.960937zm0 0"/></svg>