<svg viewBox="0 0 512.00077 512" xmlns="http://www.w3.org/2000/svg"><path d="m22.457031 343.453125c-13.214843 4.453125-19.042969 20.050781-11.828125 31.988281 6.1875 10.246094 14.300782 19.914063 18.597656 30.054688 7.75 18.285156 6.417969 43.199218 20.246094 57.027344 13.832032 13.832031 38.746094 12.496093 57.03125 20.246093 10.140625 4.300781 19.808594 12.410157 30.050782 18.601563 11.9375 7.214844 27.539062 1.386718 31.988281-11.832032 10.761719-31.957031 24.777343-94.640624-13.332031-132.75-38.109376-38.109374-100.796876-24.097656-132.753907-13.335937zm0 0" fill="#ffc2e1"/><path d="m155.210938 356.789062c-28.867188-28.867187-71.835938-27.828124-104.867188-20.949218 4.628906 18.457031 18.027344 42.664062 50.03125 71.851562 33.792969 30.816406 56.261719 55.28125 70.914062 73.1875 10-33.640625 18.835938-89.175781-16.078124-124.089844zm0 0" fill="#ffabcd"/><path d="m89.808594 374.757812c13.097656-13.101562 52.304687-31.066406 65.402344-17.96875 13.097656 13.097657-4.867188 52.304688-17.96875 65.402344-13.097657 13.097656-34.335938 13.097656-47.433594 0s-13.097656-34.335937 0-47.433594zm0 0" fill="#ffabcd"/><path d="m155.210938 356.789062c-13.097657-13.097656-52.304688 4.867188-65.402344 17.96875-4.035156 4.03125-6.828125 8.835938-8.375 13.9375 5.441406 6.074219 11.714844 12.40625 18.941406 18.996094 8.707031 7.9375 16.664062 15.460938 23.929688 22.554688 4.726562-1.601563 9.167968-4.285156 12.9375-8.054688 13.097656-13.097656 31.066406-52.304687 17.96875-65.402344zm0 0" fill="#ff8fb4"/><path d="m343.457031 22.457031c4.449219-13.21875 20.050781-19.042969 31.984375-11.832031 10.246094 6.191406 19.914063 14.304688 30.054688 18.601562 18.285156 7.75 43.199218 6.414063 57.027344 20.246094 13.832031 13.832032 12.5 38.746094 20.25 57.027344 4.296874 10.140625 12.40625 19.8125 18.597656 30.054688 7.214844 11.9375 1.386718 27.539062-11.832032 31.988281-31.957031 10.761719-94.640624 24.777343-132.75-13.332031-38.109374-38.109376-24.09375-100.796876-13.332031-132.753907zm0 0" fill="#ffc2e1"/><path d="m356.789062 155.210938c-28.867187-28.867188-27.828124-71.835938-20.949218-104.867188 18.457031 4.625 42.664062 18.023438 71.851562 50.03125 30.816406 33.792969 55.285156 56.261719 73.191406 70.914062-33.644531 10-89.179687 18.835938-124.09375-16.078124zm0 0" fill="#ffabcd"/><path d="m374.757812 89.808594c-13.101562 13.097656-31.066406 52.304687-17.96875 65.402344 13.097657 13.097656 52.304688-4.867188 65.402344-17.96875 13.101563-13.097657 13.101563-34.335938 0-47.433594-13.097656-13.101563-34.335937-13.101563-47.433594 0zm0 0" fill="#ffabcd"/><path d="m356.789062 155.210938c-13.097656-13.101563 4.867188-52.304688 17.96875-65.402344 4.03125-4.035156 8.839844-6.828125 13.9375-8.375 6.074219 5.441406 12.40625 11.714844 18.996094 18.941406 7.9375 8.707031 15.460938 16.664062 22.554688 23.925781-1.601563 4.730469-4.285156 9.171875-8.054688 12.941407-13.097656 13.097656-52.304687 31.066406-65.402344 17.96875zm0 0" fill="#ff8fb4"/><path d="m315.003906 103.015625c-29.660156-4.140625-59.871094 2.570313-84.820312 19.128906-17.925782 11.898438-39.246094 28.042969-59.621094 48.417969s-36.519531 41.695312-48.417969 59.621094c-16.558593 24.949218-23.269531 55.160156-19.128906 84.820312l6.644531 47.5625c2.886719 20.652344 19.121094 36.886719 39.769532 39.769532l47.566406 6.644531c29.660156 4.144531 59.867187-2.566407 84.820312-19.128907 17.925782-11.894531 39.246094-28.039062 59.621094-48.414062s36.519531-41.695312 48.414062-59.621094c16.5625-24.949218 23.273438-55.160156 19.128907-84.820312l-6.644531-47.5625c-2.882813-20.652344-19.117188-36.886719-39.769532-39.769532zm0 0" fill="#9ff6ff"/><path d="m170.5625 170.5625c-20.375 20.375-36.519531 41.695312-48.414062 59.621094-16.5625 24.949218-23.273438 55.160156-19.128907 84.820312l6.644531 47.5625c2.882813 20.652344 19.117188 36.886719 39.769532 39.769532l47.5625 6.644531c29.660156 4.144531 59.871094-2.566407 84.820312-19.128907 17.925782-11.894531 39.246094-28.039062 59.621094-48.414062s36.519531-41.695312 48.417969-59.621094c2.757812-4.15625 5.25-8.46875 7.457031-12.890625-77.441406-.503906-143.003906 96.371094-201.949219 40.367188-65.71875-62.433594-24.800781-138.730469-24.800781-138.730469zm0 0" fill="#7de7ff"/><path d="m303.328125 199.867188 8.800781 8.804687c2.929688 2.929687 7.679688 2.929687 10.609375 0 2.929688-2.929687 2.929688-7.675781 0-10.605469l-8.804687-8.804687c-2.929688-2.929688-7.675782-2.929688-10.605469 0-2.929687 2.929687-2.929687 7.675781 0 10.605469zm0 0"/><path d="m189.261719 303.328125c-2.925781 2.925781-2.925781 7.675781 0 10.605469l8.804687 8.804687c2.929688 2.925781 7.675782 2.925781 10.609375 0 2.925781-2.929687 2.925781-7.679687 0-10.609375l-8.804687-8.800781c-2.929688-2.929687-7.679688-2.929687-10.609375 0zm0 0"/><path d="m269.167969 243.257812c-1.710938 13.546876-12.363281 24.199219-25.910157 25.910157-4.105468.519531-7.019531 4.273437-6.5 8.378906.519532 4.113281 4.273438 7.023437 8.382813 6.503906 10.167969-1.285156 19.253906-5.929687 26.117187-12.792969 6.867188-6.863281 11.507813-15.949218 12.792969-26.117187.519531-4.113281-2.390625-7.863281-6.5-8.382813-4.113281-.519531-7.863281 2.394532-8.382812 6.5zm0 0"/><path d="m429.441406 28.046875c-7.632812-1.597656-14.84375-3.109375-21.015625-5.726563-5.808593-2.460937-11.675781-6.484374-17.890625-10.738281-3.613281-2.480469-7.351562-5.042969-11.214844-7.375-7.609374-4.597656-16.785156-5.472656-25.175781-2.398437-8.445312 3.09375-14.933593 9.75-17.796875 18.257812-6.640625 19.722656-13.636718 48.226563-11.699218 76.726563 0 0-31.695313-5.765625-67.808594 4.128906-3.992188 1.089844-6.066406 5.542969-4.765625 9.472656 1.300781 3.933594 5.546875 6.066407 9.476562 4.765625 16.734375-5.535156 34.859375-7.167968 52.414063-4.714844l47.5625 6.644532c17.246094 2.410156 30.972656 16.136718 33.382812 33.378906l6.644532 47.566406c3.914062 28.015625-2.460938 56.296875-17.949219 79.632813-14.394531 21.6875-30.367188 41.359375-47.472657 58.464843-17.105468 17.105469-36.773437 33.078126-58.460937 47.46875-23.339844 15.492188-51.621094 21.867188-79.636719 17.949219l-47.566406-6.644531c-17.242188-2.40625-30.96875-16.132812-33.378906-33.378906l-6.644532-47.5625c-3.914062-28.015625 2.460938-56.296875 17.949219-79.636719 14.394531-21.6875 30.367188-41.355469 47.472657-58.460937 17.105468-17.109376 36.777343-33.078126 58.460937-47.472657 3.460937-2.292969 4.394531-6.945312 2.101563-10.394531-2.289063-3.453125-6.945313-4.390625-10.394532-2.101562-22.515625 14.941406-42.964844 31.550781-60.773437 49.363281-17.8125 17.808593-34.355469 38.296875-49.363281 60.773437-28.5625 42.773438-19.109376 98.585938-19.109376 98.585938-28.476562-1.933594-56.960937 5.070312-76.726562 11.726562-8.503906 2.863282-15.160156 9.351563-18.253906 17.796875-3.074219 8.390625-2.199219 17.566407 2.398437 25.179688 2.335938 3.855469 4.894531 7.597656 7.375 11.210937 4.257813 6.210938 8.277344 12.078125 10.738281 17.890625 2.621094 6.175781 4.128907 13.382813 5.726563 21.015625 2.898437 13.84375 5.894531 28.15625 16.125 38.386719s24.542969 13.226563 38.386719 16.125c7.632812 1.597656 14.84375 3.109375 21.015625 5.726563 5.8125 2.460937 11.679687 6.480468 17.890625 10.738281 3.613281 2.480469 7.355468 5.042969 11.214844 7.375 7.609374 4.597656 16.785156 5.472656 25.175781 2.398437 4.101562-1.503906 27.363281-11.25 29.496093-94.984375 0 0 52.074219 11.960938 98.613282-19.105469 22.476562-15.003906 42.964844-31.550781 60.777344-49.363281 17.808593-17.808593 34.417968-38.257812 49.359374-60.773437 17.519532-26.394532 24.730469-58.359375 20.308594-90.003906l-5.765625-41.269532c6.863281-3.855468 12.863281-8.15625 16.851563-12.144531 16-16 16.003906-42.039063 0-58.042969-16.003906-16-42.039063-16-58.042969 0-3.988281 3.988282-8.285156 9.988282-12.144531 16.851563l-17.46875-2.441407c-2.570313-27.035156 4.28125-54.925781 10.722656-74.0625 1.40625-4.171874 9.613281-16.40625 31.496094-.898437 6.476562 4.589844 13.320312 9.132813 20.511718 12.179687 7.523438 3.1875 15.796876 4.921876 23.800782 6.59375 12.230468 2.5625 23.78125 4.980469 30.851562 12.050782 7.070313 7.070312 9.492188 18.625 12.050782 30.855468 1.675781 8 3.40625 16.273438 6.59375 23.796876 3.050781 7.195312 7.816406 13.882812 12.179687 20.515624 16.273437 24.738282 3.273437 30.085938-.894531 31.492188-11.46875 3.859375-29.128906 8.832031-48.144532 10.597656-4.125.382813-7.160156 4.035156-6.777343 8.160156.382812 4.125 4.058593 7.332032 8.160156 6.777344 64.109375-8.699218 68.300781-25.015625 69.804687-29.117187 3.070313-8.386719 2.195313-17.566407-2.402343-25.175781-2.332031-3.859376-4.894531-7.597657-7.375-11.214844-4.253907-6.210938-8.277344-12.078125-10.738281-17.886719-2.617188-6.175781-4.128907-13.386719-5.726563-21.019531-2.894531-13.84375-5.890625-28.15625-16.125-38.386719-10.230469-10.230469-24.542969-13.226563-38.386719-16.125zm-268.003906 459.101563c-1.40625 4.171874-8.984375 17.285156-31.492188.898437-6.417968-4.675781-13.320312-9.128906-20.515624-12.179687-7.523438-3.1875-15.796876-4.921876-23.796876-6.597657-12.230468-2.558593-23.785156-4.976562-30.855468-12.046875-7.070313-7.070312-9.488282-18.625-12.046875-30.855468-1.675781-8.003907-3.410157-16.273438-6.597657-23.796876-3.046874-7.195312-7.382812-14.1875-12.179687-20.515624-18.015625-23.765626-3.273437-30.089844.898437-31.492188 19.175782-6.457031 47.050782-13.289062 74.066407-10.722656l3.316406 23.761718c2.886719 20.640626 17.496094 37.628907 36.832031 43.984376-2.417968 3.816406-4.898437 7.074218-7.125 9.300781-10.15625 10.152343-26.675781 10.152343-36.832031 0-8.621094-8.621094-10.085937-22.300781-3.480469-32.523438 2.25-3.480469 1.25-8.121093-2.226562-10.371093-3.480469-2.246094-8.125-1.25-10.371094 2.230468-10.417969 16.121094-8.113281 37.683594 5.472656 51.273438 16.003906 16 42.039063 16 58.042969-.003906 3.988281-3.988282 8.285156-9.984376 12.144531-16.847657l17.464844 2.4375c2.566406 27.050781-4.28125 54.953125-10.71875 74.066407zm255.453125-392.039063c10.152344 10.15625 10.152344 26.675781-.003906 36.832031-2.226563 2.226563-5.484375 4.707032-9.296875 7.125-5.371094-16.332031-18.324219-29.285156-34.65625-34.65625 2.417968-3.8125 4.898437-7.070312 7.125-9.296875 10.15625-10.15625 26.675781-10.15625 36.832031-.003906zm0 0"/></svg>