<svg viewBox="-42 0 511 512" xmlns="http://www.w3.org/2000/svg"><path d="m208.136719 33.128906-177.59375 245.667969c-15.527344 21.476563-.183594 51.503906 26.320312 51.503906h157.78125zm0 0" fill="#ccf8ff"/><path d="m217.652344 100.121094 122.980468 191.835937c10.625 16.574219-1.277343 38.347657-20.964843 38.34375h-105.023438zm0 0" fill="#ccf8ff"/><path d="m217.652344 18.984375v95.117187l53.207031-32.867187c10.925781-6.75 10.925781-22.632813 0-29.382813zm0 0" fill="#ffc2e1"/><path d="m214.644531 445.246094c-9.796875 0-17.816406-8.015625-17.816406-17.816406v-402.109376c0-9.800781 8.015625-17.820312 17.816406-17.820312s17.820313 8.019531 17.820313 17.820312v402.109376c0 9.800781-8.019532 17.816406-17.820313 17.816406zm0 0" fill="#ffeb99"/><path d="m9.996094 421.28125 14.484375 42.371094c8.445312 24.703125 28.558593 40.847656 50.894531 40.847656h278.542969c22.335937 0 42.449219-16.144531 50.894531-40.847656l14.484375-42.371094c7.222656-21.136719-5.789063-44.285156-24.898437-44.285156h-359.503907c-19.109375 0-32.125 23.148437-24.898437 44.285156zm0 0" fill="#eab9a4"/><path d="m112.339844 463.652344-14.484375-42.371094c-7.222657-21.136719 5.789062-44.285156 24.898437-44.285156h-87.859375c-19.109375 0-32.125 23.148437-24.898437 44.285156l14.484375 42.371094c8.445312 24.703125 28.558593 40.847656 50.894531 40.847656h87.859375c-22.332031 0-42.449219-16.144531-50.894531-40.847656zm0 0" fill="#dd9f80"/><g fill="#ccf8ff"><path d="m354.082031 440.746094c0 17.59375-14.265625 31.859375-31.859375 31.859375s-31.855468-14.265625-31.855468-31.859375c0-17.589844 14.261718-31.855469 31.855468-31.855469s31.859375 14.265625 31.859375 31.855469zm0 0"/><path d="m246.503906 440.746094c0 17.59375-14.265625 31.859375-31.859375 31.859375s-31.855469-14.265625-31.855469-31.859375c0-17.589844 14.261719-31.855469 31.855469-31.855469s31.859375 14.265625 31.859375 31.855469zm0 0"/><path d="m138.925781 440.746094c0 17.59375-14.265625 31.859375-31.859375 31.859375s-31.855468-14.265625-31.855468-31.859375c0-17.589844 14.261718-31.855469 31.855468-31.855469s31.859375 14.265625 31.859375 31.855469zm0 0"/></g><path d="m75.210938 440.746094c0 17.59375 14.261718 31.859375 31.855468 31.859375 2.9375 0 5.769532-.394531 8.464844-1.136719-1.195312-2.496094-2.261719-5.109375-3.191406-7.820312l-14.484375-42.367188c-1.171875-3.4375-1.8125-6.933594-1.980469-10.367188-12.074219 4.527344-20.664062 16.175782-20.664062 29.832032zm0 0" fill="#9ff6ff"/><path d="m141.214844 125.699219-110.671875 153.097656c-15.527344 21.476563-.183594 51.503906 26.320312 51.503906h52.246094c-7.753906-12.332031-13.199219-27.550781-13.734375-46.191406-1.28125-44.753906 25.539062-113.292969 45.839844-158.410156zm0 0" fill="#9ff6ff"/><path d="m420.917969 383.851562c-6.519531-9.121093-16.1875-14.355468-26.519531-14.355468h-154.433594v-31.695313h79.699218c12.03125 0 22.660157-6.300781 28.433594-16.859375 5.773438-10.554687 5.34375-22.90625-1.152344-33.035156l-106.980468-166.878906v-11.890625l34.835937-21.523438c7.359375-4.542969 11.753907-12.421875 11.753907-21.070312 0-8.648438-4.394532-16.523438-11.753907-21.070313l-34.875-21.546875c-.726562-13.316406-11.785156-23.925781-25.28125-23.925781-13.960937 0-25.316406 11.359375-25.316406 25.320312v21.027344l-164.863281 228.054688c-8.84375 12.230468-10.070313 28.175781-3.203125 41.613281 6.871093 13.4375 20.511719 21.785156 35.601562 21.785156h132.464844v31.695313h-154.433594c-10.332031 0-20 5.234375-26.523437 14.355468-7.96875 11.144532-10.066406 26.417969-5.472656 39.855469l14.484374 42.367188c9.535157 27.898437 32.300782 45.925781 57.992188 45.925781h278.542969c25.691406 0 48.457031-18.027344 57.988281-45.921875l14.484375-42.371094c4.59375-13.4375 2.496094-28.710937-5.472656-39.855469zm-86.597657-87.847656c3.484376 5.4375 3.71875 12.070313.617188 17.742188-3.101562 5.667968-8.808594 9.054687-15.269531 9.054687h-79.703125v-173.980469zm-62.765624-229.460937c0 3.464843-1.691407 6.492187-4.636719 8.3125l-26.953125 16.648437v-49.921875l26.953125 16.652344c2.945312 1.820313 4.636719 4.847656 4.636719 8.308594zm-74.726563 226.015625c-4.144531 0-7.5 3.359375-7.5 7.5v22.742187h-132.464844c-9.570312 0-17.886719-5.085937-22.242187-13.613281-4.355469-8.523438-3.609375-18.242188 2-26l152.707031-211.238281v196.398437c0 4.140625 3.355469 7.5 7.5 7.5 4.140625 0 7.5-3.359375 7.5-7.5v-243.027344c0-5.691406 4.628906-10.320312 10.316406-10.320312 5.691407 0 10.320313 4.628906 10.320313 10.320312v344.175782h-20.640625v-69.4375c.003906-4.140625-3.355469-7.5-7.496094-7.5zm215.371094 126.296875-14.484375 42.371093c-7.429688 21.730469-24.621094 35.773438-43.796875 35.773438h-278.542969c-19.179688 0-36.367188-14.042969-43.796875-35.777344l-14.484375-42.367187c-3.054688-8.9375-1.71875-19.003907 3.480469-26.28125 2.15625-3.015625 6.886719-8.078125 14.320312-8.078125h359.503907c7.433593 0 12.160156 5.0625 14.320312 8.078125 5.199219 7.277343 6.535156 17.347656 3.480469 26.28125zm0 0"/><path d="m322.222656 401.394531c-21.699218 0-39.351562 17.652344-39.351562 39.355469 0 21.699219 17.652344 39.355469 39.351562 39.355469 4.144532 0 7.5-3.359375 7.5-7.5 0-4.144531-3.355468-7.5-7.5-7.5-13.429687 0-24.351562-10.925781-24.351562-24.355469s10.925781-24.355469 24.351562-24.355469c13.429688 0 24.355469 10.925781 24.355469 24.355469 0 4.074219-.96875 7.945312-2.882813 11.503906-1.957031 3.648438-.589843 8.195313 3.0625 10.15625 3.644532 1.960938 8.191407.589844 10.15625-3.058594 3.050782-5.683593 4.664063-12.117187 4.664063-18.605468.003906-21.699219-17.652344-39.351563-39.355469-39.351563zm0 0"/><path d="m214.644531 401.394531c-21.699219 0-39.351562 17.652344-39.351562 39.355469 0 21.699219 17.652343 39.355469 39.351562 39.355469 21.703125 0 39.355469-17.65625 39.355469-39.355469 0-21.703125-17.652344-39.355469-39.355469-39.355469zm0 63.710938c-13.429687 0-24.351562-10.925781-24.351562-24.355469s10.925781-24.355469 24.351562-24.355469c13.429688 0 24.355469 10.925781 24.355469 24.355469s-10.925781 24.355469-24.355469 24.355469zm0 0"/><path d="m107.066406 401.394531c-21.699218 0-39.355468 17.652344-39.355468 39.355469 0 21.699219 17.65625 39.355469 39.355468 39.355469 21.703125 0 39.355469-17.65625 39.355469-39.355469 0-21.703125-17.652344-39.355469-39.355469-39.355469zm0 63.710938c-13.429687 0-24.355468-10.925781-24.355468-24.355469s10.925781-24.355469 24.355468-24.355469c13.433594 0 24.355469 10.925781 24.355469 24.355469s-10.921875 24.355469-24.355469 24.355469zm0 0"/></svg>