<svg viewBox="0 -42 512 512" xmlns="http://www.w3.org/2000/svg"><path d="m94.59375 126.664062 13.269531 42.535157 30.851563 9.011719 30.851562-9.011719 13.273438-42.535157c2.941406-9.425781-4.101563-19-13.972656-19h-60.300782c-9.875 0-16.914062 9.574219-13.972656 19zm0 0" fill="#ff929f"/><path d="m145.558594 107.664062h-36.992188c-9.875 0-16.914062 9.574219-13.972656 18.996094l13.269531 42.539063 30.851563 9.007812 2.765625-.808593c-26.980469-61.878907 4.078125-69.734376 4.078125-69.734376zm0 0" fill="#ff737d"/><path d="m99.386719 352.605469h170.542969v-183.777344h-170.542969c-50.746094 0-91.886719 41.140625-91.886719 91.890625 0 50.746094 41.140625 91.886719 91.886719 91.886719zm0 0" fill="#bdfaff"/><path d="m427.328125 352.605469h-189.097656v-319.175781h227.601562v280.671874c0 21.265626-17.238281 38.503907-38.503906 38.503907zm0 0" fill="#ff929f"/><path d="m238.230469 142.980469c46.476562.855469 152.09375 6.707031 227.601562 40.5v-150.050781h-227.601562zm0 0" fill="#ff737d"/><path d="m288.230469 215.070312v-81.789062c0-9.671875 7.839843-17.511719 17.511719-17.511719h92.578124c9.671876 0 17.507813 7.839844 17.507813 17.511719v81.789062c0 9.667969-7.839844 17.507813-17.507813 17.507813h-92.578124c-9.671876 0-17.511719-7.839844-17.511719-17.507813zm0 0" fill="#ccf8ff"/><path d="m468.460938 79.574219h-232.859376c-19.824218 0-36.039062-16.214844-36.039062-36.035157 0-19.820312 16.214844-36.039062 36.039062-36.039062h232.859376c19.820312 0 36.039062 16.21875 36.039062 36.039062 0 19.820313-16.21875 36.035157-36.039062 36.035157zm0 0" fill="#ffeb99"/><path d="m269.929688 43.539062c0-19.820312 16.21875-36.039062 36.039062-36.039062h-70.367188c-19.824218 0-36.039062 16.21875-36.039062 36.039062 0 19.820313 16.214844 36.035157 36.039062 36.035157h70.367188c-19.820312 0-36.039062-16.214844-36.039062-36.035157zm0 0" fill="#ffde55"/><path d="m88.664062 371.433594c-10.558593 0-19.199218-8.640625-19.199218-19.199219v-183.035156c0-10.558594 8.640625-19.195313 19.199218-19.195313 10.558594 0 19.199219 8.636719 19.199219 19.195313v183.035156c0 10.558594-8.640625 19.199219-19.199219 19.199219zm0 0" fill="#ffde55"/><path d="m198.703125 365.242188c0 30.386718-24.632813 55.019531-55.019531 55.019531-30.386719 0-55.019532-24.632813-55.019532-55.019531 0-30.386719 24.632813-55.019532 55.019532-55.019532 30.386718 0 55.019531 24.632813 55.019531 55.019532zm0 0" fill="#acabb1"/><path d="m438.148438 365.242188c0 30.386718-24.632813 55.019531-55.019532 55.019531-30.386718 0-55.019531-24.632813-55.019531-55.019531 0-30.386719 24.632813-55.019532 55.019531-55.019532 30.386719 0 55.019532 24.632813 55.019532 55.019532zm0 0" fill="#c6c5ca"/><path d="m96.976562 62.519531c0 15.195313-12.316406 27.511719-27.511718 27.511719-15.191406 0-27.511719-12.316406-27.511719-27.511719 0-15.191406 12.320313-27.507812 27.511719-27.507812 15.195312 0 27.511718 12.316406 27.511718 27.507812zm0 0" fill="#ccf8ff"/><path d="m166.707031 43.539062c0 11.679688-9.46875 21.148438-21.148437 21.148438-11.683594 0-21.152344-9.46875-21.152344-21.148438 0-11.683593 9.46875-21.152343 21.152344-21.152343 11.679687 0 21.148437 9.46875 21.148437 21.152343zm0 0" fill="#ccf8ff"/><path d="m381.546875 384.644531h-236.277344c-10.671875 0-19.402343-8.730469-19.402343-19.402343 0-10.671876 8.730468-19.402344 19.402343-19.402344h236.277344c10.667969 0 19.398437 8.730468 19.398437 19.402344 0 10.671874-8.730468 19.402343-19.398437 19.402343zm0 0" fill="#ffdaaa"/><path d="m183.515625 365.242188c0-10.671876 8.730469-19.402344 19.398437-19.402344h-57.644531c-10.671875 0-19.402343 8.730468-19.402343 19.402344 0 10.671874 8.730468 19.402343 19.402343 19.402343h57.644531c-10.667968 0-19.398437-8.730469-19.398437-19.402343zm0 0" fill="#ffc477"/><path d="m415.832031 165.875v-32.59375c0-9.671875-7.839843-17.511719-17.511719-17.511719h-92.578124c-9.671876 0-17.511719 7.839844-17.511719 17.511719v12.023438c37.40625 2.765624 84.058593 8.566406 127.601562 20.570312zm0 0" fill="#9ff6ff"/><path d="m398.320312 108.269531h-92.578124c-13.789063 0-25.011719 11.222657-25.011719 25.011719v81.789062c0 13.789063 11.222656 25.007813 25.011719 25.007813h92.578124c13.789063 0 25.011719-11.21875 25.011719-25.007813v-81.789062c0-13.792969-11.222656-25.011719-25.011719-25.011719zm10.011719 106.800781c0 5.519532-4.492187 10.007813-10.011719 10.007813h-92.578124c-5.519532 0-10.011719-4.488281-10.011719-10.007813v-81.789062c0-5.519531 4.492187-10.011719 10.011719-10.011719h92.578124c5.519532 0 10.011719 4.492188 10.011719 10.011719zm0 0"/><path d="m512 43.539062c0-24.007812-19.53125-43.539062-43.539062-43.539062h-232.859376c-24.007812 0-43.539062 19.53125-43.539062 43.539062 0 22.359376 16.945312 40.828126 38.667969 43.257813v74.53125h-116.550781c-.6875-2.214844-12.429688-36.898437-12.429688-36.898437-.683594-2.191407-2.199219-9.265626 6.8125-9.265626h60.300781c9.8125 0 7.5 7.074219 6.816407 9.265626l-3.671876 11.769531c-1.234374 3.957031.972657 8.160156 4.925782 9.394531 3.953125 1.230469 8.160156-.972656 9.394531-4.925781l3.671875-11.769531c2.117188-6.792969.914062-13.980469-3.300781-19.710938-4.21875-5.734375-10.71875-9.023438-17.835938-9.023438h-60.300781c-7.117188 0-13.613281 3.289063-17.832031 9.023438-4.214844 5.730469-5.417969 12.914062-3.300781 19.710938l4.300781 13.785156c-1.007813-.117188-26.140625-2.34375-29.75 25.933594-37.242188 15.132812-61.980469 51.617187-61.980469 92.101562 0 40.613281 24.695312 76.953125 61.980469 92.085938.261719 12.355468 8.953125 22.667968 20.546875 25.40625 5.988281 28.269531 31.128906 49.550781 61.15625 49.550781 24.105468 0 46.15625-14.117188 56.441406-35.617188h126.5625c10.285156 21.5 32.335938 35.617188 56.441406 35.617188 63.832032 0 64.558594-64.488281 61.90625-71.1875 16.960938-7.027344 28.292969-23.597657 28.292969-42.472657v-227.304687c21.726563-2.429687 38.671875-20.898437 38.671875-43.257813zm-281.269531 294.800782h-30.601563c-10.351562-21.726563-32.203125-35.617188-56.445312-35.617188-10.191406 0-19.8125 2.46875-28.320313 6.808594v-133.203125h115.367188zm-215.730469-77.621094c0-32.28125 18.523438-61.570312 46.964844-75.660156v151.3125c-28.472656-14.078125-46.964844-43.265625-46.964844-75.652344zm61.964844 91.515625v-183.035156c0-6.449219 5.25-11.695313 11.699218-11.695313 10.214844 0 11.699219 9.34375 11.699219 11.695313v151.027343c-10.9375 10.53125-18.058593 24.988282-19.0625 41.085938-2.640625-2.148438-4.335937-5.417969-4.335937-9.078125zm66.71875 60.527344c-26.203125 0-47.519532-21.316407-47.519532-47.519531 0-26.203126 21.316407-47.519532 47.519532-47.519532 15.894531 0 30.433594 7.859375 39.183594 20.617188h-37.597657c-14.832031 0-26.902343 12.066406-26.902343 26.902344 0 14.832031 12.066406 26.902343 26.902343 26.902343 4.140625 0 7.5-3.359375 7.5-7.5 0-4.144531-3.359375-7.5-7.5-7.5-6.5625 0-11.902343-5.339843-11.902343-11.902343s5.339843-11.902344 11.902343-11.902344h236.277344c6.5625 0 11.898437 5.339844 11.898437 11.902344s-5.335937 11.902343-11.898437 11.902343h-201.902344c-4.144531 0-7.5 3.355469-7.5 7.5 0 8.101563 10.695313 7.5 10.695313 7.5-8.746094 12.652344-23.371094 20.617188-39.15625 20.617188zm239.445312 0c-15.785156 0-30.40625-7.964844-39.15625-20.617188h37.574219c14.832031 0 26.898437-12.070312 26.898437-26.902343 0-14.832032-12.066406-26.902344-26.898437-26.902344h-37.574219c8.75-12.652344 23.371094-20.617188 39.15625-20.617188 26.203125 0 47.519532 21.316406 47.519532 47.519532 0 26.203124-21.316407 47.519531-47.519532 47.519531zm85.332032-340.6875h-32.035157c-4.144531 0-7.5 3.359375-7.5 7.5 0 4.144531 3.355469 7.5 7.5 7.5h21.90625v227.027343c0 12.027344-6.824219 22.664063-17.222656 27.792969-9.269531-22.941406-31.757813-39.171875-57.980469-39.171875-24.105468 0-46.15625 14.117188-56.4375 35.617188h-80.960937v-251.265625h160.699219c4.140624 0 7.5-3.355469 7.5-7.5 0-4.140625-3.359376-7.5-7.5-7.5h-170.828126c-15.738281 0-28.539062-12.800781-28.539062-28.535157 0-15.738281 12.800781-28.539062 28.539062-28.539062h232.859376c15.738281 0 28.539062 12.800781 28.539062 28.539062 0 15.734376-12.800781 28.535157-28.539062 28.535157zm0 0"/><path d="m69.464844 97.527344c19.304687 0 35.011718-15.703125 35.011718-35.007813 0-19.304687-15.707031-35.011719-35.011718-35.011719-19.304688 0-35.011719 15.707032-35.011719 35.011719 0 19.304688 15.707031 35.007813 35.011719 35.007813zm0-55.015625c11.03125 0 20.011718 8.976562 20.011718 20.007812 0 11.035157-8.980468 20.011719-20.011718 20.011719-11.035156 0-20.011719-8.976562-20.011719-20.011719 0-11.03125 8.980469-20.007812 20.011719-20.007812zm0 0"/><path d="m145.558594 72.1875c15.796875 0 28.648437-12.851562 28.648437-28.648438 0-15.800781-12.851562-28.652343-28.648437-28.652343-15.800782 0-28.652344 12.851562-28.652344 28.652343 0 15.796876 12.851562 28.648438 28.652344 28.648438zm0-42.300781c7.523437 0 13.648437 6.125 13.648437 13.652343 0 7.523438-6.125 13.648438-13.648437 13.648438-7.527344 0-13.652344-6.125-13.652344-13.648438 0-7.527343 6.125-13.652343 13.652344-13.652343zm0 0"/></svg>