<svg viewBox="0 -36 512.001 512" xmlns="http://www.w3.org/2000/svg"><path d="m99.007812 270.5h-51.039062c-22.351562 0-40.46875-18.117188-40.46875-40.464844v-36.054687c0-22.347657 18.117188-40.464844 40.46875-40.464844h51.039062zm0 0" fill="#66d3d0"/><path d="m412.992188 270.5h51.042968c22.347656 0 40.464844-18.117188 40.464844-40.464844v-36.054687c0-22.347657-18.117188-40.464844-40.464844-40.464844h-51.042968zm0 0" fill="#7de2e2"/><path d="m460.507812 212.007812c0 112.945313-91.5625 204.507813-204.507812 204.507813s-204.507812-91.5625-204.507812-204.507813c0-112.945312 91.5625-204.507812 204.507812-204.507812s204.507812 91.5625 204.507812 204.507812zm0 0" fill="#a0f0f2"/><path d="m185.585938 212.007812c0-89.460937 57.464843-165.5 137.480468-193.257812-21.007812-7.285156-43.582031-11.25-67.066406-11.25-112.945312 0-204.507812 91.5625-204.507812 204.507812 0 112.945313 91.5625 204.507813 204.507812 204.507813 23.484375 0 46.058594-3.964844 67.066406-11.25-80.015625-27.757813-137.480468-103.796875-137.480468-193.257813zm0 0" fill="#7de2e2"/><path d="m256 374.566406c-89.632812 0-162.554688-72.925781-162.554688-162.558594 0-89.632812 72.921876-162.554687 162.554688-162.554687 89.636719 0 162.558594 72.921875 162.558594 162.554687 0 89.632813-72.921875 162.558594-162.558594 162.558594zm0 0" fill="#bdfaff"/><path d="m185.585938 212.007812c0-66.109374 31.390624-124.890624 80.054687-162.273437-3.1875-.1875-6.40625-.28125-9.640625-.28125-89.632812 0-162.554688 72.921875-162.554688 162.554687 0 89.632813 72.921876 162.558594 162.554688 162.558594 3.234375 0 6.453125-.097656 9.640625-.285156-48.664063-37.382812-80.054687-96.164062-80.054687-162.273438zm0 0" fill="#a0f0f2"/><path d="m185.585938 433.191406c-13.304688 0-24.1875-10.882812-24.1875-24.183594v-150.679687c0-13.300781 10.882812-24.183594 24.1875-24.183594 13.300781 0 24.183593 10.882813 24.183593 24.183594v150.675781c0 13.300782-10.882812 24.1875-24.183593 24.1875zm0 0" fill="#ffc2e1"/><path d="m185.585938 234.144531c-13.304688 0-24.1875 10.882813-24.1875 24.183594v71.523437c20.316406-2.242187 36.207031-8.246093 48.371093-15.273437v-56.25c0-13.300781-10.882812-24.183594-24.183593-24.183594zm0 0" fill="#ffabcd"/><path d="m314.144531 433.191406c-13.300781 0-24.183593-10.882812-24.183593-24.183594v-150.679687c0-13.300781 10.882812-24.183594 24.183593-24.183594s24.183594 10.882813 24.183594 24.183594v150.675781c0 13.300782-10.882813 24.1875-24.183594 24.1875zm0 0" fill="#b1ef97"/><path d="m314.144531 234.144531c-13.300781 0-24.183593 10.882813-24.183593 24.183594v71.523437c20.3125-2.242187 36.203124-8.246093 48.367187-15.273437v-56.25c0-13.300781-10.882813-24.183594-24.183594-24.183594zm0 0" fill="#92dd7a"/><path d="m185.585938 282.265625c-24.703126 0-44.726563-20.019531-44.726563-44.722656v-63.691407h89.449219v63.691407c0 24.703125-20.023438 44.722656-44.722656 44.722656zm0 0" fill="#d8d7da"/><path d="m371.140625 225.269531c0 31.480469-25.519531 56.996094-56.996094 56.996094-31.480469 0-57-25.515625-57-56.996094 0-31.476562 25.519531-106.492187 57-106.492187 31.476563 0 56.996094 75.015625 56.996094 106.492187zm0 0" fill="#d8d7da"/><path d="m457.480469 146.015625c-27.808594-84.6875-107.613281-146.015625-201.480469-146.015625-59.710938 0-116.96875 25.386719-157.101562 69.648438-2.78125 3.066406-2.550782 7.8125.515624 10.59375 3.070313 2.785156 7.8125 2.550781 10.597657-.519532 37.292969-41.132812 90.503906-64.722656 145.988281-64.722656 108.632812 0 197.007812 88.378906 197.007812 197.007812 0 74.203126-41.703124 141.816407-107.179687 175.382813v-31.050781c21.476563-13.414063 40.011719-31.75 53.636719-53.101563 2.226562-3.492187 1.203125-8.125-2.289063-10.355469-3.492187-2.226562-8.128906-1.203124-10.359375 2.289063-10.714844 16.792969-24.765625 31.539063-40.988281 43.128906v-65.648437c15.261719-10.230469 25.3125-27.628906 25.3125-47.382813 0-31.480469-25.519531-106.492187-56.996094-106.492187-31.480469 0-57 75.011718-57 106.492187 0 19.753907 10.050781 37.152344 25.3125 47.382813v92.140625c-8.703125 1.5-17.574219 2.269531-26.457031 2.269531-13.132812 0-26.132812-1.648438-38.734375-4.902344v-93.054687c8.058594-8.089844 13.039063-19.242188 13.039063-31.558594v-111.269531c0-4.140625-3.359376-7.5-7.5-7.5-4.140626 0-7.5 3.359375-7.5 7.5v47.574218h-22.222657v-47.574218c0-4.140625-3.359375-7.5-7.5-7.5s-7.5 3.359375-7.5 7.5v47.574218h-22.222656v-47.574218c0-4.140625-3.355469-7.5-7.5-7.5-4.140625 0-7.5 3.359375-7.5 7.5v111.269531c0 12.316406 4.984375 23.46875 13.039063 31.558594v59.476562c-33.394532-29.324219-52.953126-71.875-52.953126-116.574219 0-85.496093 69.558594-155.054687 155.054688-155.054687 85.5 0 155.058594 69.558594 155.058594 155.054687 0 19.855469-3.71875 39.203126-11.050782 57.496094-1.539062 3.847656.328126 8.210938 4.171876 9.753906 3.84375 1.539063 8.210937-.328124 9.75-4.171874 8.046874-20.078126 12.128906-41.300782 12.128906-63.078126 0-93.769531-76.289063-170.054687-170.058594-170.054687s-170.054688 76.285156-170.054688 170.054687c0 53.292969 25.335938 103.796876 67.953126 135.898438v32.621094c-58.804688-35.652344-94.90625-99.261719-94.90625-168.519532 0-38.859374 11.296874-76.441406 32.667968-108.6875 2.289063-3.453124 1.347656-8.105468-2.105468-10.394531-3.453126-2.289062-8.109376-1.347656-10.398438 2.105469-10.554688 15.925781-18.816406 33.0625-24.679688 50.984375 0 0-54.476562-4.445313-54.476562 47.964844v36.050781c0 17.570312 9.589844 33.714844 25.027344 42.136719 1.140625.621093 6.792968 2.910156 10.175781-2.996094 2.058594-3.59375.640625-8.191406-2.992187-10.171875-10.617188-5.789062-17.210938-16.890625-17.210938-28.964844v-36.050781c0-33.902344 35.179688-32.96875 35.179688-32.96875-4.089844 16.558594-6.1875 33.65625-6.1875 50.992187 0 77.539063 42.046874 148.496094 109.90625 185.839844 0 0-3.140626 42.84375 31.6875 42.84375 13.574218 0 25.175781-8.582031 29.679687-20.605468 13.359375 2.597656 27.023437 3.929687 40.734375 3.929687 9.789062 0 19.601562-.683594 29.257812-2.015625 4.96875 11.007812 16.042969 18.691406 28.886719 18.691406 33.726563 0 31.683594-36.597656 31.683594-36.597656 53.800781-25.1875 93.683594-71.3125 111.640625-126.09375 0 0 54.53125 2.328125 54.53125-47.964844v-36.050781c0-44.5-54.519531-47.96875-54.519531-47.96875zm-185.335938 79.253906c0-12.460937 5.273438-36.675781 15.351563-58.84375 10.195312-22.433593 20.960937-32.648437 26.648437-32.648437 5.683594 0 16.449219 10.214844 26.644531 32.648437 10.078126 22.167969 15.351563 46.378907 15.351563 58.84375 0 23.160157-18.839844 41.996094-42 41.996094-23.15625 0-41.996094-18.839844-41.996094-41.996094zm-56.835937-36.417969v48.691407c0 16.390625-13.335938 29.722656-29.722656 29.722656-16.390626 0-29.726563-13.332031-29.726563-29.722656v-48.691407zm-29.722656 236.839844c-9.203126 0-16.6875-7.484375-16.6875-16.6875v-129.964844c5.15625 2.074219 17.625 6.082032 33.371093 0v129.964844c0 9.203125-7.484375 16.6875-16.683593 16.6875zm31.683593-20.492187v-27.609375c12.648438 2.957031 25.628907 4.476562 38.730469 4.476562 8.871094 0 17.734375-.695312 26.460938-2.0625v27.238282c-8.734376 1.171874-17.605469 1.773437-26.457032 1.773437-13.046875 0-26.042968-1.289063-38.734375-3.816406zm96.875 20.492187c-9.203125 0-16.683593-7.484375-16.683593-16.6875v-129.222656c5.277343 1.613281 10.875 2.484375 16.683593 2.484375 5.804688 0 11.40625-.871094 16.683594-2.484375v129.222656c0 9.203125-7.484375 16.6875-16.683594 16.6875zm182.855469-195.65625c0 35.152344-35.21875 32.964844-35.21875 32.964844 4.078125-16.453125 6.226562-33.554688 6.226562-50.992188 0-17.574218-2.164062-34.652343-6.214843-50.992187 0 0 35.207031 2.703125 35.207031 32.964844zm0 0"/></svg>