<svg viewBox="-54 0 512 512.00098" xmlns="http://www.w3.org/2000/svg"><path d="m50.851562 504.5h302.789063c29.117187 0 45.355469-33.8125 26.988281-56.398438-32.910156-40.464843-90.269531-87.875-178.382812-87.875-88.113282 0-145.472656 47.410157-178.378906 87.875-18.367188 22.585938-2.128907 56.398438 26.984374 56.398438zm0 0" fill="#7de7ff"/><path d="m145.144531 367.375c-56.617187 14.75-96.101562 49.769531-121.277343 80.726562-18.371094 22.585938-2.128907 56.398438 26.984374 56.398438h116.9375c-33.070312-49.035156-32.230468-98.867188-22.644531-137.125zm0 0" fill="#4ad6ed"/><path d="m113.292969 379.859375c-48.277344 0-22.714844 78.679687 16.34375 50.300781-39.058594 28.378906 27.871093 77.003906 42.792969 31.089844-14.917969 45.914062 67.808593 45.914062 52.890624 0 14.917969 45.914062 81.847657-2.710938 42.792969-31.089844 39.054688 28.378906 64.621094-50.300781 16.34375-50.300781zm0 0" fill="#ccf8ff"/><path d="m113.292969 379.859375c-48.277344 0-22.714844 78.679687 16.34375 50.300781-29.253907 21.257813.960937 53.871094 24.234375 49.609375-16.257813-35.5625-16.859375-70.445312-11.441406-99.910156-12.746094 0-23.089844 0-29.136719 0zm0 0" fill="#9ff6ff"/><g fill="#ffaea1"><path d="m247.503906 404.921875c0-21.953125-21.773437-39.75-48.628906-39.75-26.859375 0-48.628906 17.796875-48.628906 39.75s21.769531 39.75 48.628906 39.75c26.855469 0 48.628906-17.796875 48.628906-39.75zm0 0"/><path d="m105.335938 273.320312c0 27.015626-21.898438 48.917969-48.917969 48.917969-27.015625 0-48.917969-21.902343-48.917969-48.917969 0-27.015624 21.902344-48.917968 48.917969-48.917968 27.019531 0 48.917969 21.902344 48.917969 48.917968zm0 0"/><path d="m396.996094 273.320312c0 27.015626-21.902344 48.917969-48.917969 48.917969-27.019531 0-48.917969-21.902343-48.917969-48.917969 0-27.015624 21.898438-48.917968 48.917969-48.917968 27.015625 0 48.917969 21.902344 48.917969 48.917968zm0 0"/></g><path d="m202.25 418.496094c-86.605469 0-157.464844-70.859375-157.464844-157.460938v-81.71875c0-86.605468 70.859375-157.464844 157.460938-157.464844 86.605468 0 157.464844 70.859376 157.464844 157.464844v81.714844c0 86.605469-70.859376 157.464844-157.460938 157.464844zm0 0" fill="#ffe2d9"/><path d="m202.25 21.851562c-86.605469 0-157.464844 70.859376-157.464844 157.464844v81.714844c0 85.894531 69.730469 156.300781 155.363282 157.449219-70.882813-38.273438-78.246094-136.011719-74.570313-199.398438 1.785156-30.863281 19.832031-58.597656 47.46875-72.457031 46.746094-23.445312 60.953125-57.53125 60.953125-57.53125v-64c-10.265625-2.125-20.882812-3.242188-31.75-3.242188zm0 0" fill="#ffcfc2"/><path d="m202.246094 319.832031c-15.523438 0-28.105469-12.582031-28.105469-28.105469v-20.433593c0-4.238281 3.4375-7.671875 7.675781-7.671875h40.863282c4.238281 0 7.675781 3.433594 7.675781 7.671875v20.433593c-.003907 15.523438-12.585938 28.105469-28.109375 28.105469zm0 0" fill="#57565c"/><path d="m138.214844 291.726562c0-13.183593-13.421875-23.871093-29.980469-23.871093s-29.980469 10.6875-29.980469 23.871093c0 13.1875 13.421875 23.875 29.980469 23.875s29.980469-10.6875 29.980469-23.875zm0 0" fill="#ffa6bb"/><path d="m326.242188 291.726562c0-13.183593-13.421876-23.871093-29.980469-23.871093-16.558594 0-29.980469 10.6875-29.980469 23.871093 0 13.1875 13.421875 23.875 29.980469 23.875 16.558593 0 29.980469-10.6875 29.980469-23.875zm0 0" fill="#ffa6bb"/><path d="m246.382812 19.125c-7.527343-8.355469-18.679687-12.363281-29.898437-11.640625-15.066406.972656-38.675781 7.421875-42.375 37.765625-2.519531 20.660156-12.195313 37.628906-21.941406 49.949219-7.074219 8.945312.238281 21.96875 11.546875 20.492187 28.34375-3.699218 66.042968-13.558594 80.8125-39.632812 16.6875-29.464844 10.777344-47.023438 1.855468-56.933594zm0 0" fill="#dd9f80"/><path d="m282.921875 278.621094c4.140625 0 7.5-3.355469 7.5-7.5v-12.453125c0-4.144531-3.359375-7.5-7.5-7.5-4.144531 0-7.503906 3.355469-7.503906 7.5v12.453125c0 4.144531 3.359375 7.5 7.503906 7.5zm0 0"/><path d="m121.574219 278.621094c4.144531 0 7.503906-3.355469 7.503906-7.5v-12.453125c0-4.144531-3.359375-7.5-7.503906-7.5-4.140625 0-7.5 3.355469-7.5 7.5v12.453125c0 4.144531 3.359375 7.5 7.5 7.5zm0 0"/><path d="m202.246094 327.335938c19.632812 0 35.609375-15.972657 35.609375-35.609376v-20.433593c0-8.363281-6.808594-15.171875-15.175781-15.171875h-40.863282c-8.367187 0-15.175781 6.808594-15.175781 15.171875v20.433593c0 19.636719 15.972656 35.609376 35.605469 35.609376zm-20.601563-56.042969c0-.09375 41.035157-.167969 41.035157-.167969.097656 0 .171874 20.601562.171874 20.601562 0 11.363282-9.242187 20.605469-20.605468 20.605469-11.359375 0-20.601563-9.242187-20.601563-20.605469zm0 0"/><path d="m314.449219 381.691406c1.453125-1.355468 52.761719-45.09375 52.761719-120.660156v-24.46875c13.480468 6.988281 22.28125 20.984375 22.28125 36.757812 0 12.769532-5.761719 24.636719-15.804688 32.550782-3.257812 2.566406-3.664062 7.167968-1.25 10.535156 3.417969 4.765625 9.15625 2.332031 10.53125 1.25 13.679688-10.777344 21.527344-26.9375 21.527344-44.335938 0-24.082031-15.0625-45.121093-37.285156-53.082031v-40.921875c0-69.234375-43.417969-131.050781-108.402344-154.917968-1.890625-4.054688-12.15625-24.398438-42.808594-24.398438-15.902344 0-28.511719 6.613281-37.09375 16.019531-80.839844 11.570313-141.621094 81.507813-141.621094 163.296875v40.921875c-22.222656 7.960938-37.285156 29-37.285156 53.082031 0 29.699219 23.074219 54.09375 52.230469 56.246094 14.597656 34.054688 35.730469 50.164063 36.859375 51.230469-5.566406 5.148437-8.945313 12.382813-9.566406 20.976563-1.117188 15.390624 7.023437 31.535156 19.351562 38.386718 2.796875 1.554688 6.910156 3.238282 12.015625 3.613282-1.3125 5.207031-1.109375 10.707031.691406 16.25 5.03125 15.492187 21.734375 27.625 38.019531 27.625 5.828126 0 11.117188-1.503907 15.664063-4.359376 3.660156 9.984376 11.09375 13.386719 11.585937 13.707032h-126c-10.753906 0-19.9375-5.808594-24.566406-15.539063-4.59375-9.65625-3.320312-20.355469 3.402344-28.625 10.085938-12.398437 21.101562-23.703125 32.746094-33.597656 3.15625-2.679687 3.542968-7.414063.859375-10.574219-2.683594-3.15625-7.414063-3.539062-10.574219-.855468-12.34375 10.484374-24.007812 22.453124-34.671875 35.5625-10.308594 12.679687-12.347656 29.746093-5.3125 44.535156 7.074219 14.863281 21.679687 24.097656 38.117187 24.097656h302.789063c16.441406 0 31.046875-9.234375 38.117187-24.097656 7.035157-14.789063 5-31.855469-5.3125-44.535156-21.019531-25.851563-45.234374-46.574219-71.996093-61.675782zm-95.332031-366.789062c8.527343 0 16.34375 3.304687 21.6875 9.242187h.003906c9.980468 11.082031 9.035156 27.304688-2.808594 48.214844-7.273438 12.84375-26.035156 31.277344-75.257812 35.894531-7.292969.683594-7.785157-4.390625-4.691407-8.402344 13.105469-16.96875 20.75-34.945312 23.503907-53.695312 4.765624-32.449219 36.847656-31.253906 37.5625-31.253906zm-204.113282 258.417968c0-15.773437 8.800782-29.769531 22.28125-36.753906v24.46875c0 18.039063 2.910156 35.652344 8.507813 52.3125-17.703125-4.703125-30.789063-20.863281-30.789063-40.027344zm37.285156-12.285156v-81.71875c0-70.28125 49.367188-130.9375 116.84375-146.253906-1.148437 3.515625-1.984374 7.277344-2.472656 11.277344-1.953125 16.035156-8.808594 31.582031-20.375 46.207031-5.140625 6.496094-5.824218 15.347656-1.742187 22.546875 3.621093 6.386719 10.292969 10.210938 17.492187 10.210938 31.324219 0 72.792969-14.902344 89.019532-43.550782 8.527343-15.054687 11.644531-27.476562 11.59375-37.625 54.058593 23.898438 89.558593 77.511719 89.558593 137.1875v81.71875c0 39.878906-15.644531 77.492188-44.054687 105.902344s-66.023438 44.058594-105.90625 44.058594c-39.878906 0-77.492188-15.648438-105.902344-44.058594s-44.054688-66.023438-44.054688-105.902344zm180.523438 162.113282c-7.460938 8.554687-19.96875 14.019531-33.941406 14.019531-14.867188 0-28.113282-6.269531-35.34375-15.769531 12.542968 3.03125 25.515625 4.597656 38.71875 4.597656 10.367187 0 20.585937-.972656 30.566406-2.847656zm-58.066406 30.96875c-3.945313-1.285157-8.171875.875-9.453125 4.816406-2.957031 9.097656-8.234375 13.710937-15.691407 13.710937-9.664062 0-20.765624-8.0625-23.75-17.257812-2.304687-7.085938.453126-13.535157 8.195313-19.15625 3.351563-2.4375 4.09375-7.128907 1.660156-10.480469-2.4375-3.351562-7.125-4.09375-10.480469-1.660156-7.011718 5.097656-13.425781 6.089844-19.0625 2.957031-7.238281-4.023437-12.367187-14.648437-11.679687-24.191406.285156-3.945313 1.640625-8.898438 6.101563-12.117188 13.300781 10.496094 27.96875 18.78125 43.550781 24.675781 5.714843 21.222657 28.425781 36.757813 54.738281 36.757813 25.21875 0 47.101562-14.101563 53.929688-34.109375 16.910156-5.460938 32.867187-13.671875 47.316406-24.414062 2.957031 3.984374 3.3125 8.96875 3.179687 12.066406-.402343 9.296875-5.660156 18.4375-12.5 21.738281-5.445312 2.628906-11.59375 1.496094-18.28125-3.363281-3.347656-2.433594-8.042969-1.691406-10.476562 1.660156-2.4375 3.351562-1.691407 8.042969 1.660156 10.480469 7.738281 5.621093 10.496094 12.070312 8.195313 19.15625-2.988282 9.195312-14.089844 17.257812-23.757813 17.257812-7.453125 0-12.730469-4.613281-15.6875-13.714843-1.28125-3.9375-5.519531-6.09375-9.453125-4.816407-3.171875 1.03125-6.421875 4.34375-4.816406 9.453125 2.875 9.128906 1.398437 15.9375-4.628906 20.320313-7.820313 5.683593-21.542969 5.679687-29.363282 0-6.027344-4.382813-7.644531-11.234375-4.628906-20.320313 1.5-4.523437-1.644531-8.421875-4.816406-9.449218zm203.464844 27.339843c-4.628907 9.730469-13.8125 15.539063-24.570313 15.539063h-132.746094c.496094-.320313 8.492188-3.898438 11.585938-13.703125 4.546875 2.851562 9.835937 4.355469 15.660156 4.355469 16.289063 0 32.992187-12.132813 38.023437-27.625 1.804688-5.546876 2.003907-11.042969.691407-16.253907 3.585937-.25 33.390625-7.832031 31.347656-42.296875 20.75 13.40625 39.742187 30.625 56.605469 51.359375 6.726562 8.269531 7.996094 18.96875 3.402344 28.625zm0 0"/></svg>