<svg viewBox="0 -23 512.00038 512" xmlns="http://www.w3.org/2000/svg"><path d="m331.554688 346.988281c45.539062-3.195312 90.875-11.84375 135.023437-26.011719-6.644531 37.8125-16.496094 75.777344-29.574219 113.457032-4.773437 14.039062-26.839844 18.28125-36.433594 7.003906-26.039062-30.164062-49.078124-61.792969-69.015624-94.449219zm0 0" fill="#ffc2e1"/><path d="m437.003906 434.433594c1.542969-4.445313 3.042969-8.894532 4.496094-13.347656-42.007812-13.425782-65.441406-52.253907-76.605469-77.421876-11.089843 1.433594-22.210937 2.542969-33.34375 3.324219 19.941407 32.65625 42.976563 64.285157 69.019531 94.449219 9.59375 11.277344 31.660157 7.035156 36.433594-7.003906zm0 0" fill="#ffabcd"/><path d="m185.542969 338.535156c44.84375 8.425782 90.539062 11.464844 136.105469 9.0625-15.777344 34.855469-34.707032 69.0625-56.714844 102.199219-8.09375 12.367187-30.339844 10.886719-36.722656-2.445313-17.421876-35.761718-31.648438-72.179687-42.667969-108.816406zm0 0" fill="#eac2ff"/><path d="m185.542969 338.535156c11.019531 36.636719 25.246093 73.054688 42.667969 108.816406 6.382812 13.332032 28.628906 14.8125 36.722656 2.445313 1.042968-1.566406 2.074218-3.132813 3.097656-4.703125-23.59375-28.460938-32.339844-70.589844-35.550781-99.738281-15.722657-1.621094-31.378907-3.898438-46.9375-6.820313zm0 0" fill="#dfaeff"/><path d="m45.425781 292.9375c41.878907 19.894531 85.667969 34.476562 130.382813 43.679688-24.09375 29.730468-51.121094 58.023437-80.929688 84.46875-11.003906 9.902343-32.316406 2.777343-35.183594-11.773438-7.964843-39.082031-12.699218-78.015625-14.269531-116.375zm0 0" fill="#b1ef97"/><path d="m101.109375 315.886719c-18.871094-6.640625-37.457031-14.289063-55.683594-22.949219 1.570313 38.359375 6.304688 77.292969 14.269531 116.375 2.867188 14.546875 24.179688 21.675781 35.183594 11.773438 0-.003907-9.921875-63.160157 6.230469-105.199219zm0 0" fill="#92dd7a"/><path d="m339.371094 86.578125c43.132812-14.945313 84.65625-35.101563 123.589844-60.277344 3.433593 38.238281 3.808593 77.457031.996093 117.242188-.953125 14.796875-21.152343 24.636719-33.355469 16.25-32.996093-22.339844-63.472656-46.878907-91.230468-73.214844zm0 0" fill="#ffeb99"/><path d="m408.410156 57.472656c-22.429687 11.234375-45.488281 20.945313-69.039062 29.105469 23.84375 22.625 49.710937 43.929687 77.445312 63.648437-10.402344-29.515624-10.582031-65.378906-8.40625-92.753906zm0 0" fill="#ffde55"/><path d="m196.199219 116.441406c45.488281-3.546875 90.402343-12.507812 133.765625-26.699218-6.15625 37.761718-15.519532 75.71875-28.136719 113.445312-4.597656 14.050781-26.460937 18.414062-36.097656 7.203125-26.132813-29.988281-49.351563-61.445313-69.53125-93.949219zm0 0" fill="#9ff6ff"/><path d="m196.199219 116.445312c20.179687 32.507813 43.398437 63.960938 69.53125 93.953126 5.890625 6.851562 16.34375 7.878906 24.636719 4.441406-33.078126-50.605469-11.507813-97.890625-2.867188-112.992188-29.96875 7.3125-60.5 12.199219-91.300781 14.597656zm0 0" fill="#7de7ff"/><path d="m49.039062 108.910156c45.617188 8.300782 91.691407 10.976563 137.261719 8.21875-15.523437 34.972656-34.246093 69.332032-56.140625 102.625-8.042968 12.429688-30.476562 11.097656-37.035156-2.199218-17.867188-35.660157-32.578125-72.019532-44.085938-108.644532zm0 0" fill="#ffc2e1"/><path d="m49.039062 108.910156c11.507813 36.625 26.214844 72.984375 44.085938 108.640625 4.445312 9.015625 16.183594 12.53125 25.792969 9.992188-18.074219-39.625-16.578125-82.75-12.40625-111.152344-19.191407-1.515625-38.371094-4.003906-57.472657-7.480469zm0 0" fill="#ffabcd"/><path d="m139.949219 138.074219c-39 0-78.011719-3.527344-116.800781-10.585938-7.6875-1.398437-12.785157-8.761719-11.382813-16.449219 1.398437-7.683593 8.761719-12.785156 16.449219-11.382812 77.691406 14.136719 156.347656 13.46875 233.785156-1.988281 77.441406-15.453125 150.328125-45.03125 216.640625-87.910157 6.558594-4.238281 15.316406-2.363281 19.558594 4.199219 4.242187 6.558594 2.363281 15.316407-4.199219 19.558594-69.320312 44.820313-145.511719 75.738281-226.460938 91.898437-42.289062 8.441407-84.933593 12.660157-127.589843 12.660157zm0 0" fill="#ffdaaa"/><path d="m295.804688 367.234375c-14.542969 0-29.117188-.484375-43.71875-1.457031-82.367188-5.484375-161.933594-26.226563-236.5-61.644532-7.054688-3.351562-10.058594-11.789062-6.707032-18.84375 3.351563-7.058593 11.792969-10.0625 18.847656-6.707031 71.328126 33.882813 147.445313 53.722657 226.238282 58.964844 78.789062 5.25 156.867187-4.324219 232.058594-28.453125 7.4375-2.390625 15.402343 1.707031 17.789062 9.144531 2.386719 7.441407-1.707031 15.40625-9.144531 17.792969-64.664063 20.75-131.378907 31.203125-198.863281 31.203125zm0 0" fill="#ffdaaa"/><path d="m21.804688 134.867188c9.859374 1.796874 19.761718 3.363281 29.691406 4.710937 9.902344 27.457031 21.625 54.792969 34.902344 81.289063 4.230468 8.582031 13.535156 14.296874 24.285156 14.921874.648437.039063 17.335937 1.007813 25.746094-11.914062 16.769531-25.765625 32.167968-52.472656 45.484374-79.664062 7.394532-.476563 14.789063-1.074219 22.179688-1.800782 16.929688 25.15625 34.910156 50.410156 55.949219 72.871094 9.632812 10.28125 24.964843 8.761719 27.09375 8.335938 10.492187-2.09375 18.851562-9.027344 21.800781-18.050782 9.777344-29.230468 17.734375-59.082031 23.710938-88.808594 7.105468-2.164062 14.164062-4.449218 21.179687-6.847656 22.734375 19.992188 47.128906 38.835938 72.527344 56.0625 10.683593 7.246094 23.941406 3.3125 28.390625 1.148438 9.683594-4.703125 16.082031-13.550782 16.691406-23.050782.78125-11.070312 1.328125-22.261718 1.621094-33.261718.113281-4.140625-3.15625-7.585938-7.296875-7.695313-4.113281-.109375-7.585938 3.15625-7.695313 7.296875-.289062 10.777344-.824218 21.75-1.59375 32.652344-.320312 4.980469-4.488281 8.726562-8.277344 10.566406-3.773437 1.832032-9.261718 2.792969-13.386718-.046875-22.597656-15.300781-44.339844-31.90625-64.789063-49.457031 30.175781-11.226562 59.492188-24.652344 87.804688-40.25.179687 4.75.3125 9.511719.394531 14.246094.070312 4.097656 3.414062 7.367187 7.496094 7.367187h.132812c4.144532-.070312 7.441406-3.488281 7.367188-7.628906-.128906-7.417969-.378906-14.898437-.734375-22.308594 8.628906-5.042969 17.164062-10.285156 25.59375-15.738281 10.023437-6.480469 12.902343-19.90625 6.421875-29.929688-6.476563-10.019531-19.902344-12.898437-29.929688-6.421874-65.511718 42.359374-137.523437 71.582031-214.035156 86.851562-76.507812 15.269531-154.21875 15.929688-230.976562 1.960938-5.6875-1.03125-11.4375.210937-16.191407 3.5-4.753906 3.289062-7.941406 8.234374-8.980469 13.921874-2.136718 11.742188 5.679688 23.035157 17.421876 25.171876zm102.0625 80.8125c-2.695313 4.160156-8.132813 5.371093-12.3125 5.136718-4.210938-.246094-9.492188-2.101562-11.722657-6.625-11.882812-23.710937-22.488281-48.070312-31.621093-72.570312 23.890624 2.621094 55.132812 4.945312 96.527343 3.476562-12.140625 24.054688-25.851562 47.742188-40.871093 70.582032zm170.832031-14.824219c-1.539063 4.699219-6.429688 7.242187-10.5 8.054687-4.066407.8125-9.558594.339844-12.8125-3.445312-18.097657-20.765625-35.023438-42.5625-50.441407-64.925782 16.09375-2 32.136719-4.59375 48.0625-7.769531 15.976563-3.191406 31.765626-6.957031 47.359376-11.273437-5.652344 26.566406-12.917969 53.199218-21.667969 79.359375zm-275.558594-88.472657c1.265625-6.21875 7.328125-5.421874 7.730469-5.347656 78.621094 14.304688 158.226562 13.632813 236.597656-2.011718 78.371094-15.640626 152.136719-45.574219 219.242188-88.964844 3.074218-1.988282 7.199218-1.105469 9.191406 1.972656 1.988281 3.074219 1.101562 7.199219-1.976563 9.1875-68.519531 44.304688-143.835937 74.867188-223.855469 90.839844-41.621093 8.304687-84.054687 12.515625-126.125 12.515625-38.453124 0-77.300781-3.519531-115.453124-10.464844-3.605469-.65625-6.078126-4.136719-5.351563-7.726563zm0 0"/><path d="m510.953125 315.949219c-1.765625-5.507813-5.570313-9.996094-10.710937-12.640625-5.144532-2.640625-11.003907-3.125-16.511719-1.359375-74.296875 23.839843-151.429688 33.300781-229.269531 28.117187-61.34375-4.085937-121.40625-17.210937-178.515626-39.015625-3.867187-1.476562-8.203124.464844-9.683593 4.332031-1.476563 3.871094.460937 8.203126 4.332031 9.683594 58.507812 22.335938 120.035156 35.78125 182.871094 39.964844 79.726562 5.308594 158.746094-4.378906 234.851562-28.796875 1.6875-.542969 6.800782-.585937 8.355469 4.296875 1.773437 5.578125-2.605469 7.8125-4.296875 8.355469-63.78125 20.46875-129.917969 30.847656-196.570312 30.847656-14.320313 0-28.859376-.484375-43.222657-1.441406-81.417969-5.417969-160.070312-25.921875-233.777343-60.933594-1.605469-.761719-5.371094-4.09375-3.148438-8.855469 2.21875-4.757812 7.25-3.910156 8.851562-3.148437 5.902344 2.804687 11.929688 5.550781 17.90625 8.167969 3.792969 1.664062 8.214844-.066407 9.878907-3.859376 1.660156-3.792968-.070313-8.21875-3.863281-9.878906-5.835938-2.554687-11.722657-5.238281-17.484376-7.980468-5.222656-2.480469-11.097656-2.773438-16.546874-.839844-5.445313 1.941406-9.8125 5.882812-12.292969 11.105468-2.480469 5.222657-2.78125 11.097657-.839844 16.542969 1.9375 5.449219 5.882813 9.8125 11.101563 12.296875 9.078124 4.308594 18.226562 8.398438 27.441406 12.277344 2.414062 29.09375 6.609375 58.535156 12.527344 87.578125 1.851562 9.382813 9.347656 17.328125 19.5625 20.730469 3.375 1.125 17.886718 3.933594 27.960937-4.800782 23.226563-20.136718 44.714844-42.28125 64.652344-65.0625 7.269531 1.46875 14.566406 2.8125 21.890625 4.035157 9.792968 28.6875 21.160156 57.453125 35.042968 84.921875 7.671876 15.179687 25.453126 15.179687 26.175782 15.179687 9.824218 0 18.722656-4.425781 23.5625-11.824219 17.054687-25.675781 32.507812-52.425781 46.019531-79.566406 45.386719-1.480468 90.445313-7.667968 134.625-18.46875-5.867187 25.476563-13.214844 51.011719-21.921875 76.109375-1.609375 4.730469-6.605469 7.257813-10.746094 8.050781-4.117187.78125-9.667968.28125-12.910156-3.535156-13-15.054687-25.464844-30.757812-37.046875-46.671875-2.4375-3.347656-7.125-4.085937-10.476563-1.648437-3.347656 2.4375-4.085937 7.128906-1.648437 10.480468 11.824219 16.242188 24.347656 32.449219 37.78125 47.601563 8.675781 9.78125 25.050781 8.898437 27.113281 8.503906 10.574219-2.015625 19.054688-8.894531 22.117188-17.90625 9.734375-28.046875 17.796875-56.683593 24.042968-85.191406 9.65625-2.625 19.269532-5.464844 28.824219-8.53125 5.507813-1.765625 9.996094-5.570313 12.640625-10.714844 2.640625-5.140625 3.125-11.003906 1.355469-16.507812zm-421.089844 99.558593c-3.683593 3.316407-9.246093 3.082032-13.226562 1.753907-4-1.332031-8.617188-4.5-9.59375-9.445313-5.292969-25.984375-9.191407-52.257812-11.628907-78.289062 30.101563 11.78125 60.910157 21.277344 92.292969 28.476562-17.992187 20.066406-37.390625 39.363282-57.84375 57.503906zm168.796875 30.183594c-2.707031 4.136719-8.09375 5.316406-12.230468 5.039063-4.140626-.277344-9.320313-2.160157-11.480469-6.664063-12.0625-24.765625-22.730469-50.21875-31.789063-75.820312 16.023438 2.253906 32.171875 3.929687 48.425782 5.011718 14.691406.980469 36.144531 1.800782 48.664062 1.453126-12.375 24.179687-26.324219 47.996093-41.589844 70.980468zm0 0"/></svg>