<svg viewBox="0 -9 512.00002 512" xmlns="http://www.w3.org/2000/svg"><path d="m411.191406 338.546875c-103.605468-69.339844-238.851562-68.445313-343.050781 0-12.480469 8.199219-29.246094 4.730469-37.449219-7.753906-8.199218-12.484375-4.726562-29.25 7.757813-37.449219 122.234375-80.292969 280.199219-80.292969 402.433593 0 12.484376 8.199219 15.957032 24.964844 7.757813 37.449219-5.195313 7.90625-21.195313 18.632812-37.449219 7.753906zm0 0" fill="#a0f0f2"/><path d="m250.921875 331.417969 13.542969 27.445312 30.289062 4.402344c10.296875 1.496094 14.40625 14.144531 6.957032 21.40625l-21.914063 21.363281 5.171875 30.164063c1.757812 10.253906-9.003906 18.074219-18.210938 13.234375l-27.089843-14.242188-27.089844 14.242188c-9.210937 4.839844-19.972656-2.980469-18.214844-13.230469l5.175781-30.164063-21.917968-21.363281c-7.449219-7.261719-3.339844-19.914062 6.957031-21.410156l30.289063-4.402344 13.542968-27.445312c4.605469-9.328125 17.90625-9.328125 22.511719 0zm0 0" fill="#ffeb99"/><path d="m227.003906 407.355469-12.292968-11.984375c-7.449219-7.261719-3.339844-19.914063 6.957031-21.410156l16.988281-2.46875c8.324219-1.210938 15.523438-6.4375 19.242188-13.980469l2.949218-5.976563-9.925781-20.117187c-4.605469-9.328125-17.90625-9.328125-22.511719 0l-13.546875 27.445312-30.285156 4.402344c-10.296875 1.496094-14.40625 14.144531-6.957031 21.40625l21.914062 21.363281-5.171875 30.164063c-1.757812 10.253906 9.003907 18.074219 18.210938 13.234375l20.269531-10.65625 1.507812-8.800782c1.425782-8.289062-1.324218-16.75-7.347656-22.621093zm0 0" fill="#ffde55"/><path d="m36.636719 370.664062c-8.917969-.316406-17.40625 1.390626-25.035157 4.703126-5.550781 2.410156-5.484374 10.425781.136719 12.675781 17.738281 7.109375 30.269531 24.457031 30.269531 44.738281 0 16.527344-8.324218 31.101562-21.007812 39.78125-5.039062 3.445312-3.601562 11.28125 2.390625 12.453125 3.601563.703125 7.324219 1.070313 11.132813 1.070313 32.183593 0 58.214843-26.332032 57.722656-58.625-.464844-30.542969-25.082032-55.703126-55.609375-56.796876zm0 0" fill="#ffc2e1"/><path d="m500.964844 439.1875c-4.921875-9.722656-13.515625-15.328125-22.5625-16.285156-5.015625-.53125-9.589844-3.40625-12.230469-8.109375-7.511719-13.375-20.984375-22.292969-36.359375-22.292969s-28.84375 8.917969-36.355469 22.289062c-2.558593 4.554688-6.914062 7.636719-11.773437 8.066407-9.460938.839843-18.421875 6.757812-23.285156 16.882812-6.644532 13.847657-2.886719 31.230469 8.695312 40.367188 5.160156 4.066406 11.070312 5.984375 16.898438 5.980469h91.25c6.945312.109374 13.992187-2.515626 19.710937-8.117188 9.933594-9.738281 12.472656-26.007812 6.011719-38.78125zm0 0" fill="#ccf8ff"/><path d="m239.664062 116.707031c-13.851562 0-26.878906-7.835937-36.6875-22.066406-7.84375-11.382813-12.527343-25.5625-12.527343-37.921875 0-27.140625 22.078125-49.21875 49.214843-49.21875 27.140626 0 49.21875 22.078125 49.21875 49.21875 0 12.359375-4.683593 26.539062-12.527343 37.921875-9.804688 14.230469-22.835938 22.066406-36.691407 22.066406zm0-76.753906c-9.242187 0-16.765624 7.519531-16.765624 16.765625 0 5.769531 2.730468 13.609375 6.796874 19.507812 3.824219 5.550782 7.761719 8.035157 9.96875 8.035157 2.210938 0 6.148438-2.484375 9.972657-8.035157 4.0625-5.898437 6.796875-13.738281 6.796875-19.507812 0-9.246094-7.523438-16.765625-16.769532-16.765625zm0 0" fill="#a0f0f2"/><path d="m257.945312 111.917969c-59.96875-25.714844-49.726562-78.320313-43.671874-97.347657-14.265626 8.628907-23.824219 24.292969-23.824219 42.148438 0 12.359375 4.683593 26.539062 12.527343 37.921875 9.808594 14.230469 22.835938 22.066406 36.6875 22.066406 6.335938 0 12.519532-1.648437 18.28125-4.789062zm0 0" fill="#7de2e2"/><path d="m94.972656 292.972656c-17.492187-10.246094-2.773437-28.8125-2.71875-28.878906-18.515625 8.144531-36.519531 17.894531-53.804687 29.246094-12.484375 8.203125-15.953125 24.96875-7.757813 37.449218 8.203125 12.484376 24.96875 15.957032 37.449219 7.757813 55.484375-36.449219 119.773437-53.734375 183.398437-51.46875-69.6875-5.832031-140.699218 15.1875-156.566406 5.894531zm0 0" fill="#7de2e2"/><path d="m67.023438 430.359375c0-45.183594-59.109376-47.359375-59.421876-47.355469.398438 2.132813 1.769532 4.09375 4.128907 5.039063 17.742187 7.109375 30.273437 24.457031 30.273437 44.738281 0 16.527344-8.324218 31.105469-21.007812 39.78125-1.691406 1.15625-2.648438 2.8125-2.953125 4.542969 27.769531-3.679688 48.980469-23.207031 48.980469-46.746094zm0 0" fill="#ffabcd"/><path d="m429.824219 439.296875c-2.417969-25.21875 4.917969-38.121094 12.589843-44.722656-3.976562-1.34375-8.21875-2.070313-12.601562-2.070313-15.375 0-28.84375 8.914063-36.355469 22.289063-2.558593 4.554687-6.914062 7.636719-11.773437 8.066406-9.460938.839844-18.421875 6.757813-23.285156 16.882813-6.644532 13.847656-2.886719 31.230468 8.695312 40.363281 5.160156 4.070312 11.070312 5.988281 16.898438 5.980469h30.667968c8.933594-8.539063 17.441406-23.050782 15.164063-46.789063zm0 0" fill="#9ff6ff"/><path d="m507.675781 435.800781c-5.808593-11.476562-16.449219-19.085937-28.464843-20.355469-2.738282-.292968-5.097657-1.867187-6.480469-4.324218-7.859375-14.003906-20.746094-23.167969-35.386719-25.519532v-37.097656c8.335938-3.109375 14.53125-8.945312 17.585938-13.59375 10.457031-15.917968 6.011718-37.378906-9.90625-47.835937-19.878907-13.058594-40.6875-24.023438-62.125-32.921875l-116.578126-138.597656c5.980469-4.15625 11.464844-9.742188 16.234376-16.65625 8.671874-12.589844 13.851562-28.359376 13.851562-42.179688 0-6.015625-.945312-11.945312-2.804688-17.625-1.289062-3.9375-5.523437-6.082031-9.464843-4.792969-3.9375 1.289063-6.082031 5.523438-4.792969 9.460938 1.367188 4.167969 2.058594 8.527343 2.058594 12.957031 0 10.898438-4.1875 23.484375-11.203125 33.667969-8.363281 12.136719-19.199219 18.820312-30.511719 18.820312s-22.148438-6.683593-30.515625-18.820312c-7.015625-10.183594-11.203125-22.769531-11.203125-33.667969 0-23.003906 18.714844-41.71875 41.71875-41.71875 8.882812 0 17.367188 2.769531 24.535156 8.003906 3.34375 2.441406 8.039063 1.710938 10.480469-1.636718 2.445313-3.34375 1.710937-8.035157-1.632813-10.476563-9.753906-7.125-21.300781-10.890625-33.382812-10.890625-31.273438 0-56.71875 25.441406-56.71875 56.71875 0 13.824219 5.179688 29.589844 13.851562 42.179688 4.765626 6.917968 10.253907 12.5 16.234376 16.660156l-116.582032 138.59375c-21.433594 8.898437-42.242187 19.863281-62.121094 32.921875-15.917968 10.457031-20.363281 31.917969-9.90625 47.835937 4.351563 6.625 10.613282 11.253906 17.582032 13.65625v15.003906c-14.078125-1.03125-24.449219 1.039063-33.394532 4.917969-5.324218 2.3125-8.7148432 7.578125-8.632812 13.414063.0820312 5.8125 3.605469 10.957031 8.96875 13.105468 15.527344 6.222657 25.558594 21.046876 25.558594 37.773438 0 13.433594-6.632813 25.992188-17.738282 33.589844-4.847656 3.316406-7.214843 9.167968-6.03125 14.910156 1.164063 5.636719 5.507813 10.359375 11.214844 11.097656 24.070313 3.113282 46.6875-5.699218 59.046875-18.246094 12.359375-12.546874 19.015625-29.160156 18.75-46.785156-.253906-16.699218-6.886719-32.53125-18.671875-44.570312-6.886718-7.03125-15.101562-12.316406-24.066406-15.628906v-16.871094c5.285156-.5625 10.511719-2.34375 15.25-5.457032 7.394531-4.859374 15.085938-9.445312 22.851562-13.640624 3.648438-1.96875 5.007813-6.519532 3.039063-10.164063s-6.519531-5.003906-10.164063-3.035156c-8.144531 4.394531-16.207031 9.207031-23.964843 14.300781-9 5.914062-21.144531 3.402344-27.058594-5.605469-5.914063-9.003906-3.402344-21.144531 5.605469-27.0625 119.730468-78.648437 274.464844-78.648437 394.199218 0 9.003907 5.917969 11.519532 18.058594 5.605469 27.0625-2.175781 3.308594-12.570312 15.203125-27.011719 5.644531-43.65625-28.910156-94.199218-46.996093-146.574218-51.675781-51.582032-4.613281-104.21875 3.570313-152.207032 23.671875-3.820312 1.597656-5.621093 5.992188-4.023437 9.8125 1.601563 3.824219 6 5.621094 9.816406 4.023438 35.496094-14.867188 72.710938-22.722656 109.792969-23.75v23.972656c-4.492188 1.796875-8.246094 5.191406-10.480469 9.726562l-11.800781 23.910157-26.386719 3.832031c-7.605469 1.105469-13.808593 6.335938-16.1875 13.648438-2.375 7.3125-.429687 15.1875 5.074219 20.554687l19.09375 18.609375-4.507812 26.277344c-1.300782 7.582031 1.757812 15.097656 7.980468 19.613281 3.511719 2.554687 11.238282 5.835937 21.113282 1.527344l23.601562-12.40625 23.597656 12.40625c6.804688 3.574219 14.898438 2.992187 21.117188-1.527344 6.222656-4.519531 9.277344-12.03125 7.976562-19.613281l-4.507812-26.277344 19.09375-18.609375c5.507812-5.367187 7.449218-13.242187 5.074218-20.554687s-8.578124-12.542969-16.1875-13.648438l-26.382812-3.832031-11.800781-23.910157c-2.238281-4.535156-5.992188-7.929687-10.480469-9.726562v-24.011719c56.328125 1.242188 111.777344 18.246094 159.851562 50.421875 4.816407 3.222656 9.992188 5.121094 15.304688 5.683594v35.132812c-14.644531 2.347657-27.539062 11.511719-35.40625 25.519532-1.386719 2.46875-3.589844 4.0625-5.894531 4.269531-12.589844 1.113281-23.574219 9.003906-29.382813 21.109375-8.132812 16.941406-3.484375 38.222656 10.8125 49.5 6.296875 4.964844 13.734375 7.589844 21.503906 7.589844h.039063 45.828125c4.144531 0 7.5-3.359375 7.5-7.5 0-4.144532-3.355469-7.5-7.5-7.5h-45.839844c-.007812 0-.011718 0-.019531 0-4.371094 0-8.601563-1.511719-12.226563-4.371094-8.769531-6.917969-11.660156-20.636719-6.574218-31.230469 3.492187-7.28125 9.917968-12.011719 17.179687-12.65625 7.242188-.640625 13.839844-5.078125 17.652344-11.863281 6.492187-11.5625 17.640625-18.464844 29.816406-18.464844 12.179688 0 23.328125 6.902344 29.816407 18.464844 3.738281 6.652344 10.460937 11.101562 17.984374 11.894531 7.035157.746094 13.105469 5.199219 16.65625 12.21875 5.011719 9.898438 3.089844 22.527344-4.566406 30.03125-4.015625 3.9375-9.097656 6.066407-14.34375 5.976563-.039062 0-.078125 0-.117187 0h-11.574219c-4.144531 0-7.5 3.355468-7.5 7.5 0 4.144531 3.355469 7.5 7.5 7.5 0 0 11.832031.003906 11.992188.003906 9.078124 0 17.777343-3.632812 24.542968-10.265625 12.203125-11.964844 15.335938-31.949219 7.453125-47.527344zm-422.90625-8.226562c.203125 13.574219-4.921875 26.367187-14.4375 36.027343-9.515625 9.664063-29.066406 16.105469-43.914062 14.332032 14.5-10.464844 23.113281-27.238282 23.113281-45.152344 0-22.375-13.121094-42.265625-33.554688-51.105469 6.476563-2.585937 13.339844-3.769531 20.414063-3.515625 12.828125.460938 24.898437 5.824219 33.984375 15.105469s14.199219 21.464844 14.394531 34.308594zm147.417969-201.871094c-36.253906.726563-72.421875 6.730469-107.320312 18l102.09375-121.371094c1.71875.511719 3.464843.914063 5.226562 1.214844zm15 0v-102.15625c1.761719-.300781 3.507812-.703125 5.226562-1.21875l102.09375 121.375c-34.902343-11.269531-71.066406-17.273437-107.320312-18zm10.574219 136.480469c1.09375 2.214844 3.203125 3.746094 5.648437 4.101562l30.285156 4.402344c2.804688.40625 3.785157 2.539062 4.078126 3.4375.292968.898438.75 3.199219-1.277344 5.175781l-21.917969 21.363281c-1.769531 1.726563-2.574219 4.207032-2.15625 6.640626l5.175781 30.164062c.476563 2.792969-1.246094 4.386719-2.011718 4.941406-.761719.554688-2.808594 1.703125-5.316407.382813l-27.089843-14.242188c-2.1875-1.148437-4.796876-1.148437-6.980469 0l-27.09375 14.242188c-2.507813 1.320312-4.554688.171875-5.316407-.382813-.765624-.554687-2.488281-2.148437-2.011718-4.941406l5.175781-30.164062c.417969-2.433594-.390625-4.914063-2.15625-6.640626l-21.917969-21.359374c-2.027344-1.980469-1.566406-4.28125-1.277344-5.179688.292969-.898438 1.273438-3.03125 4.078126-3.4375l30.285156-4.402344c2.445312-.351562 4.558594-1.886718 5.648437-4.101562l13.546875-27.445313c1.253906-2.542969 3.585938-2.816406 4.527344-2.816406.945312 0 3.277344.273437 4.53125 2.816406zm0 0"/><path d="m215.417969 56.71875c0 7.277344 3.191406 16.605469 8.125 23.765625 4.9375 7.164063 10.820312 11.273437 16.144531 11.273437s11.207031-4.109374 16.148438-11.273437c4.933593-7.160156 8.121093-16.488281 8.121093-23.765625 0-13.382812-10.886719-24.269531-24.269531-24.269531s-24.269531 10.886719-24.269531 24.269531zm33.535156 0c0 10.761719-8.355469 18.785156-9.265625 19.511719-.914062-.726563-9.269531-9.539063-9.269531-19.511719 0-5.109375 4.160156-9.265625 9.269531-9.265625s9.265625 4.15625 9.265625 9.265625zm0 0"/></svg>