<svg viewBox="0 0 511.99906 511" xmlns="http://www.w3.org/2000/svg"><path d="m504.5 256.46875c0 137.222656-111.242188 248.464844-248.46875 248.464844-137.222656 0-248.46875-111.242188-248.46875-248.464844 0-137.226562 111.246094-248.46875 248.46875-248.46875 137.226562 0 248.46875 111.242188 248.46875 248.46875zm0 0" fill="#fff2bd"/><path d="m221.410156 394.125c-97.03125-97.035156-97.03125-254.355469 0-351.386719 13.367188-13.367187 28.710938-24.082031 43.230469-34.589843-66.425781-2.289063-133.597656 21.925781-184.300781 72.632812-97.035156 97.03125-97.035156 254.351562 0 351.386719 83.664062 83.664062 212.15625 95.179687 308.171875 34.566406-60.691407-2.089844-120.773438-26.28125-167.101563-72.609375zm0 0" fill="#ffeb99"/><path d="m346.964844 165.535156s-162.871094-72.398437-336.050782 131.714844c8.175782 49.402344 31.316407 96.800781 69.425782 134.910156 38.109375 38.105469 85.503906 61.25 134.90625 69.421875 204.113281-173.175781 131.71875-336.046875 131.71875-336.046875zm0 0" fill="#ffc2e1"/><path d="m151.175781 182.894531c-43.675781 21.421875-91.5625 56.957031-140.261719 114.355469 8.175782 49.402344 31.316407 96.800781 69.425782 134.910156 38.105468 38.109375 85.503906 61.25 134.90625 69.425782 25.527344-21.660157 46.730468-43.15625 64.289062-64.195313-20.886718-11.222656-40.496094-25.644531-58.125-43.273437-57.578125-57.578126-80.992187-136.382813-70.234375-211.222657zm0 0" fill="#ffabcd"/><path d="m346.964844 165.535156s41.621094-57.511718 24.199218-129.328125c-66.96875-35.03125-146.550781-37.421875-215.253906-7.203125 142.855469 10.511719 191.054688 136.53125 191.054688 136.53125zm0 0" fill="#b1ef97"/><path d="m264.640625 8.148438c-37.003906-1.273438-74.238281 5.683593-108.730469 20.855468 24.339844 1.789063 45.925782 6.933594 65 14.234375 11.4375-12.082031 30.304688-25.355469 43.730469-35.089843zm0 0" fill="#92dd7a"/><path d="m346.964844 165.535156s126.019531 48.222656 136.53125 191.078125c30.21875-68.703125 27.824218-148.308593-7.203125-215.277343-71.816407-17.421876-129.328125 24.199218-129.328125 24.199218zm0 0" fill="#9ff6ff"/><path d="m512 256.464844c0-68.371094-26.625-132.648438-74.972656-180.992188-48.34375-48.347656-112.625-74.972656-180.996094-74.972656s-132.648438 26.625-180.992188 74.972656c-2.929687 2.925782-2.929687 7.675782 0 10.605469 2.925782 2.925781 7.675782 2.925781 10.605469 0 20.980469-20.984375 45.160157-37.609375 71.425781-49.449219 30.742188 2.484375 59.363282 10.734375 85.074219 24.566406 20.988281 11.289063 40.144531 26.308594 56.929688 44.636719 16.195312 17.683594 27.078125 35.128907 33.515625 47.054688-18.148438-4.847657-49.488282-10.25-89.59375-5.484375-37.175782 4.421875-74.234375 16.734375-110.144532 36.59375-40.578124 22.445312-79.769531 54.675781-116.691406 95.871094-5.875-60.035157 10.703125-122.0625 50.566406-172.53125 2.566407-3.25 2.011719-7.953126-1.238281-10.53125-3.25-2.566407-7.964843-2.011719-10.535156 1.238281-80.335937 101.710937-71.703125 247.632812 20.085937 339.417969 48.34375 48.347656 112.625 74.972656 180.992188 74.972656 68.371094 0 132.652344-26.625 180.996094-74.972656 48.347656-48.34375 74.972656-112.621094 74.972656-180.996094zm-50.152344-125.46875c-39.917968-5.421875-74.074218 5.328125-95.492187 15.148437 9.820312-21.421875 20.566406-55.574219 15.148437-95.492187 16.128906 9.875 31.207032 21.714844 44.917969 35.425781 13.710937 13.707031 25.550781 28.789063 35.425781 44.917969zm-275.269531-105.382813c22.242187-6.660156 45.582031-10.113281 69.453125-10.113281 38.34375 0 75.320312 8.898438 108.574219 25.710938 10.417969 47.816406-6.527344 89.054687-16.789063 108.324218-6.492187-12.636718-18.425781-32.699218-37.265625-53.375-24.3125-26.667968-64.523437-58.628906-123.972656-70.546875zm-167.679687 273.871094c38.078124-44.367187 78.640624-78.703125 120.617187-102.035156 34.085937-18.941407 69.183594-30.730469 104.320313-35.039063 31.25-3.835937 56.785156-.921875 72.699218 2.195313 12.058594 2.363281 20.574219 5.199219 24.65625 6.707031 3.65625 9.871094 15.035156 45.746094 9.011719 96.421875-4.191406 35.242187-15.910156 70.453125-34.828125 104.65625-23.339844 42.195313-57.789062 82.960937-102.375 121.222656-47.984375-8.601562-92.160156-31.554687-127.355469-66.753906-35.882812-35.882813-58.253906-80.550781-66.746093-127.375zm237.132812 197.949219c-7.855469 0-15.65625-.378906-23.375-1.117188 41.179688-36.914062 73.402344-76.101562 95.84375-116.667968 19.863281-35.910157 32.175781-72.96875 36.59375-110.144532 4.769531-40.105468-.632812-71.441406-5.484375-89.589844 19.789063 10.695313 54.824219 33.6875 81.332031 73.253907 2.300782 3.441406 6.964844 4.363281 10.40625 2.058593 3.4375-2.304687 4.359375-6.964843 2.054688-10.402343-30.15625-45.015625-69.957032-69.671875-90.417969-80.152344 19.28125-10.265625 60.507813-27.1875 108.304687-16.773437 16.8125 33.25 25.710938 70.226562 25.710938 108.570312 0 23.871094-3.457031 47.210938-10.117188 69.453125-3.589843-17.996094-9.171874-35.195313-16.722656-51.386719-1.753906-3.753906-6.210937-5.378906-9.964844-3.628906-3.753906 1.75-5.378906 6.210938-3.628906 9.964844 10.667969 22.878906 17.152344 47.957031 19.304688 74.554687-11.839844 26.269531-28.464844 50.449219-49.449219 71.433594-45.511719 45.511719-106.023437 70.574219-170.390625 70.574219zm0 0"/></svg>