<svg viewBox="-40 1 511 511.99886" xmlns="http://www.w3.org/2000/svg"><path d="m123.582031 211.847656 95.652344 95.652344-50.726563 50.726562c-12.253906 12.253907-32.121093 12.253907-44.375 0l-51.277343-51.277343c-12.253907-12.253907-12.253907-32.121094 0-44.375zm0 0" fill="#ff8fb4"/><path d="m88.226562 322.320312 35.90625 35.90625c12.253907 12.253907 32.121094 12.253907 44.375 0l50.730469-50.726562-35.910156-35.910156-50.726563 50.730468c-12.253906 12.253907-32.121093 12.253907-44.375 0zm0 0" fill="#ff76a7"/><path d="m307.371094 20.863281 102.847656 102.847657c17.851562 17.851562 17.851562 46.796874 0 64.648437l-148.25 148.25c-17.851562 17.851563-46.796875 17.851563-64.648438 0l-102.847656-102.847656c-17.851562-17.851563-17.851562-46.792969 0-64.644531l148.253906-148.253907c17.851563-17.851562 46.792969-17.851562 64.644532 0zm0 0" fill="#ffc2e1"/><path d="m178.523438 232.121094c-43.371094-8.53125-84.050782 1.640625-84.050782 1.640625l102.847656 102.847656c17.851563 17.851563 46.792969 17.851563 64.644532 0l148.253906-148.25c17.851562-17.851563 17.851562-46.796875 0-64.648437l-65.019531-65.015626c-3.199219 58.011719-81.515625 190.179688-166.675781 173.425782zm0 0" fill="#ffabcd"/><path d="m247.964844 183.121094c19.828125 19.828125 51.984375 19.828125 71.8125 0 19.832031-19.832032 19.832031-51.984375 0-71.816406-19.828125-19.832032-51.980469-19.832032-71.8125 0-19.832032 19.832031-19.832032 51.984374 0 71.816406zm50.441406-50.441406c8.027344 8.027343 8.027344 21.039062 0 29.066406s-21.042969 8.027344-29.070312 0c-8.027344-8.027344-8.027344-21.039063 0-29.066406 8.027343-8.027344 21.042968-8.027344 29.070312 0zm0 0" fill="#a0f0f2"/><path d="m174.535156 208.519531c-13.261718 13.261719-13.261718 34.765625 0 48.027344 13.261719 13.261719 34.765625 13.261719 48.027344 0 19.976562-19.976563 18.636719-51.886719 46.289062-46.285156l-48.03125-48.027344c5.601563 27.648437-26.308593 26.308594-46.285156 46.285156zm0 0" fill="#ffeb99"/><path d="m226.835938 131.671875 72.574218 72.578125c7.925782 7.921875 7.925782 20.890625 0 28.816406-7.925781 7.925782-20.890625 7.925782-28.816406 0l-72.578125-72.574218c-7.921875-7.925782-7.921875-20.894532 0-28.820313 7.925781-7.921875 20.894531-7.921875 28.820313 0zm0 0" fill="#bdfaff"/><g fill="#ccf8ff"><path d="m53.6875 378.851562c0 12.613282-10.226562 22.84375-22.84375 22.84375s-22.84375-10.230468-22.84375-22.84375c0-12.617187 10.226562-22.847656 22.84375-22.847656s22.84375 10.230469 22.84375 22.847656zm0 0"/><path d="m143.171875 424.539062c0 12.617188-10.230469 22.84375-22.847656 22.84375-12.613281 0-22.84375-10.226562-22.84375-22.84375 0-12.617187 10.230469-22.84375 22.84375-22.84375 12.617187 0 22.847656 10.226563 22.847656 22.84375zm0 0"/><path d="m62.257812 481.65625c0 12.613281-10.230468 22.84375-22.84375 22.84375-12.617187 0-22.847656-10.230469-22.847656-22.84375 0-12.617188 10.230469-22.847656 22.847656-22.847656 12.613282 0 22.84375 10.230468 22.84375 22.847656zm0 0"/></g><path d="m89.171875 239.0625 93.945313 93.949219-19.914063 19.910156c-9.308594 9.3125-24.457031 9.3125-33.765625 0l-51.28125-51.277344c-9.308594-9.308593-9.308594-24.457031 0-33.765625 0 0 10.179688-8.550781 4.0625-14.671875-6.117188-6.117187-14.667969 4.0625-14.667969 4.0625-15.160156 15.160157-15.160156 39.824219 0 54.980469l51.277344 51.28125c15.160156 15.15625 39.824219 15.15625 54.984375 0l19.953125-19.957031c20.855469 19.0625 53.332031 18.511719 73.503906-1.664063l148.253907-148.25c20.746093-20.746094 20.746093-54.503906 0-75.253906l-102.847657-102.84375c-20.75-20.75-54.507812-20.75-75.253906 0l-148.253906 148.25c-20.746094 20.746094-20.746094 54.503906.003906 75.25zm158.855469-212.894531c14.898437-14.898438 39.140625-14.898438 54.039062 0l102.847656 102.847656c14.898438 14.898437 14.898438 39.140625 0 54.039063l-148.25 148.25c-14.898437 14.898437-39.140624 14.898437-54.039062 0l-102.847656-102.847657c-14.898438-14.898437-14.898438-39.140625 0-54.039062zm0 0"/><path d="m192.714844 165.792969 13.996094 13.996093c-3.136719 2.121094-7.089844 4.109376-11.410157 6.28125-8.414062 4.234376-17.953125 9.03125-26.066406 17.144532-16.167969 16.167968-16.167969 42.46875 0 58.636718 16.164063 16.164063 42.46875 16.164063 58.632813 0 4.308593-4.308593 8.058593-9.363281 11.800781-15.914062 2.054687-3.597656.808593-8.179688-2.792969-10.234375-3.59375-2.054687-8.175781-.804687-10.230469 2.789063-3.066406 5.363281-6.046875 9.414062-9.382812 12.75-10.320313 10.320312-27.105469 10.316406-37.421875 0-10.316406-10.316407-10.316406-27.101563 0-37.417969 6.40625-6.40625 14.4375-10.445313 22.199218-14.351563 5.570313-2.800781 10.921876-5.492187 15.410157-8.941406l47.839843 47.839844c10.871094 10.867187 28.554688 10.867187 39.425782 0 10.226562-10.230469 10.828125-26.496094 1.800781-37.4375 6.886719-2.898438 13.171875-7.117188 18.566406-12.511719 22.726563-22.722656 22.726563-59.695313 0-82.421875-22.722656-22.722656-59.699219-22.722656-82.421875 0-5.382812 5.382812-9.597656 11.679688-12.5 18.574219-10.941406-9.03125-27.214844-8.4375-37.445312 1.796875-10.871094 10.867187-10.871094 28.554687 0 39.421875zm121.761718-49.183594c16.875 16.875 16.875 44.332031 0 61.207031-5.488281 5.488282-12.21875 9.335938-19.628906 11.265625l-13.992187-13.996093c8.152343.875 16.617187-1.800782 22.855469-8.035157 10.9375-10.9375 10.9375-28.738281 0-39.675781-10.941407-10.9375-28.738282-10.9375-39.675782 0-6.238281 6.238281-8.910156 14.703125-8.035156 22.855469l-13.996094-13.992188c1.933594-7.414062 5.792969-14.15625 11.265625-19.628906 16.871094-16.875 44.328125-16.875 61.207031 0zm-39.835937 21.371094c5.089844-5.089844 13.371094-5.089844 18.460937 0 5.089844 5.089843 5.089844 13.371093 0 18.460937-5.089843 5.089844-13.371093 5.089844-18.460937 0s-5.089844-13.371094 0-18.460937zm-53.109375-1.003907 72.574219 72.574219c5.019531 5.023438 5.019531 13.191407 0 18.210938s-13.1875 5.019531-18.210938 0l-72.574219-72.578125c-5.019531-5.019532-5.019531-13.1875 0-18.207032 5.019532-5.019531 13.1875-5.019531 18.210938 0zm0 0"/><path d="m52.300781 357.394531c-5.730469-5.734375-13.351562-8.890625-21.457031-8.890625-16.730469 0-30.34375 13.613282-30.34375 30.347656 0 16.730469 13.613281 30.34375 30.34375 30.34375 16.734375 0 30.34375-13.613281 30.34375-30.34375.003906-8.105468-3.15625-15.726562-8.886719-21.457031zm-21.453125 36.796875c-4.101562 0-7.953125-1.59375-10.851562-4.492187-2.898438-2.898438-4.496094-6.75-4.496094-10.851563 0-4.097656 1.597656-7.949218 4.496094-10.847656 2.898437-2.898438 6.75-4.496094 10.847656-4.496094 4.101562 0 7.953125 1.597656 10.851562 4.496094 2.898438 2.898438 4.496094 6.75 4.496094 10.851562 0 4.097657-1.597656 7.949219-4.496094 10.847657-2.898437 2.898437-6.75 4.496093-10.847656 4.492187zm0 0"/><path d="m141.773438 403.089844c-5.496094-5.492188-13.082032-8.894532-21.449219-8.894532-16.730469 0-30.34375 13.613282-30.34375 30.34375.003906 16.730469 13.613281 30.34375 30.34375 30.34375 16.734375 0 30.347656-13.609374 30.347656-30.34375 0-8.367187-3.402344-15.953124-8.898437-21.449218zm-21.445313 36.792968c-4.101563 0-7.953125-1.597656-10.851563-4.496093-2.898437-2.898438-4.496093-6.75-4.496093-10.847657 0-4.097656 1.597656-7.953124 4.496093-10.851562 2.898438-2.894531 6.75-4.492188 10.847657-4.492188 4.101562 0 7.953125 1.597657 10.851562 4.492188 2.898438 2.898438 4.492188 6.753906 4.492188 10.851562 0 4.097657-1.59375 7.953126-4.492188 10.851563-2.898437 2.894531-6.75 4.492187-10.847656 4.492187zm0 0"/><path d="m60.871094 460.199219c-5.734375-5.734375-13.351563-8.890625-21.457032-8.890625-16.734374 0-30.347656 13.613281-30.347656 30.347656.003906 16.730469 13.613282 30.339844 30.347656 30.34375 16.730469 0 30.34375-13.613281 30.34375-30.347656 0-8.101563-3.15625-15.722656-8.886718-21.453125zm-21.457032 36.800781c-4.101562 0-7.953124-1.597656-10.851562-4.496094-2.898438-2.898437-4.496094-6.75-4.496094-10.847656 0-4.101562 1.597656-7.953125 4.496094-10.851562 2.894531-2.898438 6.75-4.492188 10.847656-4.492188 4.101563 0 7.953125 1.59375 10.851563 4.492188 2.898437 2.898437 4.492187 6.75 4.492187 10.851562 0 4.097656-1.59375 7.953125-4.492187 10.847656-2.898438 2.898438-6.75 4.496094-10.847657 4.496094zm0 0"/></svg>