<svg viewBox="-25 0 511 511.99869" xmlns="http://www.w3.org/2000/svg"><path d="m341.601562 14.773438c-14.960937-10.625-34.460937-9.304688-47.761718 1.542968-3.667969 2.992188-9.007813 2.980469-12.675782-.007812-13.234374-10.78125-32.617187-12.160156-47.578124-1.664063-15.9375 11.179688-21.3125 32.769531-12.433594 50.09375 7.773437 15.167969 23.632812 22.921875 39.1875 21.3125 4.523437-.464843 8.441406 3.136719 8.441406 7.6875v31.566407h37.441406v-31.566407c0-4.550781 3.921875-8.148437 8.449219-7.683593 15.460937 1.589843 31.246094-6.058594 39.070313-21.105469 8.984374-17.277344 3.734374-38.898438-12.140626-50.175781zm-85.332031 46.128906c-7.753906 0-14.039062-6.285156-14.039062-14.039063 0-7.753906 6.285156-14.042969 14.039062-14.042969 7.753907 0 14.042969 6.289063 14.042969 14.042969 0 7.753907-6.285156 14.039063-14.042969 14.039063zm62.464844 0c-7.757813 0-14.042969-6.285156-14.042969-14.039063 0-7.753906 6.285156-14.042969 14.042969-14.042969 7.753906 0 14.039063 6.289063 14.039063 14.042969 0 7.753907-6.285157 14.039063-14.039063 14.039063zm0 0" fill="#eaeaea"/><path d="m268.78125 93.738281h37.441406v31.566407h-37.441406zm0 0" fill="#d8d7da"/><path d="m428.074219 330.859375h-281.144531v-165.078125c0-29.859375 24.210937-54.070312 54.070312-54.070312h173c29.863281 0 54.074219 24.210937 54.074219 54.070312zm0 0" fill="#ffde55"/><path d="m374.003906 111.710938h-102.84375l-.199218 219.148437h157.113281v-165.078125c0-29.859375-24.210938-54.070312-54.070313-54.070312zm0 0" fill="#ffcd00"/><path d="m270.960938 273.890625h-84.40625v-100.246094c0-11.734375 9.507812-21.242187 21.242187-21.242187h41.921875c11.730469 0 21.242188 9.507812 21.242188 21.242187zm0 0" fill="#ccf8ff"/><path d="m388.046875 273.890625h-84.40625v-100.246094c0-11.734375 9.511719-21.242187 21.242187-21.242187h41.925782c11.730468 0 21.238281 9.507812 21.238281 21.242187zm0 0" fill="#ccf8ff"/><path d="m428.074219 434.027344h-393.601563v-132.800782c0-35.710937 28.945313-64.65625 64.652344-64.65625h328.949219zm0 0" fill="#ffeb99"/><path d="m75.097656 329.628906c11.964844 0 21.753906-9.789062 21.753906-21.757812 0-11.964844-9.789062-21.753906-21.753906-21.753906h-38.832031c-1.160156 4.847656-1.792969 9.902343-1.792969 15.109374v28.402344zm0 0" fill="#ffc2e1"/><path d="m271.160156 236.570312h156.914063v197.457032h-156.914063zm0 0" fill="#ffde55"/><path d="m417.933594 444.195312h-373.320313c-20.136719 0-36.613281-16.476562-36.613281-36.613281s16.476562-36.613281 36.613281-36.613281h373.320313c20.136718 0 36.613281 16.476562 36.613281 36.613281s-16.476563 36.613281-36.613281 36.613281zm0 0" fill="#ffc2e1"/><path d="m96.851562 407.582031c0-20.136719 16.476563-36.613281 36.613282-36.613281h-88.851563c-20.136719 0-36.613281 16.476562-36.613281 36.613281s16.476562 36.613281 36.613281 36.613281h88.851563c-20.136719 0-36.613282-16.476562-36.613282-36.613281zm0 0" fill="#ffabcd"/><path d="m164.648438 450.859375c0 29.625-24.015626 53.636719-53.640626 53.636719-29.621093 0-53.636718-24.011719-53.636718-53.636719s24.015625-53.636719 53.636718-53.636719c29.625 0 53.640626 24.011719 53.640626 53.636719zm0 0" fill="#c6c5ca"/><path d="m405.175781 450.859375c0 29.625-24.015625 53.636719-53.636719 53.636719-29.625 0-53.640624-24.011719-53.640624-53.636719s24.015624-53.636719 53.640624-53.636719c29.621094 0 53.636719 24.011719 53.636719 53.636719zm0 0" fill="#c6c5ca"/><path d="m126.011719 450.859375c0 8.285156-6.71875 15-15.003907 15-8.285156 0-15-6.714844-15-15s6.714844-15 15-15c8.285157 0 15.003907 6.714844 15.003907 15zm0 0" fill="#acabb1"/><path d="m366.539062 450.859375c0 8.285156-6.714843 15-15 15-8.285156 0-15.003906-6.714844-15.003906-15s6.71875-15 15.003906-15c8.285157 0 15 6.714844 15 15zm0 0" fill="#acabb1"/><path d="m435.574219 367.160156v-201.378906c0-33.949219-27.621094-61.570312-61.570313-61.570312h-60.28125v-10.472657c0-.035156 0-.109375.082032-.183593.050781-.042969.070312-.042969.097656-.039063 11.601562 1.191406 23.15625-1.933594 32.546875-8.804687 3.34375-2.445313 4.070312-7.140626 1.621093-10.480469-2.441406-3.34375-7.140624-4.070313-10.480468-1.625-6.390625 4.675781-14.265625 6.804687-22.148438 5.988281-4.238281-.433594-8.503906.957031-11.6875 3.824219-3.195312 2.886719-5.03125 7.011719-5.03125 11.320312v10.472657h-22.441406v-10.472657c0-4.3125-1.835938-8.441406-5.039062-11.328125-3.175782-2.863281-7.421876-4.265625-11.671876-3.820312-13.199218 1.355468-25.664062-5.414063-31.742187-17.269532-7.191406-14.039062-2.863281-31.464843 10.066406-40.535156 11.671875-8.1875 27.511719-7.640625 38.53125 1.339844 6.421875 5.234375 15.738281 5.234375 22.152344.007812 11.082031-9.035156 26.984375-9.546874 38.679687-1.242187 9.5625 6.792969 14.585938 18.3125 13.109376 30.066406-.515626 4.113281 2.398437 7.863281 6.507812 8.378907 4.105469.519531 7.863281-2.398438 8.378906-6.507813 2.164063-17.246094-5.234375-34.167969-19.308594-44.167969-17.179687-12.199218-40.550781-11.441406-56.847656 1.84375-.90625.742188-2.28125.738282-3.199218-.007812-16.195313-13.199219-39.480469-14.019532-56.621094-1.992188-19.023438 13.351563-25.386719 38.996094-14.800782 59.65625 8.921876 17.402344 27.222657 27.359375 46.71875 25.390625.082032.074219.082032.152344.082032.1875v10.472657h-60.277344c-33.949219 0-61.570312 27.621093-61.570312 61.574218v63.285156h-40.304688c-39.785156 0-72.152344 32.367188-72.152344 72.15625v65.933594c-15.566406 6.820313-26.472656 22.367188-26.472656 40.421875 0 46.769531 49.390625 44.113281 49.390625 44.113281.449219 33.328126 27.6875 60.304688 61.117187 60.304688 33.433594 0 60.667969-26.976562 61.121094-60.304688h73.203125c4.144531 0 7.5-3.355468 7.5-7.5 0-4.144531-3.355469-7.5-7.5-7.5h-74.855469c-6.410156-26.902343-30.632812-46.976562-59.464843-46.976562-28.835938 0-53.058594 20.074219-59.464844 46.976562 0 0-36.046875 3.703126-36.046875-29.113281 0-16.050781 13.0625-29.113281 29.113281-29.113281h373.320313c16.054687 0 29.113281 13.0625 29.113281 29.113281 0 31.28125-36.042969 29.113281-36.042969 29.113281-6.410156-26.902343-30.632812-46.976562-59.464844-46.976562-28.835937 0-53.058593 20.074219-59.464843 46.976562h-15.5c-4.144531 0-7.5 3.355469-7.5 7.5 0 4.144532 3.355469 7.5 7.5 7.5h13.84375c.453125 33.328126 27.6875 60.304688 61.117187 60.304688 33.433594 0 60.667969-26.976562 61.121094-60.304688 0 0 49.390625.773438 49.390625-44.113281 0-18.054687-10.90625-33.601562-26.472656-40.421875zm-324.566407 37.558594c25.441407 0 46.140626 20.699219 46.140626 46.140625s-20.699219 46.136719-46.140626 46.136719c-25.441406 0-46.136718-20.695313-46.136718-46.136719s20.699218-46.140625 46.136718-46.140625zm309.566407-238.9375v63.289062h-25.023438v-55.429687c0-15.847656-12.894531-28.742187-28.742187-28.742187h-41.925782c-15.847656 0-28.738281 12.894531-28.738281 28.742187v55.429687h-17.480469v-109.859374h95.339844c25.679688 0 46.570313 20.894531 46.570313 46.570312zm-40.027344 63.289062h-69.402344v-55.425781c0-7.578125 6.164063-13.742187 13.738281-13.742187h41.925782c7.574218 0 13.738281 6.164062 13.738281 13.742187zm-226.117187-63.289062c0-25.679688 20.894531-46.570312 46.570312-46.570312h62.660156v29.308593c-4.132812-2.300781-8.886718-3.621093-13.941406-3.621093h-41.925781c-15.847657 0-28.742188 12.894531-28.742188 28.742187v28.351563c0 4.144531 3.359375 7.5 7.503907 7.5 4.140624 0 7.5-3.355469 7.5-7.5v-28.351563c0-7.574219 6.164062-13.738281 13.738281-13.738281h41.925781c13.832031 0 13.941406 15.4375 13.941406 15.4375v53.730468h-109.230468zm-111.9375 127.835938h32.605468c7.859375 0 14.253906 6.394531 14.253906 14.253906 0 7.863281-6.394531 14.257812-14.253906 14.257812h-33.125s.1875-26.019531.519532-28.511718zm-.519532 69.9375v-26.425782h33.125c16.132813 0 29.257813-13.125 29.257813-29.257812 0-16.132813-13.125-29.257813-29.257813-29.257813h-28.453125c8.78125-20.296875 28.996094-34.542969 52.480469-34.542969h164.535156v119.398438s-220.8125.03125-221.6875.085938zm236.6875-.085938v-119.398438h141.914063v119.484376c-.875-.050782-1.753907-.085938-2.640625-.085938zm72.878906 133.527344c-25.441406 0-46.140624-20.695313-46.140624-46.136719s20.699218-46.140625 46.140624-46.140625c25.441407 0 46.136719 20.699219 46.136719 46.140625s-20.699219 46.136719-46.136719 46.136719zm0 0"/><path d="m111.007812 473.363281c12.40625 0 22.503907-10.097656 22.503907-22.503906s-10.097657-22.5-22.503907-22.5-22.5 10.09375-22.5 22.5 10.09375 22.503906 22.5 22.503906zm0-30.003906c4.136719 0 7.5 3.363281 7.5 7.5s-3.363281 7.5-7.5 7.5c-4.136718 0-7.5-3.363281-7.5-7.5s3.363282-7.5 7.5-7.5zm0 0"/><path d="m351.539062 428.359375c-12.410156 0-22.503906 10.09375-22.503906 22.5s10.09375 22.503906 22.503906 22.503906c12.40625 0 22.5-10.097656 22.5-22.503906s-10.09375-22.5-22.5-22.5zm0 30c-4.136718 0-7.503906-3.363281-7.503906-7.5s3.367188-7.5 7.503906-7.5c4.136719 0 7.5 3.363281 7.5 7.5s-3.363281 7.5-7.5 7.5zm0 0"/><path d="m256.269531 25.320312c-11.878906 0-21.542969 9.664063-21.542969 21.542969 0 11.878907 9.664063 21.542969 21.542969 21.542969 11.878907 0 21.542969-9.664062 21.542969-21.542969 0-11.878906-9.664062-21.542969-21.542969-21.542969zm0 28.082032c-3.605469 0-6.539062-2.933594-6.539062-6.539063 0-3.609375 2.933593-6.542969 6.539062-6.542969 3.609375 0 6.542969 2.933594 6.542969 6.542969 0 3.605469-2.933594 6.539063-6.542969 6.539063zm0 0"/><path d="m318.734375 25.320312c-11.878906 0-21.542969 9.664063-21.542969 21.542969 0 11.878907 9.664063 21.542969 21.542969 21.542969s21.542969-9.664062 21.542969-21.542969c0-11.878906-9.664063-21.542969-21.542969-21.542969zm0 28.082032c-3.609375 0-6.542969-2.933594-6.542969-6.539063 0-3.609375 2.933594-6.542969 6.542969-6.542969 3.605469 0 6.539063 2.933594 6.539063 6.542969 0 3.605469-2.933594 6.539063-6.539063 6.539063zm0 0"/></svg>