<svg viewBox="0 -66 511.99879 511" xmlns="http://www.w3.org/2000/svg"><path d="m478.898438 26.507812-110.296876-18.078124c-12.652343-2.074219-25.339843 3.320312-32.667968 13.839843-12.800782 18.375-38.347656 44.589844-79.933594 44.589844s-67.132812-26.214844-79.933594-44.589844c-7.328125-10.519531-20.015625-15.914062-32.667968-13.839843l-110.296876 18.078124c-17.003906 2.789063-28.328124 19.085938-25.019531 35.992188l14.214844 72.558594c2.996094 15.296875 17.03125 25.878906 32.5625 24.550781l45.09375-3.867187c11.117187-.953126 20.253906 8.640624 18.761719 19.699218l-19.5625 144.941406c-3.75 27.800782 17.867187 52.53125 45.917968 52.53125h221.859376c28.050781 0 49.671874-24.730468 45.917968-52.53125l-19.5625-144.945312c-1.492187-11.054688 7.644532-20.648438 18.761719-19.695312l45.09375 3.863281c15.527344 1.332031 29.566406-9.25 32.5625-24.546875l14.214844-72.558594c3.308593-16.90625-8.015625-33.203125-25.019531-35.992188zm0 0" fill="#ccf8ff"/><path d="m266.855469 150.820312 11.335937 22.972657c2.476563 5.019531 7.261719 8.496093 12.796875 9.300781l25.351563 3.683594c9.929687 1.441406 13.894531 13.640625 6.707031 20.644531l-18.34375 17.882813c-4.003906 3.902343-5.832031 9.53125-4.886719 15.042968l4.328125 25.25c1.699219 9.886719-8.679687 17.429688-17.558593 12.761719l-22.675782-11.921875c-4.953125-2.601562-10.867187-2.601562-15.820312 0l-22.675782 11.921875c-8.878906 4.667969-19.257812-2.875-17.5625-12.761719l4.332032-25.25c.945312-5.511718-.882813-11.140625-4.886719-15.042968l-18.347656-17.882813c-7.183594-7.003906-3.21875-19.203125 6.710937-20.644531l25.351563-3.683594c5.535156-.804688 10.320312-4.28125 12.796875-9.300781l11.335937-22.972657c4.441407-8.996093 17.269531-8.996093 21.710938 0zm0 0" fill="#ffc2e1"/><path d="m145.191406 315.503906s11.828125-90.609375 20.457032-154.542968c4.148437-30.734376 27.507812-55.070313 57.890624-61.28125 42.96875-8.789063 67.054688-39.546876 67.054688-39.546876-10.011719 4.132813-21.507812 6.726563-34.59375 6.726563-41.585938 0-67.136719-26.214844-79.933594-44.585937-7.328125-10.519532-20.019531-15.917969-32.667968-13.84375l-110.296876 18.082031c-17.003906 2.785156-28.328124 19.082031-25.019531 35.988281l14.214844 72.558594c2.996094 15.296875 17.03125 25.878906 32.5625 24.550781l45.09375-3.867187c11.117187-.953126 20.253906 8.640624 18.761719 19.699218l-19.5625 144.941406c-3.75 27.800782 17.867187 52.53125 45.917968 52.53125h11.21875c-16.605468-24.792968-11.097656-57.410156-11.097656-57.410156zm0 0" fill="#9ff6ff"/><path d="m366.925781 380.414062h-221.855469c-15.535156 0-30.308593-6.707031-40.53125-18.402343-10.226562-11.699219-14.898437-27.238281-12.820312-42.632813l19.5625-144.941406c1.632812-11.125-7.664062-11.476562-10.6875-11.222656l-45.09375 3.863281c-19.390625 1.660156-36.824219-11.484375-40.566406-30.578125l-14.210938-72.558594c-1.996094-10.183594.167969-20.488281 6.09375-29.011718 5.925782-8.523438 14.828125-14.144532 25.070313-15.820313l110.296875-18.082031c15.390625-2.519532 31.105468 4.136718 40.039062 16.957031 13.148438 18.875 36.621094 41.375 73.777344 41.375 37.160156 0 60.632812-22.5 73.78125-41.375 8.929688-12.820313 24.644531-19.476563 40.035156-16.957031l63.074219 10.339844c4.085937.671874 6.859375 4.527343 6.1875 8.613281-.667969 4.085937-4.523437 6.855469-8.613281 6.1875l-63.078125-10.339844c-9.722657-1.59375-19.652344 2.621094-25.300781 10.730469-12.433594 17.851562-40.15625 47.800781-86.085938 47.800781-45.933594 0-73.652344-29.949219-86.085938-47.800781-5.648437-8.113282-15.582031-12.320313-25.300781-10.730469l-110.296875 18.082031c-6.203125 1.015625-11.597656 4.421875-15.183594 9.582032-3.589843 5.160156-4.898437 11.398437-3.6875 17.566406l14.210938 72.558594c2.265625 11.5625 12.828125 19.53125 24.5625 18.519531l45.09375-3.867188c7.582031-.644531 14.9375 2.136719 20.183594 7.644531 5.246094 5.507813 7.667968 12.988282 6.652344 20.527344l-19.5625 144.945313c-1.5 11.105469 1.871093 22.3125 9.246093 30.75 7.375 8.441406 18.03125 13.277343 29.238281 13.277343h221.855469c11.210938 0 21.867188-4.839843 29.242188-13.277343s10.746093-19.644531 9.246093-30.75l-19.5625-144.945313c-1.019531-7.535156 1.410157-15.019531 6.652344-20.527344 5.246094-5.507812 12.597656-8.292968 20.179688-7.644531l45.097656 3.867188c11.726562 1.003906 22.296875-6.957031 24.5625-18.515625l14.210938-72.558594c1.210937-6.171875-.101563-12.410156-3.6875-17.570312-3.585938-5.160157-8.980469-8.566407-15.183594-9.582032l-18.0625-2.960937c-4.089844-.667969-6.859375-4.527344-6.1875-8.613281.667968-4.085938 4.53125-6.859376 8.613281-6.1875l18.0625 2.960937c10.246094 1.679687 19.148437 7.300781 25.074219 15.824219 5.921875 8.523437 8.085937 18.824218 6.089844 29.011718l-14.210938 72.558594c-3.527344 18.003906-19.234375 30.71875-37.265625 30.71875-1.09375 0-48.394531-4.007812-48.394531-4.007812-3.019532-.257813-11.730469.609375-10.6875 11.222656l19.5625 144.945312c2.078125 15.394532-2.59375 30.933594-12.816406 42.628907-10.222657 11.695312-24.996094 18.402343-40.535157 18.402343zm0 0"/><path d="m211.722656 285.519531c-5.515625-2.503906-9.640625-7.476562-11.023437-13.292969-.960938-4.027343 1.523437-8.074218 5.554687-9.035156 4.027344-.953125 8.074219 1.53125 9.035156 5.558594.320313 1.34375 1.308594 2.507812 2.640626 3.113281.910156.414063 2.34375.726563 3.996093-.144531l22.675781-11.921875c7.136719-3.753906 15.660157-3.753906 22.800782 0l22.675781 11.921875c2.285156 1.199219 4.152344.15625 4.847656-.351562.695313-.507813 2.269531-1.957032 1.832031-4.503907l-4.332031-25.25c-1.363281-7.945312 1.269531-16.054687 7.042969-21.683593l18.347656-17.878907c1.847656-1.804687 1.429688-3.902343 1.164063-4.71875-.265625-.820312-1.160157-2.761719-3.714844-3.136719l-25.355469-3.683593c-7.980468-1.160157-14.875-6.171875-18.445312-13.402344l-11.335938-22.96875c-1.144531-2.316406-3.269531-2.566406-4.128906-2.566406s-2.984375.25-4.128906 2.566406l-11.335938 22.96875c-3.570312 7.230469-10.464844 12.242187-18.445312 13.402344l-25.351563 3.683593c-2.554687.375-3.449219 2.316407-3.714843 3.136719-.265626.816407-.6875 2.914063 1.164062 4.71875l18.34375 17.878907c5.773438 5.628906 8.410156 13.738281 7.046875 21.683593-.699219 4.082031-4.578125 6.835938-8.660156 6.125-4.082031-.699219-6.824219-4.578125-6.125-8.660156.53125-3.078125-.492188-6.222656-2.730469-8.40625l-18.34375-17.878906c-5.382812-5.246094-7.285156-12.949219-4.960938-20.097657 2.320313-7.148437 8.386719-12.261718 15.824219-13.339843l25.351563-3.683594c3.09375-.453125 5.765625-2.394531 7.152344-5.199219l11.335937-22.972656c3.328125-6.738281 10.0625-10.925781 17.578125-10.925781 7.519531 0 14.253906 4.1875 17.582031 10.925781l11.335938 22.972656c1.386719 2.804688 4.058593 4.746094 7.152343 5.199219l25.351563 3.683594c7.4375 1.078125 13.5 6.191406 15.824219 13.339843 2.324218 7.148438.421875 14.851563-4.957032 20.09375l-18.347656 17.882813c-2.238281 2.183594-3.257812 5.328125-2.730468 8.40625l4.332031 25.25c1.269531 7.410156-1.71875 14.753906-7.796875 19.171875-6.082032 4.417969-13.996094 4.992188-20.648438 1.496094l-22.675781-11.921875c-2.765625-1.457031-6.070313-1.457031-8.835937 0l-22.675782 11.921875c-7.675781 3.742187-14.613281 1.695312-17.1875.523437zm0 0"/></svg>