<svg viewBox="0 0 511 511.99894" xmlns="http://www.w3.org/2000/svg"><path d="m489.117188 154.695312c-4.835938-21.460937-7.089844-56.804687 12.4375-98.277343 5.609374-11.914063 4.441406-26.148438-3.839844-36.386719-9.957032-12.300781-26.839844-15.863281-40.835938-9.214844-41.648437 19.792969-77.171875 17.605469-98.765625 12.777344-15.265625-3.414062-31.207031 1.417969-42.269531 12.472656l-291.402344 291.320313c-21.921875 21.914062-21.921875 57.441406 0 79.355469l81.375 81.351562c21.917969 21.914062 57.453125 21.917969 79.371094.003906 75.164062-75.140625 235.773438-235.699218 291.683594-291.59375 10.945312-10.941406 15.648437-26.710937 12.246094-41.808594zm0 0" fill="#ffc477"/><path d="m379.765625 95.828125c63.253906-19.308594 93.375-63.21875 105.050781-85.574219-8.769531-3.765625-18.949218-3.707031-27.9375.566406-41.648437 19.789063-77.171875 17.605469-98.765625 12.773438-15.265625-3.414062-31.207031 1.417969-42.269531 12.476562l-291.402344 291.316407c-21.921875 21.914062-21.921875 57.441406 0 79.355469l44.316406 44.304687c139.273438-152.644531 232.882813-331.371094 311.007813-355.21875zm0 0" fill="#ffb864"/><path d="m227.121094 446.109375-160.753906-160.707031 219.527343-219.460938 160.753907 160.707032zm0 0" fill="#ffeb99"/><path d="m339.554688 119.585938-53.660157-53.644532-219.527343 219.460938 77.050781 77.03125c79.273437-100.550782 141.953125-197.636719 196.136719-242.847656zm0 0" fill="#ffde55"/><path d="m171.832031 340.699219c-23.863281-23.855469-23.863281-62.894531 0-86.753907l82.621094-82.597656c23.851563-23.839844 62.878906-23.839844 86.730469 0 23.863281 23.859375 23.863281 62.898438 0 86.753906l-82.625 82.597657c-23.847656 23.84375-62.875 23.84375-86.726563 0zm0 0" fill="#ffde55"/><path d="m254.453125 171.347656-82.621094 82.597656c-21.636719 21.632813-23.660156 55.742188-6.058593 79.703126 53.105468-69.339844 98.535156-134.742188 139.007812-179.789063-17.949219-2.023437-36.636719 3.804687-50.328125 17.488281zm0 0" fill="#ffcd00"/><path d="m311.664062 186.507812c-2.925781-2.929687-7.675781-2.929687-10.605468 0-2.929688 2.929688-2.929688 7.679688 0 10.609376l8.804687 8.800781c2.929688 2.929687 7.675781 2.929687 10.605469 0 2.929688-2.925781 2.929688-7.675781 0-10.605469zm0 0"/><path d="m197.597656 300.578125c-2.929687-2.929687-7.679687-2.929687-10.609375 0-2.929687 2.929687-2.929687 7.675781 0 10.605469l8.804688 8.804687c2.929687 2.929688 7.679687 2.929688 10.609375 0 2.929687-2.929687 2.929687-7.679687 0-10.605469zm0 0"/><path d="m275.28125 234.007812c-4.109375-.523437-7.863281 2.390626-8.382812 6.5-1.710938 13.542969-12.363282 24.199219-25.910157 25.910157-4.109375.515625-7.019531 4.269531-6.5 8.378906s4.273438 7.023437 8.382813 6.5c10.167968-1.285156 19.253906-5.925781 26.117187-12.789063 6.867188-6.863281 11.507813-15.949218 12.792969-26.121093.519531-4.109375-2.390625-7.863281-6.5-8.378907zm0 0"/><path d="m503.542969 15.3125c-12.035157-14.871094-32.550781-19.503906-49.882813-11.269531-11.644531 5.535156-23.570312 9.628906-35.453125 12.167969-4.050781.863281-6.632812 4.851562-5.765625 8.902343.863282 4.046875 4.847656 6.632813 8.902344 5.765625 13.019531-2.78125 26.058594-7.253906 38.753906-13.285156 11.050782-5.25 24.121094-2.308594 31.785156 7.15625 6.257813 7.734375 7.390626 18.90625 2.886719 28.472656-20.238281 42.984375-18.222656 79.804688-12.96875 103.125 2.835938 12.582032-.988281 25.613282-10.234375 34.851563l-24.90625 24.902343-150.125-150.125 24.613282-24.605468c9.398437-9.394532 22.601562-13.308594 35.328124-10.457032 9.671876 2.160157 19.746094 3.328126 29.945313 3.464844.03125.003906 7.457031.535156 7.597656-7.394531.074219-4.140625-3.253906-7.546875-7.398437-7.601563-9.164063-.125-18.207032-1.171874-26.871094-3.109374-17.761719-3.972657-36.15625 1.445312-49.207031 14.492187l-291.40625 291.316406c-12.019531 12.015625-18.636719 27.992188-18.636719 44.980469 0 16.992188 6.617188 32.96875 18.636719 44.984375l81.375 81.347656c12.40625 12.402344 28.703125 18.605469 44.996093 18.605469 16.289063 0 32.582032-6.199219 44.984376-18.597656l291.679687-291.597656c12.902344-12.898438 18.234375-31.125 14.261719-48.757813-4.734375-21.027344-6.515625-54.308594 11.90625-93.4375 6.941406-14.730469 5.058594-32.121094-4.796875-44.296875zm-323.65625 467.484375c-18.960938 18.949219-49.808594 18.949219-68.769531-.007813l-81.375-81.351562c-9.183594-9.183594-14.242188-21.390625-14.242188-34.375s5.058594-25.191406 14.242188-34.371094l36.65625-36.648437 133.925781 133.925781c4.5625 4.261719 9.144531 1.464844 10.609375 0 2.925781-2.929688 2.925781-7.675781 0-10.605469l-133.925782-133.925781 208.917969-208.855469 150.125 150.125zm0 0"/><path d="m346.484375 166.046875c-26.835937-26.828125-70.496094-26.828125-97.332031 0l-82.625 82.597656c-12.957032 12.953125-20.09375 30.242188-20.09375 48.679688s7.136718 35.726562 20.09375 48.679687h.003906c13.417969 13.414063 31.039062 20.121094 48.664062 20.121094s35.25-6.707031 48.667969-20.121094l82.621094-82.597656c12.957031-12.953125 20.097656-30.242188 20.097656-48.679688s-7.140625-35.726562-20.097656-48.679687zm-10.605469 86.75-82.621094 82.601563c-20.988281 20.980468-55.136718 20.976562-76.125 0h.003907c-10.125-10.125-15.703125-23.644532-15.703125-38.074219 0-14.429688 5.578125-27.949219 15.703125-38.070313l82.621093-82.601562c20.984376-20.976563 55.132813-20.976563 76.121094 0 10.125 10.125 15.699219 23.644531 15.699219 38.074218 0 14.429688-5.574219 27.949219-15.699219 38.070313zm0 0"/></svg>