<svg viewBox="0 -15 511.99996 511" xmlns="http://www.w3.org/2000/svg"><path d="m316.125 266.585938c7.316406-26.550782 21.738281-52.929688 37.644531-68.835938 34.441407-34.4375 90.476563-34.4375 124.917969 0 34.4375 34.4375 34.4375 90.476562-.003906 124.914062-15.902344 15.90625-42.28125 30.332032-68.835938 37.644532-34.835937 9.597656-63.710937 5.191406-81.3125-12.410156-17.597656-17.597657-22.003906-46.472657-12.410156-81.3125zm70.871094-35.609376c-10.015625 10.011719-20.53125 29.789063-25.570313 48.089844-5.234375 19-3.496093 31.78125.335938 35.609375 3.828125 3.832031 16.605469 5.570313 35.609375.335938 18.300781-5.042969 38.078125-15.558594 48.089844-25.570313 16.121093-16.121094 16.121093-42.347656 0-58.46875-16.117188-16.117187-42.347657-16.117187-58.464844.003906zm0 0" fill="#ffeb99"/><path d="m316.125 266.585938c7.316406-26.550782 21.738281-52.929688 37.644531-68.835938 26.546875-26.546875 65.925781-32.628906 98.351563-18.25-3.332032 13.59375-6.792969 30.332031-9.328125 49.027344-16.226563-13.628906-40.539063-12.8125-55.800781 2.445312-10.011719 10.015625-20.527344 29.789063-25.566407 48.09375-5.234375 19-3.496093 31.78125.332031 35.609375 3.832032 3.832031 16.609376 5.570313 35.609376.335938 15.011718-4.136719 31.007812-11.949219 41.804687-20.152344.566406 16.917969 2.414063 34.261719 6.035156 51.480469-11.09375 5.785156-23.207031 10.621094-35.359375 13.96875-34.835937 9.597656-63.714844 5.191406-81.3125-12.410156-17.597656-17.597657-22.003906-46.472657-12.410156-81.3125zm0 0" fill="#ffde55"/><path d="m183.476562 347.902344c-17.601562 17.597656-46.476562 22.003906-81.316406 12.410156-26.550781-7.316406-52.929687-21.742188-68.832031-37.644531-34.441406-34.441407-34.441406-90.476563-.003906-124.917969 34.441406-34.4375 90.476562-34.4375 124.917969 0 15.902343 15.90625 30.328124 42.285156 37.644531 68.835938 9.59375 34.839843 5.1875 63.714843-12.410157 81.316406zm-116.925781-116.925782c-16.121093 16.117188-16.121093 42.347657 0 58.464844 10.011719 10.015625 29.789063 20.53125 48.089844 25.570313 19.003906 5.234375 31.78125 3.496093 35.609375-.332031 3.832031-3.832032 5.570312-16.609376.335938-35.613282-5.039063-18.300781-15.554688-38.078125-25.570313-48.089844-16.117187-16.121093-42.347656-16.121093-58.464844 0zm0 0" fill="#ffde55"/><path d="m195.886719 266.585938c-7.316407-26.550782-21.738281-52.929688-37.644531-68.835938-26.546876-26.546875-65.925782-32.628906-98.355469-18.25 3.332031 13.597656 6.796875 30.332031 9.332031 49.027344 16.226562-13.628906 40.539062-12.8125 55.800781 2.449218 10.011719 10.011719 20.527344 29.789063 25.570313 48.089844 5.234375 19 3.492187 31.78125-.335938 35.609375-3.832031 3.832031-16.609375 5.570313-35.609375.335938-15.011719-4.136719-31.007812-11.949219-41.804687-20.152344-.566406 16.917969-2.414063 34.261719-6.035156 51.480469 11.09375 5.785156 23.207031 10.621094 35.359374 13.96875 34.835938 9.597656 63.714844 5.191406 81.3125-12.410156 17.597657-17.597657 22.003907-46.472657 12.410157-81.3125zm0 0" fill="#ffcd00"/><path d="m278.386719 8h-44.761719c-11.230469 0-21.152344 7.496094-24.042969 18.347656-8.757812 32.851563-31.867187 45.324219-50.261719 49.964844-15.023437 3.789062-25.382812 17.5625-25.382812 33.058594v53.515625h244.140625v-53.515625c0-15.496094-10.363281-29.265625-25.386719-33.058594-18.394531-4.640625-41.503906-17.113281-50.261718-49.964844-2.894532-10.851562-12.8125-18.347656-24.042969-18.347656zm0 0" fill="#92dd7a"/><path d="m240.5 89.394531c20.539062-26.753906 24.890625-61.105469 25.480469-81.394531h-32.355469c-11.230469 0-21.152344 7.496094-24.042969 18.347656-8.757812 32.855469-31.867187 45.324219-50.261719 49.964844-15.023437 3.792969-25.382812 17.5625-25.382812 33.058594v53.515625h88.832031c-.855469-24.105469 2.1875-53.242188 17.730469-73.492188zm0 0" fill="#7ec66a"/><path d="m361.015625 129.953125h-210.019531c-37.058594 0-62.878906 36.960937-49.910156 71.679687 10.03125 26.859376 17.992187 60.554688 17.992187 99.871094s-7.960937 73.015625-17.992187 99.875c-12.96875 34.71875 12.851562 71.679688 49.910156 71.679688h210.019531c37.058594 0 62.878906-36.960938 49.910156-71.679688-10.03125-26.859375-17.992187-60.558594-17.992187-99.875s7.960937-73.011718 17.992187-99.871094c12.96875-34.71875-12.851562-71.679687-49.910156-71.679687zm0 0" fill="#b1ef97"/><path d="m204.246094 401.378906c10.03125-26.859375 17.988281-60.554687 17.988281-99.871094 0-39.316406-7.957031-73.015624-17.988281-99.875-12.96875-34.71875 12.851562-71.679687 49.910156-71.679687h-103.160156c-37.058594 0-62.878906 36.960937-49.910156 71.679687 10.03125 26.859376 17.988281 60.558594 17.988281 99.875 0 39.316407-7.957031 73.011719-17.988281 99.871094-12.96875 34.71875 12.851562 71.683594 49.910156 71.683594h103.160156c-37.058594 0-62.878906-36.964844-49.910156-71.683594zm0 0" fill="#92dd7a"/><path d="m271.664062 230.425781 10.046876 20.359375c4.046874 8.203125 11.875 13.890625 20.929687 15.207032l22.46875 3.265624c14.320313 2.082032 20.039063 19.679688 9.675781 29.78125l-16.257812 15.847657c-6.550782 6.386719-9.542969 15.589843-7.996094 24.605469l3.839844 22.378906c2.445312 14.261718-12.523438 25.140625-25.332032 18.40625l-20.097656-10.566406c-8.097656-4.257813-17.773437-4.257813-25.871094 0l-20.097656 10.566406c-12.808594 6.734375-27.78125-4.144532-25.332031-18.40625l3.835937-22.378906c1.546876-9.015626-1.441406-18.21875-7.992187-24.605469l-16.257813-15.847657c-10.363281-10.101562-4.644531-27.699218 9.675782-29.78125l22.46875-3.265624c9.054687-1.316407 16.882812-7.003907 20.929687-15.207032l10.046875-20.359375c6.40625-12.976562 24.910156-12.976562 31.316406 0zm0 0" fill="#ffeb99"/><path d="m219.566406 262.382812c-3.082031 1.832032-6.546875 3.078126-10.195312 3.609376l-22.46875 3.265624c-14.320313 2.082032-20.039063 19.679688-9.675782 29.78125l16.257813 15.847657c6.550781 6.386719 9.539063 15.585937 7.992187 24.605469l-3.835937 22.378906c-1.667969 9.730468 4.78125 17.890625 13.113281 19.949218 6.757813-23.066406 11.480469-50.019531 11.480469-80.3125 0-13.753906-.96875-26.796874-2.667969-39.125zm0 0" fill="#ffde55"/><path d="m326.1875 261.835938-22.464844-3.265626c-6.613281-.960937-12.328125-5.113281-15.285156-11.105468l-10.046875-20.359375c-4.238281-8.582031-12.8125-13.910157-22.382813-13.910157-9.570312 0-18.148437 5.328126-22.382812 13.910157l-10.050781 20.359375c-2.957031 5.992187-8.667969 10.144531-15.28125 11.105468l-22.46875 3.265626c-9.472657 1.375-17.191407 7.882812-20.148438 16.988281-2.957031 9.101562-.539062 18.902343 6.3125 25.585937l16.257813 15.847656c4.785156 4.664063 6.96875 11.378907 5.839844 17.96875l-3.835938 22.375c-1.621094 9.433594 2.183594 18.789063 9.929688 24.414063 4.375 3.179687 16.480468 7.003906 26.285156 1.898437l20.09375-10.566406c5.914062-3.109375 12.980468-3.109375 18.894531 0l20.097656 10.566406c8.46875 4.453126 18.542969 3.726563 26.285157-1.898437 7.742187-5.625 11.546874-14.980469 9.929687-24.414063l-3.839844-22.375c-1.128906-6.589843 1.054688-13.304687 5.839844-17.96875l16.257813-15.847656c6.851562-6.683594 9.273437-16.484375 6.316406-25.585937-2.960938-9.105469-10.679688-15.613281-20.152344-16.988281zm3.363281 31.832031-16.257812 15.847656c-8.320313 8.113281-12.117188 19.792969-10.152344 31.246094l3.839844 22.375c.65625 3.820312-.828125 7.464843-3.960938 9.742187-3.140625 2.277344-7.058593 2.5625-10.488281.757813l-20.097656-10.566407c-10.285156-5.40625-22.566406-5.40625-32.855469 0l-20.09375 10.566407c-3.433594 1.804687-7.351563 1.519531-10.488281-.757813-3.136719-2.277344-4.617188-5.921875-3.964844-9.742187l3.839844-22.375c1.964844-11.453125-1.832032-23.132813-10.152344-31.246094l-16.257812-15.847656c-2.777344-2.707031-3.71875-6.523438-2.519532-10.210938 1.195313-3.6875 4.203125-6.21875 8.039063-6.777343l22.46875-3.265626c11.5-1.671874 21.433593-8.890624 26.578125-19.308593l10.046875-20.359375c1.714843-3.476563 5.054687-5.554688 8.933593-5.554688 3.875 0 7.214844 2.078125 8.929688 5.554688l10.046875 20.355468c5.144531 10.421876 15.078125 17.640626 26.582031 19.3125l22.464844 3.265626c3.835938.558593 6.84375 3.09375 8.039062 6.777343 1.199219 3.6875.257813 7.503907-2.519531 10.210938zm0 0"/><path d="m511.03125 246.453125c-2.964844-20.605469-12.316406-39.28125-27.042969-54.007813-17.449219-17.445312-40.480469-27.324218-65.105469-27.984374-1.820312-5.535157-4.457031-10.875-7.925781-15.871094-6.464843-9.316406-15.296875-16.488282-25.378906-20.945313v-18.273437c0-19.136719-12.769531-35.71875-31.054687-40.332032-23.441407-5.910156-38.53125-20.925781-44.847657-44.625-3.753906-14.078124-16.621093-23.914062-31.289062-23.914062h-44.761719c-14.671875 0-27.539062 9.835938-31.289062 23.914062-6.316407 23.699219-21.40625 38.714844-44.847657 44.625-15.703125 3.960938-27.652343 16.984376-30.445312 33.183594-.703125 4.082032 2.039062 7.960938 6.121093 8.664063 4.078126.714843 7.960938-2.035157 8.664063-6.117188 1.785156-10.355469 9.371094-18.671875 19.328125-21.183593 20.019531-5.050782 45.925781-18.742188 55.671875-55.308594 2.003906-7.523438 8.910156-12.777344 16.796875-12.777344h44.761719c7.882812 0 14.789062 5.253906 16.792969 12.777344 9.75 36.566406 35.65625 50.257812 55.675781 55.308594 11.609375 2.929687 19.71875 13.53125 19.71875 25.785156v13.839844c-3.136719-.5-6.332031-.757813-9.558594-.757813h-210.019531c-19.914063 0-38.585938 9.769531-49.941406 26.136719-3.46875 4.996094-6.105469 10.339844-7.925782 15.878906-24.382812.691406-47.816406 10.691406-65.109375 27.980469-37.359375 37.363281-37.359375 98.15625.003907 135.519531 16.769531 16.769531 50.828124 32.386719 75.429687 40.421875-2.542969 10.265625-5.671875 20.398437-9.394531 30.367187-7.035156 18.832032-4.484375 39.121094 6.996094 55.664063 11.355468 16.367187 30.027343 26.140625 49.941406 26.140625h210.019531c19.914063 0 38.585937-9.773438 49.941406-26.140625 11.480469-16.542969 14.03125-36.832031 6.996094-55.664063-3.722656-9.96875-6.851563-20.101562-9.394531-30.367187 1.09375-.277344 35.621094-7.136719 71.558594-36.746094 3.195312-2.636719 3.316406-7.519531.542968-10.59375-2.773437-3.078125-7.421875-3.207031-10.59375-.546875-28.886718 24.253906-63.875 33.007813-64.707031 33.222656-2.011719-10.558593-3.414063-21.238281-4.1875-32.011718 19.175781-5.597656 38.917969-16.292969 49.59375-26.96875 19.042969-19.046875 19.042969-50.03125 0-69.074219-9.484375-9.484375-22.289063-14.503906-35.355469-14.285156.816406-2.382813 8.851563-18.261719 6.339844-31.757813 19.53125 1.304688 37.699219 9.492188 51.628906 23.425782 12.417969 12.414062 20.300782 28.160156 22.800782 45.535156 2.421874 16.808594-.5625 34.292968-8.398438 49.226562-1.925781 3.667969-.664062 8.53125 3.15625 10.125 4.726562 1.972656 8.785156-.601562 10.128906-3.15625 9.292969-17.707031 12.828125-38.421875 9.964844-58.332031zm-399.507812 59.78125c-15.457032-5.085937-31.53125-13.957031-39.667969-22.097656-13.199219-13.191407-13.199219-34.664063-.003907-47.859375 7.789063-7.785156 18.816407-11.21875 29.554688-9.414063 13.136719 34.210938 10.144531 77.792969 10.117188 79.371094zm-72.890626 11.125c-31.515624-31.511719-31.519531-82.789063-.003906-114.304687 13.800782-13.800782 32.246094-22.09375 51.628906-23.433594-1.808593 16.363281 5.523438 29.382812 6.339844 31.765625-13.066406-.21875-25.867187 4.800781-35.351562 14.285156-19.042969 19.042969-19.042969 50.027344 0 69.074219 10.675781 10.671875 30.414062 21.371094 49.59375 26.96875-.777344 10.773437-2.175782 21.453125-4.1875 32.011718-31.101563-11.070312-52.980469-21.324218-68.019532-36.367187zm360 128.511719c-8.683593 12.511718-22.394531 19.6875-37.617187 19.6875h-210.019531c-15.222656 0-28.933594-7.175782-37.617188-19.6875-8.636718-12.445313-10.558594-27.707032-5.265625-41.867188 12.25-32.804687 18.464844-67.289062 18.464844-102.496094 0-35.207031-6.214844-69.695312-18.46875-102.496093-5.289063-14.164063-3.367187-29.425781 5.269531-41.871094 8.683594-12.511719 22.394532-19.6875 37.617188-19.6875h210.019531c15.222656 0 28.933594 7.175781 37.617187 19.6875 8.636719 12.445313 10.558594 27.707031 5.265626 41.871094-12.25 32.800781-18.460938 67.289062-18.460938 102.496093 0 35.207032 6.210938 69.691407 18.464844 102.496094 5.289062 14.160156 3.367187 29.421875-5.269532 41.867188zm41.527344-209.59375c13.191406 13.195312 13.191406 34.664062-.003906 47.859375-8.140625 8.140625-24.210938 17.007812-39.667969 22.09375-.027343-1.574219-2.726562-47.855469 10.117188-79.367188 10.734375-1.804687 21.765625 1.628907 29.554687 9.414063zm0 0"/></svg>