<svg viewBox="0 -16 512 512" xmlns="http://www.w3.org/2000/svg"><path d="m426.714844 472.183594c-17.804688 0-32.367188-14.566406-32.367188-32.371094v-227.949219c0-17.800781 14.5625-32.367187 32.367188-32.367187 17.804687 0 32.371094 14.566406 32.371094 32.367187v227.949219c0 17.804688-14.566407 32.371094-32.371094 32.371094zm0 0" fill="#ffabcd"/><path d="m426.714844 179.496094c-17.804688 0-32.367188 14.566406-32.367188 32.367187v104.765625c28.34375-3.714844 49.640625-13.257812 64.738282-22.972656v-81.792969c0-17.800781-14.566407-32.367187-32.371094-32.367187zm0 0" fill="#ff8fb4"/><path d="m451.707031 257.167969h-49.984375c-14.480468 0-26.21875-11.738281-26.21875-26.21875v-52.878907h102.421875v52.878907c.003907 14.480469-11.738281 26.21875-26.21875 26.21875zm0 0" fill="#ffc2e1"/><path d="m43.632812 178.070312h243.6875v108.820313h-243.6875zm0 0" fill="#7de7ff"/><path d="m278.503906 202.558594h-226.054687c-24.722657 0-44.949219-20.230469-44.949219-44.953125 0-24.722657 20.226562-44.949219 44.949219-44.949219h226.054687c24.722656 0 44.949219 20.226562 44.949219 44.949219 0 24.722656-20.226563 44.953125-44.949219 44.953125zm0 0" fill="#d8d7da"/><path d="m253.882812 472.183594h-176.8125c-37.59375 0-68.066406-30.476563-68.066406-68.066406v-133.425782c0-18.648437 15.113282-33.765625 33.761719-33.765625h245.421875c18.648438 0 33.761719 15.117188 33.761719 33.765625v133.425782c0 37.589843-30.472657 68.066406-68.066407 68.066406zm0 0" fill="#ccf8ff"/><path d="m171.226562 286.230469c50.238282-17.078125 84.773438-49.304688 84.773438-49.304688h-213.234375c-18.648437 0-33.761719 15.117188-33.761719 33.765625v133.425782c0 37.589843 30.472656 68.066406 68.066406 68.066406h63.828126c-26.164063-21.449219-28.75-71.90625-25.808594-113.328125 2.359375-33.289063 24.539062-61.878907 56.136718-72.625zm0 0" fill="#9ff6ff"/><path d="m504.5 136.496094c0 42.960937-34.824219 77.785156-77.785156 77.785156-42.957032 0-77.785156-34.824219-77.785156-77.785156 0-42.957032 34.828124-128.996094 77.785156-128.996094 42.960937 0 77.785156 86.035156 77.785156 128.996094zm0 0" fill="#eaeaea"/><path d="m415.535156 120.339844c0-27.890625 14.683594-73.929688 36.734375-102.800782-8.003906-6.304687-16.605469-10.039062-25.554687-10.039062-42.957032 0-77.785156 86.035156-77.785156 128.996094 0 42.960937 34.824218 77.785156 77.785156 77.785156 18.929687 0 36.285156-6.765625 49.769531-18.003906-34.855469-7.699219-60.949219-38.765625-60.949219-75.9375zm0 0" fill="#d8d7da"/><path d="m179.800781 388.890625c0 25.535156-20.703125 46.234375-46.238281 46.234375s-46.234375-20.699219-46.234375-46.234375 20.699219-46.234375 46.234375-46.234375 46.238281 20.699219 46.238281 46.234375zm0 0" fill="#ff929f"/><path d="m179.800781 388.890625c0-25.535156-20.703125-46.234375-46.238281-46.234375-1.894531 0-3.75.109375-5.585938.332031-13.300781 20.261719-24.28125 53.890625 8.097657 92.070313 24.367187-1.304688 43.726562-21.476563 43.726562-46.167969zm0 0" fill="#ff737d"/><path d="m243.625 388.890625c0 25.535156-20.699219 46.234375-46.234375 46.234375s-46.238281-20.699219-46.238281-46.234375 20.703125-46.234375 46.238281-46.234375 46.234375 20.699219 46.234375 46.234375zm0 0" fill="#ffa5b5"/><g fill="#c6c5ca"><path d="m116.710938 202.558594v-36.503906c0-8.28125-6.714844-15-15-15-8.28125 0-15 6.71875-15 15v36.503906zm0 0"/><path d="m180.476562 202.558594v-36.503906c0-8.28125-6.714843-15-15-15-8.285156 0-15 6.71875-15 15v36.503906zm0 0"/><path d="m244.242188 202.558594v-36.503906c0-8.28125-6.71875-15-15-15-8.285157 0-15 6.71875-15 15v36.503906zm0 0"/></g><path d="m330.953125 157.605469c0-28.921875-23.527344-52.449219-52.449219-52.449219h-226.054687c-28.921875 0-52.449219 23.527344-52.449219 52.449219 0 23.226562 15.179688 42.960937 36.132812 49.839843v22.519532c-19.609374 3.183594-34.628906 20.230468-34.628906 40.726562v133.421875c0 41.667969 33.898438 75.570313 75.566406 75.570313h176.8125c41.667969 0 75.566407-33.902344 75.566407-75.570313v-133.421875c0-20.496094-15.019531-37.542968-34.628907-40.726562v-22.519532c20.953126-6.878906 36.132813-26.613281 36.132813-49.839843zm-315.953125 0c0-20.648438 16.800781-37.449219 37.449219-37.449219h226.054687c20.648438 0 37.449219 16.800781 37.449219 37.449219 0 20.652343-16.800781 37.453125-37.449219 37.453125h-56.761718v-29.003906c0-4.132813 3.363281-7.5 7.5-7.5 4.136718 0 7.5 3.367187 7.5 7.5 0 0-1.054688 12.917968 7.5 12.917968 8.550781 0 7.5-12.917968 7.5-12.917968 0-12.40625-10.09375-22.5-22.5-22.5s-22.5 10.09375-22.5 22.5v29.003906h-18.765626v-29.003906c0-12.40625-10.09375-22.5-22.5-22.5s-22.5 10.09375-22.5 22.5v29.003906h-18.765624v-29.003906c0-12.40625-10.09375-22.5-22.5-22.5s-22.5 10.09375-22.5 22.5v29.003906h-26.761719c-20.648438 0-37.449219-16.800782-37.449219-37.453125zm157.976562 37.453125h-15v-29.003906c0-4.132813 3.363282-7.5 7.5-7.5 4.136719 0 7.5 3.367187 7.5 7.5zm-63.765624 0h-15v-29.003906c0-4.132813 3.363281-7.5 7.5-7.5 4.136718 0 7.5 3.367187 7.5 7.5zm205.238281 75.632812v133.421875c0 33.398438-27.167969 60.570313-60.566407 60.570313h-176.8125c-33.398437 0-60.566406-27.171875-60.566406-60.570313v-133.421875c0-14.484375 11.78125-26.265625 26.261719-26.265625h245.421875c14.480469 0 26.261719 11.78125 26.261719 26.265625zm-34.628907-41.265625h-228.6875v-19.402343c.4375.011718 228.25.011718 228.6875 0zm0 0"/><path d="m512 136.496094c0-23.296875-9.5-57.089844-23.640625-84.085938-17.695313-33.796875-39.589844-52.410156-61.644531-52.410156-22.054688 0-43.949219 18.613281-61.644532 52.410156-14.140624 26.996094-23.640624 60.789063-23.640624 84.085938 0 24.289062 10.222656 46.222656 26.574218 61.769531v32.683594c0 13.253906 7.6875 24.742187 18.839844 30.25v178.613281c0 21.984375 17.886719 39.871094 39.871094 39.871094s39.871094-17.886719 39.871094-39.871094v-97.296875c0-4.144531-3.359376-7.5-7.5-7.5-4.144532 0-7.5 3.355469-7.5 7.5v97.296875c0 13.714844-11.15625 24.871094-24.871094 24.871094s-24.871094-11.15625-24.871094-24.871094v-175.144531h49.742188v47.457031c0 4.144531 3.355468 7.5 7.5 7.5 4.140624 0 7.5-3.355469 7.5-7.5v-50.925781c11.148437-5.507813 18.839843-16.996094 18.839843-30.25v-32.683594c16.351563-15.546875 26.574219-37.480469 26.574219-61.769531zm-155.570312 0c0-21.089844 8.8125-52.085938 21.929687-77.128906 14.765625-28.195313 32.390625-44.367188 48.355469-44.367188 15.96875 0 33.59375 16.171875 48.359375 44.367188 13.113281 25.042968 21.925781 56.039062 21.925781 77.128906 0 38.757812-31.527344 70.285156-70.285156 70.285156-38.753906 0-70.285156-31.527344-70.285156-70.285156zm114 94.453125c0 10.320312-8.398438 18.71875-18.722657 18.71875h-49.984375c-10.320312 0-18.71875-8.398438-18.71875-18.71875v-21.257813c12.792969 7.667969 27.742188 12.089844 43.710938 12.089844s30.921875-4.421875 43.714844-12.089844zm0 0"/><path d="m206.039062 335.859375c-1.585937-19.441406-9.179687-46.011719-35.273437-67.242187-2.066406-1.980469-5.050781-2.683594-7.816406-1.691407-2.558594.914063-6.097657 3.9375-3.976563 10.796875.800782 3.671875 5.210938 29.234375-14.5 58.558594-3.558594-.734375-7.207031-1.125-10.90625-1.125-29.632812 0-53.738281 24.105469-53.738281 53.734375s24.105469 53.734375 53.738281 53.734375c4.140625 0 7.5-3.355469 7.5-7.5 0-4.140625-3.359375-7.5-7.5-7.5-21.359375 0-38.738281-17.375-38.738281-38.734375 0-21.3125 17.308594-38.660156 38.605469-38.730469-1.597656 1.71875-3.285156 3.441406-5.074219 5.164063-2.980469 2.875-3.070313 7.625-.195313 10.605469 2.875 2.984374 7.625 3.070312 10.605469.195312 4.246094-4.089844 7.988281-8.199219 11.300781-12.277344 1.570313.742188 3.097657 1.589844 4.5625 2.542969-6.878906 9.03125-10.980468 20.292969-10.980468 32.5 0 29.628906 24.105468 53.734375 53.738281 53.734375 29.628906 0 53.734375-24.105469 53.734375-53.734375 0-26.683594-19.554688-48.878906-45.085938-53.03125zm-32.519531-31.28125c.671875-3.664063 1.09375-7.179687 1.320313-10.472656 10.882812 14.15625 14.898437 29.320312 16.101562 41.449219-9.449218 1.136718-18.15625 4.726562-25.453125 10.125-2.097656-1.554688-4.300781-2.949219-6.585937-4.171876 8.769531-14.019531 12.808594-27.042968 14.617187-36.929687zm23.871094 123.046875c-21.359375 0-38.738281-17.375-38.738281-38.734375 0-19.238281 14.105468-35.242187 32.515625-38.230469-.347657 4.855469-.992188 7.953125-1.097657 8.433594-.898437 4.035156 1.632813 8.039062 5.667969 8.949219.558594.125 7.195313 1.304687 8.96875-5.667969.148438-.597656 1.046875-4.742188 1.46875-11.203125 17.136719 3.992187 29.949219 19.382813 29.949219 37.71875 0 21.359375-17.378906 38.734375-38.734375 38.734375zm0 0"/></svg>