<svg viewBox="-14 0 511 511.99924" xmlns="http://www.w3.org/2000/svg"><path d="m8.054688 210.859375s-8.199219-176.664063 187.230468-202.960937c26.769532-3.601563 50.574219 17.261718 50.519532 44.269531-.148438 73.441406.683593 206.121093.683593 206.121093zm0 0" fill="#ffeb99"/><path d="m119.179688 210.480469c-2.457032-102.203125 82.949218-131.746094 126.605468-140.160157 0-6.351562.007813-12.429687.015625-18.152343.054688-27.011719-23.746093-47.871094-50.515625-44.269531-195.429687 26.296874-187.230468 202.960937-187.230468 202.960937l113.328124 22.546875c-1.253906-7.402344-2.015624-15.042969-2.203124-22.925781zm0 0" fill="#ffde55"/><path d="m347.351562 240.46875-26.847656-13.390625 23.191406-46.503906c13-26.0625 39.164063-42.25 68.285157-42.25v30c-17.671875 0-33.550781 9.824219-41.4375 25.640625zm0 0" fill="#e5e5e5"/><path d="m246.222656 210.480469-126.515625-181.394531c-49.988281 23.226562-77.65625 59.570312-92.941406 93.675781l219.722656 111.699219-.265625-23.707032c0-.089844 0-.183594 0-.273437zm0 0" fill="#ffde55"/><path d="m243.867188 399.46875c113.269531 0 207.886718-44.15625 230.617187-141.34375 5.644531-24.140625-12.628906-47.265625-37.421875-47.265625h-429.007812c0 130.238281 105.578124 188.609375 235.8125 188.609375zm0 0" fill="#ccf8ff"/><path d="m243.867188 399.46875c8.289062 0 16.484374-.234375 24.550781-.710938-49.539063-24.757812-146.539063-86.113281-149.226563-187.898437h-111.136718c0 130.238281 105.578124 188.609375 235.8125 188.609375zm0 0" fill="#9ff6ff"/><path d="m246.488281 210.859375-.265625-.378906v.273437zm0 0" fill="#9ff6ff"/><path d="m172 325.203125-52.820312 52.816406-52.820313-52.816406-21.449219 21.445313 52.820313 52.820312-52.820313 52.820312 21.449219 21.449219 52.820313-52.820312 52.820312 52.820312 21.445312-21.449219-52.820312-52.820312 52.820312-52.820312zm0 0" fill="#d8d7da"/><path d="m440.6875 346.648438-21.445312-21.445313-52.820313 52.816406-52.820313-52.816406-21.445312 21.445313 52.816406 52.820312-52.816406 52.820312 21.445312 21.449219 52.820313-52.820312 52.820313 52.820312 21.445312-21.449219-52.816406-52.820312zm0 0" fill="#d8d7da"/><path d="m119.179688 504.5c-57.914063 0-105.03125-47.117188-105.03125-105.03125s47.117187-105.03125 105.03125-105.03125c57.914062 0 105.03125 47.117188 105.03125 105.03125s-47.117188 105.03125-105.03125 105.03125zm0-179.726562c-41.1875 0-74.699219 33.507812-74.699219 74.695312 0 41.191406 33.507812 74.699219 74.699219 74.699219 41.1875 0 74.699218-33.507813 74.699218-74.699219 0-41.1875-33.511718-74.695312-74.699218-74.695312zm0 0" fill="#e5e5e5"/><path d="m366.421875 504.5c-57.914063 0-105.027344-47.117188-105.027344-105.03125s47.113281-105.03125 105.027344-105.03125 105.03125 47.117188 105.03125 105.03125-47.117187 105.03125-105.03125 105.03125zm0-179.726562c-41.1875 0-74.695313 33.507812-74.695313 74.695312 0 41.191406 33.507813 74.699219 74.695313 74.699219s74.699219-33.507813 74.699219-74.699219c0-41.1875-33.511719-74.695312-74.699219-74.695312zm0 0" fill="#e5e5e5"/><path d="m455.078125 173.757812h-36.996094c-11.285156 0-20.433593-9.144531-20.433593-20.433593 0-11.285157 9.148437-20.433594 20.433593-20.433594h36.996094c11.285156 0 20.433594 9.148437 20.433594 20.433594 0 11.285156-9.148438 20.433593-20.433594 20.433593zm0 0" fill="#ffeb99"/><path d="m170.167969 101.433594-50.460938-72.347656c-49.988281 23.226562-77.65625 59.570312-92.941406 93.675781l96.203125 48.90625c7.667969-32.378907 25.976562-54.769531 47.199219-70.234375zm0 0" fill="#ffcd00"/><path d="m73.871094 468.003906c.1875.136719.382812.261719.582031.375 12.882813 8.390625 28.238281 13.289063 44.726563 13.289063 45.324218 0 82.195312-36.875 82.195312-82.199219s-36.871094-82.195312-82.195312-82.195312c-45.324219 0-82.199219 36.871093-82.199219 82.195312 0 28.589844 14.679687 53.804688 36.890625 68.535156zm-21.890625-68.535156c0-10.257812 2.320312-19.984375 6.449219-28.691406l28.695312 28.691406-28.695312 28.691406c-4.128907-8.707031-6.449219-18.429687-6.449219-28.691406zm102.144531-2.890625c10.296875 2.589844 21.074219 4.714844 32.164062 6.34375-.457031 8.988281-2.699218 17.515625-6.359374 25.238281l-28.695313-28.691406zm12.476562-12.476563 13.324219-13.324218c2.5 5.269531 4.320313 10.917968 5.378907 16.828125-6.367188-.996094-12.609376-2.171875-18.703126-3.503907zm-18.730468-45.378906-28.691406 28.691406-28.695313-28.691406c8.710937-4.132812 18.433594-6.449218 28.695313-6.449218 10.257812 0 19.984374 2.316406 28.691406 6.449218zm-70.445313 8.152344 36.449219 36.449219c4.042969 4.609375 9.140625 1.464843 10.605469 0l36.449219-36.449219c4.011718 3.191406 7.648437 6.828125 10.839843 10.839844l-36.449219 36.449218c-5.289062 5.304688-1.402343 9.199219 0 10.609376l36.453126 36.445312c-12.324219 15.488281-31.3125 25.445312-52.59375 25.445312-10.261719 0-19.988282-2.320312-28.695313-6.449218l28.695313-28.691406 11.140624 11.140624c2.925782 2.925782 7.675782 2.925782 10.605469-.003906 2.929688-2.929687 2.929688-7.675781 0-10.605468l-16.445312-16.441407c-2.925781-2.929687-7.675781-2.929687-10.605469 0l-36.449219 36.445313c-4.011719-3.1875-7.648437-6.828125-10.839843-10.839844l36.449218-36.449219c4.464844-5.304687 1.40625-9.199219 0-10.605469l-36.449218-36.449218c3.191406-4.011719 6.828124-7.648438 10.839843-10.839844zm0 0"/><path d="m366.421875 481.667969c45.324219 0 82.199219-36.875 82.199219-82.199219s-36.875-82.195312-82.199219-82.195312-82.195313 36.871093-82.195313 82.195312 36.871094 82.199219 82.195313 82.199219zm-34.519531-84.664063 2.464844 2.464844-28.695313 28.691406c-3.621094-7.636718-5.84375-16.058594-6.335937-24.933594 11.222656-1.582031 22.132812-3.667968 32.566406-6.222656zm-31.667969-9.066406c1.050781-6.03125 2.894531-11.789062 5.4375-17.160156l13.703125 13.703125c-6.234375 1.324219-12.625 2.480469-19.140625 3.457031zm37.492187 72.28125 28.695313-28.695312 28.691406 28.695312c-8.707031 4.128906-18.433593 6.449219-28.691406 6.449219-10.261719 0-19.984375-2.320313-28.695313-6.449219zm95.894532-60.75c0 10.261719-2.320313 19.988281-6.449219 28.695312l-28.695313-28.695312 28.695313-28.691406c4.128906 8.707031 6.449219 18.433594 6.449219 28.691406zm-38.503906-60.746094-28.695313 28.691406-28.691406-28.691406c8.707031-4.132812 18.433593-6.449218 28.691406-6.449218 10.261719 0 19.984375 2.316406 28.695313 6.449218zm-70.449219 8.152344 36.449219 36.449219c5.304687 5.0625 9.144531 1.464843 10.609374 0l36.449219-36.449219c4.011719 3.191406 7.648438 6.828125 10.839844 10.839844l-36.449219 36.449218c-5.003906 5.304688-1.40625 9.199219 0 10.609376l36.449219 36.449218c-3.191406 4.011719-6.828125 7.648438-10.839844 10.839844l-36.449219-36.449219c-2.929687-2.929687-7.675781-2.929687-10.609374 0l-36.449219 36.445313c-4.011719-3.1875-7.648438-6.828125-10.839844-10.839844l36.449219-36.449219c5.316406-5.304687 1.40625-9.199219 0-10.605469l-36.449219-36.449218c3.191406-4.011719 6.828125-7.648438 10.839844-10.839844zm0 0"/><path d="m437.0625 203.359375h-62.824219s4.953125-22.789063 28.832031-26.496094c4.339844 2.777344 9.488282 4.398438 15.015626 4.398438h36.992187c15.402344 0 27.9375-12.53125 27.9375-27.933594 0-15.40625-12.53125-27.9375-27.9375-27.9375h-36.992187c-6.636719 0-12.730469 2.328125-17.527344 6.207031-27.460938 3.710938-51.101563 20.625-63.574219 45.628906l-13.03125 26.132813h-70.265625c-.230469-46.949219-.46875-108.777344-.382812-151.175781.027343-15.042969-6.445313-29.355469-17.761719-39.273438-11.316407-9.914062-26.355469-14.453125-41.257813-12.445312-45.875 6.175781-84.644531 21.066406-115.234375 44.265625-24.605469 18.660156-43.933593 42.652343-57.449219 71.308593-22.507812 47.730469-21.179687 91.714844-21.042968 95.027344.035156 44.207032 11.863281 82.222656 35.148437 113.015625-18.050781 19.96875-29.058593 46.414063-29.058593 75.386719 0 62.050781 50.480468 112.53125 112.53125 112.53125 59.589843 0 108.5-46.5625 112.285156-105.214844 4.109375.117188 8.253906.183594 12.402344.183594 3.425781 0 6.855468-.050781 10.273437-.132812 3.804687 58.628906 52.707031 105.164062 112.28125 105.164062 62.050781 0 112.53125-50.480469 112.53125-112.53125s-50.480469-112.53125-112.53125-112.53125c-59.484375 0-108.328125 46.394531-112.265625 104.898438-7.554688.183593-15.207031.164062-22.714844-.054688-3.96875-58.476562-52.800781-104.84375-112.261718-104.84375-27.640626 0-52.976563 10.023438-72.585938 26.617188-19.289062-26.175782-29.691406-58.144532-30.914062-95.195313h421.382812c9.492188 0 18.320312 4.269531 24.222656 11.707031 5.917969 7.460938 8.066406 17.066406 5.894532 26.347656-3.320313 14.199219-8.355469 27.582032-14.96875 39.773438-1.972657 3.640625-.621094 8.191406 3.019531 10.167969 3.640625 1.972656 8.191406.621093 10.167969-3.019531 7.25-13.363282 12.761718-28 16.386718-43.503907 3.222656-13.769531.03125-28.015625-8.75-39.085937-8.761718-11.050782-21.871094-17.386719-35.972656-17.386719zm-70.640625 98.578125c53.777344 0 97.53125 43.753906 97.53125 97.53125s-43.753906 97.53125-97.53125 97.53125-97.527344-43.753906-97.527344-97.53125 43.75-97.53125 97.527344-97.53125zm-247.242187 0c53.777343 0 97.527343 43.753906 97.527343 97.53125s-43.75 97.53125-97.527343 97.53125c-53.777344 0-97.53125-43.753906-97.53125-97.53125s43.753906-97.53125 97.53125-97.53125zm298.90625-161.546875h36.992187c7.132813 0 12.9375 5.804687 12.9375 12.9375 0 7.128906-5.804687 12.933594-12.9375 12.933594h-36.992187c-7.132813 0-12.9375-5.804688-12.9375-12.933594 0-7.132813 5.804687-12.9375 12.9375-12.9375zm-67.675782 43.53125c8.347656-16.738281 22.785156-29.054687 40.042969-34.6875-1.179687 6.042969.53125 11.824219 2.027344 15.238281-12.3125 4.785156-22.597657 14.015625-28.648438 26.144532l-6.355469 12.742187h-16.761718zm-154.125-168.589844c10.609375-1.425781 21.316406 1.800781 29.371094 8.859375 8.058594 7.0625 12.667969 17.253906 12.644531 27.960938-.074219 37.492187.105469 90.144531.304688 134.296875l-107.503907-154.136719c19.519532-8.078125 41.300782-13.769531 65.183594-16.980469zm-180.683594 188.027344c.4375-12.5625 2.867188-40.117187 14.933594-70.265625l40.960938 20.820312c1.085937.554688 6.78125 2.675782 10.082031-3.285156 2.007813-3.625.40625-8.207031-3.285156-10.085937l-41.628907-21.160157c12.445313-25.210937 29.835938-46.382812 51.757813-62.933593 8.851563-6.683594 18.464844-12.625 28.800781-17.816407l114.890625 164.726563h-30.253906l-97.367187-49.496094c-3.691407-1.878906-8.207032-.40625-10.082032 3.285157-1.878906 3.695312-.40625 8.210937 3.285156 10.085937l71.0625 36.125zm0 0"/></svg>