<svg viewBox="0 -59 512.001 512" xmlns="http://www.w3.org/2000/svg"><path d="m473.007812 115.109375s-128.546874-23.25-131.566406 91.027344h131.566406zm0 0" fill="#9ff6ff"/><path d="m23.757812 186.957031h457.660157v119.105469h-457.660157zm0 0" fill="#ccf8ff"/><g fill="#ffb864"><path d="m104.886719 72.996094h35.203125v215.742187h-35.203125zm0 0"/><path d="m193.894531 72.996094h35.203125v215.742187h-35.203125zm0 0"/><path d="m282.902344 72.996094h35.203125v215.742187h-35.203125zm0 0"/><path d="m371.910156 72.996094h35.203125v215.742187h-35.203125zm0 0"/></g><path d="m104.886719 72.996094h35.203125v64h-35.203125zm0 0" fill="#ed9740"/><path d="m193.894531 72.996094h35.203125v64h-35.203125zm0 0" fill="#ed9740"/><path d="m282.902344 72.996094h35.203125v64h-35.203125zm0 0" fill="#ed9740"/><path d="m371.910156 72.996094h35.203125v64h-35.203125zm0 0" fill="#ed9740"/><path d="m23.757812 257.054688h457.660157v63.363281h-457.660157zm0 0" fill="#ffc477"/><path d="m23.757812 47.839844h456.433594v39.003906h-456.433594zm0 0" fill="#ffc477"/><path d="m31.808594 387.183594c-13.425782 0-24.308594-10.882813-24.308594-24.308594v-331.066406c0-13.425782 10.882812-24.308594 24.308594-24.308594 13.425781 0 24.3125 10.882812 24.3125 24.308594v331.066406c0 13.425781-10.886719 24.308594-24.3125 24.308594zm0 0" fill="#ffdaaa"/><path d="m480.191406 387.183594c-13.425781 0-24.3125-10.882813-24.3125-24.308594v-331.066406c0-13.425782 10.886719-24.308594 24.3125-24.308594 13.425782 0 24.308594 10.882812 24.308594 24.308594v331.066406c0 13.425781-10.882812 24.308594-24.308594 24.308594zm0 0" fill="#ffdaaa"/><path d="m480.191406 0c-17.542968 0-31.8125 14.269531-31.8125 31.808594v8.53125h-384.761718v-8.53125c0-17.539063-14.265626-31.808594-31.808594-31.808594-17.539063 0-31.808594 14.269531-31.808594 31.808594v331.066406c0 17.539062 14.269531 31.808594 31.808594 31.808594 17.542968 0 31.808594-14.269532 31.808594-31.808594v-34.960938h279.761718c4.144532 0 7.5-3.355468 7.5-7.5 0-4.140624-3.355468-7.5-7.5-7.5h-279.761718v-48.359374h384.765624v48.359374h-76.472656c-4.140625 0-7.5 3.359376-7.5 7.5 0 4.144532 3.359375 7.5 7.5 7.5h76.472656v34.960938c0 17.539062 14.269532 31.808594 31.808594 31.808594 17.539063 0 31.808594-14.269532 31.808594-31.808594v-331.066406c0-17.539063-14.269531-31.808594-31.808594-31.808594zm-375.304687 113.066406c-4.140625 0-7.5 3.355469-7.5 7.5v58.890625h-33.769531v-85.113281h68.972656v155.210938h-20.203125v-128.988282c0-4.144531-3.355469-7.5-7.5-7.5zm81.507812 66.394532h-38.808593v-85.117188h38.808593zm-38.804687 15h38.808594v55.097656h-38.808594zm53.804687-100.117188h20.199219v155.210938h-20.199219zm74.007813 85.117188h-38.808594v-85.117188h38.808594zm-38.804688 15h38.808594v55.097656h-38.808594zm53.804688-100.117188h20.203125v155.210938h-20.203125zm74.007812 85.117188h-11.765625c2.582031-9.519532 6.519531-17.933594 11.765625-25.191407zm0-47.417969c-13.582031 12.050781-22.726562 27.96875-27.230468 47.414062h-11.574219v-85.113281h38.804687zm-38.804687 62.417969h38.804687v55.097656h-38.804687zm53.804687-100.117188h20.203125v155.210938h-20.203125zm68.972656 11.328125c-9.617187-.070313-21.457031.582031-33.769531 2.996094v-14.324219h33.769531zm-33.769531 18.316406c12.222657-2.699219 24.191407-3.394531 33.769531-3.316406v58.789063h-33.769531zm33.769531-68.648437v24.003906h-384.765624v-24.003906zm-399.765624 307.535156c0 9.269531-7.539063 16.808594-16.808594 16.808594-9.269532 0-16.808594-7.539063-16.808594-16.808594v-331.066406c0-9.269532 7.539062-16.808594 16.808594-16.808594 9.269531 0 16.808594 7.539062 16.808594 16.808594zm15-168.414062h33.769531v55.097656h-33.769531zm350.996093 55.09375v-55.097657h33.769531v55.097657zm82.386719 113.320312c0 9.269531-7.539062 16.808594-16.808594 16.808594-9.269531 0-16.8125-7.539063-16.8125-16.808594v-331.066406c0-9.269532 7.542969-16.808594 16.8125-16.808594 9.269532 0 16.808594 7.539062 16.808594 16.808594zm0 0"/></svg>