<svg viewBox="0 -86 511.99998 511" xmlns="http://www.w3.org/2000/svg"><path d="m232.089844 225.554688c-7.710938 61.792968-35.453125 128.6875-125.84375 97.921874-58.953125-20.0625-105.632813-64.054687-97.921875-125.84375 7.710937-61.792968 48.257812-198.824218 125.796875-189.144531 77.535156 9.675781 105.679687 155.277344 97.96875 217.066407zm0 0" fill="#ff8fb4"/><path d="m119.757812 8.367188c-68.203124 7.59375-104.214843 131.414062-111.433593 189.269531-7.710938 61.792969 38.96875 105.785156 97.921875 125.847656 17.507812 5.957031 32.660156 8.25 45.777344 7.625-75.859376-117.003906-45.164063-272.449219-32.265626-322.742187zm0 0" fill="#ff76a7"/><path d="m193.953125 169.261719c0 36.8125-29.84375 47.953125-66.65625 47.953125-36.808594 0-66.652344-11.140625-66.652344-47.953125s29.84375-127.332031 66.652344-127.332031c36.8125 0 66.65625 90.519531 66.65625 127.332031zm0 0" fill="#ff76a7"/><path d="m60.644531 169.261719c0 30.3125 20.25 43.222656 47.949219 46.835937-11.007812-63.675781-4.882812-125.902344 2.722656-168.566406-29.089844 20.296875-50.671875 90.429688-50.671875 121.730469zm0 0" fill="#ff5f8d"/><path d="m230.535156 163.761719c-63.144531-29.710938-153.417968-27.730469-216.566406 1.984375-2.554688 1.203125-8.136719-26.851563-.695312-50.746094 5.707031-18.332031 23.324218-33.503906 30.117187-35.457031 53.003906-15.234375 108.929687-15.796875 162.148437-1.679688 7.933594 2.105469 27.199219 19.96875 31.882813 38.867188 5.789063 23.371093-4.136719 48.324219-6.886719 47.03125zm0 0" fill="#ffabcd"/><path d="m168.636719 145.589844c14.058593-1.507813 24.808593-12.253906 25.316406-32.714844.710937-28.5625-18.457031-39.285156-31.082031-43.128906-39.917969-4.679688-80.484375-1.410156-119.480469 9.796875-6.792969 1.953125-24.410156 17.125-30.117187 35.457031-7.441407 23.894531-1.859376 51.949219.695312 50.746094 44.421875-20.90625 102.285156-28.078125 154.667969-20.15625zm0 0" fill="#ffc2e1"/><path d="m168.753906 107.152344c0 10.597656-8.589844 19.191406-19.1875 19.191406-10.601562 0-19.191406-8.59375-19.191406-19.191406s8.589844-19.1875 19.191406-19.1875c10.597656 0 19.1875 8.589844 19.1875 19.1875zm0 0" fill="#ffeb99"/><path d="m279.910156 225.554688c7.710938 61.792968 35.457032 128.6875 125.847656 97.921874 58.949219-20.058593 105.632813-64.054687 97.921876-125.84375-7.710938-61.792968-48.261719-198.820312-125.796876-189.144531-77.539062 9.675781-105.683593 155.277344-97.972656 217.066407zm0 0" fill="#7de7ff"/><path d="m375.59375 8.8125c-75.789062 12.242188-103.316406 155.566406-95.683594 216.746094 7.710938 61.789062 35.457032 128.683594 125.847656 97.921875 3.273438-1.117188 6.503907-2.300781 9.691407-3.5625-87.734375-118.453125-55.058594-261.839844-39.855469-311.105469zm0 0" fill="#4ad6ed"/><path d="m318.046875 169.261719c0 36.8125 29.84375 47.953125 66.65625 47.953125s66.652344-11.140625 66.652344-47.953125-29.839844-127.332031-66.652344-127.332031-66.65625 90.519531-66.65625 127.332031zm0 0" fill="#4ad6ed"/><path d="m365.164062 50.285156c-27.273437 23.257813-47.113281 88.96875-47.113281 118.976563 0 30.609375 20.640625 43.472656 48.753907 46.9375-15.683594-62.875-10.097657-123.484375-1.640626-165.914063zm0 0" fill="#30c0e2"/><path d="m281.464844 163.761719c63.148437-29.710938 153.421875-27.730469 216.566406 1.984375 2.554688 1.203125 8.136719-26.851563.699219-50.746094-5.707031-18.332031-23.328125-33.503906-30.121094-35.457031-53-15.234375-108.929687-15.796875-162.148437-1.679688-7.929688 2.105469-27.199219 19.96875-31.878907 38.867188-5.792969 23.371093 4.136719 48.324219 6.882813 47.03125zm0 0" fill="#9ff6ff"/><path d="m343.363281 145.589844c-14.058593-1.507813-24.804687-12.253906-25.316406-32.714844-.707031-28.5625 18.460937-39.285156 31.082031-43.128906 39.921875-4.679688 80.484375-1.410156 119.480469 9.796875 6.792969 1.953125 24.414063 17.125 30.121094 35.457031 7.4375 23.894531 1.855469 51.949219-.699219 50.746094-44.421875-20.90625-102.285156-28.078125-154.667969-20.15625zm0 0" fill="#ccf8ff"/><path d="m381.628906 107.152344c0 10.597656-8.59375 19.191406-19.191406 19.191406s-19.191406-8.59375-19.191406-19.191406 8.59375-19.1875 19.191406-19.1875 19.191406 8.589844 19.191406 19.1875zm0 0" fill="#92dd7a"/><path d="m244.699219 114.929688c-4.359375-17.59375-19.738281-34.699219-31.125-41.542969-19.550781-43.355469-46.6875-68.371094-78.523438-72.34375-37.195312-4.636719-70.726562 20.488281-97.113281 72.660156-10.359375 5.183594-26.246094 21.144531-31.828125 39.066406-4.363281 14.023438-4.292969 28.242188-3.863281 35.472657.386718 6.441406 1.347656 14.269531 3.664062 19.277343-2.1875 10.261719-3.925781 20.328125-5.03125 29.183594-3.859375 30.914063 5.027344 60.089844 25.695313 84.363281 18.210937 21.390625 44.925781 38.507813 77.253906 49.511719 15.894531 5.410156 30.585937 8.113281 44 8.113281 15.960937 0 30.109375-3.828125 42.320313-11.472656 26.496093-16.585938 43.113281-50.476562 49.382812-100.734375 2.03125-16.269531 1.644531-37.371094-1.066406-59.785156 6.226562-8.996094 11.046875-32.363281 6.234375-51.769531zm-14.558594 3.605468c3.507813 14.152344.464844 28.792969-2.15625 35.851563-11.515625-4.976563-23.859375-9.027344-36.84375-12.121094 6.320313-7.011719 10.007813-17.050781 10.308594-29.203125.292969-11.773438-2.535157-22.097656-8.113281-30.472656 3.4375.78125 6.867187 1.617187 10.277343 2.523437 4.871094 1.289063 22.355469 16.582031 26.527344 33.421875zm-96.949219-102.605468c28.316406 3.53125 48.007813 27.707031 60.714844 51.421874-8.824219-1.921874-17.710938-3.460937-26.632812-4.605468-12.507813-18.789063-25.945313-28.316406-39.976563-28.316406-14.039063 0-27.488281 9.546874-40.007813 28.371093-9.804687 1.273438-19.5625 3.019531-29.238281 5.230469 27.3125-46.925781 55.53125-54.546875 75.140625-52.101562zm13.675782 44.875c-13.042969-.808594-26.125-.804688-39.160157.027343 6.765625-7.429687 13.496094-11.402343 19.59375-11.402343 6.085938 0 12.808594 3.964843 19.566407 11.375zm-126.433594 56.425781c5.050781-16.222657 20.914062-29.296875 25.027344-30.476563 26.796874-7.703125 54.417968-11.558594 82.054687-11.558594 11.292969 0 22.589844.644532 33.828125 1.933594 11.925781 3.808594 25.667969 13.074219 25.109375 35.558594-.367187 14.765625-6.65625 23.695312-17.722656 25.308594-14.964844-2.199219-30.566407-3.238282-46.574219-3.027344-37.019531.476562-73.621094 7.792969-104.042969 20.707031-1.363281-8.355469-2.179687-23.996093 2.320313-38.445312zm204.214844 107.398437c-5.6875 45.5625-19.972657 75.800782-42.457032 89.878906-18.46875 11.5625-43.210937 12.1875-73.53125 1.871094-29.769531-10.132812-54.203125-25.707031-70.664062-45.035156-18.121094-21.285156-25.601563-45.773438-22.230469-72.78125 1.039063-8.328125 2.675781-17.820312 4.734375-27.535156 10.457031-4.679688 21.589844-8.589844 33.1875-11.707032-1.253906 21.53125 2.6875 33.394532 9.054688 41.945313 1.472656 1.976563 6.308593 4.953125 10.496093 1.535156 3.207031-2.617187 4.007813-7.171875 1.535157-10.492187-4.394532-5.90625-8.390626-22.710938-5.539063-36.640625 38.058594-7.738281 79.511719-7.496094 116.246094.800781.640625 4.804688.972656 9.164062.972656 12.792969 0 14.550781-5.210937 24.816406-15.9375 31.386719-9.828125 6.019531-24.367187 9.070312-43.214844 9.070312-12.625 0-23.40625-1.386719-32.046875-4.113281-3.949218-1.246094-8.164062.945312-9.410156 4.898437-1.246094 3.949219.945312 8.160156 4.894531 9.410156 10.105469 3.1875 22.40625 4.804688 36.5625 4.804688 61.289063 0 74.152344-30.15625 74.152344-55.453125 0-2.671875-.144531-5.585937-.421875-8.699219 7.855469 2.371094 15.414062 5.140625 22.589844 8.3125 2.527344 21.078125 2.898437 40.742188 1.027344 55.75zm0 0"/><path d="m511.121094 196.703125c-1.105469-8.855469-2.84375-18.921875-5.03125-29.183594 2.316406-5.007812 3.28125-12.835937 3.664062-19.277343.429688-7.226563.503906-21.445313-3.863281-35.472657-5.578125-17.921875-21.464844-33.882812-31.828125-39.066406-26.382812-52.171875-59.917969-77.296875-97.113281-72.660156-31.835938 3.972656-58.972657 28.988281-78.523438 72.34375-11.386719 6.84375-26.765625 23.949219-31.125 41.542969-4.8125 19.40625.007813 42.769531 6.234375 51.773437-2.710937 22.410156-3.097656 43.511719-1.070312 59.78125 6.273437 50.257813 22.886718 84.152344 49.382812 100.738281 12.214844 7.644532 26.363282 11.46875 42.320313 11.46875 13.414062 0 28.113281-2.703125 44.003906-8.113281 19.625-6.679687 37.199219-15.613281 52.238281-26.5625 3.347656-2.4375 4.085938-7.128906 1.648438-10.476563-2.4375-3.347656-7.128906-4.085937-10.476563-1.648437-13.816406 10.054687-30.046875 18.292969-48.246093 24.488281-30.320313 10.320313-55.058594 9.6875-73.527344-1.871094-22.488282-14.078124-36.773438-44.316406-42.457032-89.878906-1.875-15.007812-1.503906-34.671875 1.027344-55.75 7.175782-3.171875 14.734375-5.945312 22.589844-8.3125-.277344 3.113282-.421875 6.023438-.421875 8.695313 0 25.296875 12.863281 55.457031 74.152344 55.457031 61.289062 0 74.152343-30.160156 74.152343-55.457031 0-3.023438-.183593-6.351563-.542968-9.941407 11.597656 3.113282 22.734375 7.027344 33.1875 11.707032 2.0625 9.714844 3.699218 19.203125 4.738281 27.53125 3.332031 26.707031-3.953125 50.964844-21.652344 72.09375-2.660156 3.175781-2.140625 7.789062.933594 10.566406 4.441406 4.007812 9.085937.835938 10.566406-.9375 20.195313-24.105469 28.855469-53.007812 25.039063-83.578125zm-19.554688-79.472656c4.5 14.449219 3.6875 30.089843 2.320313 38.449219-63.328125-29.335938-136.925781-19.699219-150.625-17.6875-11.058594-1.613282-17.347657-10.542969-17.714844-25.300782-.558594-22.464844 13.15625-31.734375 25.070313-35.546875 38.753906-4.449219 78.167968-1.246093 115.921874 9.609375 4.113282 1.179688 19.980469 14.253906 25.027344 30.476563zm-126.433594-56.425781c6.761719-7.410157 13.480469-11.375 19.570313-11.375 6.09375 0 12.824219 3.972656 19.59375 11.398437-13.039063-.828125-26.121094-.832031-39.164063-.023437zm13.675782-44.875c33.261718-4.15625 58.3125 23.3125 75.121094 52.097656-9.667969-2.207032-19.417969-3.953125-29.21875-5.226563-12.519532-18.824219-25.96875-28.371093-40.007813-28.371093-14.03125 0-27.46875 9.527343-39.972656 28.316406-8.925781 1.144531-17.8125 2.683594-26.636719 4.605468 12.710938-23.714843 32.398438-47.890624 60.714844-51.421874zm-96.945313 102.605468c4.171875-16.839844 21.65625-32.132812 26.523438-33.421875 3.414062-.90625 6.839843-1.746093 10.277343-2.527343-5.578124 8.378906-8.40625 18.703124-8.113281 30.476562.300781 12.160156 3.992188 22.203125 10.320313 29.21875-12.984375 3.089844-25.339844 7.128906-36.855469 12.105469-2.621094-7.058594-5.660156-21.699219-2.152344-35.851563zm161.992188 50.726563c0 14.550781-5.214844 24.816406-15.941407 31.386719-9.824218 6.015624-24.363281 9.066406-43.210937 9.066406-18.851563 0-33.386719-3.050782-43.214844-9.066406-10.726562-6.570313-15.9375-16.835938-15.9375-31.386719 0-3.628907.332031-7.988281.972657-12.792969 36.734374-8.296875 78.183593-8.535156 116.246093-.800781.710938 5.113281 1.085938 9.769531 1.085938 13.59375zm0 0"/></svg>