<svg viewBox="0 -83 512 512" xmlns="http://www.w3.org/2000/svg"><path d="m216.417969 41.425781s-97.929688-93.269531-154.796875 29.410157c-56.863282 122.679687-90.441406 251.601562 10.683594 267.933593 101.121093 16.332031 144.113281-297.34375 144.113281-297.34375zm0 0" fill="#ffe0b6"/><path d="m216.417969 41.425781s-25.140625-23.941406-57.34375-31.609375c-25.792969 38.800782-104.585938 175.121094-45.785157 316.71875 71.878907-57.113281 103.128907-285.109375 103.128907-285.109375zm0 0" fill="#ffd29c"/><path d="m206.378906 99.054688-23.519531-30.289063s-99.410156-12.425781-130.476563 147.875c-11.363281 58.640625-3.082031 96.328125 11.960938 120.546875 2.5625.613281 5.191406 1.136719 7.953125 1.582031 73.359375 11.847657 116.128906-149.960937 134.082031-239.714843zm0 0" fill="#ffc2e1"/><path d="m206.378906 99.054688-23.519531-30.289063s-32.070313-4.003906-65.472656 21.902344c-24.023438 61.792969-40.664063 147.808593-4.101563 235.867187 48.730469-38.722656 78.789063-155.972656 93.09375-227.480468zm0 0" fill="#ffabcd"/><path d="m295.582031 41.425781s97.929688-93.269531 154.792969 29.410157c56.867188 122.679687 90.441406 251.601562-10.679688 267.933593-101.121093 16.332031-144.113281-297.34375-144.113281-297.34375zm0 0" fill="#ffe0b6"/><path d="m295.582031 41.425781s25.140625-23.941406 57.34375-31.609375c25.792969 38.800782 104.582031 175.121094 45.785157 316.71875-71.878907-57.113281-103.128907-285.109375-103.128907-285.109375zm0 0" fill="#ffd29c"/><path d="m305.621094 99.054688 23.515625-30.289063s99.410156-12.425781 130.476562 147.875c11.363281 58.640625 3.085938 96.328125-11.957031 120.546875-2.5625.613281-5.195312 1.136719-7.957031 1.582031-73.355469 11.847657-116.125-149.960937-134.078125-239.714843zm0 0" fill="#ffc2e1"/><path d="m305.621094 99.054688 23.515625-30.289063s32.074219-4.003906 65.476562 21.902344c24.019531 61.792969 40.664063 147.808593 4.097657 235.867187-48.726563-38.722656-78.785157-155.972656-93.089844-227.480468zm0 0" fill="#ffabcd"/><path d="m381.554688 139.632812c-14.210938-7.398437-24.65625-20.476562-28.011719-36.140624-6.574219-30.671876-28.035157-76.257813-97.542969-76.257813s-90.96875 45.582031-97.542969 76.253906c-3.355469 15.667969-13.804687 28.746094-28.015625 36.144531-31.277344 16.289063-52.394531 49.402344-51.339844 87.34375 1.417969 51.179688 43.722657 92.441407 94.917969 92.652344 22.285157.09375 42.800781-7.453125 59.078125-20.175781 13.398438-10.46875 32.402344-10.46875 45.800782 0 16.28125 12.722656 36.796874 20.273437 59.082031 20.175781 51.195312-.214844 93.496093-41.476562 94.917969-92.652344 1.050781-37.941406-20.066407-71.054687-51.34375-87.34375zm0 0" fill="#ffeed4"/><path d="m230.769531 110.964844c5.121094-45.042969 25.230469-83.726563 25.230469-83.726563-69.507812 0-90.96875 45.582031-97.542969 76.253907-3.355469 15.664062-13.804687 28.742187-28.011719 36.144531-31.28125 16.285156-52.394531 49.402343-51.34375 87.34375 1.367188 49.285156 40.65625 89.375 89.289063 92.460937-51.621094-133.367187 53.675781-131.910156 62.378906-208.476562zm0 0" fill="#ffe0b6"/><path d="m191.707031 191.980469c0-13.1875-13.425781-23.875-29.984375-23.875s-29.984375 10.6875-29.984375 23.875 13.425781 23.878906 29.984375 23.878906 29.984375-10.691406 29.984375-23.878906zm0 0" fill="#ffc2e1"/><path d="m379.765625 191.980469c0-13.1875-13.425781-23.875-29.984375-23.875s-29.984375 10.6875-29.984375 23.875 13.425781 23.878906 29.984375 23.878906 29.984375-10.691406 29.984375-23.878906zm0 0" fill="#ffc2e1"/><path d="m232.898438 227.488281c-4.238282-5.625-1.878907-13.761719 4.726562-16.210937 5.28125-1.957032 11.746094-3.640625 18.375-3.640625s13.09375 1.679687 18.375 3.640625c6.605469 2.449218 8.964844 10.585937 4.726562 16.210937l-11.152343 14.816407c-5.984375 7.945312-17.914063 7.945312-23.894531 0zm0 0" fill="#ffabcd"/><path d="m343.9375 171.371094v-12.453125c0-4.144531-3.355469-7.503907-7.5-7.503907s-7.503906 3.359376-7.503906 7.503907v12.453125c0 4.144531 3.359375 7.503906 7.503906 7.503906s7.5-3.359375 7.5-7.503906zm0 0"/><path d="m175.066406 151.414062c-4.144531 0-7.503906 3.359376-7.503906 7.503907v12.453125c0 4.144531 3.359375 7.503906 7.503906 7.503906 4.144532 0 7.503906-3.359375 7.503906-7.503906v-12.453125c0-4.144531-3.359374-7.503907-7.503906-7.503907zm0 0"/><path d="m164.832031 257.511719-34.105469 10.046875c-3.976562 1.171875-6.246093 5.34375-5.078124 9.316406.964843 3.269531 4.539062 6.585938 9.316406 5.078125l34.109375-10.046875c3.972656-1.171875 6.246093-5.34375 5.074219-9.320312-1.171876-3.972657-5.339844-6.242188-9.316407-5.074219zm0 0"/><path d="m133.644531 243.855469 24.953125 2.15625c5.402344.15625 7.78125-2.925781 8.117188-6.832031.359375-4.128907-2.699219-7.765626-6.828125-8.121094l-24.949219-2.152344c-4.132812-.355469-7.765625 2.703125-8.121094 6.832031-.355468 4.128907 2.703125 7.761719 6.828125 8.117188zm0 0"/><path d="m381.273438 267.558594-34.105469-10.046875c-3.980469-1.171875-8.148438 1.101562-9.320313 5.078125-1.167968 3.972656 1.105469 8.144531 5.078125 9.316406l34.105469 10.046875c5.296875 1.449219 8.355469-1.808594 9.320312-5.074219 1.171876-3.976562-1.101562-8.148437-5.078124-9.320312zm0 0"/><path d="m353.402344 246.011719 24.949218-2.15625c4.128907-.355469 7.1875-3.988281 6.832032-8.117188-.355469-4.128906-3.996094-7.179687-8.121094-6.832031l-24.949219 2.152344c-4.128906.355468-7.1875 3.992187-6.832031 8.121094.339844 3.910156 3.207031 7.386718 8.121094 6.832031zm0 0"/><path d="m276.984375 204.242188c-7.351563-2.726563-14.414063-4.109376-20.984375-4.109376s-13.632812 1.382813-20.984375 4.109376c-5.382813 1.996093-9.398437 6.304687-11.015625 11.820312-1.621094 5.527344-.558594 11.339844 2.902344 15.941406l11.15625 14.8125c2.714844 3.605469 6.335937 6.234375 10.4375 7.675782v9.410156c0 4.144531 3.359375 7.503906 7.503906 7.503906s7.503906-3.359375 7.503906-7.503906v-9.410156c4.097656-1.441407 7.722656-4.070313 10.4375-7.671876l11.15625-14.816406c3.464844-4.601562 4.523438-10.410156 2.902344-15.941406-1.617188-5.515625-5.632812-9.824219-11.015625-11.820312zm-3.875 18.734374-11.15625 14.816407c-1.421875 1.886719-3.589844 2.96875-5.953125 2.96875s-4.53125-1.082031-5.953125-2.972657l-11.15625-14.8125c-.800781-1.0625-1.878906-3.429687 1.339844-4.664062 5.65625-2.171875 10.984375-3.175781 15.769531-3.175781 4.78125 0 10.046875 1.175781 15.765625 3.171875 3.289063 1.148437 2.144531 3.605468 1.34375 4.667968zm0 0"/><path d="m457.183594 67.683594c-4.035156-8.703125-8.433594-16.6875-13.074219-23.71875-2.28125-3.460938-6.933594-4.414063-10.394531-2.132813-3.457032 2.28125-4.410156 6.9375-2.128906 10.394531 4.230468 6.414063 8.261718 13.738282 11.984374 21.765626 23.070313 49.773437 38.886719 93.332031 47.011719 129.464843 9.523438 42.371094 8.578125 74.730469-2.820312 96.183594-5.714844 10.761719-14.023438 18.816406-25.117188 24.332031 11.347657-28.5 12.824219-64.96875 4.335938-108.761718-11.011719-56.820313-31.710938-98.976563-61.519531-125.292969-23.296876-20.570313-47.074219-26.585938-61.148438-28.253907-6.722656-10.019531-15.777344-19.511718-27.984375-26.925781 22.386719-15.121093 63.214844-34.03125 98.015625-2.921875 3.089844 2.761719 7.832031 2.496094 10.59375-.59375 2.761719-3.085937 2.496094-7.832031-.59375-10.59375-20.902344-18.683594-46.691406-24.824218-74.578125-17.761718-20.820313 5.273437-38.675781 16.8125-48.789063 24.394531-12.382812-4.707031-27.214843-7.527344-44.976562-7.527344-17.765625 0-32.597656 2.820313-44.980469 7.527344-16.371093-12.269531-51.878906-33.996094-88.71875-25.234375-27.636719 6.578125-50.339843 28.664062-67.484375 65.652344-52.808594 113.929687-67.554687 194.34375-43.832031 239 11.484375 21.621093 31.652344 35.292968 60.125 39.496093 25.902344 3.820313 45.042969-8.914062 61.417969-28.003906 12.917968 5.808594 26.984375 8.902344 41.460937 8.960937.152344.003907.300781.003907.453125.003907 23.175782-.003907 45.050782-7.523438 63.277344-21.769531 10.765625-8.414063 25.796875-8.414063 36.5625-.003907 18.230469 14.25 40.101562 21.773438 63.28125 21.773438.148438 0 .300781 0 .449219-.003907 14.476562-.058593 28.539062-3.152343 41.460937-8.957031 16.371094 19.09375 34.238282 31 61.421875 28 28.601563-3.15625 48.636719-17.875 60.121094-39.496093 23.722656-44.660157 8.976563-125.070313-43.832031-238.996094zm-383.683594 263.679687c-23.859375-3.855469-39.972656-14.230469-49.265625-31.722656-11.394531-21.453125-12.34375-53.8125-2.816406-96.183594 8.125-36.132812 23.941406-79.691406 47.011719-129.464843 15.113281-32.605469 34.410156-51.90625 57.347656-57.367188 26.855468-6.390625 53.832031 7.316406 69.882812 18.121094-12.203125 7.410156-21.253906 16.898437-27.972656 26.917968-14.054688 1.667969-37.921875 7.6875-61.28125 28.367188-29.738281 26.328125-50.390625 68.445312-61.386719 125.179688-6.480469 33.453124-7.152343 62.910156-1.992187 87.546874.742187 3.535157 4.0625 6.773438 8.882812 5.804688 4.0625-.816406 6.65625-4.828125 5.804688-8.882812-4.75-22.671876-4.0625-50.128907 2.039062-81.613282 20.078125-103.605468 68.675782-132.058594 98.777344-139.515625-3.585938 8.300781-5.910156 16.375-7.40625 23.367188-2.835938 13.226562-11.636719 24.546875-24.144531 31.0625-16.859375 8.777343-30.953125 22.035156-40.761719 38.339843-10.109375 16.808594-15.164062 36.125-14.617188 55.867188.742188 26.707031 11.769532 51.78125 31.054688 70.597656 5.0625 4.941406 10.542969 9.296875 16.355469 13.042969-14.785157 16.351563-29.730469 23.082031-45.511719 20.535156zm264.449219-19.234375c-19.90625.085938-38.765625-6.34375-54.429688-18.585937-8.101562-6.332031-17.8125-9.496094-27.519531-9.496094-9.710938 0-19.417969 3.164063-27.519531 9.496094-15.566407 12.164062-34.242188 18.585937-54.042969 18.585937-.128906 0-.257812 0-.386719 0-22.804687-.097656-44.441406-9.003906-60.914062-25.082031-16.480469-16.082031-25.902344-37.488281-26.535157-60.277344-.941406-33.957031 17.183594-64.792969 47.308594-80.480469 16.488282-8.585937 28.109375-23.613281 31.882813-41.226562 6.875-32.082031 28.105469-70.324219 90.207031-70.324219s83.332031 38.242188 90.207031 70.324219c3.773438 17.613281 15.394531 32.640625 31.882813 41.226562 30.125 15.6875 48.25 46.523438 47.308594 80.480469-.632813 22.789063-10.054688 44.195313-26.53125 60.277344-16.476563 16.078125-38.109376 24.988281-60.917969 25.082031zm55.039062-1.300781c5.8125-3.746094 11.296875-8.101563 16.359375-13.042969 19.28125-18.820312 30.3125-43.890625 31.050782-70.597656.546874-19.742188-4.507813-39.0625-14.617188-55.867188-9.808594-16.304687-23.902344-29.5625-40.757812-38.339843-12.511719-6.515625-21.3125-17.835938-24.144532-31.0625-1.5-6.996094-3.824218-15.070313-7.410156-23.371094 30.144531 7.460937 78.707031 35.929687 98.78125 139.519531 9.25 47.726563 6.089844 85.550782-9.378906 112.5-22.847656 3.226563-35.09375-3.386718-49.882813-19.738281zm0 0"/></svg>