<svg viewBox="0 0 512.0005 512.0005" xmlns="http://www.w3.org/2000/svg"><path d="m205.589844 267.828125 38.582031 38.582031-100.871094 100.867188-38.582031-38.582032zm0 0" fill="#ffde55"/><path d="m171.53125 379.054688-38.582031-38.585938 72.636719-72.636719 38.582031 38.582031zm0 0" fill="#ffcd00"/><path d="m134.15625 377.84375c-28.984375-28.980469-75.972656-28.980469-104.957031 0-28.980469 28.984375-28.980469 75.976562 0 104.957031 28.984375 28.980469 75.972656 28.980469 104.957031 0 28.980469-28.980469 28.980469-75.972656 0-104.957031zm-75.867188 75.871094c-12.921874-12.921875-12.921874-33.863282 0-46.78125 12.917969-12.917969 33.863282-12.917969 46.777344 0 12.921875 12.917968 12.921875 33.859375 0 46.78125-12.917968 12.917968-33.863281 12.917968-46.777344 0zm0 0" fill="#ffeb99"/><path d="m336.496094 49.035156 126.464844 126.460938-182.949219 182.953125-126.464844-126.464844zm0 0" fill="#ffabcd"/><path d="m336.5 49.035156-182.953125 182.953125 51.585937 51.585938 74.269532-74.273438c26.125-26.125 64.484375-35.257812 99.863281-24.597656 37.886719 11.414063 71 3.496094 71 3.496094l12.699219-12.699219zm0 0" fill="#ff8fb4"/><path d="m458.328125 185.105469-131.433594-131.433594c-10.523437-10.523437-10.523437-27.742187 0-38.261719 10.523438-10.523437 27.738281-10.523437 38.261719 0l131.433594 131.433594c10.523437 10.523438 10.523437 27.738281 0 38.261719-10.519532 10.523437-27.738282 10.523437-38.261719 0zm0 0" fill="#ffc2e1"/><path d="m379.371094 67.886719c10.523437-10.523438 27.742187-10.523438 38.261718 0l-52.476562-52.476563c-10.523438-10.523437-27.738281-10.523437-38.261719 0-10.523437 10.523438-10.523437 27.738282 0 38.261719l52.476563 52.476563c-10.519532-10.523438-10.519532-27.738282 0-38.261719zm0 0" fill="#ffabcd"/><path d="m249.429688 393.75-131.179688-131.179688c-10.589844-10.59375-10.589844-27.925781 0-38.519531 10.59375-10.589843 27.929688-10.589843 38.519531 0l131.179688 131.179688c10.589843 10.59375 10.589843 27.925781 0 38.519531-10.59375 10.589844-27.925781 10.589844-38.519531 0zm0 0" fill="#ffc2e1"/><path d="m170.601562 276.65625c10.523438-10.523438 27.738282-10.523438 38.261719 0l-52.476562-52.476562c-10.523438-10.523438-27.742188-10.523438-38.261719 0-10.523438 10.523437-10.523438 27.742187 0 38.261718l52.476562 52.476563c-10.523437-10.519531-10.523437-27.738281 0-38.261719zm0 0" fill="#ffabcd"/><path d="m374.226562 146.578125-8.804687-8.804687c-2.929687-2.929688-7.675781-2.929688-10.609375 0-2.925781 2.929687-2.925781 7.679687 0 10.609374l8.804688 8.804688c2.929687 2.929688 7.679687 2.929688 10.609374 0 2.929688-2.929688 2.929688-7.679688 0-10.609375zm0 0"/><path d="m240.742188 262.453125 8.804687 8.804687c2.929687 2.925782 7.679687 2.925782 10.609375 0 2.929688-2.929687 2.929688-7.679687 0-10.609374l-8.804688-8.804688c-2.929687-2.929688-7.679687-2.929688-10.609374 0-2.925782 2.929688-2.925782 7.679688 0 10.609375zm0 0"/><path d="m288.242188 226.066406c.519531 4.109375 4.273437 7.019532 8.382812 6.5 10.167969-1.285156 19.253906-5.929687 26.117188-12.792968 6.867187-6.863282 11.507812-15.949219 12.792968-26.117188.519532-4.113281-2.390625-7.863281-6.5-8.382812-4.109375-.519532-7.863281 2.390624-8.382812 6.5-1.710938 13.542968-12.363282 24.199218-25.910156 25.910156-4.109376.519531-7.019532 4.273437-6.5 8.382812zm0 0"/><path d="m52.984375 401.628906c-15.824219 15.824219-15.824219 41.566406 0 57.386719 15.820313 15.824219 41.566406 15.824219 57.386719 0 15.824218-15.820313 15.824218-41.566406 0-57.386719-15.820313-15.824218-41.566406-15.824218-57.386719 0zm46.78125 46.78125c-9.976563 9.972656-26.203125 9.972656-36.175781 0s-9.972656-26.199218 0-36.175781c9.972656-9.972656 26.199218-9.972656 36.175781 0 9.972656 9.976563 9.972656 26.203125 0 36.175781zm0 0"/><path d="m295.792969 352.765625 159.929687-159.929687c13.558594 10.988281 33.5625 10.183593 46.171875-2.425782 13.472657-13.472656 13.472657-35.398437 0-48.871094l-131.433593-131.433593c-13.472657-13.472657-35.394532-13.472657-48.871094 0-12.519532 12.519531-13.398438 32.328125-2.648438 45.882812l-27.621094 27.621094c-2.929687 2.929687-2.929687 7.675781 0 10.605469 2.925782 2.929687 7.675782 2.929687 10.605469 0l27.453125-27.453125 115.601563 115.601562-159.644531 159.648438-13.136719-13.136719c-2.929688-2.929688-7.675781-2.929688-10.609375 0-2.925782 2.925781-2.925782 7.675781 0 10.605469l21.054687 21.054687c7.695313 7.695313 7.695313 20.214844 0 27.910156-7.695312 7.695313-20.214843 7.695313-27.910156 0l-131.179687-131.179687c-7.695313-7.695313-7.695313-20.214844 0-27.910156 7.695312-7.695313 20.214843-7.695313 27.910156 0l87.402344 87.402343c2.929687 2.929688 7.675781 2.929688 10.609374 0 2.925782-2.929687 2.925782-7.679687 0-10.609374l-79.742187-79.742188 108.890625-108.890625c2.929688-2.929687 2.929688-7.675781 0-10.609375-2.929688-2.925781-7.675781-2.925781-10.605469 0l-109.078125 109.078125c-13.617187-10.695313-33.449218-9.78125-45.992187 2.765625-13.546875 13.542969-13.546875 35.582031-.003907 49.125l40.996094 40.996094-44.589844 44.585937c-28.847656-10.335937-62.390624-3.984375-85.457031 19.085938-31.859375 31.859375-31.859375 83.703125 0 115.5625 31.863281 31.859375 83.703125 31.859375 115.5625 0 2.929688-2.929688 2.929688-7.675781 0-10.605469-2.929687-2.929688-7.675781-2.929688-10.605469 0-26.011718 26.007812-68.335937 26.007812-94.347656-.003906-26.011718-26.011719-26.011718-68.335938 0-94.347656 26.011719-26.011719 68.335938-26.011719 94.347656 0 18.105469 18.105468 24.265626 45.402343 15.695313 69.542968-1.386719 3.90625.660156 8.195313 4.5625 9.578125 3.902344 1.386719 8.191406-.65625 9.574219-4.558593 6.40625-18.050782 6.078125-37.53125-.183594-55.019532l44.632812-44.632812 40.992188 40.996094c13.546875 13.542968 35.582031 13.542968 49.128906-.003907 12.632813-12.632812 13.476563-32.65625 2.539063-46.285156zm36.40625-332.054687c7.625-7.625 20.03125-7.625 27.65625 0l131.433593 131.433593c7.625 7.625 7.625 20.03125 0 27.65625s-20.03125 7.625-27.65625 0l-131.433593-131.433593c-7.625-7.625-7.625-20.03125 0-27.65625zm-180.496094 367.5625c-3.382813-5.664063-7.472656-10.960938-12.246094-15.730469-4.820312-4.824219-10.109375-8.90625-15.707031-12.269531l40.796875-40.796876 27.976563 27.972657zm0 0"/></svg>