<?xml version="1.0" encoding="iso-8859-1"?>
<!-- Generator: Adobe Illustrator 19.0.0, SVG Export Plug-In . SVG Version: 6.00 Build 0)  -->
<svg xmlns="http://www.w3.org/2000/svg" xmlns:xlink="http://www.w3.org/1999/xlink" version="1.1" id="Layer_1" x="0px" y="0px" viewBox="0 0 512 512" style="enable-background:new 0 0 512 512;" xml:space="preserve" width="512" height="512">
<g>
	<g>
		<path style="fill:#38484A;" d="M26.428,225.78c0-58.662,24.119-113.71,67.915-155.002C137.621,29.973,195.032,7.5,256,7.5    s118.379,22.473,161.658,63.278c43.795,41.293,67.914,96.34,67.914,155.002H26.428z"/>
		<path style="fill:#38484A;" d="M123.271,363.808c-44.045-1.134-74.086-21.542-89.113-34.884    c-6.012-5.338-6.659-14.516-1.42-20.614c12.531-14.584,17.051-32.069,17.051-32.069V256H93L123.271,363.808z"/>
		<path style="fill:#38484A;" d="M388.729,363.808c44.045-1.134,74.086-21.542,89.113-34.884c6.012-5.338,6.659-14.516,1.42-20.614    c-12.531-14.584-17.051-32.069-17.051-32.069V256H419L388.729,363.808z"/>
		<path style="fill:#FBBCA1;" d="M136.62,382.18c-15.53,9.35-53.11,40.43-53.11,122.32h53.11l16.735-21.5v-81.333L136.62,382.18z"/>
		<path style="fill:#FBBCA1;" d="M375.38,382.18l-16.735,19.487V483l16.735,21.5h53.11C428.49,422.61,390.91,391.53,375.38,382.18z"/>
		<path style="fill:#FFDE76;" d="M375.38,382.18V504.5H136.62V382.18c4.05-2.44,6.6-3.4,6.6-3.4h225.56    C368.78,378.78,371.33,379.74,375.38,382.18z"/>
		<circle style="fill:#E3A98E;" cx="256" cy="408.097" r="44.289"/>
		<circle style="fill:#E3A98E;" cx="61.726" cy="233.106" r="44.758"/>
		<circle style="fill:#E3A98E;" cx="450.274" cy="233.106" r="44.758"/>
		<path style="fill:#FBBCA1;" d="M453.603,225.199c-0.077-23.756-11.048-46.195-29.607-61.025    C389.889,136.92,325.764,102.132,256.5,149c-69.254-46.861-133.83-12.089-168.237,15.162    c-18.714,14.822-29.815,37.361-29.867,61.233c0,0.128,0,0.256,0,0.385c0,102.898,88.47,186.313,197.604,186.313    s197.604-83.415,197.604-186.313C453.604,225.586,453.604,225.393,453.603,225.199z"/>
		<g id="XMLID_103_">
			<path style="fill:#F97579;" d="M372.236,274.91h-27.183c-4.143,0-7.5-3.358-7.5-7.5s3.357-7.5,7.5-7.5h27.183     c4.143,0,7.5,3.358,7.5,7.5S376.378,274.91,372.236,274.91z"/>
		</g>
		<g id="XMLID_97_">
			<path style="fill:#F97579;" d="M166.947,274.91h-27.183c-4.142,0-7.5-3.358-7.5-7.5s3.358-7.5,7.5-7.5h27.183     c4.142,0,7.5,3.358,7.5,7.5S171.089,274.91,166.947,274.91z"/>
		</g>
	</g>
	<g>
		<path d="M358.645,245.575c4.142,0,7.5-3.358,7.5-7.5v-19.958c0-4.142-3.358-7.5-7.5-7.5s-7.5,3.358-7.5,7.5v19.958    C351.145,242.217,354.502,245.575,358.645,245.575z"/>
		<path d="M153.355,245.575c4.142,0,7.5-3.358,7.5-7.5v-19.958c0-4.142-3.358-7.5-7.5-7.5s-7.5,3.358-7.5,7.5v19.958    C145.855,242.217,149.213,245.575,153.355,245.575z"/>
		<path d="M279.295,252.513c-3.119-2.726-7.857-2.408-10.583,0.711c-3.088,3.533-7.721,5.559-12.712,5.559    s-9.624-2.026-12.712-5.559c-2.726-3.118-7.463-3.438-10.583-0.71c-3.119,2.726-3.437,7.464-0.71,10.583    c5.937,6.792,14.687,10.687,24.005,10.687c9.319,0,18.069-3.896,24.006-10.687C282.732,259.977,282.414,255.239,279.295,252.513z"/>
		<path d="M502.532,233.106c0-11.967-4.053-22.999-10.845-31.819c-5.829-51.958-29.608-98.933-68.885-135.967    C378.126,23.198,318.888,0,256,0c-56.41,0-110.998,19.125-153.708,53.854c-3.214,2.613-3.701,7.337-1.087,10.55    c2.612,3.214,7.337,3.7,10.55,1.088C151.799,32.932,203.026,15,256,15c59.047,0,114.631,21.747,156.513,61.235    c32.502,30.646,53.638,68.539,61.794,110.464c-0.279-0.145-0.568-0.269-0.85-0.409c-4.995-2.476-10.387-4.151-15.91-4.921    c-2.964-0.413-5.96-0.593-8.952-0.492c-3.25-5.322-7.094-10.31-11.49-14.874c-0.03-0.031-0.06-0.062-0.09-0.093    c-4.144-4.314-8.82-8.069-13.589-11.662c-23.506-17.712-51.02-31.205-80.476-34.826c-28.321-3.483-55.768,2.492-81.858,17.82    c-0.219,0.129-3.285,1.965-4.593,2.793c-1.514-0.959-3.048-1.887-4.594-2.793c-26.104-15.329-53.624-21.305-82.072-17.82    c-0.114,0.014-0.227,0.03-0.341,0.044c-32.495,4.036-64.501,20.061-89.083,41.482c-6.705,5.842-12.379,12.568-16.911,19.933    c-6.72-0.241-13.497,0.85-19.805,3.178c-1.755,0.648-5.713,2.49-5.989,2.633c7.382-37.724,25.411-72.488,52.758-101.43    c2.845-3.011,2.71-7.757-0.3-10.602c-3.012-2.846-7.758-2.71-10.602,0.3c-33.493,35.445-53.943,79.086-59.251,126.33    c-6.791,8.819-10.842,19.85-10.842,31.815c0,21.201,12.698,39.479,30.881,47.667c-2.282,5.839-6.495,14.73-13.3,22.65    c-7.853,9.141-6.897,23.096,2.129,31.11c14.616,12.978,45.743,34.75,91.397,36.673c2.813,2.342,5.687,4.618,8.633,6.814    C110.767,390.485,76.01,424.603,76.01,504.5c0,4.142,3.358,7.5,7.5,7.5h344.98c4.142,0,7.5-3.358,7.5-7.5    c0-19.625-2.13-37.839-6.331-54.134c-1.035-4.011-5.128-6.422-9.135-5.39c-4.011,1.034-6.424,5.124-5.39,9.135    c3.351,12.998,5.278,27.396,5.745,42.889H382.88v-99.874c7.174,6.472,15.503,16.212,22.526,30.418    c1.835,3.712,6.331,5.236,10.047,3.399c3.713-1.835,5.235-6.333,3.399-10.047c-11.518-23.301-26.408-36.333-36.064-42.875    c2.947-2.196,5.822-4.474,8.636-6.816c45.655-1.923,76.781-23.696,91.396-36.673c9.027-8.014,9.983-21.97,2.13-31.11    c-6.759-7.867-10.989-16.795-13.286-22.656C489.841,272.577,502.532,254.302,502.532,233.106z M437.262,279.707    c-20.958,62.186-77.155,109.753-146.437,121.868c-22.971,4.017-46.68,4.017-69.65,0c-69.251-12.109-125.428-59.64-146.408-121.785    c-12.15-35.99-16.069-80.095,15.509-107.544c26.158-22.737,61.544-39.229,96.622-38.749c23.504,0.321,46.056,8.624,65.399,21.714    c2.222,1.504,5.047,1.691,7.42,0.564c3.281-1.559,6.108-3.915,9.227-5.753c15.791-9.304,34.027-15.34,52.446-16.365    c34.663-1.93,67.72,13.152,94.703,33.859C451.75,194.878,450.394,240.73,437.262,279.707z M234.955,418.579    c6.992,0.682,14.02,1.014,21.045,1.014c11.871,0,23.984-0.983,35.785-2.943c-3.866,16.174-18.444,28.236-35.785,28.236    c-17.345,0-31.925-12.065-35.788-28.237C225.088,417.459,230.004,418.103,234.955,418.579z M24.468,233.106    c0-13.176,7.291-25.757,18.78-32.336c3.936-2.254,8.32-3.783,12.802-4.479c-2.921,8.013-4.641,16.491-5.051,25.202    c-0.509,11.11,0.43,22.441,2.216,33.408c0.815,5.001,1.818,10.091,3.042,15.052c-0.266-0.04-3.149-0.584-4.306-0.898    C36.134,264.75,24.468,250.269,24.468,233.106z M39.137,323.315c-2.941-2.611-3.26-7.15-0.71-10.117    c8.653-10.07,13.778-21.308,16.398-28.293c0.157,0.021,0.314,0.03,0.471,0.049c1.813,0.226,3.662,0.368,5.489,0.401    c8.667,25.389,22.811,48.772,41.493,68.74C71.505,348.372,50.124,333.07,39.137,323.315z M129.12,397.091V497h-38    C92.8,440.415,113.383,411.224,129.12,397.091z M144.12,388.234c18.694,11.524,39.038,19.989,60.365,25.199    c2.68,26.059,24.76,46.452,51.515,46.452c26.755,0,48.835-20.394,51.514-46.452c21.328-5.211,41.672-13.675,60.365-25.199V497    H144.12V388.234z M457.175,284.905c2.62,6.985,7.746,18.223,16.398,28.293c2.55,2.967,2.231,7.506-0.711,10.118    c-10.986,9.754-32.367,25.056-63.14,30.78c18.69-19.976,32.836-43.364,41.493-68.74    C453.204,285.32,455.204,285.168,457.175,284.905z M460.014,269.063c-1.138,0.309-2.32,0.569-3.495,0.768    c-0.259,0.044-0.518,0.083-0.777,0.122c3.002-12.163,4.741-24.662,5.214-37.179c0.471-12.471-0.683-24.673-4.952-36.475    c0.073,0.011,0.147,0.019,0.22,0.03c6.332,1.024,12.395,3.737,17.387,7.76c8.724,7.03,13.92,17.807,13.92,29.018    C487.532,250.28,475.848,264.768,460.014,269.063z"/>
	</g>
</g>















</svg>
