<?xml version="1.0" encoding="iso-8859-1"?>
<!-- Generator: Adobe Illustrator 19.0.0, SVG Export Plug-In . SVG Version: 6.00 Build 0)  -->
<svg xmlns="http://www.w3.org/2000/svg" xmlns:xlink="http://www.w3.org/1999/xlink" version="1.1" id="Layer_1" x="0px" y="0px" viewBox="0 0 512 512" style="enable-background:new 0 0 512 512;" xml:space="preserve" width="512" height="512">
<g>
	<g>
		<polygon style="fill:#FAB3CE;" points="302.52,291.08 286.92,338.44 304.19,346.503 343.84,332.4 349.87,275.48 330.19,275.48       "/>
		<polygon style="fill:#80C9FF;" points="236.52,162.12 220.92,209.47 188.857,228.837 173.48,225.13 179.53,168.17     193.857,155.837   "/>
		<path style="fill:#FAB3CE;" d="M286.92,338.44c-2.43,3.33-5.15,6.51-8.15,9.51c-31.68,31.68-83.04,31.68-114.72,0    c-31.68-31.68-31.68-83.05,0-114.73c2.98-2.98,6.13-5.68,9.43-8.09c14.08-10.35,30.75-15.57,47.44-15.66    c20.92-0.13,41.89,7.79,57.85,23.75s23.88,36.93,23.75,57.86c16.66-0.09,33.29-5.29,47.35-15.6    c-3.25-27.91-15.59-54.96-36.99-76.36c-21.41-21.41-48.46-33.75-76.36-37c-19.11-2.24-38.62-0.22-56.99,6.05    c-18.11,6.18-35.13,16.5-49.58,30.95c-44.37,44.36-49.76,112.93-16.21,163.19L84.4,391.65l-12.41-12.42    c-4.21-4.21-11.04-4.21-15.25,0l-17.62,17.63c-4.21,4.21-4.21,11.03,0,15.24l12.41,12.42L7.5,468.56l35.94,35.94l44.04-44.04    l12.41,12.42c4.21,4.21,11.04,4.21,15.25,0l17.62-17.63c4.21-4.21,4.21-11.03,0-15.24l-12.41-12.42l29.34-29.34    c50.26,33.56,118.82,28.16,163.19-16.2c14.46-14.47,24.78-31.51,30.96-49.65C325.48,338.66,306,340.67,286.92,338.44z"/>
		<path style="fill:#80C9FF;" d="M482.22,7.5h-81c-3.98,0-7.21,3.23-7.21,7.21v30.13c0,3.98,3.23,7.21,7.21,7.21H424l-50.24,50.25    c-50.26-33.56-118.83-28.16-163.19,16.2c-14.5,14.5-24.84,31.54-31.04,49.67c18.37-6.27,37.88-8.29,56.99-6.05    c2.42-3.33,5.14-6.51,8.15-9.52c31.68-31.68,83.04-31.68,114.72,0c31.68,31.68,31.68,83.05,0,114.73    c-3.01,3.01-6.19,5.73-9.52,8.15c-14.06,10.31-30.69,15.51-47.35,15.6c-20.92,0.13-41.89-7.79-57.85-23.75    c-15.97-15.97-23.89-36.94-23.75-57.86c-16.69,0.09-33.36,5.31-47.44,15.66c3.27,27.76,15.57,54.68,36.88,76.09    c21.44,21.54,48.57,33.95,76.56,37.22c19.08,2.23,38.56,0.22,56.92-6.04c18.14-6.17,35.19-16.5,49.66-30.97    c44.36-44.36,49.76-112.93,16.2-163.19l50.25-50.25v22.79c0,3.98,3.22,7.2,7.2,7.2h30.14c3.98,0,7.21-3.22,7.21-7.2V29.77    C504.5,17.47,494.52,7.5,482.22,7.5z"/>
	</g>
	<g>
		<path d="M482.22,0.018h-81c-8.111,0-14.71,6.599-14.71,14.71v30.14c0,8.105,6.599,14.7,14.71,14.7h4.676l-33.19,33.196    c-26.965-16.291-58.777-22.751-90.271-18.219c-4.1,0.59-6.945,4.392-6.355,8.492c0.59,4.1,4.389,6.943,8.492,6.355    c29.879-4.299,60.077,2.506,85.023,19.164c2.975,1.986,6.939,1.595,9.469-0.935c0,0,50.145-50.155,50.24-50.25    c4.635-4.636,1.215-12.803-5.304-12.803h-22.49v-29.55h80.71c8.15,0,14.78,6.63,14.78,14.78v80.71h-29.55c0,0,0-22.442,0-22.49    c0-6.541-8.171-9.937-12.803-5.304l-50.25,50.24c-2.53,2.529-2.921,6.493-0.935,9.469    c32.121,48.105,25.701,112.755-15.266,153.722c-14.718,14.718-33.181,25.584-53.238,31.178    c-42.048,11.731-88.464-0.412-119.285-31.367c-18.453-18.531-30.198-41.698-34.141-67.242c9.365-6.07,20.084-9.929,31.173-11.219    c0.336-0.039,0.673-0.069,1.01-0.104c1.703,20.872,10.649,40.258,25.65,55.26c17.469,17.469,42.046,26.949,66.714,25.86    c21.903-0.967,43.119-10.364,58.613-25.86c34.553-34.553,34.553-90.774,0-125.327c-34.552-34.552-90.772-34.552-125.326,0    c-2.205,2.205-4.295,4.526-6.244,6.933c-9.939-0.847-19.99-0.593-29.876,0.722c-3.682,0.49-7.346,1.122-10.977,1.905    c5.905-12.19,13.809-23.269,23.603-33.063c11.976-11.975,25.98-21.156,41.626-27.287c3.856-1.511,5.758-5.863,4.247-9.719    c-1.511-3.857-5.863-5.758-9.719-4.247c-17.582,6.889-33.314,17.2-46.76,30.646c-14.117,14.117-24.735,30.623-31.602,49.104    c-18.46,6.847-34.938,17.435-49.018,31.515c-44.548,44.538-52.72,114.019-20.45,167.44l-19.789,19.789l-7.115-7.109    c-7.129-7.129-18.728-7.129-25.856,0l-17.62,17.62c-7.129,7.128-7.129,18.728,0,25.856l7.107,7.107L2.196,463.276    c-2.929,2.929-2.928,7.677,0,10.606c0,0,35.934,35.934,35.94,35.94c2.842,2.842,7.688,2.918,10.606,0l38.737-38.728l7.107,7.107    c7.128,7.127,18.728,7.127,25.855,0.001l17.638-17.628c7.108-7.125,7.108-18.719-0.008-25.852l-7.113-7.108l19.785-19.792    c22.128,13.38,47.418,20.138,73.559,19.593c4.141-0.087,7.428-3.514,7.342-7.655s-3.506-7.433-7.655-7.342    c-25.115,0.531-49.373-6.524-70.133-20.388c-2.976-1.987-6.94-1.595-9.469,0.935c0,0-29.308,29.319-29.34,29.35    c-2.881,2.882-2.874,7.734,0.003,10.607l12.412,12.402c1.28,1.284,1.28,3.373,0.008,4.648l-17.632,17.622    c-1.28,1.28-3.363,1.28-4.644,0l-12.41-12.41c-2.928-2.928-7.677-2.93-10.606,0L43.44,493.912l-25.334-25.334l38.728-38.737    c2.929-2.929,2.928-7.677,0-10.606l-12.41-12.41c-1.28-1.28-1.28-3.363,0-4.644l17.62-17.62c1.281-1.28,3.364-1.28,4.646,0.002    l12.42,12.41c2.929,2.926,7.676,2.925,10.604-0.002l29.34-29.34c2.529-2.529,2.92-6.493,0.934-9.468    c-32.125-48.11-25.705-112.76,15.266-153.722c24.845-24.839,59.773-37.831,94.82-35.366c29.017,2.041,56.801,14.662,77.504,35.366    c18.54,18.54,30.325,41.792,34.255,67.48c-0.267,0.173-0.532,0.349-0.801,0.518c-9.415,5.912-20.198,9.609-31.3,10.755    c-1.708-20.881-10.653-40.266-25.647-55.259c-17.512-17.511-42.016-26.889-66.721-25.86c-21.942,0.969-43.094,10.333-58.615,25.86    c-34.555,34.555-34.555,90.781,0,125.336c16.738,16.739,38.995,25.957,62.668,25.957s45.93-9.218,62.668-25.957    c2.206-2.206,4.296-4.527,6.245-6.934c12.515,1.063,25.19,0.39,37.525-1.965c1.095-0.209,2.191-0.426,3.281-0.66    c-5.89,12.198-13.779,23.274-23.558,33.054c-15.482,15.485-34.824,26.515-55.937,31.896c-4.014,1.023-6.438,5.106-5.415,9.12    c1.023,4.013,5.104,6.438,9.12,5.415c23.723-6.046,45.452-18.435,62.838-35.825c14.093-14.092,24.688-30.592,31.536-49.084    c18.492-6.847,34.991-17.443,49.084-31.536c44.543-44.543,52.715-114.024,20.45-167.44l33.196-33.189v4.676    c0,8.111,6.594,14.71,14.7,14.71h30.14c8.111,0,14.71-6.599,14.71-14.71v-81C512,13.378,498.641,0.018,482.22,0.018z     M250.993,156.962c28.78-27.711,74.723-27.401,103.094,0.969c28.371,28.371,28.681,74.315,0.969,103.094    c-5.554-25.442-18.142-48.46-36.873-67.19C299.452,175.103,276.433,162.516,250.993,156.962z M294.664,283.244    c-16.875-1.654-32.52-9.028-44.691-21.199c-12.172-12.172-19.536-27.819-21.189-44.694c16.883,1.653,32.529,9.027,44.693,21.191    C285.642,250.707,293.005,266.357,294.664,283.244z M169.353,342.665c-13.905-13.905-21.563-32.395-21.563-52.062    c0-19.167,7.291-37.203,20.533-50.98c5.561,25.29,18.098,48.213,36.723,66.917c18.768,18.847,41.864,31.51,67.416,37.091    c-13.785,13.282-31.848,20.597-51.046,20.597C201.748,364.228,183.258,356.57,169.353,342.665z"/>
	</g>
</g>















</svg>
