<?xml version="1.0" encoding="iso-8859-1"?>
<!-- Generator: Adobe Illustrator 19.0.0, SVG Export Plug-In . SVG Version: 6.00 Build 0)  -->
<svg xmlns="http://www.w3.org/2000/svg" xmlns:xlink="http://www.w3.org/1999/xlink" version="1.1" id="Layer_1" x="0px" y="0px" viewBox="0 0 511.879 511.879" style="enable-background:new 0 0 511.879 511.879;" xml:space="preserve" width="512" height="512">
<g>
	<g>
		<path style="fill:#E0D8E3;" d="M133.597,352.8L21.088,464.037c-11.157,11.157-11.157,29.245,0,40.402l132.711-131.439    L133.597,352.8z"/>
		
			<rect x="388.332" y="36.531" transform="matrix(0.7071 0.7071 -0.7071 0.7071 190.5285 -256.4609)" style="fill:#80C9FF;" width="33.017" height="130.454"/>
		
			<rect x="417.199" y="48.488" transform="matrix(-0.7071 -0.7071 0.7071 -0.7071 688.8423 431.1096)" style="fill:#6DAAD9;" width="33.016" height="48.807"/>
		<path style="fill:#F5F5F5;" d="M493.65,71.726l-58.779-58.778c-7.344-7.344-19.252-7.344-26.597,0l0,0    c-7.344,7.344-7.344,19.252,0,26.597l58.778,58.778c7.344,7.344,19.252,7.344,26.597,0l0,0    C500.995,90.978,500.995,79.071,493.65,71.726z"/>
		<path style="fill:#D9D9D9;" d="M493.65,71.726l-21.213-21.213c7.345,7.345,7.344,19.252,0,26.597l0,0    c-7.345,7.345-19.252,7.345-26.597,0l21.213,21.213c7.345,7.345,19.252,7.345,26.597,0l0,0    C500.994,90.978,500.995,79.071,493.65,71.726z"/>
		<polygon style="fill:#A49EA6;" points="95.697,390.271 115.931,410.505 153.798,373.001 133.597,352.8   "/>
		<path style="fill:#F5F5F5;" d="M147.08,310.118l-32.247,32.247c-6.797,6.797-6.797,17.818,0,24.615l24.785,24.785    c6.797,6.797,17.818,6.797,24.615,0l32.247-32.247L147.08,310.118z"/>
		<path style="fill:#D9D9D9;" d="M175.266,338.304l-32.247,32.247c-6.797,6.797-17.817,6.797-24.615,0l21.213,21.213    c6.797,6.797,17.818,6.797,24.615,0l32.247-32.247L175.266,338.304z"/>
		<path style="fill:#80C9FF;" d="M302.13,91.292L117.521,275.901c-12.204,12.204-12.204,31.991,0,44.195l68.981,68.981    c12.204,12.204,31.991,12.204,44.195,0l184.609-184.609L302.13,91.292z"/>
		<path style="fill:#FC7176;" d="M323.497,256.739L210.925,369.311c-1.285,1.285-3.367,1.285-4.652,0l-68.986-68.986    c-1.285-1.285-1.285-3.367,0-4.652l96.759-96.759C263.617,228.485,288.938,222.18,323.497,256.739z"/>
		<path style="fill:#F5F5F5;" d="M438.102,194.76L311.838,68.495c-4.07-4.07-10.669-4.07-14.739,0l-11.222,11.222    c-7.685,7.685-7.685,20.144,0,27.828l113.176,113.176c7.685,7.685,20.144,7.685,27.828,0l11.222-11.222    C442.173,205.429,442.173,198.83,438.102,194.76z"/>
		<path style="fill:#D9D9D9;" d="M438.102,194.76l-21.213-21.213c4.07,4.07,4.07,10.669,0,14.739l-11.222,11.222    c-7.684,7.684-20.144,7.685-27.828,0l21.213,21.213c7.685,7.685,20.144,7.684,27.828,0l11.222-11.222    C442.173,205.429,442.172,198.83,438.102,194.76z"/>
	</g>
	<g>
		<path d="M228.719,193.572c0,0-96.658,96.658-96.758,96.758c-4.164,4.164-4.162,11.098-0.001,15.259    c0,0,68.921,68.921,68.985,68.985c4.164,4.164,11.098,4.163,15.259,0.001l71.252-71.252c2.929-2.929,2.929-7.678,0-10.606    c-2.929-2.929-7.678-2.929-10.606,0l-68.274,68.274l-63.032-63.031l88.645-88.645c13.179,11.6,25.747,17.23,37.949,22.696    c12.738,5.706,25.862,11.585,40.591,24.827l-15.394,15.394c-2.929,2.929-2.929,7.678,0,10.606c2.929,2.929,7.678,2.929,10.606,0    l20.835-20.835c2.929-2.929,2.929-7.678,0-10.606c-18.929-18.929-35.706-26.444-50.507-33.074    c-13.223-5.923-25.711-11.518-38.945-24.75C236.397,190.643,231.648,190.643,228.719,193.572z"/>
		<path d="M281.187,164.458l6.47-6.47c2.929-2.929,2.929-7.678,0-10.606c-2.929-2.929-7.678-2.929-10.606,0l-6.47,6.47    c-2.929,2.929-2.929,7.678,0,10.606C273.471,167.348,278.301,167.343,281.187,164.458z"/>
		<path d="M352.685,235.956l6.47-6.47c2.929-2.929,2.929-7.678,0-10.607c-2.929-2.928-7.678-2.929-10.607,0l-6.47,6.47    c-2.929,2.929-2.929,7.678,0,10.607C344.901,238.778,349.751,238.889,352.685,235.956z"/>
		<path d="M303.762,178.147c-4.132-0.288-7.708,2.848-7.985,6.98c-0.458,6.808,2.13,13.563,7.099,18.533    c4.593,4.593,10.711,7.152,16.988,7.152c4.617,0,8.865-2.986,8.525-8.038c-0.278-4.133-3.854-7.266-7.985-6.98    c-2.487,0.161-5.013-0.832-6.921-2.74c-1.909-1.909-2.907-4.432-2.74-6.922C311.02,181.999,307.895,178.424,303.762,178.147z"/>
		<path d="M151.902,404.324c6.652,0,12.907-2.591,17.61-7.295l7.176-7.176c0,0,4.485,4.485,4.488,4.488    c14.93,14.93,39.893,14.909,54.801,0l163.795-163.795c3.985,2.215,8.486,3.399,13.172,3.399c7.259,0,14.084-2.827,19.217-7.96    l11.222-11.222c6.988-6.988,6.988-18.358,0-25.346l-46.156-46.156l52.088-52.087c0,0,12.404,12.404,12.413,12.413    c10.144,10.144,27.067,10.136,37.203,0c10.144-10.145,10.138-27.067,0-37.203c0,0-58.735-58.735-58.778-58.778    c-10.145-10.145-27.067-10.137-37.203,0c-10.143,10.144-10.135,27.069,0,37.203l12.413,12.413l-52.088,52.088    c0,0-46.094-46.094-46.156-46.156c-6.913-6.913-18.442-6.904-25.345,0l-11.222,11.222c-8.757,8.757-10.27,22.049-4.553,32.381    L155.803,226.95c-2.929,2.929-2.929,7.678,0,10.606c2.929,2.929,7.678,2.929,10.606,0l119.444-119.444l102.569,102.569    L225.37,383.735c-9.26,9.259-24.327,9.26-33.588,0l-68.981-68.98c-9.26-9.26-9.26-24.328,0-33.588l22.737-22.737    c2.929-2.929,2.929-7.678,0-10.606c-2.929-2.929-7.678-2.929-10.606,0c0,0-22.72,22.72-22.737,22.737    c-14.929,14.929-14.918,39.885,0,54.801l4.488,4.488c0,0-7.172,7.171-7.175,7.175c-8.396,8.396-9.646,22.058-2.853,31.806    c0,0-90.842,89.816-90.893,89.866c-13.966,13.808-13.818,37.191,0,51.008c2.89,2.89,7.676,2.902,10.581,0.025l111.099-110.034    C141.634,402.698,146.642,404.324,151.902,404.324z M410.315,26.206c0-2.917,1.081-5.833,3.241-7.993    c4.359-4.359,11.641-4.349,15.99-0.001c0,0,58.689,58.689,58.778,58.778c4.36,4.36,4.353,11.636,0.001,15.99    c-4.363,4.363-11.632,4.358-15.991,0c0,0-58.667-58.668-58.778-58.779C411.394,32.04,410.314,29.123,410.315,26.206z     M425.968,67.828l12.74,12.74l-52.088,52.087l-12.74-12.739L425.968,67.828z M291.157,84.982c0,0,11.22-11.22,11.222-11.222    c1.09-1.09,2.99-1.143,4.133,0l126.264,126.265c1.139,1.14,1.139,2.993,0,4.133l-11.222,11.222c-2.3,2.3-5.358,3.567-8.611,3.567    s-6.311-1.267-8.611-3.567L291.157,102.203C286.409,97.455,286.409,89.73,291.157,84.982z M158.905,386.423    c-3.818,3.818-10.195,3.813-14.008,0c0,0-24.761-24.762-24.784-24.785c-3.823-3.823-3.818-10.189,0-14.007l7.175-7.175    l38.792,38.792C166.081,379.247,158.916,386.412,158.905,386.423z M22.051,492.868c-1.214-2.689-1.854-5.63-1.854-8.668    c0-5.627,2.191-10.918,6.141-14.867l90.641-89.616l9.613,9.613L22.051,492.868z"/>
	</g>
</g>















</svg>
