<?xml version="1.0" encoding="iso-8859-1"?>
<!-- Generator: Adobe Illustrator 19.0.0, SVG Export Plug-In . SVG Version: 6.00 Build 0)  -->
<svg xmlns="http://www.w3.org/2000/svg" xmlns:xlink="http://www.w3.org/1999/xlink" version="1.1" id="Layer_1" x="0px" y="0px" viewBox="0 0 512.035 512.035" style="enable-background:new 0 0 512.035 512.035;" xml:space="preserve" width="512" height="512">
<g>
	<g>
		<path style="fill:#D9D9D9;" d="M155.883,379.088l-16.171,7.973c-12.83,6.156-26.441,9.102-39.864,9.102    c-31.11,0-61.259-15.776-78.57-43.827C-6.048,308.058,8.636,249.952,53.715,223.963l17.037-9.95L155.883,379.088z"/>
		<path style="fill:#6DAAD9;" d="M243.546,335.854l-87.663,43.234c-43.384-28.719-76.141-82.966-83.747-148.056    c-0.668-5.714-1.13-11.39-1.384-17.019l30.131-17.602c6.278-3.671,10.128-10.392,10.128-17.659v-88.51l99.758-27.58l99.758,27.58    v125.239L243.546,335.854z"/>
		<path style="fill:#D9D9D9;" d="M310.525,19.645h-199.51c-6.687,0-12.108,5.421-12.108,12.108v46.381    c0,6.687,5.421,12.108,12.108,12.108h199.51c6.687,0,12.108-5.421,12.108-12.108V31.753    C322.633,25.066,317.212,19.645,310.525,19.645z"/>
		<path style="fill:#D9D9D9;" d="M310.528,215.482v17.085c0,43.017-24.427,82.297-63.01,101.33l-3.972,1.958    c-5.318-11.041-8.302-23.419-8.302-36.485C235.243,255.929,268.179,220.16,310.528,215.482z"/>
		<path style="fill:#F5F5F5;" d="M337.767,475.315l-16.171,7.973c-12.83,6.156-26.441,9.102-39.864,9.102    c-31.11,0-61.259-15.776-78.57-43.827c-27.326-44.279-12.642-102.385,32.437-128.374l17.037-9.95L337.767,475.315z"/>
		<path style="fill:#80C9FF;" d="M425.43,432.081l-87.663,43.234c-43.384-28.719-76.141-82.966-83.747-148.056    c-0.668-5.714-1.13-11.39-1.384-17.019l30.131-17.602c6.278-3.671,10.128-10.392,10.128-17.659v-88.51l99.758-27.58l99.758,27.58    v125.239L425.43,432.081z"/>
		<path style="fill:#F5F5F5;" d="M492.409,115.872h-199.51c-6.687,0-12.108,5.421-12.108,12.108v46.381    c0,6.687,5.421,12.108,12.108,12.108h199.51c6.687,0,12.108-5.421,12.108-12.108V127.98    C504.517,121.293,499.096,115.872,492.409,115.872z"/>
		<path style="fill:#F5F5F5;" d="M492.413,311.708v17.085c0,43.017-24.427,82.297-63.01,101.33l-3.972,1.958    c-5.318-11.041-8.302-23.419-8.302-36.485C417.128,352.156,450.064,316.387,492.413,311.708z"/>
	</g>
	<g>
		<path d="M337.08,161.148c4.142,0,7.5-3.358,7.5-7.5v-10.061c0-4.142-3.358-7.5-7.5-7.5s-7.5,3.358-7.5,7.5v10.061    C329.58,157.79,332.937,161.148,337.08,161.148z"/>
		<path d="M448.264,161.148c4.142,0,7.5-3.358,7.5-7.5v-10.061c0-4.142-3.358-7.5-7.5-7.5s-7.5,3.358-7.5,7.5v10.061    C440.764,157.79,444.122,161.148,448.264,161.148z"/>
		<path d="M392.672,166.519c7.511,0,14.57-3.147,19.367-8.634c2.726-3.118,2.408-7.856-0.71-10.583    c-3.118-2.727-7.856-2.409-10.583,0.71c-1.948,2.228-4.891,3.506-8.074,3.506s-6.126-1.278-8.074-3.507    c-2.727-3.119-7.464-3.437-10.583-0.711s-3.437,7.464-0.711,10.583C378.101,163.371,385.16,166.519,392.672,166.519z"/>
		<path d="M162.695,57.421V47.36c0-4.142-3.358-7.5-7.5-7.5s-7.5,3.358-7.5,7.5v10.061c0,4.142,3.358,7.5,7.5,7.5    S162.695,61.564,162.695,57.421z"/>
		<path d="M266.379,64.921c4.142,0,7.5-3.358,7.5-7.5V47.36c0-4.142-3.358-7.5-7.5-7.5s-7.5,3.358-7.5,7.5v10.061    C258.879,61.564,262.237,64.921,266.379,64.921z"/>
		<path d="M210.788,70.292c7.511,0,14.57-3.147,19.367-8.634c2.726-3.118,2.408-7.856-0.71-10.583    c-3.118-2.726-7.856-2.409-10.583,0.71c-1.948,2.228-4.891,3.506-8.074,3.506c-3.184,0-6.126-1.278-8.074-3.507    c-2.727-3.119-7.464-3.437-10.583-0.711c-3.119,2.726-3.437,7.464-0.711,10.583C196.216,67.145,203.275,70.292,210.788,70.292z"/>
		<path d="M99.865,403.795c14.996,0,29.5-3.311,43.18-9.875l42.731-21.072c-0.28,0.984-0.551,1.973-0.803,2.97    c-6.665,26.381-2.465,53.661,11.824,76.816c26.463,42.882,82.728,59.299,128.133,37.512l107.808-53.166    c20.188-9.958,37.141-25.324,49.025-44.437c11.885-19.113,18.167-41.112,18.167-63.62l0-136.322    c7.099-2.952,12.105-9.955,12.105-18.11v-46.381c0-10.812-8.796-19.608-19.608-19.608H318.046l0-12.128    c7.099-2.952,12.105-9.955,12.105-18.109V31.886c0-10.812-8.796-19.608-19.608-19.608h-199.51    c-10.812,0-19.608,8.796-19.608,19.608v46.381c0,8.155,5.006,15.157,12.104,18.109v82.509c0,4.585-2.458,8.871-6.411,11.183    l-47.131,27.53c-23.577,13.593-40.232,35.61-46.897,61.995c-6.664,26.381-2.465,53.662,11.824,76.815    C33.225,386.081,64.982,403.795,99.865,403.795z M338.413,466.775c-0.143-0.101-0.289-0.195-0.432-0.297    c-7.186-5.11-13.876-10.927-20.132-17.133c-3.007-2.982-5.603-6.413-8.674-9.311c-2.765-2.609-7.112-2.752-10.048-0.21    c-3.132,2.71-3.475,7.446-0.765,10.579c7.53,8.704,15.857,16.737,24.925,23.831c0,0-4.916,2.424-4.918,2.424    c-38.489,18.975-86.462,4.309-108.808-31.901c-12.14-19.672-15.708-42.85-10.045-65.264c1.639-6.488,4.01-12.653,7.009-18.437    c0.015-0.028,0.036-0.053,0.051-0.081c5.043-9.671,11.881-18.208,20.135-25.231c4.535-3.858,9.521-7.096,14.653-10.094l4.658-2.72    c0.013,0.137,0.375,3.694,0.566,5.332c4.145,35.471,15.833,69.289,33.803,97.8c2.208,3.504,6.838,4.555,10.344,2.346    c3.504-2.208,4.555-6.839,2.346-10.344c-14.685-23.299-24.885-50.448-29.809-79.153c-1.382-8.056-2.346-16.219-2.874-24.377    l26.172-15.289c8.539-4.993,13.843-14.24,13.843-24.133l0-81.01H484.93v111.266c-0.344,0.063-0.68,0.145-1.023,0.212    c-4.69,0.918-9.486,2.098-13.933,3.876c-32.861,12.006-56.944,43.257-59.966,78.13c-1.201,13.855,0.691,27.964,5.688,40.952    c0.013,0.034,0.024,0.069,0.037,0.103L338.413,466.775z M242.835,296.575c0.7-17.906,7.746-35.188,19.737-48.501    c6.389-7.094,14.228-13.05,22.841-17.332v44.37c0,4.585-2.458,8.871-6.412,11.183l-35.844,20.938    c-0.01-0.098-0.021-0.197-0.031-0.296C242.796,303.51,242.7,300.041,242.835,296.575z M469.025,384.624    c-9.784,15.734-23.49,28.568-39.785,37.292c-0.412-1.124-0.795-2.258-1.152-3.4c-8.583-27.454-0.457-58.378,20.251-78.277    c9.979-9.589,22.998-16.826,36.628-19.541c-0.147,2.719-0.036,5.494-0.036,8.227C484.93,348.63,479.43,367.891,469.025,384.624z     M497.035,128.112v46.381c0,2.54-2.065,4.606-4.605,4.608c-0.001,0-0.002,0-0.003,0H292.915c-2.54,0-4.607-2.068-4.607-4.608    v-46.381c0-2.541,2.067-4.608,4.608-4.608h17.629h181.881C494.968,123.504,497.035,125.571,497.035,128.112z M104.686,203.018    c8.538-4.992,13.842-14.24,13.842-24.133l0.001-81.01h32.423c4.142,0,7.5-3.358,7.5-7.5s-3.358-7.5-7.5-7.5h-39.921    c-2.541,0-4.608-2.067-4.608-4.608V31.886c0-2.541,2.067-4.608,4.608-4.608h199.51c2.541,0,4.608,2.067,4.608,4.608v46.381    c0,2.541-2.067,4.608-4.608,4.608H180.832c-4.142,0-7.5,3.358-7.5,7.5s3.358,7.5,7.5,7.5h122.214v10.63h-10.129    c-10.812,0-19.608,8.796-19.608,19.608v46.381c0,7.796,4.847,15.093,12.041,18.086c0.022,0.009,0.042,0.02,0.064,0.029v21.685    c-15.445,6.216-29.129,16.716-39.165,29.994c-15.079,19.948-21.467,46.215-17.142,70.856c0.018,0.101,0.029,0.203,0.047,0.304    c-0.138,0.085-2.07,1.315-2.888,1.861c-13.399,8.921-24.239,20.729-31.866,34.562l-37.877,18.68    c-0.087-0.062-0.176-0.119-0.263-0.18c-8.609-6.096-16.511-13.085-23.735-20.765c-20.697-22.004-35.552-49.43-44.311-78.246    c-5.241-17.243-8.542-35.086-9.696-53.075C87.348,213.454,95.979,208.105,104.686,203.018z M17.632,283.267    c5.663-22.418,19.814-41.125,39.882-52.695l6.624-3.868c0.014,0.144,0.032,0.288,0.046,0.432    c2.633,27.258,9.753,54.171,21.371,78.989c12.982,27.732,31.615,52.958,55.843,71.884l-4.914,2.423    c-11.567,5.55-23.887,8.364-36.619,8.364c-29.642,0-56.628-15.052-72.188-40.265C15.538,328.858,11.97,305.681,17.632,283.267z"/>
	</g>
</g>















</svg>
