<?xml version="1.0" encoding="iso-8859-1"?>
<!-- Generator: Adobe Illustrator 19.0.0, SVG Export Plug-In . SVG Version: 6.00 Build 0)  -->
<svg xmlns="http://www.w3.org/2000/svg" xmlns:xlink="http://www.w3.org/1999/xlink" version="1.1" id="Layer_1" x="0px" y="0px" viewBox="0 0 512 512" style="enable-background:new 0 0 512 512;" xml:space="preserve" width="512" height="512">
<g>
	<g>
		<path style="fill:#80C9FF;" d="M97.371,126.119c-8.997,0-16.29,7.293-16.29,16.29v73.227h32.58v-73.227    C113.661,133.412,106.368,126.119,97.371,126.119z"/>
		<path style="fill:#FAB3CE;" d="M313.368,7.5c-8.997,0-16.29,7.293-16.29,16.29v73.227h32.58V23.79    C329.658,14.793,322.364,7.5,313.368,7.5z"/>
		<path style="fill:#E381A5;" d="M329.658,70.251h-32.58c-8.782,0-15.901,7.119-15.901,15.901v37.125h64.382V86.152    C345.559,77.37,338.44,70.251,329.658,70.251z"/>
		<path style="fill:#6DAAD9;" d="M113.661,188.87h-32.58c-8.782,0-15.901,7.119-15.901,15.901v37.125h64.382v-37.125    C129.562,195.989,122.443,188.87,113.661,188.87z"/>
		<path style="fill:#FAB3CE;" d="M493.28,241.449c0,43.055-10.474,82.714-28.066,114.31c-10.342,18.574-29.899,30.123-51.158,30.123    H313.94c-21.259,0-40.816-11.548-51.158-30.123c-17.592-31.595-28.066-71.255-28.066-114.31s10.474-82.714,28.066-114.31    c10.342-18.574,29.899-30.123,51.158-30.123h100.117c21.259,0,40.816,11.548,51.158,30.123    C482.807,158.735,493.28,198.394,493.28,241.449z"/>
		<path style="fill:#87BA7D;" d="M456.233,214.005c-3.162-25.419-10.672-49.495-21.907-69.669    c-4.111-7.383-11.878-11.969-20.271-11.969H313.942c-8.393,0-16.16,4.585-20.271,11.969    c-11.235,20.174-18.745,44.25-21.907,69.669c-1.812,14.565,9.499,27.444,24.177,27.444h136.117    C446.734,241.449,458.045,228.57,456.233,214.005z"/>
		<circle style="fill:#E381A5;" cx="363.998" cy="313.665" r="38.381"/>
		<path style="fill:#E381A5;" d="M271.06,233.596c-7.853-14.104-19.451-25.362-33.146-32.811    c-2.09,13.092-3.198,26.698-3.198,40.664c0,43.055,10.474,82.714,28.066,114.31c8.24,14.798,22.331,25.129,38.47,28.721    c0.681-8.046,1.032-16.191,1.032-24.413C302.284,314.015,291.487,270.281,271.06,233.596z"/>
		<path style="fill:#80C9FF;" d="M277.284,360.068c0,43.055-10.474,82.714-28.066,114.31    c-10.342,18.574-29.899,30.123-51.158,30.123H97.943c-21.259,0-40.816-11.548-51.158-30.123    c-17.592-31.595-28.066-71.255-28.066-114.31s10.474-82.714,28.066-114.31c10.342-18.574,29.899-30.123,51.158-30.123H198.06    c21.259,0,40.816,11.548,51.158,30.123C266.81,277.353,277.284,317.013,277.284,360.068z"/>
		<path style="fill:#87BA7D;" d="M240.236,332.624c-3.162-25.419-10.672-49.495-21.907-69.669    c-4.111-7.383-11.878-11.969-20.271-11.969H97.945c-8.393,0-16.16,4.585-20.271,11.969c-11.235,20.174-18.745,44.25-21.907,69.669    c-1.812,14.565,9.499,27.444,24.177,27.444H216.06C230.737,360.068,242.049,347.189,240.236,332.624z"/>
		<circle style="fill:#6DAAD9;" cx="148.002" cy="432.284" r="38.381"/>
	</g>
	<g>
		<path d="M455.92,238.188c6.061-6.861,8.887-16.013,7.756-25.108c-3.297-26.5-11.181-51.533-22.797-72.392    c-5.433-9.758-15.711-15.82-26.824-15.82H313.942c-11.113,0-21.391,6.062-26.824,15.819c-11.617,20.86-19.5,45.893-22.798,72.392    c-2.333,18.749,12.72,35.87,31.62,35.87h136.117C441.181,248.949,449.879,245.027,455.92,238.188z M283.383,228.2    c-3.106-3.517-4.797-8.287-4.178-13.269c3.062-24.604,10.329-47.754,21.018-66.947c2.788-5.006,8.044-8.117,13.719-8.117h100.113    c5.674,0,10.931,3.11,13.719,8.118c10.688,19.192,17.955,42.342,21.017,66.946c1.239,9.959-6.708,19.018-16.734,19.018    c0,0-135.896,0-136.116,0C290.946,233.949,286.467,231.693,283.383,228.2z"/>
		<path d="M309.061,174.614c-4.142,0-7.5,3.358-7.5,7.5v9.943c0,4.142,3.358,7.5,7.5,7.5s7.5-3.358,7.5-7.5v-9.943    C316.561,177.972,313.203,174.614,309.061,174.614z"/>
		<path d="M418.936,174.614c-4.142,0-7.5,3.358-7.5,7.5v9.943c0,4.142,3.358,7.5,7.5,7.5s7.5-3.358,7.5-7.5v-9.943    C426.436,177.972,423.078,174.614,418.936,174.614z"/>
		<path d="M382.493,185.718c-3.119-2.727-7.856-2.408-10.583,0.711c-1.908,2.183-4.792,3.435-7.912,3.435s-6.004-1.252-7.913-3.435    c-2.726-3.119-7.464-3.437-10.583-0.71c-3.119,2.726-3.437,7.464-0.711,10.583c4.757,5.442,11.758,8.563,19.207,8.563    s14.449-3.121,19.206-8.563C385.93,193.182,385.612,188.444,382.493,185.718z"/>
		<path d="M318.118,313.665c0,25.298,20.582,45.88,45.88,45.88c25.299,0,45.881-20.582,45.881-45.88s-20.582-45.88-45.881-45.88    C338.7,267.785,318.118,288.367,318.118,313.665z M394.879,313.665c0,17.028-13.853,30.88-30.881,30.88    c-17.027,0-30.88-13.853-30.88-30.88s13.853-30.88,30.88-30.88C381.026,282.785,394.879,296.637,394.879,313.665z"/>
		<path d="M239.801,356.695c5.854-6.63,9.045-15.615,7.878-24.997c-3.297-26.499-11.181-51.532-22.798-72.392    c-5.433-9.758-15.711-15.82-26.824-15.82H97.945c-11.112,0-21.391,6.062-26.823,15.819    c-11.618,20.861-19.501,45.893-22.798,72.391c-2.332,18.743,12.743,35.871,31.619,35.871c0,0,135.964,0,136.117,0    C225.498,367.568,233.97,363.299,239.801,356.695z M67.322,346.876c-3.214-3.639-4.713-8.497-4.113-13.327    c3.061-24.604,10.329-47.753,21.018-66.946c2.788-5.007,8.044-8.117,13.718-8.117h100.113c5.674,0,10.931,3.11,13.719,8.118    c10.688,19.192,17.956,42.342,21.018,66.946c0.601,4.83-0.898,9.688-4.113,13.326c-3.242,3.671-7.725,5.692-12.622,5.692H79.943    C75.047,352.568,70.564,350.546,67.322,346.876z"/>
		<path d="M93.064,293.233c-4.142,0-7.5,3.357-7.5,7.5v9.942c0,4.142,3.358,7.5,7.5,7.5s7.5-3.358,7.5-7.5v-9.942    C100.564,296.59,97.206,293.233,93.064,293.233z"/>
		<path d="M202.939,293.233c-4.142,0-7.5,3.357-7.5,7.5v9.942c0,4.142,3.358,7.5,7.5,7.5s7.5-3.358,7.5-7.5v-9.942    C210.439,296.59,207.081,293.233,202.939,293.233z"/>
		<path d="M166.497,304.337c-3.118-2.726-7.856-2.408-10.583,0.71c-1.908,2.184-4.792,3.436-7.912,3.436s-6.004-1.252-7.913-3.436    c-2.727-3.119-7.464-3.437-10.583-0.711c-3.119,2.727-3.437,7.464-0.711,10.583c4.757,5.442,11.758,8.563,19.207,8.563    s14.449-3.121,19.206-8.563C169.934,311.801,169.615,307.063,166.497,304.337z"/>
		<path d="M102.121,432.284c0,25.299,20.582,45.881,45.881,45.881c25.298,0,45.88-20.582,45.88-45.881s-20.582-45.881-45.88-45.881    C122.703,386.403,102.121,406.985,102.121,432.284z M178.882,432.284c0,17.027-13.853,30.881-30.88,30.881    c-17.028,0-30.881-13.854-30.881-30.881s13.853-30.881,30.881-30.881C165.029,401.403,178.882,415.256,178.882,432.284z"/>
		<path d="M484.064,172.87c-4.019,1.003-6.463,5.074-5.46,9.093c4.762,19.076,7.177,39.09,7.177,59.486    c0,40.533-9.377,78.799-27.119,110.661c-9.023,16.205-26.115,26.271-44.605,26.271H313.94c-10.474,0-20.749-3.276-29.309-9.288    c0.046-1.411,0.153-7.431,0.153-9.026c0-43.08-10.033-83.869-29.013-117.958c-3.408-6.12-7.864-11.791-13.058-16.551    c2.158-34.615,11.333-67.313,26.622-94.77c8.871-15.932,26.368-26.271,44.605-26.271h100.116    c18.491,0,35.583,10.067,44.605,26.271c4.218,7.577,8.03,15.686,11.328,24.102c1.511,3.856,5.862,5.758,9.719,4.246    c3.857-1.511,5.758-5.863,4.247-9.72c-3.542-9.04-7.643-17.762-12.188-25.925c-11.668-20.956-33.782-33.974-57.711-33.974h-60.998    v-3.365c0-10.28-6.666-19.027-15.9-22.161V23.79c0-13.118-10.672-23.79-23.79-23.79s-23.79,10.672-23.79,23.79v40.201    c-9.235,3.134-15.901,11.881-15.901,22.161v17.101c-7.016,5.403-12.994,12.24-17.448,20.238    c-15.026,26.987-24.518,58.603-27.754,92.1c-9.247-4.811-19.646-7.456-30.415-7.456h-60.998v-3.365    c0-10.28-6.666-19.027-15.901-22.161v-40.202c0-13.118-10.672-23.79-23.79-23.79s-23.79,10.672-23.79,23.79v40.202    c-9.235,3.134-15.901,11.88-15.901,22.161v17.101c-7.016,5.403-12.994,12.24-17.448,20.237    c-18.98,34.089-29.013,74.878-29.013,117.958c0,20.407,2.291,40.511,6.809,59.755c0.946,4.032,4.98,6.533,9.016,5.587    c4.032-0.946,6.534-4.983,5.587-9.016c-4.254-18.122-6.412-37.073-6.412-56.327c0-40.533,9.377-78.798,27.119-110.661    c8.903-15.99,26.311-26.272,44.605-26.272c0,0,100.091,0,100.117,0c18.269,0,35.727,10.33,44.605,26.271    c20.351,36.541,28.504,79.108,26.903,120.672c-1.418,36.806-10.63,71.424-26.903,100.65C233.642,486.933,216.551,497,198.06,497    H97.943c-18.491,0-35.582-10.067-44.605-26.271c-4.034-7.246-7.708-15.014-10.92-23.086c-1.531-3.848-5.891-5.729-9.742-4.195    c-3.849,1.531-5.727,5.893-4.196,9.741c3.45,8.671,7.404,17.027,11.752,24.837C51.901,498.982,74.014,512,97.943,512H198.06    c23.929,0,46.042-13.018,57.711-33.974c15.135-27.183,24.573-58.628,27.78-92.095c9.346,4.85,19.786,7.45,30.39,7.45h100.116    c23.929,0,46.042-13.018,57.711-33.974c18.98-34.089,29.013-74.878,29.013-117.959c0-21.62-2.565-42.856-7.623-63.119    C492.154,174.31,488.081,171.866,484.064,172.87z M304.578,23.79c0-4.847,3.943-8.79,8.79-8.79s8.79,3.943,8.79,8.79v38.961    h-17.58V23.79z M288.677,94.543v-8.392c0-4.632,3.769-8.401,8.401-8.401h32.58c4.632,0,8.4,3.769,8.4,8.401v3.365    c0,0-24.116,0-24.118,0C305.394,89.517,296.638,91.231,288.677,94.543z M88.581,142.408c0-4.847,3.943-8.79,8.79-8.79    s8.79,3.943,8.79,8.79v38.961h-17.58V142.408z M97.943,208.135c-8.558,0-17.309,1.716-25.263,5.026v-8.391    c0-4.632,3.769-8.401,8.401-8.401h32.58c4.632,0,8.401,3.769,8.401,8.401v3.365H97.943z"/>
	</g>
</g>















</svg>
