<?xml version="1.0" encoding="iso-8859-1"?>
<!-- Generator: Adobe Illustrator 19.0.0, SVG Export Plug-In . SVG Version: 6.00 Build 0)  -->
<svg xmlns="http://www.w3.org/2000/svg" xmlns:xlink="http://www.w3.org/1999/xlink" version="1.1" id="Layer_1" x="0px" y="0px" viewBox="0 0 511.802 511.802" style="enable-background:new 0 0 511.802 511.802;" xml:space="preserve" width="512" height="512">
<g>
	<g>
		<polygon style="fill:#FAB3CE;" points="415.525,200.98 415.525,372.296 450.004,348.624 450.004,200.98   "/>
		<path style="fill:#80C9FF;" d="M448.503,384.896c0-14.47,5.455-27.662,14.413-37.646c-0.168-0.001-0.333-0.013-0.501-0.013    c-31.148,0-56.398,25.25-56.398,56.398s25.25,56.398,56.398,56.398c16.678,0,31.66-7.244,41.985-18.752    C473.485,441.011,448.503,415.875,448.503,384.896z"/>
		<g>
			<rect x="54.414" y="200.98" style="fill:#80C9FF;" width="34.479" height="192.756"/>
		</g>
		<g>
			<rect x="234.969" y="7.567" style="fill:#FFDE76;" width="34.479" height="386.169"/>
		</g>
		<path style="fill:#FFDE76;" d="M119.467,389.099l-29.861-4.339L76.251,357.7c-1.88-3.811-7.314-3.811-9.195,0l-13.354,27.059    l-29.861,4.339c-4.205,0.611-5.884,5.779-2.841,8.745l21.608,21.063l-5.101,29.741c-0.718,4.188,3.678,7.382,7.439,5.405    l26.709-14.042l26.708,14.042c3.761,1.978,8.157-1.216,7.439-5.405l-5.101-29.741l21.608-21.063    C125.351,394.877,123.672,389.709,119.467,389.099z"/>
		<polygon style="fill:#FC7176;" points="252.209,489.379 233.805,504.234 224.412,482.528 201.213,487.129 202.984,463.544     180.304,456.836 192.832,436.776 175.867,420.297 196.283,408.356 188.919,385.881 212.546,384.796 216.471,361.473     237.895,371.491 252.209,352.664 266.523,371.491 287.947,361.473 291.872,384.796 315.498,385.881 308.135,408.356     328.551,420.297 311.586,436.776 324.114,456.836 301.434,463.544 303.205,487.129 280.005,482.528 270.613,504.234   "/>
		<circle style="fill:#FFDE76;" cx="252.209" cy="428.449" r="40.883"/>
		<path style="fill:#E381A5;" d="M415.525,271.472c1.419,0.7,2.819,1.408,4.19,2.129c9.366,4.925,19.766,7.767,30.289,8.315V200.98    h-34.479V271.472z"/>
		<path style="fill:#FFB641;" d="M234.969,240.537c5.701-0.184,11.45-0.283,17.24-0.283c5.79,0,11.538,0.099,17.24,0.283v-76.479    c-5.729-0.152-11.477-0.232-17.24-0.232c-5.762,0-11.51,0.08-17.24,0.232V240.537z"/>
		<path style="fill:#6DAAD9;" d="M54.414,281.921c10.521-0.55,20.918-3.392,30.282-8.315c1.374-0.722,2.776-1.432,4.197-2.133    V200.98H54.414V281.921z"/>
		<path style="fill:#9AD48D;" d="M50.66,252.026c-15.539,0-30.552-8.403-38.286-23.112c-11.107-21.124-2.986-47.253,18.139-58.36    c56.479-29.696,137.284-46.727,221.696-46.727c84.405,0,165.206,17.029,221.684,46.721c21.126,11.105,29.247,37.234,18.142,58.359    c-7.732,14.708-22.749,23.113-38.287,23.114c-6.779,0-13.655-1.599-20.072-4.973c-44.478-23.383-110.62-36.793-181.468-36.793    c-70.852,0-136.997,13.412-181.475,36.798C64.319,250.426,57.438,252.026,50.66,252.026z"/>
	</g>
	<g>
		<path d="M163.338,159.171v14.72c0,4.142,3.358,7.5,7.5,7.5s7.5-3.358,7.5-7.5v-14.72c0-4.142-3.358-7.5-7.5-7.5    S163.338,155.03,163.338,159.171z"/>
		<path d="M326,159.171v14.72c0,4.142,3.358,7.5,7.5,7.5s7.5-3.358,7.5-7.5v-14.72c0-4.142-3.358-7.5-7.5-7.5    S326,155.03,326,159.171z"/>
		<path d="M266.597,167.931c-3.51,4.015-8.768,6.317-14.427,6.317c-5.659,0-10.917-2.302-14.427-6.317    c-2.726-3.119-7.464-3.437-10.583-0.71c-3.119,2.726-3.437,7.464-0.711,10.583c6.358,7.274,15.733,11.445,25.721,11.445    c9.988,0,19.362-4.171,25.72-11.445c2.727-3.119,2.408-7.857-0.71-10.583C274.061,164.495,269.323,164.811,266.597,167.931z"/>
		<path d="M203.787,428.467c0,26.679,21.704,48.383,48.382,48.383s48.383-21.704,48.383-48.383    c0-26.678-21.705-48.382-48.383-48.382S203.787,401.789,203.787,428.467z M285.552,428.467c0,18.407-14.976,33.383-33.383,33.383    s-33.382-14.976-33.382-33.383s14.975-33.382,33.382-33.382S285.552,410.06,285.552,428.467z"/>
		<path d="M453.708,244.539c-11.305,0-20.686-6.484-30.68-10.889c-12.389-5.461-26.102-10.303-40.964-14.445    c-3.991-1.113-8.126,1.221-9.238,5.211c-1.112,3.99,1.221,8.126,5.211,9.238c10.651,2.969,20.655,6.304,29.948,9.97v126.542    c-6.022,9.745-9.507,21.215-9.507,33.488c0,35.233,28.665,63.898,63.898,63.898c18.116,0,35.454-7.743,47.567-21.242    c4.216-4.699,0.784-12.455-5.516-12.509c-26.723-0.234-48.463-22.164-48.463-48.886c0-12.065,4.437-23.656,12.495-32.636    c4.572-5.096,0.336-12.523-6.082-12.523c-1.654,0-3.288,0.083-4.911,0.208v-80.565c17.416-1.277,32.961-11.369,41.169-26.983    c6.303-11.99,7.56-25.717,3.539-38.653c-4.021-12.936-12.839-23.531-24.829-29.834c-51.95-27.311-123.931-44.098-200.435-47.094    V7.586c0-4.142-3.358-7.5-7.5-7.5H234.93c-4.142,0-7.5,3.358-7.5,7.5v109.252c-36.202,1.434-72.047,5.984-104.913,13.375    c-4.041,0.909-6.581,4.921-5.672,8.963s4.92,6.58,8.963,5.672c34.208-7.693,71.763-12.224,109.545-13.268    c11.283-0.31,22.574-0.312,33.857,0.005c76.967,2.114,149.514,18.47,201.154,45.618c8.444,4.438,14.654,11.9,17.485,21.01    s1.946,18.776-2.493,27.221C479.163,237.217,467.036,244.537,453.708,244.539z M486.585,446.124    c-7.308,4.166-15.646,6.428-24.209,6.428c-26.962,0-48.898-21.936-48.898-48.898c0-19.646,11.643-36.62,28.391-44.387    c1.771-0.823,3.589-1.525,5.445-2.131c-4.15,8.589-6.35,18.066-6.35,27.778C440.964,413.69,460.255,438.214,486.585,446.124z     M440.227,343.718c-6.242,2.296-12.05,5.532-17.242,9.603V250.128c0.117,0.056,4.861,2.515,7.162,3.577    c3.878,2.04,8.043,3.589,12.318,4.555v84.674C442.038,343.073,440.548,343.6,440.227,343.718z M242.43,116.424V15.086h19.479    v101.338c-0.199-0.003-6.69-0.079-9.74-0.079C248.923,116.345,245.676,116.377,242.43,116.424z"/>
		<path d="M46.874,259.405v118.781c0,0-24.12,3.505-24.152,3.509c-10.153,1.475-14.354,14.367-6.998,21.538l18.784,18.31    c0,0-4.423,25.789-4.435,25.854c-1.72,10.026,9.345,18.028,18.321,13.311l23.219-12.207c0,0,23.184,12.189,23.218,12.207    c9.066,4.766,20.05-3.229,18.321-13.311l-4.435-25.854c0,0,18.754-18.281,18.784-18.31c7.359-7.173,3.137-20.065-6.998-21.538    l-24.152-3.509V243.614c35.972-14.208,81.753-23.054,131.077-25.281v140.021c0,0-7.813-3.654-7.822-3.658    c-4.428-2.071-9.765,0.747-10.573,5.549l-2.92,17.354c0,0-17.567,0.807-17.579,0.807c-4.873,0.224-8.303,5.187-6.783,9.828    l5.479,16.723c0,0-15.179,8.877-15.19,8.884c-4.215,2.465-4.94,8.453-1.439,11.854l12.623,12.262c0,0-9.308,14.904-9.321,14.926    c-2.576,4.124-0.412,9.79,4.234,11.165l16.875,4.99c0,0-1.315,17.517-1.317,17.548c-0.365,4.861,4.159,8.866,8.938,7.919    l17.261-3.423c0,0,6.975,16.119,6.988,16.15c1.929,4.459,7.82,5.905,11.594,2.858l13.693-11.053c0,0,13.678,11.04,13.694,11.053    c3.803,3.07,9.658,1.617,11.594-2.858l6.988-16.15c0,0,17.236,3.418,17.261,3.423c4.792,0.95,9.303-3.051,8.938-7.918    l-1.318-17.548c0,0,16.859-4.986,16.875-4.99c4.677-1.383,6.82-7.025,4.234-11.165l-9.322-14.926c0,0,12.617-12.257,12.623-12.262    c3.451-3.352,2.808-9.369-1.439-11.854l-15.19-8.884c0,0,5.471-16.698,5.479-16.723c1.52-4.64-1.919-9.603-6.783-9.827    l-17.579-0.807c0,0-2.917-17.335-2.92-17.354c-0.809-4.807-6.153-7.617-10.573-5.549l-7.821,3.657V218.326    c25.171,1.13,49.485,3.996,72.546,8.564c4.066,0.806,8.009-1.836,8.814-5.899s-1.836-8.009-5.899-8.814    c-28.683-5.683-59.207-8.805-90.859-9.319c-8.951-0.159-17.885,0.195-26.832,0.195c-56.106,1.744-108.466,11.837-148.618,28.564    c-0.032,0.013-0.293,0.119-0.393,0.161c-11.23,4.679-22.388,12.766-35.049,12.766c-13.326,0-25.453-7.319-31.647-19.102    c-9.067-17.245-2.21-39.188,14.991-48.232c18.135-9.536,39.104-17.848,62.323-24.707c3.973-1.174,6.242-5.345,5.068-9.317    c-1.173-3.972-5.343-6.241-9.317-5.068c-24.163,7.137-46.05,15.823-65.055,25.815c-24.447,12.854-34.152,44.02-21.286,68.489    C13.908,248.04,29.456,258.132,46.874,259.405z M95.426,413.554c-1.768,1.723-2.575,4.205-2.157,6.638l4.288,25.001L75.104,433.39    c-2.186-1.149-4.795-1.149-6.98,0l-22.453,11.804l4.288-25.001c0.417-2.433-0.389-4.916-2.157-6.638l-18.165-17.706    c0,0,25.066-3.643,25.103-3.648c4.042-0.587,5.567-3.94,7.175-7.199l9.698-19.65l11.226,22.746    c1.092,2.214,3.204,3.748,5.647,4.103l25.103,3.647L95.426,413.554z M81.353,351.942c-0.032-0.039-0.07-0.073-0.103-0.112    c-2.38-2.821-5.946-4.469-9.637-4.469c-3.665,0-7.278,1.666-9.638,4.471c-0.032,0.039-0.069,0.071-0.101,0.11v-93.679    c0.129-0.029,0.255-0.07,0.384-0.101c6.852-1.61,12.802-5.028,19.095-8.03V351.942z M284.437,386.059    c0.586,3.483,3.523,6.085,7.052,6.247l13.772,0.633l-4.292,13.101c-1.1,3.357,0.292,7.026,3.341,8.809l11.9,6.96l-9.889,9.606    c-2.534,2.461-3.007,6.356-1.136,9.353l7.303,11.693l-13.22,3.91c-3.387,1.001-5.616,4.231-5.352,7.753l1.032,13.748    l-13.522-2.682c-3.464-0.685-6.939,1.137-8.342,4.378l-5.475,12.653c0,0-10.727-8.658-10.728-8.659    c-2.662-2.148-6.679-2.214-9.421,0l-10.728,8.659l-5.475-12.653c-1.403-3.242-4.88-5.063-8.342-4.378l-13.523,2.682l1.032-13.748    c0.264-3.522-1.965-6.752-5.352-7.753l-13.22-3.91l7.302-11.693c1.871-2.996,1.398-6.891-1.136-9.352l-9.889-9.606l11.901-6.96    c3.049-1.783,4.44-5.453,3.341-8.81l-4.292-13.101l13.772-0.633c3.528-0.162,6.466-2.764,7.052-6.247l2.288-13.595    c0,0,12.483,5.838,12.488,5.84c3.133,1.465,7.052,0.498,9.148-2.255l8.343-10.975c0,0,8.344,10.974,8.351,10.982    c2.239,2.667,5.856,3.767,9.141,2.247l12.488-5.84L284.437,386.059z M261.909,353.101c0,0-3.765-4.952-3.77-4.958    c-2.959-3.892-8.987-3.884-11.941,0l-3.769,4.957l0-135.232c0.005-0.2,17.937-0.028,19.479-0.002V353.101z"/>
	</g>
</g>















</svg>
