<?xml version="1.0" encoding="iso-8859-1"?>
<!-- Generator: Adobe Illustrator 19.0.0, SVG Export Plug-In . SVG Version: 6.00 Build 0)  -->
<svg xmlns="http://www.w3.org/2000/svg" xmlns:xlink="http://www.w3.org/1999/xlink" version="1.1" id="Layer_1" x="0px" y="0px" viewBox="0 0 512 512" style="enable-background:new 0 0 512 512;" xml:space="preserve" width="512" height="512">
<g>
	<g>
		<path style="fill:#F5F5F5;" d="M210.405,56.106c-1.455-6.307-5.39-11.761-10.915-15.133l-15.948-9.731    c-2.716-1.658-5.077-3.837-6.946-6.413l-5.364-7.394c-4.984-6.87-13.218-10.608-21.67-9.836l-13.835,1.264    c-6.288,0.574-12.098,3.597-16.178,8.416l-7.384,8.721c-4.118,4.864-9.998,7.896-16.349,8.431h0    c-8.217,0.692-15.507,5.542-19.32,12.854l-10.451,20.04l73.474,27.567l73.474-27.567L210.405,56.106z"/>
		<path style="fill:#D9D9D9;" d="M96.046,67.326l10.451-20.041c3.813-7.311,11.104-12.162,19.32-12.854l0,0    c6.351-0.534,12.23-3.566,16.349-8.431l7.384-8.722c3.17-3.744,7.386-6.396,12.057-7.666c-3.714-1.667-7.851-2.396-12.043-2.014    l-13.835,1.264c-6.288,0.574-12.098,3.597-16.178,8.416l-7.384,8.722c-4.118,4.864-9.998,7.896-16.349,8.431l0,0    c-8.217,0.692-15.507,5.542-19.32,12.854L66.046,67.326l73.474,27.566l15-5.628L96.046,67.326z"/>
		<polygon style="fill:#FC7176;" points="236.575,281.696 68.795,306.166 68.795,430.41 233.912,463.636 399.03,430.41     399.03,306.166   "/>
		<polygon style="fill:#E6676C;" points="98.795,430.41 98.795,306.166 251.333,283.919 236.575,281.697 68.795,306.166     68.795,430.41 233.912,463.636 248.912,460.618   "/>
		<polygon style="fill:#FFDE76;" points="399.03,232.077 399.03,306.166 68.795,306.166 68.795,232.077 233.912,205.807   "/>
		<polygon style="fill:#FFB641;" points="248.912,208.194 233.912,205.807 68.795,232.076 68.795,306.166 98.795,306.166     98.795,232.076   "/>
		<path style="fill:#FFDE76;" d="M68.795,430.41v47.143c0,14.882,12.064,26.947,26.947,26.947h276.342    c14.882,0,26.947-12.064,26.947-26.947V430.41H68.795z"/>
		<path style="fill:#FFB641;" d="M98.795,477.553V430.41h-30v47.143c0,14.882,12.064,26.947,26.947,26.947h30    C110.859,504.5,98.795,492.435,98.795,477.553z"/>
		<path style="fill:#FC7176;" d="M399.031,179.538H68.794c-11.044,0-19.997,8.953-19.997,19.997v12.546    c0,11.044,8.953,19.997,19.997,19.997h330.237c11.044,0,19.997-8.953,19.997-19.997v-12.546    C419.028,188.491,410.075,179.538,399.031,179.538z"/>
		<path style="fill:#E6676C;" d="M78.797,212.08v-12.545c0-11.044,8.953-19.997,19.997-19.997h-30    c-11.044,0-19.997,8.953-19.997,19.997v12.545c0,11.044,8.953,19.997,19.997,19.997h30    C87.75,232.076,78.797,223.124,78.797,212.08z"/>
		<path style="fill:#FC7176;" d="M443.824,67.325H66.046c-6.009,0-10.371,5.716-8.784,11.511l12.759,46.622    c3.131,11.443,13.53,19.378,25.393,19.378h75.275c11.864,0,22.262-7.935,25.393-19.378l0,0    c3.131-11.443,13.53-19.378,25.393-19.378h222.349c10.702,0,19.378-8.676,19.378-19.378v0    C463.202,76.001,454.526,67.325,443.824,67.325z"/>
		<path style="fill:#E6676C;" d="M100.02,125.458L87.262,78.837c-1.586-5.795,2.776-11.511,8.785-11.511h-30    c-6.009,0-10.37,5.716-8.785,11.511l12.759,46.622c3.131,11.443,13.53,19.378,25.393,19.378h30    C113.55,144.836,103.152,136.901,100.02,125.458z"/>
	</g>
	<g>
		<path d="M151.804,341.122c-4.142,0-7.5,3.358-7.5,7.5v14.86c0,4.142,3.358,7.5,7.5,7.5s7.5-3.358,7.5-7.5v-14.86    C159.304,344.48,155.946,341.122,151.804,341.122z"/>
		<path d="M316.021,341.122c-4.142,0-7.5,3.358-7.5,7.5v14.86c0,4.142,3.358,7.5,7.5,7.5s7.5-3.358,7.5-7.5v-14.86    C323.521,344.48,320.164,341.122,316.021,341.122z"/>
		<path d="M259.114,356.802c-3.119-2.726-7.857-2.408-10.583,0.71c-3.557,4.069-8.885,6.402-14.619,6.402    c-5.734,0-11.063-2.333-14.619-6.402c-2.726-3.119-7.464-3.437-10.583-0.711c-3.119,2.726-3.438,7.464-0.711,10.583    c6.405,7.328,15.85,11.53,25.913,11.53c10.062,0,19.507-4.202,25.912-11.53C262.551,364.266,262.233,359.528,259.114,356.802z"/>
		<path d="M470.702,86.703c0-14.82-12.057-26.877-26.878-26.877H218.961l-1.248-5.405c-1.896-8.22-7.114-15.454-14.316-19.849    c0,0-15.928-9.718-15.947-9.73c-4.407-2.689-7.177-7.717-10.145-11.81C171.386,4.872,161.835,0,151.757,0    c-13.532,0-28.642,1.461-37.932,12.434c-5.184,6.123-9.874,13.784-18.638,14.524c-10.839,0.913-20.312,7.215-25.341,16.86    l-8.749,16.777c-3.242,1.005-6.124,2.972-8.254,5.763c-3.168,4.151-4.194,9.422-2.816,14.459l12.759,46.621    c4.011,14.66,17.428,24.898,32.627,24.898h75.275c15.199,0,28.616-10.238,32.627-24.898c2.233-8.159,9.7-13.857,18.159-13.857    h222.349C458.645,113.581,470.702,101.524,470.702,86.703z M96.447,41.905c13.35-1.124,20.832-10.336,28.827-19.78    c6.008-7.096,16.516-6.284,24.972-7.057c5.781-0.526,11.515,2.081,14.917,6.771c6.269,12.537,19.024,18.58,30.421,25.535    c3.779,2.307,6.518,6.104,7.513,10.417l0.469,2.033H78.416l4.731-9.072C85.787,45.692,90.758,42.384,96.447,41.905z     M443.824,98.581H221.475c-15.199,0-28.616,10.239-32.627,24.898c-2.233,8.159-9.7,13.857-18.159,13.857H95.414    c-8.459,0-15.926-5.698-18.159-13.857L64.496,76.857c-0.277-1.013,0.507-2.03,1.551-2.031h377.778    c6.549,0,11.878,5.328,11.878,11.877S450.374,98.581,443.824,98.581z"/>
		<path d="M372.083,497H167.947c-4.142,0-7.5,3.358-7.5,7.5s3.358,7.5,7.5,7.5h204.136c18.994,0,34.447-15.453,34.447-34.446    V238.529c11.527-3.273,19.998-13.887,19.998-26.449v-12.545c0-15.162-12.335-27.497-27.497-27.497H68.794    c-15.162,0-27.497,12.335-27.497,27.497v12.545c0,12.562,8.471,23.175,19.998,26.449v239.024    c0,18.994,15.453,34.446,34.447,34.446h42.206c4.142,0,7.5-3.358,7.5-7.5s-3.358-7.5-7.5-7.5H95.742    c-10.723,0-19.447-8.724-19.447-19.446v-39.643H391.53v39.643C391.53,488.276,382.807,497,372.083,497z M56.297,212.08v-12.545    c0-6.891,5.606-12.497,12.497-12.497h330.237c6.891,0,12.497,5.606,12.497,12.497v12.545c0,6.891-5.606,12.497-12.497,12.497    h-0.001h-53.083c-4.142,0-7.5,3.358-7.5,7.5s3.358,7.5,7.5,7.5h45.583v59.089H76.295v-59.089h239.652c4.142,0,7.5-3.358,7.5-7.5    s-3.358-7.5-7.5-7.5H68.795h-0.001C61.903,224.577,56.297,218.971,56.297,212.08z M76.295,422.911V313.666H391.53v109.245H76.295z    "/>
	</g>
</g>















</svg>
