<?xml version="1.0" encoding="iso-8859-1"?>
<!-- Generator: Adobe Illustrator 19.0.0, SVG Export Plug-In . SVG Version: 6.00 Build 0)  -->
<svg xmlns="http://www.w3.org/2000/svg" xmlns:xlink="http://www.w3.org/1999/xlink" version="1.1" id="Layer_1" x="0px" y="0px" viewBox="0 0 512 512" style="enable-background:new 0 0 512 512;" xml:space="preserve" width="512" height="512">
<g>
	<g>
		<path style="fill:#F5F5F5;" d="M305.563,7.5h-99.127c-19.133,0-34.643,15.51-34.643,34.643v66.286h168.412V42.143    C340.206,23.01,324.696,7.5,305.563,7.5z"/>
		<path style="fill:#D9D9D9;" d="M236.436,7.5h-30c-19.133,0-34.643,15.51-34.643,34.643v66.287h30V42.143    C201.794,23.01,217.304,7.5,236.436,7.5z"/>
		<polygon style="fill:#F5F5F5;" points="256,108.429 79.8,146.343 79.8,428.673 256,466.586 432.2,428.673 432.2,146.343   "/>
		<polygon style="fill:#D9D9D9;" points="109.8,428.673 109.8,146.343 271,111.657 256,108.429 79.8,146.343 79.8,428.673     256,466.586 271,463.359   "/>
		<path style="fill:#FAB3CE;" d="M432.2,428.673c0,41.878-33.949,75.827-75.827,75.827H155.627    c-41.878,0-75.827-33.949-75.827-75.827H432.2z"/>
		<path style="fill:#E381A5;" d="M109.8,428.673h-30c0,41.878,33.949,75.827,75.827,75.827h30    C143.749,504.5,109.8,470.551,109.8,428.673z"/>
		<path style="fill:#FAB3CE;" d="M432.2,146.343H79.8c0-41.878,33.949-75.827,75.827-75.827h200.745    C398.251,70.515,432.2,104.465,432.2,146.343z"/>
		<path style="fill:#E381A5;" d="M185.627,70.516h-30c-41.878,0-75.827,33.949-75.827,75.827h30    C109.8,104.465,143.749,70.516,185.627,70.516z"/>
		<circle style="fill:#D98F2D;" cx="191.924" cy="242.227" r="31.247"/>
		<circle style="fill:#D98F2D;" cx="320.076" cy="242.227" r="31.247"/>
		<ellipse style="fill:#FFB641;" cx="256" cy="290.157" rx="84.206" ry="73.879"/>
	</g>
	<g>
		<path d="M211.647,270.526c-4.142,0-7.5,3.358-7.5,7.5v6.867c0,4.142,3.358,7.5,7.5,7.5s7.5-3.358,7.5-7.5v-6.867    C219.147,273.884,215.789,270.526,211.647,270.526z"/>
		<path d="M300.353,270.526c-4.142,0-7.5,3.358-7.5,7.5v6.867c0,4.142,3.358,7.5,7.5,7.5s7.5-3.358,7.5-7.5v-6.867    C307.853,273.884,304.495,270.526,300.353,270.526z"/>
		<path d="M279.645,300.496c-3.118-2.726-7.856-2.408-10.583,0.711c-3.174,3.631-7.935,5.713-13.062,5.713    c-5.127,0-9.888-2.082-13.062-5.713c-2.726-3.119-7.464-3.437-10.583-0.711c-3.119,2.726-3.437,7.464-0.711,10.583    c6.022,6.891,14.9,10.842,24.356,10.842c9.456,0,18.333-3.951,24.355-10.841C283.082,307.959,282.763,303.221,279.645,300.496z"/>
		<path d="M256,290.951c6.24,0,11.298-3.915,11.298-8.743c0-4.829-22.596-4.829-22.596,0    C244.702,287.037,249.76,290.951,256,290.951z"/>
		<path d="M305.563,0h-99.126c-23.237,0-42.143,18.905-42.143,42.143v20.873h-8.667c-45.947,0-83.328,37.38-83.328,83.327v282.33    C72.3,474.62,109.681,512,155.628,512h200.745c45.947,0,83.328-37.38,83.328-83.328v-282.33c0-45.947-37.381-83.327-83.328-83.327    h-8.666V42.143C347.706,18.905,328.801,0,305.563,0z M179.294,42.143C179.294,27.176,191.47,15,206.437,15h99.126    c14.967,0,27.143,12.176,27.143,27.143v20.873H179.294V42.143z M424.291,138.843h-57.414c-4.142,0-7.5,3.358-7.5,7.5    s3.358,7.5,7.5,7.5H424.7v267.33H187.135c-4.142,0-7.5,3.358-7.5,7.5s3.358,7.5,7.5,7.5h237.156    C420.545,470.333,391.514,497,356.372,497H155.628c-35.142,0-64.172-26.667-67.919-60.828h69.426c4.142,0,7.5-3.358,7.5-7.5    s-3.358-7.5-7.5-7.5H87.3v-267.33h249.577c4.142,0,7.5-3.358,7.5-7.5s-3.358-7.5-7.5-7.5H87.709    c3.747-34.161,32.777-60.827,67.919-60.827h200.745C391.514,78.016,420.545,104.682,424.291,138.843z"/>
		<path d="M292.169,215.38c-11.104-4.246-23.332-6.603-36.17-6.603s-25.066,2.357-36.17,6.603c-7.25-7.53-17.299-11.9-27.906-11.9    c-21.365,0-38.747,17.382-38.747,38.747c0,11.47,4.974,22.084,13.52,29.39c-1.57,5.958-2.403,12.164-2.403,18.54    c0,44.873,41.139,81.379,91.706,81.379s91.706-36.506,91.706-81.379c0-6.376-0.833-12.582-2.403-18.54    c8.546-7.306,13.52-17.92,13.52-29.39c0-21.365-17.382-38.747-38.748-38.747C309.468,203.48,299.419,207.85,292.169,215.38z     M172.676,256.155c-2.891-3.981-4.499-8.819-4.499-13.928c0-13.094,10.653-23.747,23.747-23.747c4.749,0,9.319,1.426,13.17,3.996    c-5.609,3.333-10.765,7.208-15.396,11.515C182.856,240.353,176.993,247.858,172.676,256.155z M256,356.536    c-42.296,0-76.706-29.777-76.706-66.379c0-26.106,18.035-48.256,41.092-58.763c10.65-4.853,22.763-7.616,35.613-7.616    c37.001,0,76.706,26.349,76.706,66.379C332.706,326.758,298.296,356.536,256,356.536z M343.823,242.227    c0,5.108-1.608,9.945-4.499,13.927c-3.395-6.524-7.742-12.562-12.769-17.925c-5.762-6.146-12.408-11.451-19.649-15.753    c3.852-2.569,8.422-3.996,13.17-3.996C333.17,218.48,343.823,229.133,343.823,242.227z"/>
	</g>
</g>















</svg>
