<?xml version="1.0" encoding="iso-8859-1"?>
<!-- Generator: Adobe Illustrator 19.0.0, SVG Export Plug-In . SVG Version: 6.00 Build 0)  -->
<svg xmlns="http://www.w3.org/2000/svg" xmlns:xlink="http://www.w3.org/1999/xlink" version="1.1" id="Layer_1" x="0px" y="0px" viewBox="0 0 512 512" style="enable-background:new 0 0 512 512;" xml:space="preserve" width="512" height="512">
<g>
	<g>
		<path style="fill:#FCD0E4;" d="M406.74,504.5c27.943-54.36,60.689-147.502,60.689-285.571C467.429,102.16,372.769,7.5,256,7.5    S44.571,102.16,44.571,218.929c0,138.069,32.747,231.211,60.689,285.571H406.74z"/>
		<path style="fill:#FAB3CE;" d="M410.193,497.623c-39.206-91.609-114.025-135.227-117.272-137.084l-24.884,19.444    c0,0,74.293,38.187,112.993,124.518h25.71C407.884,502.275,409.036,499.979,410.193,497.623z"/>
		<circle style="fill:#FBBCA1;" cx="256" cy="218.929" r="161.499"/>
		<path style="fill:#E3A98E;" d="M276,360.429c-89.194,0-161.499-72.306-161.499-161.5c0-39.505,14.192-75.69,37.746-103.754    c-35.299,29.625-57.746,74.065-57.746,123.754c0,89.194,72.306,161.5,161.499,161.5c49.689,0,94.129-22.447,123.754-57.746    C351.69,346.236,315.505,360.429,276,360.429z"/>
		<g id="XMLID_85_">
			<path style="fill:#F97579;" d="M352.915,266.434H330.25c-4.142,0-7.5-3.358-7.5-7.5s3.358-7.5,7.5-7.5h22.665     c4.142,0,7.5,3.358,7.5,7.5S357.057,266.434,352.915,266.434z"/>
		</g>
		<g id="XMLID_73_">
			<path style="fill:#F97579;" d="M181.75,266.434h-22.665c-4.142,0-7.5-3.358-7.5-7.5s3.358-7.5,7.5-7.5h22.665     c4.142,0,7.5,3.358,7.5,7.5S185.892,266.434,181.75,266.434z"/>
		</g>
		<path style="fill:#7A5946;" d="M274.464,139.721c-1.103,3.321-2.722,6.619-2.399,10.213c0.293,3.26,2.069,6.378,4.58,8.444    c4.309,3.546,9.726,5.15,14.998,6.653c11.392,3.249,9.059,20.669-2.845,20.738c-16.716,0.098-32.867-4.303-43.044-18.429    c-7.973-11.067-9.895-24.51-8.15-37.777c0.003-0.022,0.005-0.041,0.007-0.055c0.004-0.03,0.006-0.045,0.006-0.045    c1.392-10.551,11.074-17.976,21.625-16.584c12.724,1.679,18.843,15.2,15.279,26.663    C274.503,139.602,274.484,139.661,274.464,139.721z"/>
		<path style="fill:#FC7176;" d="M241.239,132.523c0,0-48.739,34.477-48.739-15.523s48.739-15.523,48.739-15.523V132.523z"/>
		<path style="fill:#FC7176;" d="M270.761,132.523c0,0,48.739,34.477,48.739-15.523s-48.739-15.523-48.739-15.523V132.523z"/>
		<path style="fill:#E381A5;" d="M258.238,96.5h-4.476c-10.086,0-18.262,8.176-18.262,18.262v4.476    c0,10.086,8.176,18.262,18.262,18.262h4.476c10.086,0,18.262-8.176,18.262-18.262v-4.476C276.5,104.676,268.324,96.5,258.238,96.5    z"/>
	</g>
	<g>
		<path d="M406.74,512c2.811,0,5.385-1.572,6.67-4.071c28.065-54.597,61.519-149.054,61.519-289    c0-49.553-16.148-96.293-46.698-135.168c-2.559-3.256-7.274-3.822-10.531-1.263c-3.257,2.559-3.822,7.274-1.263,10.531    c28.453,36.207,43.492,79.742,43.492,125.9c0,133.51-30.939,224.37-57.796,278.071h-16.299    c-20.486-43.5-49.68-74.364-70.895-92.794c-9.498-8.252-18.202-14.765-25.293-19.646    c77.122-15.643,135.352-83.962,135.352-165.631c0-93.187-75.813-168.999-168.999-168.999c-93.187,0-169,75.813-169,168.999    c0,32.586,9.3,64.226,26.894,91.498c2.246,3.48,6.887,4.482,10.368,2.236c3.48-2.246,4.482-6.888,2.236-10.368    c-16.027-24.843-24.499-53.67-24.499-83.366c0-84.915,69.084-153.999,154-153.999c84.915,0,153.999,69.084,153.999,153.999    c0,84.916-69.084,154-153.999,154c-42.793,0-82.555-17.143-111.961-48.271c-2.845-3.011-7.592-3.146-10.603-0.301    c-3.011,2.844-3.146,7.591-0.302,10.602c32.27,34.159,75.904,52.971,122.866,52.971c3.472,0,6.916-0.118,10.336-0.325    c10.655,6.02,68.089,40.834,102.803,109.396H109.866C83.01,443.299,52.071,352.439,52.071,218.929    C52.071,106.482,143.553,15,256,15c52.779,0,102.841,20.091,140.965,56.572c2.993,2.863,7.74,2.759,10.604-0.233    c2.864-2.993,2.759-7.741-0.233-10.604C366.406,21.569,312.661,0,256,0c-58.478,0-113.457,22.773-154.807,64.123    c-41.35,41.351-64.123,96.329-64.123,154.807c0,139.945,33.455,234.402,61.519,289c1.285,2.5,3.859,4.071,6.67,4.071H406.74z"/>
		<path d="M349.083,234.475v-16.641c0-4.142-3.358-7.5-7.5-7.5s-7.5,3.358-7.5,7.5v16.641c0,4.143,3.358,7.5,7.5,7.5    S349.083,238.618,349.083,234.475z"/>
		<path d="M177.917,234.475v-16.641c0-4.142-3.358-7.5-7.5-7.5s-7.5,3.358-7.5,7.5v16.641c0,4.143,3.358,7.5,7.5,7.5    S177.917,238.618,177.917,234.475z"/>
		<path d="M265.66,246.286c-2.337,2.675-5.859,4.209-9.661,4.209c-3.801,0-7.322-1.534-9.66-4.209    c-2.726-3.118-7.463-3.437-10.583-0.71c-3.118,2.726-3.437,7.464-0.71,10.583c5.187,5.934,12.824,9.337,20.954,9.337    c8.13,0,15.768-3.403,20.955-9.337c2.726-3.119,2.408-7.857-0.711-10.583C273.125,242.848,268.386,243.167,265.66,246.286z"/>
		<path d="M300.906,82.392c-6.881,0-14.814,2.213-23.58,6.579c-2.417,1.204-4.561,2.409-6.297,3.443    C267.257,90.247,262.891,89,258.238,89h-4.476c-4.654,0-9.02,1.247-12.792,3.414c-1.737-1.035-3.88-2.239-6.297-3.443    c-8.766-4.365-16.698-6.579-23.579-6.579c-7.813,0-14.329,2.911-18.842,8.419C187.373,96.766,185,105.333,185,117    c0,11.666,2.373,20.232,7.253,26.188c4.513,5.507,11.028,8.419,18.845,8.42c5.66,0,12.043-1.523,19.005-4.485    c1.238,9.169,4.446,17.495,9.565,24.601c10.301,14.298,26.649,21.547,48.591,21.547c9.248-0.031,16.857-6.376,18.126-15.649    c1.255-9.172-3.962-17.315-12.686-19.803c-4.462-1.272-9.076-2.588-12.289-5.232c-1.034-0.851-1.771-2.156-1.876-3.324    c-0.068-0.765,0.18-1.788,0.55-2.929c7.674,3.493,14.67,5.274,20.822,5.274c7.812,0,14.328-2.911,18.841-8.418    C324.628,137.234,327,128.667,327,117c0-11.666-2.373-20.232-7.253-26.188C315.233,85.303,308.718,82.392,300.906,82.392z     M258.238,104c5.76,0,10.762,4.948,10.762,10.762v4.476c0,5.813-4.95,10.762-10.762,10.762c0,0-4.475,0-4.476,0    c-5.745,0-10.761-4.946-10.761-10.762v-4.476c0-5.845,4.925-10.762,10.762-10.762C253.762,104,258.237,104,258.238,104z     M211.096,136.608c-3.32,0-11.096-0.001-11.096-19.608c0-19.608,7.775-19.608,11.094-19.608c6.188,0,13.817,3.282,19.406,6.309    c-1.206,2.525-2.009,5.277-2.334,8.172c-0.001,0.01-0.002,0.02-0.004,0.03c-0.466,3.262-0.297,6.92,0,10.197    c0.001,0.011,0.003,0.021,0.004,0.032c0.286,2.543,0.94,4.975,1.914,7.24c-0.05,0.414-0.095,0.827-0.138,1.238    C224.427,133.547,217.117,136.608,211.096,136.608z M289.586,172.244c1.905,0.543,2.105,2.119,1.938,3.344    c-0.252,1.843-1.494,2.679-3.264,2.683c-17.083,0-28.996-5.01-36.42-15.314c-4.475-6.212-6.438-13.123-7.07-19.579    c1.389,0.519,4.421,1.208,4.469,1.217c3.889,0.707,8.538,0.755,12.447,0.168c0.029-0.004,2.363-0.405,3.459-0.711    c-0.48,1.985-0.764,4.171-0.55,6.553c0.467,5.195,3.122,10.139,7.283,13.564C277.504,168.798,284.203,170.709,289.586,172.244z     M308.146,133.682c-1.029,1.256-2.9,2.926-7.24,2.926c-5.665,0-12.533-2.751-17.942-5.538c-0.069-1.122-0.208-2.241-0.404-3.354    c0.62-1.773,1.052-3.632,1.27-5.557c0.002-0.024,0.006-0.049,0.009-0.074c0.285-2.418,0.161-4.892,0.161-7.323    c0-0.026-0.002-0.051-0.002-0.077c-0.008-3.79-0.868-7.576-2.503-10.995c5.573-3.024,13.186-6.298,19.411-6.298    c3.32,0,11.095,0,11.095,19.608C312,126.9,309.904,131.536,308.146,133.682z"/>
	</g>
</g>















</svg>
