<?xml version="1.0" encoding="iso-8859-1"?>
<!-- Generator: Adobe Illustrator 19.0.0, SVG Export Plug-In . SVG Version: 6.00 Build 0)  -->
<svg xmlns="http://www.w3.org/2000/svg" xmlns:xlink="http://www.w3.org/1999/xlink" version="1.1" id="Layer_1" x="0px" y="0px" viewBox="0 0 511.994 511.994" style="enable-background:new 0 0 511.994 511.994;" xml:space="preserve" width="512" height="512">
<g>
	<g>
		<path style="fill:#FFDE76;" d="M306.751,70.451c-2.908-0.928-4.726-3.797-4.164-6.797c0.771-4.113,1.01-8.412,0.639-12.828    c-1.941-23.087-20.71-41.595-43.823-43.21c-27.719-1.937-50.807,19.976-50.807,47.281c0,2.983,0.277,5.901,0.806,8.73    c0.562,3.01-1.242,5.892-4.159,6.823c-12.528,3.997-21.601,15.724-21.601,29.578v29.958l72.355,26.907l72.355-26.907v-29.958    C328.352,86.175,319.278,74.448,306.751,70.451z"/>
		<path style="fill:#FFB641;" d="M213.641,129.987v-29.958c0-13.854,9.074-25.581,21.601-29.578    c2.918-0.931,4.722-3.813,4.159-6.823c-0.529-2.83-0.806-5.748-0.806-8.73c0-20.933,13.576-38.683,32.398-44.961    c-3.69-1.237-7.573-2.04-11.592-2.32c-27.719-1.937-50.807,19.976-50.807,47.281c0,2.983,0.277,5.901,0.806,8.73    c0.562,3.011-1.242,5.892-4.159,6.823c-12.528,3.997-21.601,15.724-21.601,29.578v29.958l72.355,26.907l15-5.578L213.641,129.987z    "/>
		<path style="fill:#FAB3CE;" d="M328.352,120.601H183.641c-14.988,0-27.138,12.15-27.138,27.138v24.486l99.494,17.364    l99.494-17.364v-24.486C355.491,132.751,343.34,120.601,328.352,120.601z"/>
		<path style="fill:#E381A5;" d="M186.503,172.225v-24.486c0-14.988,12.15-27.138,27.138-27.138h-30    c-14.988,0-27.138,12.15-27.138,27.138v24.486l99.494,17.365l15-2.618L186.503,172.225z"/>
		<path style="fill:#80C9FF;" d="M122.667,455.624c-6.143-21.168-7.747-50.296,2.69-89.405c4.871-18.253,4.871-37.464,0-55.717    c-28.116-105.354,31.146-138.277,31.146-138.277h198.988c0,0,59.261,32.923,31.146,138.277c-4.871,18.253-4.871,37.464,0,55.717    c10.437,39.109,8.833,68.237,2.69,89.405c-8.42,29.014-35.141,48.873-65.352,48.873H188.02    C157.808,504.497,131.087,484.638,122.667,455.624z"/>
		<path style="fill:#F5F5F5;" d="M355.007,374.691c-6.343-23.767-6.343-48.894,0-72.66c8.684-32.542,7.409-55.545,2.927-71.333    c-4.313-15.195-18.268-25.622-34.063-25.622H187.948c-15.595,0-29.478,10.156-33.911,25.108    c-6.79,22.901-2.706,49.817,3.174,71.847c6.342,23.767,6.342,48.892,0,72.659c-7.537,28.244-8.507,52.393-2.881,71.778    c4.302,14.824,18.202,25.177,33.802,25.177h135.955c15.6,0,29.501-10.353,33.802-25.175    C363.513,427.083,362.543,402.932,355.007,374.691z"/>
		<path style="fill:#D9D9D9;" d="M174.328,446.468c-5.626-19.384-4.656-43.534,2.881-71.778c6.342-23.767,6.342-48.892,0-72.659    c-5.879-22.03-9.964-48.945-3.174-71.847c4.433-14.952,18.316-25.108,33.911-25.108h-20c-15.595,0-29.478,10.156-33.911,25.108    c-6.79,22.901-2.706,49.817,3.174,71.847c6.342,23.767,6.342,48.892,0,72.659c-7.537,28.244-8.507,52.394-2.881,71.778    c4.302,14.824,18.202,25.177,33.802,25.177h20C192.53,471.645,178.63,461.292,174.328,446.468z"/>
	</g>
	<g>
		<path d="M149.963,372.753c-7.895,29.583-8.849,55.087-2.837,75.802c5.226,18.01,22.088,30.587,41.005,30.587h135.955    c18.917,0,35.778-12.577,41.005-30.585c3.004-10.352,4.28-22.034,3.792-34.721c-0.159-4.139-3.625-7.365-7.783-7.206    c-4.139,0.159-7.366,3.644-7.207,7.782c0.426,11.078-0.654,21.159-3.208,29.964c-3.378,11.638-14.316,19.766-26.6,19.766H188.131    c-12.284,0-23.222-8.128-26.6-19.768c-5.239-18.053-4.255-40.849,2.925-67.754c6.68-25.032,6.68-51.494,0-76.526    c-7.333-27.474-8.419-50.279-3.23-67.781c3.446-11.623,14.434-19.74,26.721-19.74h135.923c12.437,0,23.478,8.294,26.849,20.17    c5.135,18.092,4.14,40.752-2.959,67.352c-6.68,25.031-6.68,51.494,0,76.526c0.966,3.622,1.853,7.334,2.635,11.036    c0.856,4.052,4.835,6.645,8.888,5.788c4.053-0.856,6.644-4.836,5.788-8.888c-0.836-3.958-1.784-7.928-2.817-11.802    c-6.005-22.502-6.005-46.29,0-68.792c7.805-29.247,8.78-54.587,2.896-75.314c-5.193-18.296-22.168-31.074-41.278-31.074H187.948    c-18.88,0-35.782,12.532-41.102,30.477c-5.986,20.189-4.937,45.73,3.118,75.912C155.968,326.464,155.968,350.252,149.963,372.753z    "/>
		<path d="M193.063,330.664v10.032c0,4.142,3.358,7.5,7.5,7.5s7.5-3.358,7.5-7.5v-10.032c0-4.143-3.358-7.5-7.5-7.5    S193.063,326.522,193.063,330.664z"/>
		<path d="M303.931,330.664v10.032c0,4.142,3.358,7.5,7.5,7.5s7.5-3.358,7.5-7.5v-10.032c0-4.143-3.358-7.5-7.5-7.5    S303.931,326.522,303.931,330.664z"/>
		<path d="M264.032,335.063c-1.938,2.217-4.867,3.489-8.035,3.489c-3.168,0-6.097-1.272-8.035-3.489    c-2.727-3.119-7.464-3.438-10.583-0.711c-3.119,2.726-3.437,7.464-0.711,10.583c4.787,5.476,11.833,8.617,19.329,8.617    c7.497,0,14.542-3.141,19.329-8.618c2.726-3.119,2.408-7.857-0.711-10.583S266.758,331.944,264.032,335.063z"/>
		<path d="M115.465,457.712c9.275,31.96,39.11,54.282,72.555,54.282h135.955c33.444,0,63.28-22.322,72.555-54.282    c7.704-26.546,6.813-57.98-2.646-93.429c-4.526-16.96-4.526-34.889,0-51.85c8.362-31.333,14.17-76.561-5.644-114.083    c-8.756-16.58-19.579-25.998-25.248-30.136v-20.478c0-16.524-11.634-30.374-27.139-33.811v-13.899    c0-16.437-10.261-30.886-25.66-36.332c0.717-4.437,0.888-8.971,0.507-13.499c-2.243-26.675-24.07-48.197-50.773-50.063    c-31.338-2.19-58.83,23.331-58.83,54.763c0,2.946,0.237,5.899,0.706,8.799c-15.399,5.447-25.661,19.896-25.661,36.332v13.899    c-15.505,3.438-27.138,17.287-27.138,33.811v20.478c-5.669,4.138-16.493,13.557-25.248,30.137    c-19.814,37.522-14.006,82.749-5.645,114.083c4.526,16.96,4.526,34.89,0,51.85C108.651,399.732,107.761,431.165,115.465,457.712z     M164.003,147.736c0-10.829,8.81-19.638,19.638-19.638h30.075c4.142,0,7.5-3.358,7.5-7.5s-3.358-7.5-7.5-7.5h-22.575v-13.072    c0-10.291,6.583-19.306,16.382-22.433c6.52-2.081,10.497-8.678,9.251-15.345c-0.45-2.41-0.678-4.884-0.678-7.353    c0-22.902,20.002-41.392,42.784-39.8c19.392,1.354,35.243,16.984,36.872,36.356c0.306,3.642,0.125,7.281-0.537,10.817    c-1.248,6.654,2.731,13.242,9.256,15.324c9.798,3.126,16.381,12.142,16.381,22.433v13.072h-77.157c-4.142,0-7.5,3.358-7.5,7.5    s3.358,7.5,7.5,7.5h84.657c10.829,0,19.639,8.81,19.639,19.638v16.986H164.003V147.736z M132.604,308.566    c-10.871-40.736-9.504-76.118,3.952-102.321c8.099-15.769,18.395-23.92,22.144-26.522h194.615    c8.472,5.832,49.884,39.628,26.076,128.844c-5.201,19.49-5.201,40.094,0,59.585c8.745,32.771,9.665,61.496,2.734,85.38    c-7.427,25.59-31.338,43.463-58.149,43.463H188.019c-26.811,0-50.723-17.873-58.149-43.463c-6.931-23.884-6.011-52.61,2.734-85.38    C137.805,348.66,137.805,328.056,132.604,308.566z"/>
	</g>
</g>















</svg>
