<?xml version="1.0" encoding="iso-8859-1"?>
<!-- Generator: Adobe Illustrator 19.0.0, SVG Export Plug-In . SVG Version: 6.00 Build 0)  -->
<svg xmlns="http://www.w3.org/2000/svg" xmlns:xlink="http://www.w3.org/1999/xlink" version="1.1" id="Layer_1" x="0px" y="0px" viewBox="0 0 512 512" style="enable-background:new 0 0 512 512;" xml:space="preserve" width="512" height="512">
<g>
	<g>
		<path style="fill:#F5F5F5;" d="M143.296,314.803L13.702,444.396c-8.27,8.27-8.27,21.678,0,29.947l23.954,23.954    c8.27,8.27,21.678,8.27,29.947,0l129.594-129.594L143.296,314.803z"/>
		<path style="fill:#D9D9D9;" d="M175.984,347.491L46.391,477.084c-8.27,8.27-21.677,8.27-29.947,0l21.213,21.213    c8.27,8.27,21.677,8.27,29.947,0l129.594-129.594L175.984,347.491z"/>
		<path style="fill:#FAB3CE;" d="M154.673,271.618l-38.659,38.659c-8.783,8.783-8.783,23.023,0,31.806l53.902,53.902    c8.783,8.783,23.023,8.783,31.806,0l38.659-38.659L154.673,271.618z"/>
		<path style="fill:#E381A5;" d="M219.168,336.113l-38.659,38.659c-8.783,8.783-23.023,8.783-31.806,0l21.213,21.213    c8.783,8.783,23.023,8.783,31.806,0l38.659-38.659L219.168,336.113z"/>
		<path style="fill:#FAB3CE;" d="M468.216,43.784C402.136-22.295,333.053,12.072,281.65,65.883l64.028,100.439l100.439,64.028    C499.928,178.947,534.295,109.864,468.216,43.784z"/>
		<path style="fill:#F5F5F5;" d="M356.881,293.761c-79.124,41.313-91.357,121.508-148.614,64.252l-54.281-54.281    c-57.257-57.257,22.939-69.489,64.252-148.614c14.242-27.266,36.376-60.94,63.412-89.235L446.117,230.35    C417.821,257.385,384.148,279.519,356.881,293.761z"/>
		<path style="fill:#E381A5;" d="M468.216,43.784c-3.542-3.542-7.237-6.92-11.089-10.122    c52.041,62.647,18.585,126.942-32.223,175.475c-1.613,1.541-3.245,3.064-4.891,4.572l26.104,16.641    c1.682-1.607,3.344-3.23,4.986-4.87c22.976-22.963,41.746-49.187,49.527-76.939c0.834-2.973,1.541-5.964,2.114-8.971    C508.663,108.503,500.223,75.791,468.216,43.784z"/>
		<path style="fill:#D9D9D9;" d="M424.903,209.137c-28.296,27.035-61.969,49.169-89.235,63.411    c-79.125,41.313-91.357,121.508-148.614,64.252l21.213,21.213c19.682,19.682,34.043,23.122,47.631,17.483    c11.008-4.569,19.878-13.626,28.153-21.927c4.66-4.674,9.555-9.773,14.832-15.066c14.323-14.367,31.459-30.164,54.337-42.776    c2.928-1.614,5.907-3.131,8.845-4.727c26.27-14.266,57.523-35.304,84.051-60.649L424.903,209.137z"/>
		<path style="fill:#E381A5;" d="M327.038,238.024l-18.705-34.357l-34.357-18.705c-8.073,2.906-16.238,7.387-23.961,13.346    l22.491,41.187l41.187,22.491C319.651,254.262,324.132,246.098,327.038,238.024z"/>
		<path style="fill:#E381A5;" d="M272.505,239.494l-41.187-22.491c-5.959,7.723-10.44,15.888-13.346,23.961l16.199,36.863    l36.863,16.199c8.074-2.906,16.238-7.387,23.961-13.346L272.505,239.494z"/>
		<path style="fill:#D9D9D9;" d="M271.035,294.027c-18.367,6.631-36.229,5.098-47.195-5.868    c-10.965-10.965-12.499-28.828-5.868-47.195L271.035,294.027z"/>
		<path style="fill:#D9D9D9;" d="M304.946,271.936c-3.2,3.2-6.526,6.12-9.95,8.746l-63.678-63.678    c2.626-3.424,5.546-6.75,8.746-9.95c3.2-3.2,6.526-6.12,9.95-8.746l63.678,63.678    C311.066,265.409,308.146,268.736,304.946,271.936z"/>
		<path style="fill:#D9D9D9;" d="M327.038,238.024l-53.062-53.062c18.367-6.631,36.229-5.098,47.195,5.868    S333.669,219.657,327.038,238.024z"/>
	</g>
	<g>
		<path d="M360.693,50.98l-8.119,8.118c-2.929,2.929-2.929,7.678,0,10.606c1.464,1.465,3.384,2.197,5.303,2.197    c1.919,0,3.839-0.732,5.303-2.197l8.119-8.119c2.929-2.929,2.929-7.678,0-10.606C368.371,48.051,363.622,48.051,360.693,50.98z"/>
		<path d="M447.592,161.615c1.919,0,3.839-0.732,5.303-2.197l8.118-8.118c2.929-2.929,2.929-7.678,0-10.606    c-2.929-2.929-7.678-2.929-10.606,0l-8.118,8.118c-2.929,2.929-2.929,7.678,0,10.606    C443.753,160.883,445.672,161.615,447.592,161.615z"/>
		<path d="M414.874,127.248c4.133-0.278,7.258-3.853,6.98-7.986s-3.855-7.258-7.985-6.98c-3.672,0.248-7.379-1.208-10.164-3.993    c-2.785-2.785-4.24-6.489-3.993-10.164c0.278-4.133-2.847-7.708-6.98-7.986c-4.145-0.28-7.708,2.847-7.986,6.98    c-0.538,7.993,2.507,15.93,8.353,21.776c5.404,5.404,12.594,8.414,19.965,8.414C413.665,127.309,414.27,127.289,414.874,127.248z"/>
		<path d="M32.347,503.601C37.763,509.017,44.964,512,52.624,512s14.861-2.983,20.277-8.399l97.677-97.677    c4.567,2.703,9.79,4.148,15.236,4.148c8.011,0,15.542-3.12,21.207-8.784l19.94-19.94c5.866,2.754,11.563,4.092,17.246,4.092    c0.066,0,0.133,0,0.2,0c19.101-0.105,33.598-14.925,51.951-33.687c16.807-17.181,35.855-36.654,63.991-51.344    c32.657-17.058,65.804-40.616,90.943-64.635l0,0c39.289-37.531,60.277-76.712,60.696-113.309    c0.342-29.856-12.603-58.112-38.475-83.983C447.641,12.61,419.356-0.34,389.528,0.007C352.933,0.425,313.753,21.413,276.223,60.7    c-0.001,0.001-0.002,0.001-0.003,0.002c-24.019,25.139-47.578,58.287-64.637,90.945c-14.689,28.135-34.163,47.184-51.343,63.99    c-18.762,18.354-33.582,32.851-33.687,51.951c-0.031,5.75,1.304,11.511,4.091,17.446l-19.94,19.94    c-9.862,9.863-11.406,24.942-4.631,36.438l-49.129,49.128c-2.929,2.929-2.929,7.677,0,10.606c2.929,2.929,7.678,2.929,10.606,0    l48.457-48.457l43.295,43.294l-97.009,97.009c-5.332,5.332-14.009,5.332-19.341,0L18.999,469.04    c-5.332-5.333-5.332-14.008,0-19.34l27.598-27.598c2.929-2.929,2.929-7.677,0-10.606c-2.929-2.929-7.678-2.929-10.606,0    L8.392,439.093c-11.181,11.181-11.181,29.373,0,40.553L32.347,503.601z M170.73,226.36c17.089-16.717,38.357-37.522,54.15-67.769    c15.189-29.08,35.704-58.537,56.954-81.911l108.955,108.955c2.929,2.929,7.678,2.929,10.606,0c2.929-2.929,2.929-7.677,0-10.606    L292.192,65.826c41.507-41.393,75.757-50.571,97.508-50.82c25.638-0.296,50.297,11.173,73.206,34.082s34.375,47.539,34.082,73.206    c-0.249,21.751-9.427,56-50.82,97.508l-23.929-23.929c-2.929-2.929-7.678-2.929-10.606,0c-2.929,2.929-2.929,7.677,0,10.606    l23.681,23.681c-23.375,21.25-52.831,41.764-81.91,56.953c-30.248,15.793-51.053,37.062-67.771,54.151    c-15.907,16.261-28.472,29.106-41.311,29.176c-12.302,0.067-22.614-9.586-30.758-17.73l-54.28-54.281    c-7.971-7.971-17.796-18.69-17.73-30.758C141.624,254.832,154.468,242.268,170.73,226.36z M121.311,315.581l17.534-17.534    c2.766,3.542,6.026,7.183,9.832,10.989l54.28,54.281c3.467,3.466,6.791,6.458,10.034,9.058c0.318,0.255,0.639,0.526,0.955,0.774    c0,0-17.515,17.516-17.533,17.534c-5.783,5.783-15.423,5.777-21.2,0l-53.902-53.901    C115.467,330.936,115.467,321.425,121.311,315.581z"/>
		<path d="M218.531,293.463c22.414,22.412,59.448,9.803,81.043-6.846c7.511-5.791,14.296-12.552,20.07-20.078    c16.71-21.669,29.276-58.561,6.823-81.013c-14.485-14.485-36.953-14.147-55.038-7.622c-18.911,6.823-33.084,19.689-46.076,34.545    C208.695,234.053,196.11,271.044,218.531,293.463z M249.943,290.486c-6.011,0-14.5-1.324-20.806-7.63    c-6.272-6.272-8.729-16.021-7.166-27.278l34.448,34.447C254.215,290.332,252.053,290.486,249.943,290.486z M272.846,285.239    l-46.092-46.091c1.551-3.563,3.414-7.077,5.575-10.519l51.036,51.035C279.923,281.826,276.409,283.688,272.846,285.239z     M295.055,188.503c6.011,0,14.5,1.324,20.806,7.629c6.272,6.273,8.729,16.022,7.165,27.279l-34.447-34.447    C290.783,188.658,292.944,188.503,295.055,188.503z M272.151,193.75l46.092,46.092c-1.551,3.563-3.414,7.077-5.575,10.519    l-51.036-51.035C265.075,197.164,268.588,195.301,272.151,193.75z M245.361,212.357c1.357-1.357,2.749-2.668,4.164-3.925    l54.038,54.037c-1.257,1.416-2.568,2.806-3.925,4.164s-2.748,2.668-4.164,3.925l-54.037-54.037    C242.692,215.105,244.003,213.714,245.361,212.357z"/>
	</g>
</g>















</svg>
