<?xml version="1.0" encoding="iso-8859-1"?>
<!-- Generator: Adobe Illustrator 19.0.0, SVG Export Plug-In . SVG Version: 6.00 Build 0)  -->
<svg xmlns="http://www.w3.org/2000/svg" xmlns:xlink="http://www.w3.org/1999/xlink" version="1.1" id="Layer_1" x="0px" y="0px" viewBox="0 0 511.987 511.987" style="enable-background:new 0 0 511.987 511.987;" xml:space="preserve" width="512" height="512">
<g>
	<g>
		<path style="fill:#A49EA6;" d="M440.134,23.813H71.853c-37.258,0-66.731,31.54-64.209,68.712l22.678,334.317    c2.342,34.524,31.03,61.332,65.633,61.332h320.077c34.603,0,63.291-26.808,65.633-61.332l22.678-334.317    C506.864,55.353,477.391,23.813,440.134,23.813z"/>
		<path style="fill:#E0D8E3;" d="M95.955,442.449c-10.511,0-19.302-8.214-20.013-18.701L53.264,89.431    c-0.477-7.023,2.913-11.775,4.976-13.982c2.063-2.207,6.574-5.911,13.613-5.911h368.281c7.038,0,11.55,3.703,13.613,5.911    c2.063,2.208,5.453,6.959,4.976,13.982l-22.678,334.317c-0.711,10.487-9.502,18.701-20.014,18.701H95.955z"/>
		<path style="fill:#F5F5F5;" d="M275.665,99.666c37.25,2.53,69.532,12.142,90.332,25.789c9.48,6.229,14.002,17.751,11.35,28.786    l-15.557,64.736c-2.276,9.48-12.336,14.784-21.48,11.37c-23.076-8.617-52.401-13.768-84.316-13.768s-61.241,5.152-84.316,13.768    c-9.135,3.414-19.194-1.89-21.48-11.37l-15.557-64.736c-2.652-11.025,1.87-22.558,11.35-28.786    c20.8-13.646,53.081-23.259,90.332-25.789H275.665z"/>
		<path style="fill:#FC7176;" d="M275.665,99.666l-16.806,48.042c-0.945,2.713-4.786,2.713-5.731,0l-16.806-48.042    c6.422-0.437,12.986-0.66,19.672-0.66C262.679,99.005,269.243,99.229,275.665,99.666z"/>
	</g>
	<g>
		<path d="M440.134,16.313H147.973c-4.142,0-7.5,3.358-7.5,7.5s3.358,7.5,7.5,7.5c0,0,292.081,0,292.161,0    c32.459,0,58.921,28.351,56.726,60.705l-22.678,334.316c-2.067,30.471-27.61,54.34-58.15,54.34H95.955    c-30.541,0-56.083-23.869-58.15-54.34c0,0-22.664-334.113-22.678-334.316c-2.2-32.426,24.276-60.705,56.726-60.705h46.12    c4.142,0,7.5-3.358,7.5-7.5s-3.358-7.5-7.5-7.5c0,0-46.094,0-46.12,0c-41.044,0-74.466,35.817-71.692,76.719L22.839,427.35    c2.6,38.313,34.716,68.324,73.116,68.324h320.077c38.4,0,70.517-30.012,73.116-68.324c0,0,22.667-334.155,22.678-334.317    C514.604,52.075,481.125,16.313,440.134,16.313z"/>
		<path d="M370.639,449.949h45.393c14.441,0,26.519-11.286,27.497-25.693l22.678-334.318c1.014-14.944-11.156-27.9-26.072-27.9    c0,0-368.281,0-368.284,0c-14.958,0.002-27.08,13.018-26.069,27.9l22.678,334.317c0.977,14.408,13.055,25.693,27.496,25.693    h244.684c4.142,0,7.5-3.358,7.5-7.5s-3.358-7.5-7.5-7.5H95.955c-6.581,0-12.085-5.143-12.53-11.708    c0,0-22.678-334.318-22.679-334.323c-0.432-6.38,4.731-11.879,11.106-11.879c0,0,368.281,0,368.285,0    c6.322,0.002,11.529,5.604,11.103,11.885L428.562,423.24c-0.445,6.565-5.95,11.708-12.531,11.708h-45.393    c-4.142,0-7.5,3.358-7.5,7.5S366.497,449.949,370.639,449.949z"/>
		<path d="M159.403,304.49c-4.142,0-7.5,3.358-7.5,7.5v17.481c0,4.142,3.358,7.5,7.5,7.5s7.5-3.358,7.5-7.5V311.99    C166.903,307.848,163.545,304.49,159.403,304.49z"/>
		<path d="M345.083,311.99v17.481c0,4.142,3.358,7.5,7.5,7.5s7.5-3.358,7.5-7.5V311.99c0-4.142-3.358-7.5-7.5-7.5    S345.083,307.848,345.083,311.99z"/>
		<path d="M274.186,323.319c-4.435,5.073-11.065,7.983-18.193,7.983c-7.127,0-13.758-2.91-18.193-7.984    c-2.725-3.119-7.464-3.437-10.583-0.71c-3.119,2.726-3.437,7.464-0.71,10.583c7.284,8.333,18.031,13.112,29.486,13.112    c11.456,0,22.204-4.779,29.487-13.112c2.726-3.119,2.408-7.857-0.711-10.583C281.65,319.882,276.913,320.2,274.186,323.319z"/>
		<path d="M369.083,220.729l15.556-64.736c3.385-14.083-2.452-28.875-14.528-36.81c-22.281-14.618-56.519-24.459-93.938-27.001    c-13.224-0.899-27.139-0.899-40.362,0c-37.418,2.542-71.656,12.383-93.941,27.003c-12.075,7.933-17.912,22.725-14.524,36.807    c0,0,15.538,64.657,15.558,64.742c3.275,13.629,18.3,21.533,31.395,16.638c22.959-8.573,51.971-13.294,81.693-13.294    s58.734,4.721,81.693,13.294C350.865,242.294,365.795,234.422,369.083,220.729z M265.096,107.165l-9.103,26.02l-9.102-26.02    H265.096z M346.028,223.887c-1.048,0-2.089-0.19-3.095-0.566c-9.198-3.435-19.094-6.268-29.519-8.481l3.594-23.772    c0.619-4.096-2.199-7.917-6.294-8.537c-4.094-0.618-7.917,2.199-8.537,6.294l-3.531,23.356    c-11.288-1.694-23.064-2.706-35.153-3.001v-32.443c0-4.143-3.358-7.5-7.5-7.5s-7.5,3.357-7.5,7.5v32.443    c-12.089,0.295-23.865,1.307-35.153,3.001l-3.531-23.356c-0.619-4.096-4.442-6.912-8.537-6.294    c-4.096,0.62-6.914,4.441-6.294,8.537l3.594,23.771c-10.425,2.214-20.322,5.047-29.521,8.482    c-4.844,1.809-10.345-1.046-11.563-6.097l-15.557-64.738c-1.912-7.95,1.374-16.294,8.172-20.762    c19.091-12.524,48.39-21.211,81.047-24.126l14.894,42.575c1.473,4.228,5.47,7.068,9.948,7.068c4.478,0,8.476-2.84,9.945-7.058    l14.897-42.585c32.657,2.915,61.957,11.601,81.043,24.124c6.802,4.469,10.087,12.814,8.176,20.766l-15.556,64.737    C353.556,221.148,350.073,223.887,346.028,223.887z"/>
	</g>
</g>















</svg>
