<?xml version="1.0" encoding="iso-8859-1"?>
<!-- Generator: Adobe Illustrator 19.0.0, SVG Export Plug-In . SVG Version: 6.00 Build 0)  -->
<svg xmlns="http://www.w3.org/2000/svg" xmlns:xlink="http://www.w3.org/1999/xlink" version="1.1" id="Layer_1" x="0px" y="0px" viewBox="0 0 512 512" style="enable-background:new 0 0 512 512;" xml:space="preserve" width="512" height="512">
<g>
	<g>
		<path style="fill:#80C9FF;" d="M178.877,56.105c0,0-141.545,5.273-150.212,166.501v21.165h169.026V56.105H178.877z"/>
		<path style="fill:#6DAAD9;" d="M197.691,57.343v-1.238h-18.814c0,0-141.545,5.272-150.212,166.501v21.165h30v-21.165    C65.84,89.135,164.078,62.543,197.691,57.343z"/>
		<g>
			<path style="fill:#F5F5F5;" d="M197.691,263.663c-10.391,0-18.814-8.423-18.814-18.814V56.105     c0-10.391,8.423-18.814,18.814-18.814c10.391,0,18.814,8.423,18.814,18.814V244.85     C216.505,255.24,208.082,263.663,197.691,263.663z"/>
		</g>
		<path style="fill:#80C9FF;" d="M246.593,243.771L28.669,264.937l15.001,61.487c8.864,36.333,41.417,61.899,78.815,61.899h138.471    c37.399,0,69.951-25.566,78.815-61.899l15.001-61.487L246.593,243.771z"/>
		<path style="fill:#6DAAD9;" d="M73.669,326.424l-15.001-61.487l197.877-19.218l-9.952-1.947L28.669,264.937l15.001,61.487    c8.864,36.333,41.417,61.899,78.815,61.899h30C115.086,388.323,82.533,362.757,73.669,326.424z"/>
		<path style="fill:#D9D9D9;" d="M197.691,263.663c10.391,0,18.814-8.423,18.814-18.813v-52.244h-37.627v52.244    C178.877,255.24,187.3,263.663,197.691,263.663z"/>
		<path style="fill:#F5F5F5;" d="M445.801,158.329c-20.469,0-39.923,7.761-54.776,21.852l-44.701,42.425H28.665    c-11.683,0-21.165,9.473-21.165,21.165s9.482,21.165,21.165,21.165h326.106c5.418,0,10.639-2.079,14.571-5.813l50.825-48.238    c6.952-6.594,16.057-10.225,25.634-10.225l29.349-21.165L445.801,158.329z"/>
		<g>
			<path style="fill:#D9D9D9;" d="M37.5,243.771c0-11.692,9.482-21.165,21.165-21.165h-30c-11.683,0-21.165,9.473-21.165,21.165     c0,11.693,9.482,21.166,21.165,21.166h30C46.982,264.937,37.5,255.464,37.5,243.771z"/>
		</g>
		<path style="fill:#80C9FF;" d="M504.5,179.494c0,11.683-9.482,21.165-21.165,21.165h-37.533v-42.331h37.533    C495.018,158.329,504.5,167.802,504.5,179.494z"/>
		<circle style="fill:#38484A;" cx="79.857" cy="409.566" r="65.142"/>
		<circle style="fill:#A49EA6;" cx="79.857" cy="409.566" r="31.278"/>
		<circle style="fill:#38484A;" cx="303.583" cy="409.566" r="65.142"/>
		<circle style="fill:#A49EA6;" cx="303.583" cy="409.566" r="31.278"/>
	</g>
	<g>
		<path d="M121.114,318.295c4.142,0,7.5-3.358,7.5-7.5v-12.779c0-4.142-3.358-7.5-7.5-7.5c-4.143,0-7.5,3.358-7.5,7.5v12.779    C113.614,314.937,116.971,318.295,121.114,318.295z"/>
		<path d="M262.327,318.295c4.142,0,7.5-3.358,7.5-7.5v-12.779c0-4.142-3.358-7.5-7.5-7.5s-7.5,3.358-7.5,7.5v12.779    C254.827,314.937,258.185,318.295,262.327,318.295z"/>
		<path d="M191.72,325.116c8.956,0,17.366-3.745,23.073-10.274c2.727-3.119,2.408-7.857-0.71-10.583    c-3.118-2.726-7.856-2.408-10.583,0.711c-2.859,3.271-7.153,5.146-11.78,5.146c-4.628,0-8.921-1.875-11.78-5.146    c-2.726-3.119-7.464-3.437-10.583-0.711c-3.119,2.726-3.438,7.464-0.711,10.583C174.354,321.371,182.764,325.116,191.72,325.116z"/>
		<path d="M79.857,370.789c-21.382,0-38.778,17.396-38.778,38.778s17.396,38.777,38.778,38.777s38.778-17.396,38.778-38.777    S101.24,370.789,79.857,370.789z M79.857,433.344c-13.111,0-23.778-10.666-23.778-23.777s10.667-23.778,23.778-23.778    s23.778,10.667,23.778,23.778S92.968,433.344,79.857,433.344z"/>
		<path d="M303.583,370.789c-21.382,0-38.778,17.396-38.778,38.778s17.396,38.777,38.778,38.777s38.778-17.396,38.778-38.777    S324.965,370.789,303.583,370.789z M303.583,433.344c-13.111,0-23.778-10.666-23.778-23.777s10.667-23.778,23.778-23.778    s23.778,10.667,23.778,23.778S316.694,433.344,303.583,433.344z"/>
		<path d="M512,179.494c0-15.806-12.859-28.665-28.665-28.665h-37.533c-0.003,0-0.006,0-0.009,0    c-22.395,0.003-43.678,8.494-59.93,23.912l-42.531,40.365H224.005V114.14c0-4.142-3.358-7.5-7.5-7.5s-7.5,3.358-7.5,7.5v100.966    h-22.627V56.105c0-6.238,5.075-11.313,11.314-11.313c6.238,0,11.313,5.075,11.313,11.313v28.099c0,4.142,3.358,7.5,7.5,7.5    s7.5-3.358,7.5-7.5V56.105c0-14.509-11.804-26.313-26.313-26.313c-12.101,0-22.313,8.212-25.373,19.354    c-8.721,0.998-25.617,3.805-45.173,11.596c-25.887,10.313-61.48,31.684-84.043,74.932c-1.916,3.672-0.491,8.202,3.181,10.118    c3.673,1.916,8.203,0.492,10.119-3.181c16.32-31.282,41.82-54.071,75.792-67.733c16.287-6.55,30.748-9.326,39.184-10.481v150.709    H36.7c1.316-15.576,4.011-30.204,8.031-43.582c1.192-3.967-1.057-8.149-5.024-9.341c-3.966-1.192-8.149,1.057-9.341,5.024    c-4.504,14.986-7.44,31.375-8.772,48.784C9.196,219.148,0,230.405,0,243.771c0,13.732,9.708,25.235,22.621,28.019l13.763,56.412    c1.579,6.472,3.889,12.716,6.869,18.659c-21.535,12.62-36.037,35.995-36.037,62.706c0,40.055,32.587,72.642,72.642,72.642    s72.642-32.587,72.642-72.642c0-4.699-0.465-9.291-1.321-13.744h81.084c-0.857,4.453-1.321,9.044-1.321,13.744    c0,40.055,32.587,72.642,72.642,72.642c40.055,0,72.642-32.587,72.642-72.642c0-26.711-14.502-50.086-36.037-62.706    c2.979-5.942,5.29-12.188,6.869-18.659l13.762-56.412c5.104-1.095,9.83-3.563,13.686-7.227l50.824-48.237    c5.552-5.267,12.822-8.167,20.472-8.167h37.533C499.141,208.16,512,195.301,512,179.494z M79.857,467.208    c-31.784,0-57.642-25.858-57.642-57.642c0-31.23,26.409-57.642,57.642-57.642c0.015,0,0.029,0.001,0.044,0.001    c31.301,0.017,57.598,26.35,57.598,57.641C137.5,441.351,111.641,467.208,79.857,467.208z M361.225,409.566    c0,31.784-25.858,57.642-57.642,57.642c-31.784,0-57.642-25.858-57.642-57.642c0-24.446,16.259-46.829,39.373-54.663    c13.33-4.518,28.222-3.839,41.124,1.756C346.883,365.526,361.225,385.899,361.225,409.566z M332.485,324.646    c-1.354,5.553-3.347,10.911-5.944,15.994c-0.276-0.092-1.556-0.488-1.919-0.599c-17.28-5.24-36.689-3.662-52.915,4.267    c-15.499,7.582-28.013,20.661-34.838,36.514h-90.298c-6.532-15.17-17.92-27.363-31.938-35.016    c-11.559-6.31-24.86-9.385-38.016-8.803c-4.863,0.215-9.853,0.936-14.623,2.148c-0.542,0.137-5.063,1.549-5.095,1.488    c-2.597-5.084-4.589-10.441-5.944-15.994l-12.736-52.21h307.003L332.485,324.646z M415.005,205.445l-50.827,48.24    c-2.547,2.419-5.887,3.751-9.406,3.751h0H28.669h-0.003c-7.535,0-13.666-6.13-13.666-13.666c0-7.535,6.13-13.665,13.666-13.665    h317.659c1.921,0,3.769-0.737,5.163-2.06l44.7-42.424c11.625-11.029,26.362-17.776,42.114-19.407v27.571    C429.601,195.254,421.517,199.268,415.005,205.445z M483.335,193.16h-30.033v-27.331h30.033c7.535,0,13.665,6.13,13.665,13.665    S490.87,193.16,483.335,193.16z"/>
	</g>
</g>















</svg>
