<?xml version="1.0" encoding="iso-8859-1"?>
<!-- Generator: Adobe Illustrator 19.0.0, SVG Export Plug-In . SVG Version: 6.00 Build 0)  -->
<svg xmlns="http://www.w3.org/2000/svg" xmlns:xlink="http://www.w3.org/1999/xlink" version="1.1" id="Layer_1" x="0px" y="0px" viewBox="0 0 512 512" style="enable-background:new 0 0 512 512;" xml:space="preserve" width="512" height="512">
<g>
	<g>
		<path style="fill:#D9D9D9;" d="M377.608,7.5H315.91c-22.209,0-40.212,18.003-40.212,40.212l71.061,28.721l71.061-28.721    C417.82,25.503,399.817,7.5,377.608,7.5z"/>
		<path style="fill:#9AD48D;" d="M417.819,105.154L417.819,105.154l-71.06-28.722l-71.061,28.721l0.001,0    c-0.019,0.013-68.983,48.513-68.983,178.147c0,129.651,0,221.199,0,221.199H439.95c25.876,0,46.852-20.977,46.852-46.852V283.301    C486.802,153.667,417.837,105.167,417.819,105.154z"/>
		<path style="fill:#87BA7D;" d="M416.558,222.638H276.96c-12.923,0-23.399,10.476-23.399,23.399v143.675    c0,12.923,10.476,23.399,23.399,23.399h139.597c12.923,0,23.399-10.476,23.399-23.399V246.036    C439.956,233.114,429.48,222.638,416.558,222.638z"/>
		<rect x="275.698" y="47.712" style="fill:#F5F5F5;" width="142.122" height="57.442"/>
		<path style="fill:#F5F5F5;" d="M305.093,349.116c0,0,1.438-51.478-42.531-51.478c-34.626-57.492-111.893-10.824-120.072-56.347    c-0.91-5.066-5.442-8.685-10.567-8.203c-61.05,5.74-64.191,64.55-64.191,64.55c-43.969,0-42.531,51.478-42.531,51.478    l139.945,34.145L305.093,349.116z"/>
		<path style="fill:#D9D9D9;" d="M55.203,349.116c0,0-1.438-51.478,42.531-51.478c0,0,2.391-44.636,43.381-59.928    c-1.912-3.076-5.386-4.98-9.19-4.622c-61.05,5.74-64.191,64.55-64.191,64.55c-43.969,0-42.531,51.478-42.531,51.478    l139.945,34.146l15-3.66L55.203,349.116z"/>
		<path style="fill:#FAB3CE;" d="M25.203,349.116v103.759c0,28.512,23.113,51.625,51.625,51.625h176.64    c28.512,0,51.625-23.113,51.625-51.625V349.116H25.203z"/>
		<path style="fill:#E381A5;" d="M55.203,452.875V349.116h-30v103.758c0,28.512,23.113,51.625,51.625,51.625h30    C78.316,504.5,55.203,481.386,55.203,452.875z"/>
	</g>
	<g>
		<path d="M86.449,398.488c-4.142,0-7.5,3.358-7.5,7.5v14.244c0,4.142,3.358,7.5,7.5,7.5s7.5-3.358,7.5-7.5v-14.244    C93.949,401.846,90.591,398.488,86.449,398.488z"/>
		<path d="M243.849,427.731c4.142,0,7.5-3.358,7.5-7.5v-14.244c0-4.142-3.358-7.5-7.5-7.5s-7.5,3.358-7.5,7.5v14.244    C236.349,424.373,239.707,427.731,243.849,427.731z"/>
		<path d="M165.149,435.334c9.734,0,18.873-4.067,25.071-11.158c2.726-3.119,2.408-7.857-0.711-10.583    c-3.119-2.727-7.856-2.408-10.583,0.71c-3.35,3.832-8.371,6.03-13.777,6.03s-10.428-2.198-13.777-6.03    c-2.726-3.119-7.464-3.437-10.583-0.711c-3.119,2.726-3.437,7.464-0.711,10.583C146.276,431.267,155.414,435.334,165.149,435.334z    "/>
		<path d="M439.95,512c29.97,0,54.353-24.382,54.353-54.353V283.301c0-117.27-54.898-170.166-68.982-181.803V47.711    C425.32,21.403,403.917,0,377.609,0H315.91c-26.308,0-47.711,21.403-47.711,47.711v53.785    c-13.007,10.734-60.889,56.71-68.07,156.399c-3.783-0.255-7.498-0.43-11.091-0.596c-25.831-1.192-36.606-3.094-39.165-17.335    c-1.621-9.024-9.633-15.19-18.65-14.344c-34.818,3.274-52.32,22.636-60.871,38.302c-5.61,10.279-8.129,20.258-9.246,26.576    c-10.926,1.227-20.079,5.577-27.274,12.977c-16.348,16.811-16.175,43.429-16.129,45.716v103.684    c0,32.602,26.523,59.125,59.125,59.125H439.95z M315.91,15h61.698c15.458,0,28.446,10.776,31.844,25.211H284.067    C287.465,25.776,300.453,15,315.91,15z M215.045,259.48c3.864-54.434,20.697-91.336,34.442-112.979    c12.344-19.438,24.374-30.239,28.783-33.847h74.181c4.142,0,7.5-3.358,7.5-7.5s-3.358-7.5-7.5-7.5h-69.252V55.211H410.32v42.442    h-27.87c-4.016,0-7.5,3.457-7.5,7.5c0,4.142,3.358,7.5,7.5,7.5l32.797,0c4.681,3.832,17.975,15.792,31.122,37.623    c27.219,45.196,32.933,97.285,32.933,133.023v174.347c0,21.699-17.653,39.353-39.353,39.353H292.782    c0.063-0.057,0.122-0.117,0.185-0.174c12.3-11.135,19.627-27.346,19.627-43.951v-32.266h103.964    c17.038,0,30.898-13.861,30.898-30.898V246.036c0-17.038-13.861-30.898-30.898-30.898H276.961    c-17.038,0-30.899,13.861-30.899,30.898v24.14c-8.245-5.067-17.513-8.185-26.984-9.997    C218.681,260.103,215.045,259.663,215.045,259.48z M312.594,349.175c0.012-16.131-4.619-33.868-16.129-45.7    c-6.779-6.968-15.708-11.3-25.296-12.717c-1.458-0.216-2.933-0.377-4.404-0.478c-0.065-0.097-0.133-0.185-0.198-0.281    c-1.691-2.483-3.524-4.87-5.505-7.129v-36.834c0-8.767,7.132-15.898,15.899-15.898h139.597c8.767,0,15.898,7.132,15.898,15.898    v143.675c0,8.767-7.132,15.898-15.898,15.898H312.594C312.594,405.609,312.594,349.669,312.594,349.175z M44.633,313.885    c5.75-5.886,13.306-8.747,23.101-8.747c3.987,0,7.277-3.119,7.489-7.1c0.007-0.13,0.781-13.162,8.295-26.929    c9.902-18.141,26.424-28.421,49.108-30.554c1.172-0.112,2.251,0.775,2.483,2.062c2.227,12.396,9.192,20.853,20.701,25.136    c16.143,6.007,33.552,3.21,50.251,5.681c0.096,0.014,0.189,0.034,0.286,0.044c14.366,1.525,30.181,5.06,42.518,18.32    c2.755,2.961,5.186,6.245,7.273,9.709c1.345,2.234,3.815,3.63,6.425,3.63c4.897,0,9.235,0.715,13.068,2.166    c13.976,5.29,19.803,20.326,21.479,34.091c0.009,0.074,0.017,0.147,0.026,0.221H127.784c-4.042,0-7.5,3.453-7.5,7.5    c0,4.021,3.489,7.5,7.5,7.5h169.81v96.259c0,23.611-20.493,44.125-44.125,44.125H76.829c-24.331,0-44.125-19.794-44.125-44.125    v-96.259h65.081c4.044,0,7.5-3.451,7.5-7.5c0-4.043-3.452-7.5-7.5-7.5H33.16C34.069,333.961,36.752,321.952,44.633,313.885z"/>
	</g>
</g>















</svg>
