<?xml version="1.0" encoding="iso-8859-1"?>
<!-- Generator: Adobe Illustrator 19.0.0, SVG Export Plug-In . SVG Version: 6.00 Build 0)  -->
<svg xmlns="http://www.w3.org/2000/svg" xmlns:xlink="http://www.w3.org/1999/xlink" version="1.1" id="Layer_1" x="0px" y="0px" viewBox="0 0 512 512" style="enable-background:new 0 0 512 512;" xml:space="preserve" width="512" height="512">
<g>
	<g>
		<path style="fill:#FAB3CE;" d="M420.332,183.105c0,42.902,84.168,65.545,84.168,177.568c0,56.011-40.567,98.914-116.516,98.914    s-116.516-42.902-116.516-98.914c0-112.023,84.168-134.665,84.168-177.568H420.332z"/>
		<path style="fill:#E381A5;" d="M441.573,222.669c-12.178-13.589-21.241-25.485-21.241-39.563h-64.697    c0,21.187-20.527,37.439-41.307,61.949C356.086,241.805,404.115,235.357,441.573,222.669z"/>
		<path style="fill:#FA9E25;" d="M457.676,183.105c-64.353,36.795-229.259,35.156-229.259,35.156l19.813-35.156l30.687-19.02    L457.676,183.105z"/>
		<path style="fill:#FFB641;" d="M248.229,183.105h209.447c0,0-69.643-38.039-216.263-38.039L248.229,183.105z"/>
		<path style="fill:#F5F5F5;" d="M112.406,400.831c3.975,26.73-1.213,50.451-16.328,74.65h64.825    c26.558-68.163-1.3-127.706-20.581-168.902c-6.867-14.671-15.413-32.93-15.028-40.333c0.832-16.021-11.481-29.683-27.502-30.516    c-16.028-0.826-29.684,11.481-30.516,27.503c-1.138,21.898,8.856,43.251,20.428,67.975    C97.56,352.269,108.734,376.142,112.406,400.831z"/>
		<path style="fill:#D9D9D9;" d="M140.321,306.579c-6.867-14.671-15.413-32.93-15.028-40.333    c0.832-16.021-11.481-29.684-27.502-30.516c-16.028-0.826-29.684,11.481-30.516,27.503c-0.977,18.804,6.257,37.208,15.647,57.689    c14.198,4.279,29.294,6.59,44.943,6.59c7.257,0,14.391-0.507,21.376-1.466C146.216,319.177,143.174,312.675,140.321,306.579z"/>
		<path style="fill:#F5F5F5;" d="M148.634,70.402l0.004-0.002c-27.745-6.834-47.736-23.537-56.671-32.253    c-2.967-2.894-7.929-1.766-9.369,2.121c-2.187,5.905-3.74,15.126-0.103,27.249c1.383,4.609-0.94,9.507-5.431,11.235    C56.729,86.575,7.5,112.777,7.5,183.105c0,63.185,53.889,114.406,120.365,114.406s120.365-51.221,120.365-114.406    C248.229,126.653,205.211,79.756,148.634,70.402z"/>
		<path style="fill:#E381A5;" d="M397.811,183.105c-0.034-19.152-16.353-48.745-43.76-49.399c-3.741-0.089-6.391,3.638-5.026,7.121    c4.173,10.647,11.185,31.59,6.61,42.278H397.811z"/>
		<path style="fill:#FAB3CE;" d="M378.157,183.105c0.034-19.152,16.353-48.745,43.76-49.399c3.741-0.089,6.391,3.638,5.026,7.121    c-4.173,10.647-11.185,31.59-6.61,42.278H378.157z"/>
	</g>
	<g>
		<path d="M216.089,163.965v-13.128c0-4.143-3.358-7.5-7.5-7.5s-7.5,3.357-7.5,7.5v13.128c0,4.142,3.358,7.5,7.5,7.5    S216.089,168.107,216.089,163.965z"/>
		<path d="M462.684,177.531c-0.44-0.411-0.928-0.771-1.454-1.068c-0.81-0.439-11.802-6.304-33.462-13.374    c1.269-5.73,3.347-12.391,6.158-19.563c1.533-3.911,1.034-8.318-1.333-11.789c-2.432-3.566-6.563-5.617-10.854-5.567    c-13.744,0.328-25.188,6.742-33.738,15.795c-9.336-9.952-21.054-15.492-33.771-15.795c-4.308-0.054-8.414,1.989-10.855,5.567    c-2.541,3.725-2.704,8.26-1.108,12.377c-30.095-4.162-62.237-6.364-95.793-6.565c-5.106-12.101-12.243-23.432-21.234-33.494    c-19.282-21.578-45.922-36.143-75.046-41.036c-25.629-6.378-44.192-21.698-52.99-30.279c-6.768-6.601-18.372-3.942-21.64,4.883    c-2.484,6.708-4.544,17.706-0.253,32.01c0.264,0.878-0.141,1.772-0.94,2.08c-9.962,3.833-29.09,12.917-45.262,30.69    C9.793,123.631,0,150.771,0,183.067c0,19.975,5.187,39.798,15.001,57.327c2.024,3.615,6.594,4.904,10.208,2.881    c3.614-2.023,4.904-6.594,2.88-10.208C19.526,217.772,15,200.482,15,183.067c0-65.382,45.286-89.863,64.757-97.354    c8.063-3.103,12.42-12.059,9.921-20.391c-2.564-8.548-2.073-15.229-0.87-19.863c10.58,9.874,30.627,25.373,57.808,32.127    c0.259,0.072,0.525,0.131,0.794,0.176c41.124,6.799,73.666,34.045,86.897,69.612c7.98,21.453,8.465,45.82,1.297,67.572    c-13.631,41.243-52.985,71.81-100.181,74.781c-33.419,2.086-67.252-10.251-90.677-34.353c-2.884-2.974-7.633-3.045-10.605-0.161    c-2.973,2.885-3.045,7.633-0.161,10.605c8.392,8.65,18.004,16.014,28.463,21.946c3.744,15.119,10.908,30.433,18.466,46.583    c9.641,20.597,20.567,43.942,24.078,67.548c3.698,24.864-1.154,46.971-15.269,69.57c-3.072,4.919,0.586,11.476,6.359,11.476    h64.825c3.091,0,5.866-1.897,6.988-4.777c27.681-71.045-1.359-133.316-20.675-174.586c46.314-6.731,84.532-37.24,100.49-78.008    c17.855-0.331,46.443-1.318,77.681-4.171c-0.918,1.007-1.844,2.021-2.784,3.047c-24.745,27.041-58.635,64.073-58.635,136.188    c0,30.689,11.152,56.979,32.251,76.028c22.019,19.878,53.75,30.386,91.765,30.386c38.014,0,69.746-10.507,91.764-30.386    C500.848,417.615,512,391.325,512,360.635c0-30.748-6.041-57.574-18.468-82.011c-1.878-3.692-6.392-5.163-10.085-3.285    c-3.692,1.877-5.163,6.393-3.285,10.085c11.33,22.28,16.838,46.882,16.838,75.211c0,26.328-9.441,48.768-27.303,64.894    c-19.217,17.349-47.473,26.52-81.712,26.52c-34.24,0-62.496-9.17-81.713-26.52c-17.862-16.125-27.303-38.566-27.303-64.894    c0-66.288,30.33-99.431,54.7-126.062c4.89-5.344,9.548-10.434,13.643-15.46c28.065-3.313,52.133-7.717,72.045-13.17    c0.016-0.004,0.032-0.009,0.048-0.013c5.416,9.54,13.634,18.523,22.899,28.65c7.302,7.981,14.854,16.235,22.158,25.928    c2.493,3.308,7.195,3.969,10.503,1.476c3.308-2.493,3.969-7.195,1.476-10.503c-7.734-10.263-15.882-19.169-23.07-27.026    c-7.628-8.338-14.479-15.829-19.151-23.037c10.499-3.559,19.526-7.48,27.043-11.763c2.364-1.347,3.925-3.95,3.889-6.678    C465.124,180.91,464.181,178.928,462.684,177.531z M133.528,309.72c18.847,40.268,44.486,95.057,22.161,158.222h-46.77    c11.058-21.92,14.526-43.905,10.905-68.252c-3.833-25.774-15.253-50.173-25.329-71.7c-5.314-11.354-10.152-21.691-13.724-31.571    c10.754,4.054,22.078,6.7,33.614,7.866c5.615,0.568,11.262,0.786,16.905,0.644C132.047,306.555,132.797,308.158,133.528,309.72z     M418.671,141.434c-2.92,7.888-5.635,16.895-6.751,25.321c-0.388,2.929-0.643,5.853-0.557,8.813h-24.798    c0.005-0.021,0.008-0.042,0.013-0.064c1.602-7.047,4.792-13.784,9.164-19.532C400.292,149.988,407.838,142.908,418.671,141.434z     M378.911,154.343c-3.88,6.836-6.461,14.167-7.592,21.095c-0.007,0.043-0.017,0.087-0.024,0.13h-6.679    c0.165-5.361-0.696-11.695-2.58-19.08c-1.304-5.173-2.983-10.311-4.736-15.045C367.289,142.829,374.459,149.01,378.911,154.343z     M251.699,152.592c33.68,0.42,65.824,2.912,95.759,7.424c0.162,0.63,0.317,1.262,0.466,1.895c1.046,4.44,1.901,9.074,1.678,13.656    h-94.11c-0.012-0.192-0.052-0.685-0.056-0.74C254.908,167.295,253.663,159.862,251.699,152.592z M252.611,209.857    c1.491-6.337,2.459-12.794,2.879-19.29h162.301c-12.562,3.578-28.637,7.261-48.91,10.488c-9.12,1.452-18.316,2.68-27.483,3.738    c-24.618,2.834-53.991,4.937-88.922,5.686C252.525,210.273,252.563,210.064,252.611,209.857z"/>
	</g>
</g>















</svg>
