<?xml version="1.0" encoding="iso-8859-1"?>
<!-- Generator: Adobe Illustrator 19.0.0, SVG Export Plug-In . SVG Version: 6.00 Build 0)  -->
<svg xmlns="http://www.w3.org/2000/svg" xmlns:xlink="http://www.w3.org/1999/xlink" version="1.1" id="Layer_1" x="0px" y="0px" viewBox="0 0 512.012 512.012" style="enable-background:new 0 0 512.012 512.012;" xml:space="preserve" width="512" height="512">
<g>
	<g>
		<path style="fill:#FC7176;" d="M485.6,233.934L485.6,233.934L485.6,233.934c22.602-32.774,7.885-78.069-29.665-91.298h0v0    c7.318-39.134-24.55-74.526-64.234-71.339h0v0c-9.232-38.727-52.74-58.098-87.697-39.045l0,0v0    c-24.186-31.624-71.811-31.624-95.997,0v0l0,0c-34.957-19.052-78.465,0.319-87.697,39.045v0h0    c-39.684-3.187-71.552,32.205-64.234,71.339v0h0c-37.55,13.23-52.267,58.524-29.665,91.298l0,0h0    c-28.922,27.359-23.944,74.723,10.034,95.471l0,0c-15.294,36.757,8.519,78.002,47.998,83.135h0v0    c0.979,39.8,39.508,67.793,77.663,56.425h0c17.082,35.961,63.667,45.863,93.899,19.959h0    c30.232,25.904,76.817,16.002,93.899-19.959h0c38.155,11.368,76.684-16.625,77.663-56.425v0h0    c39.48-5.134,63.292-46.378,47.998-83.135l0,0C509.545,308.657,514.523,261.293,485.6,233.934z"/>
		<circle style="fill:#FFDE76;" cx="256.006" cy="256.006" r="165.754"/>
		<path style="fill:#FFB641;" d="M286.006,401.76c-91.543,0-165.754-74.21-165.754-165.754c0-51.093,23.124-96.78,59.469-127.186    c-53.154,27.606-89.469,83.151-89.469,147.186c0,91.543,74.211,165.754,165.754,165.754c40.45,0,77.51-14.497,106.285-38.568    C339.455,395.051,313.515,401.76,286.006,401.76z"/>
	</g>
	<g>
		<path d="M464.171,137.877c1.698-17.909-3.747-35.739-15.354-49.719c-12.828-15.449-31.577-24.377-51.525-24.559    c-9.232-27.521-34.913-46.255-64.448-46.255c-9.183,0-18.356,1.925-26.858,5.604c-12.832-14-30.728-21.916-49.98-21.916    s-37.148,7.916-49.98,21.916c-8.501-3.679-17.675-5.604-26.857-5.604c-29.535,0-55.216,18.734-64.449,46.255    c-19.948,0.183-38.699,9.11-51.525,24.558c-11.608,13.979-17.052,31.81-15.354,49.72c-17.28,7.878-30.337,22.452-36.287,40.762    c-5.949,18.309-3.952,37.771,5.395,54.301C4.369,247.165-1.63,265.788,0.382,284.933c2.013,19.145,11.753,36.113,27.015,47.412    c-5.706,18.112-3.613,37.565,6.013,54.237s25.426,28.211,43.964,32.326c1.797,15.717,8.938,30.164,20.473,41.191    c12.763,12.2,29.421,18.92,46.907,18.92c4.512,0,9.026-0.457,13.481-1.361c12.187,20.703,34.107,33.322,58.572,33.322    c14.052,0,27.757-4.42,39.199-12.548c11.442,8.128,25.146,12.548,39.199,12.548c24.464,0,46.385-12.62,58.572-33.322    c4.456,0.904,8.97,1.361,13.481,1.361c17.487,0,34.146-6.719,46.908-18.919c11.534-11.026,18.674-25.474,20.472-41.192    c18.539-4.114,34.339-15.654,43.964-32.326s11.719-36.125,6.013-54.237c15.262-11.298,25.003-28.267,27.015-47.412    c2.012-19.145-3.988-37.768-16.567-51.993c9.347-16.529,11.344-35.992,5.396-54.301    C494.509,160.329,481.451,145.755,464.171,137.877z M479.426,229.676c-2.1,3.044-1.667,7.165,1.02,9.707    c12.074,11.421,18.003,27.453,16.266,43.982c-1.737,16.529-10.87,30.977-25.055,39.639c-3.156,1.927-4.437,5.868-3.016,9.282    c6.385,15.345,5.28,32.401-3.03,46.795c-8.311,14.394-22.53,23.878-39.012,26.021c-3.667,0.477-6.439,3.556-6.53,7.253    c-0.347,14.097-6.125,27.202-16.269,36.9c-9.958,9.519-22.936,14.762-36.543,14.762c-5.104,0-10.223-0.754-15.211-2.24    c-3.545-1.056-7.329,0.629-8.916,3.97c-8.858,18.647-27.222,30.231-47.926,30.231c-12.717,0-24.584-4.409-34.319-12.75    c-1.404-1.203-3.142-1.805-4.88-1.805s-3.476,0.602-4.88,1.805c-9.734,8.341-21.602,12.75-34.319,12.75    c-20.704,0-39.068-11.584-47.926-30.231c-1.587-3.341-5.372-5.026-8.916-3.97c-4.989,1.486-10.107,2.24-15.211,2.24    c-13.606,0-26.584-5.243-36.542-14.763c-10.146-9.699-15.923-22.803-16.271-36.9c-0.091-3.697-2.863-6.776-6.53-7.253    c-16.482-2.143-30.701-11.627-39.011-26.021c-8.31-14.394-9.415-31.45-3.03-46.795c1.421-3.415,0.141-7.355-3.016-9.282    c-14.185-8.662-23.317-23.109-25.055-39.639c-1.737-16.53,4.191-32.561,16.265-43.982c2.687-2.542,3.12-6.662,1.021-9.707    c-9.436-13.682-11.902-30.595-6.766-46.402c5.136-15.807,17.073-28.041,32.749-33.564c3.488-1.229,5.56-4.817,4.88-8.452    c-2.902-15.523,1.211-31.384,11.286-43.518c10.102-12.166,24.903-19.143,40.608-19.143c1.445,0,2.915,0.059,4.368,0.176    c3.685,0.294,7.039-2.139,7.896-5.737c5.712-23.958,26.915-40.691,51.563-40.691c8.851,0,17.346,2.185,25.25,6.492    c3.25,1.77,7.3,0.908,9.547-2.029c10.097-13.202,25.42-20.774,42.041-20.774s31.944,7.572,42.041,20.774    c2.247,2.938,6.299,3.799,9.547,2.029c7.904-4.308,16.399-6.492,25.25-6.492c24.647,0,45.851,16.733,51.563,40.691    c0.858,3.597,4.199,6.034,7.896,5.737c1.453-0.117,2.922-0.176,4.368-0.176c15.704,0,30.504,6.978,40.606,19.144    c10.076,12.134,14.189,27.996,11.288,43.517c-0.68,3.635,1.392,7.223,4.88,8.452c15.676,5.523,27.612,17.757,32.749,33.564    C491.328,199.081,488.862,215.994,479.426,229.676z"/>
		<path d="M353.317,380.808c-28.026,21.884-61.675,33.452-97.311,33.452c-87.262,0-158.254-70.993-158.254-158.254    c0-40.9,15.551-79.709,43.789-109.278c2.861-2.996,2.751-7.743-0.244-10.604c-2.996-2.86-7.744-2.751-10.604,0.245    c-30.915,32.373-47.941,74.861-47.941,119.638c0,95.533,77.721,173.254,173.254,173.254c39.013,0,75.855-12.667,106.542-36.629    c3.265-2.549,3.845-7.263,1.295-10.527S356.581,378.258,353.317,380.808z"/>
		<path d="M256.006,82.752c-36.786,0-71.93,11.39-101.631,32.939c-3.353,2.433-4.099,7.123-1.667,10.475    c2.432,3.352,7.122,4.099,10.475,1.667c27.124-19.679,59.222-30.081,92.823-30.081c87.262,0,158.254,70.993,158.254,158.254    c0,38.841-14.217,76.198-40.033,105.19c-2.755,3.094-2.48,7.834,0.613,10.589c3.023,2.692,7.859,2.453,10.589-0.613    c28.265-31.742,43.831-72.642,43.831-115.166C429.26,160.473,351.539,82.752,256.006,82.752z"/>
		<path d="M175.112,259.735v-15.998c0-4.142-3.358-7.5-7.5-7.5s-7.5,3.358-7.5,7.5v15.998c0,4.143,3.358,7.5,7.5,7.5    S175.112,263.878,175.112,259.735z"/>
		<path d="M351.9,259.735v-15.998c0-4.142-3.358-7.5-7.5-7.5s-7.5,3.358-7.5,7.5v15.998c0,4.143,3.358,7.5,7.5,7.5    S351.9,263.878,351.9,259.735z"/>
		<path d="M256.006,275.774c10.667,0,20.677-4.453,27.463-12.216c2.726-3.119,2.408-7.857-0.711-10.583    c-3.119-2.726-7.856-2.408-10.583,0.711c-3.937,4.505-9.831,7.088-16.169,7.088c-6.338,0-12.232-2.583-16.17-7.088    c-2.726-3.119-7.464-3.437-10.583-0.711s-3.437,7.464-0.711,10.583C235.329,271.322,245.339,275.774,256.006,275.774z"/>
	</g>
</g>















</svg>
