<?xml version="1.0" encoding="iso-8859-1"?>
<!-- Generator: Adobe Illustrator 19.0.0, SVG Export Plug-In . SVG Version: 6.00 Build 0)  -->
<svg xmlns="http://www.w3.org/2000/svg" xmlns:xlink="http://www.w3.org/1999/xlink" version="1.1" id="Layer_1" x="0px" y="0px" viewBox="0 0 512 512" style="enable-background:new 0 0 512 512;" xml:space="preserve" width="512" height="512">
<g>
	<g>
		<path style="fill:#FC7176;" d="M326.721,7.5c0,41.74,98.041,84.451,18.443,163.078c0,0,148.518,93.188,82.51,333.922H20.95V7.5    H326.721z"/>
		<path style="fill:#FBBCA1;" d="M442.291,429.078l-0.005-0.001c109.396-75.422,15.271-217.411-91.439-122.502l-134.36,18.785    c-6.417,0.897-12.259-3.807-12.752-10.268l-16.304-213.947c-0.035-0.429-0.094-1.113-0.14-1.544    c-3.186-30.455-30.651-52.495-61.156-48.903c-30.023,3.535-51.318,31.099-48.172,61.165l29.065,277.815    c3.079,29.428,29.334,51.696,59.349,45.744l184.655-48.203c5.813-1.517,11.971-1.04,17.46,1.403    c11.87,5.283,36.103,13.568,64.581,9.378c5.904-0.869,11.135,3.849,10.798,9.806C443.477,414.757,442.923,423.23,442.291,429.078z    "/>
		<path style="fill:#E6676C;" d="M107.028,409.68c3.079,29.428,29.334,51.696,59.349,45.744l184.655-48.203    c5.813-1.517,11.971-1.04,17.46,1.403c11.87,5.283,36.103,13.568,64.581,9.378c4.18-0.615,7.45,7.634,9.218,11.077    c0.398-4.887,1.307-16.471,1.579-21.27c0.337-5.958-4.894-10.675-10.798-9.806c-28.478,4.19-52.711-4.095-64.581-9.378    c-5.489-2.443-11.647-2.92-17.46-1.403l-184.655,48.203c-30.015,5.952-56.27-16.316-59.349-45.744V409.68z"/>
	</g>
	<g>
		<path d="M20.951,512h406.725c3.378,0,6.34-2.259,7.233-5.517c6.854-24.997,11.708-49.593,14.454-73.23    c17.898-12.911,31.211-28.129,39.576-45.286c7.954-16.314,11.061-33.959,8.982-51.026c-3.625-29.776-22.436-54.532-49.092-64.606    c-6.225-2.353-12.779-3.838-19.525-4.475c-15.295-36.558-35.559-62.305-50.128-77.655c-9.129-9.619-17.15-16.422-22.602-20.649    c50.128-54.644,19.821-94.981-2.532-124.73C343.849,31.261,334.223,18.449,334.223,7.5c0-4.142-3.358-7.5-7.5-7.5H20.951    c-4.142,0-7.5,3.358-7.5,7.5v497C13.451,508.642,16.809,512,20.951,512z M28.451,15h291.564    c2.736,13.153,12.154,25.687,22.033,38.835c23.17,30.838,47.13,62.725-2.153,111.408c-3.389,3.348-2.744,9.161,1.284,11.688    c0.455,0.286,43.632,27.933,71.826,91.015c-20.984,2.185-40.493,12.036-57.066,24.712c-2.853,2.182-5.641,4.447-8.354,6.801    L215.45,317.933c-2.083,0.293-4.074-1.308-4.234-3.41l-16.308-213.981c-2.78-34.413-35.25-61.343-69.648-57.291    c-33.363,3.93-58.221,36.249-54.755,69.394l5.734,54.813c0.431,4.12,4.12,7.11,8.24,6.679c4-0.421,7.097-4.236,6.679-8.24    c0,0-5.732-54.794-5.734-54.813c-2.65-25.334,16.055-49.93,41.589-52.936c25.985-3.059,50.844,17.564,52.94,43.567    c0,0,16.299,213.871,16.305,213.947c0.802,10.528,10.815,18.588,21.269,17.126c0,0,134.349-18.783,134.359-18.785    c2.614-0.365,4.338-2.184,6.244-3.828c23.001-19.726,54.985-35.302,85.396-23.81c21.419,8.096,36.557,28.169,39.506,52.388    c1.605,13.185,1.137,44.758-31.937,73.977c0.092-1.499,0.18-2.999,0.265-4.498c0.361-6.382-3.011-12.425-8.509-15.62    c-3.258-1.858-7.063-2.59-10.868-2.03c-9.591,1.411-20.399,1.973-29.959-0.04c-11.081-1.591-20.414-4.63-27.043-7.312    c-8.561-3.463-16.612-5.675-25.841-3.267c0,0-184.407,48.138-184.431,48.144c-24.704,6.442-47.765-15.656-50.219-39.209    L94.297,195.898c-0.002-0.02-0.007-0.039-0.009-0.059c-0.491-4.014-4.192-7.042-8.23-6.62c-3.981,0.415-7.1,4.212-6.679,8.24    c0,0,20.187,192.955,20.192,193.002c2.976,28.444,26.378,52.62,55.532,53.4c4.352,0.116,8.938-0.078,13.17-1.18    c0,0,184.564-48.179,184.655-48.203c7.759-2.025,14.787,2.211,21.864,4.71c10.099,3.565,23.908,7.06,39.845,7.422    c6.536,0.149,13.058-0.264,19.529-1.188c1.175-0.168,2.286,0.758,2.219,1.962c-1.72,30.343-6.738,60.224-14.46,89.616H28.451V15z"/>
	</g>
</g>















</svg>
