<?xml version="1.0" encoding="iso-8859-1"?>
<!-- Generator: Adobe Illustrator 19.0.0, SVG Export Plug-In . SVG Version: 6.00 Build 0)  -->
<svg xmlns="http://www.w3.org/2000/svg" xmlns:xlink="http://www.w3.org/1999/xlink" version="1.1" id="Layer_1" x="0px" y="0px" viewBox="0 0 511.711 511.711" style="enable-background:new 0 0 511.711 511.711;" xml:space="preserve" width="512" height="512">
<g>
	<g>
		
			<rect x="268.478" y="186.839" transform="matrix(-0.7071 0.7071 -0.7071 -0.7071 710.636 113.9905)" style="fill:#FCF4FF;" width="126.465" height="34.668"/>
		<path style="fill:#FC7176;" d="M491.674,41.409c-15.992-14.411-41.113-12.332-55.216,3.933L342.602,153.59    c-3.698,4.265-3.471,10.664,0.521,14.656l24.514,24.514c3.992,3.992,10.39,4.219,14.656,0.521l108.821-94.353    c1.295-1.138,2.696-2.518,3.856-3.856C508.696,79.24,507.172,55.374,491.674,41.409z M473.512,84.711    c-6.171,6.171-16.176,6.171-22.347,0c-6.171-6.171-6.171-16.176,0-22.347c6.171-6.171,16.176-6.171,22.347,0    C479.683,68.535,479.683,78.54,473.512,84.711z"/>
		<path style="fill:#FFB641;" d="M44.442,326.449L44.442,326.449L44.442,326.449c-14.166-25.56,1.681-57.384,30.615-61.482l0,0l0,0    c-3.976-28.951,22.297-52.902,50.757-46.271l0,0l0,0c6.751-28.432,39.901-41.275,64.045-24.811l0,0l0,0    c16.566-24.074,52.117-24.074,68.683,0l0,0l0,0c24.144-16.464,57.294-3.621,64.045,24.811v0l0,0    c28.461-6.63,54.733,17.32,50.757,46.271v0l0,0c28.934,4.099,44.78,35.923,30.615,61.482l0,0l0,0H44.442z"/>
		<path style="fill:#FA9E25;" d="M78.442,326.45c-14.166-25.56,1.681-57.384,30.615-61.482h0l0,0    c-3.976-28.951,22.297-52.902,50.757-46.271h0l0,0c3.195-13.456,12.306-23.412,23.574-28.431    c-23.232-10.483-51.409,2.466-57.574,28.431l0,0h0c-28.461-6.63-54.733,17.32-50.757,46.271l0,0h0    c-28.934,4.099-44.78,35.922-30.615,61.482h0h0H78.442L78.442,326.45L78.442,326.45z"/>
		<path style="fill:#FC7176;" d="M224.2,319.587l-196.26,20.584c0,0,5.747,72.497,83.51,107.893    c5.972,2.718,9.835,8.644,9.835,15.206c0,9.212,7.468,16.68,16.68,16.68h172.471c9.212,0,16.68-7.468,16.68-16.68    c0-6.562,3.863-12.488,9.835-15.206c77.763-35.395,83.51-107.893,83.51-107.893L224.2,319.587z"/>
		<path style="fill:#E6676C;" d="M151.285,463.27c0-6.562-3.863-12.488-9.835-15.206c-77.763-35.396-83.51-107.893-83.51-107.893    l181.26-19.011l-15-1.573l-196.26,20.584c0,0,5.747,72.497,83.51,107.893c5.972,2.718,9.835,8.644,9.835,15.206    c0,9.212,7.468,16.68,16.68,16.68h30C158.752,479.95,151.285,472.482,151.285,463.27z"/>
		<path style="fill:#F5F5F5;" d="M420.46,299.004H27.939c-11.368,0-20.584,9.216-20.584,20.584v0    c0,11.368,9.216,20.584,20.584,20.584H420.46c11.368,0,20.584-9.216,20.584-20.584v0    C441.044,308.219,431.828,299.004,420.46,299.004z"/>
		<path style="fill:#D9D9D9;" d="M37.356,319.587L37.356,319.587c0-11.368,9.216-20.584,20.584-20.584h-30    c-11.368,0-20.584,9.216-20.584,20.584l0,0c0,11.368,9.216,20.584,20.584,20.584h30C46.571,340.171,37.356,330.956,37.356,319.587    z"/>
	</g>
	<g>
		<path d="M144.824,409.783c4.142,0,7.5-3.358,7.5-7.5v-14.392c0-4.142-3.358-7.5-7.5-7.5s-7.5,3.358-7.5,7.5v14.392    C137.324,406.425,140.682,409.783,144.824,409.783z"/>
		<path d="M303.864,409.783c4.142,0,7.5-3.358,7.5-7.5v-14.392c0-4.142-3.358-7.5-7.5-7.5s-7.5,3.358-7.5,7.5v14.392    C296.364,406.425,299.722,409.783,303.864,409.783z"/>
		<path d="M224.344,417.465c9.814,0,19.025-4.1,25.273-11.248c2.726-3.119,2.408-7.857-0.711-10.583    c-3.119-2.726-7.857-2.407-10.583,0.711c-3.399,3.889-8.495,6.119-13.979,6.119s-10.58-2.23-13.98-6.12    c-2.726-3.119-7.464-3.437-10.583-0.711c-3.119,2.727-3.437,7.464-0.71,10.583C205.319,413.365,214.531,417.465,224.344,417.465z"/>
		<path d="M21.459,346.803c1.333,7.567,4.628,21.394,12.496,37.295c10.72,21.666,32.353,51.521,74.531,70.72    c3.306,1.505,5.442,4.794,5.442,8.38c0,13.333,10.847,24.18,24.18,24.18H310.58c13.333,0,24.18-10.847,24.18-24.18    c0-3.585,2.136-6.875,5.442-8.38c42.179-19.198,63.812-49.054,74.532-70.72c7.868-15.901,11.163-29.729,12.496-37.295    c12.298-2.986,21.459-14.083,21.459-27.287c0-15.485-12.598-28.084-28.083-28.084h-6.038    c-4.951-15.739-17.408-27.923-33.191-32.497c-0.078-13.629-5.822-26.737-16.05-36.061c-3.076-2.804-6.459-5.164-10.05-7.073    l13.653-13.653c2.039,0.771,4.216,1.191,6.463,1.191c4.392,0,8.639-1.585,11.958-4.463c0,0,108.86-94.388,108.861-94.388    c20.182-17.74,20.83-50.198,0.924-68.452c-0.099-0.09-0.197-0.18-0.296-0.269c-18.89-17.196-49.394-14.449-65.902,4.592    L337.08,148.605c-4.501,5.191-5.538,12.308-3.255,18.405l-22.01,22.01c-3.593-2.714-7.573-4.965-11.875-6.632    c-12.906-5-27.203-4.298-39.438,1.708c-9.239-10.021-22.317-15.839-36.158-15.839c-13.84,0-26.918,5.819-36.158,15.839    c-12.235-6.006-26.532-6.708-39.438-1.708c-12.906,5-22.999,15.15-27.994,27.832c-13.581-1.181-27.163,3.33-37.391,12.653    s-15.973,22.433-16.051,36.062c-15.783,4.573-28.24,16.757-33.191,32.497h-6.038C12.598,291.432,0,304.03,0,319.516    C0,332.719,9.161,343.817,21.459,346.803z M401.001,378.024c-14.05,28.053-36.597,49.297-67.014,63.142    c-8.643,3.935-14.228,12.583-14.228,22.032c0,5.062-4.118,9.18-9.18,9.18H138.108c-5.062,0-9.18-4.118-9.18-9.18    c0-9.449-5.584-18.098-14.228-22.032c-30.417-13.845-52.963-35.088-67.014-63.142c-6.177-12.333-9.272-23.362-10.78-30.425    h374.874C410.272,354.666,407.177,365.693,401.001,378.024z M348.413,158.432c0,0,93.827-108.213,93.857-108.248    c11.148-12.857,31.722-14.814,44.528-3.275c13.543,12.203,13.115,34.343-0.453,46.28c0,0-108.821,94.353-108.822,94.354    c-1.271,1.102-3.255,1.026-4.439-0.158l-24.514-24.514C347.367,161.667,347.298,159.717,348.413,158.432z M343.268,178.781    l13.907,13.907l-17.848,17.847c-3.768-0.552-7.599-0.661-11.392-0.323c-0.169-0.43-0.364-0.847-0.544-1.271    c-1.374-3.221-3.075-6.323-5.102-9.181L343.268,178.781z M28.083,306.432h82.555c4.142,0,7.5-3.358,7.5-7.5    c0-4.047-3.448-7.5-7.5-7.5h-60.44c4.862-10.172,14.512-17.476,26.053-19.111c4.089-0.579,6.94-4.355,6.378-8.446    c-3.207-23.358,18.693-43.289,41.625-37.947c4.021,0.937,8.045-1.554,8.998-5.571c5.445-22.938,33.028-33.641,52.523-20.348    c3.413,2.328,8.064,1.457,10.404-1.945c13.387-19.461,42.964-19.418,56.326,0c2.342,3.402,6.991,4.272,10.404,1.945    c19.478-13.279,47.09-2.551,52.522,20.347c0.686,2.888,3.105,5.159,6.03,5.662c2.88,0.495,5.854-0.747,8.731-0.931    c21.23-1.355,38.737,17.858,35.863,38.788c-0.562,4.091,2.29,7.867,6.378,8.446c11.541,1.635,21.191,8.938,26.054,19.11H140.639    c-4.013,0-7.5,3.479-7.5,7.5c0,4.142,3.358,7.5,7.5,7.5h279.966c7.214,0,13.083,5.87,13.083,13.084s-5.869,13.083-13.083,13.083    H28.083c-7.214,0-13.083-5.869-13.083-13.083S20.869,306.432,28.083,306.432z"/>
		<path d="M462.483,96.767c6.224,0,12.076-2.424,16.477-6.825c9.085-9.085,9.085-23.868,0-32.953    c-8.978-8.978-23.986-8.969-32.954,0c-9.085,9.085-9.085,23.868,0,32.954C450.407,94.343,456.258,96.767,462.483,96.767z     M456.612,67.595c3.205-3.205,8.541-3.199,11.741,0c3.237,3.237,3.237,8.504,0,11.741c-3.203,3.203-8.538,3.204-11.741,0    C453.376,76.099,453.375,70.832,456.612,67.595z"/>
	</g>
</g>















</svg>
