<?xml version="1.0" encoding="iso-8859-1"?>
<!-- Generator: Adobe Illustrator 19.0.0, SVG Export Plug-In . SVG Version: 6.00 Build 0)  -->
<svg xmlns="http://www.w3.org/2000/svg" xmlns:xlink="http://www.w3.org/1999/xlink" version="1.1" id="Layer_1" x="0px" y="0px" viewBox="0 0 512 512" style="enable-background:new 0 0 512 512;" xml:space="preserve" width="512" height="512">
<g>
	<g>
		<path style="fill:#F5F5F5;" d="M76.172,341.024c0,0,42.015-43.803,179.828-43.803s179.828,43.803,179.828,43.803h23.353v58.473    H51.303v-55.103L76.172,341.024z"/>
		<rect x="231.131" y="183.513" style="fill:#80C9FF;" width="49.738" height="215.984"/>
		<rect x="333.479" y="183.513" style="fill:#80C9FF;" width="49.738" height="215.984"/>
		<rect x="128.783" y="183.513" style="fill:#80C9FF;" width="49.738" height="215.984"/>
		<rect x="52.82" y="163.115" style="fill:#6DAAD9;" width="406.361" height="40.795"/>
		<rect x="52.82" y="379.1" style="fill:#6DAAD9;" width="406.361" height="40.795"/>
		<path style="fill:#80C9FF;" d="M460.697,116.616l-24.869,18.869v312.031c0,4.891,3.965,8.855,8.855,8.855h32.027    c4.891,0,8.855-3.965,8.855-8.855V135.485L460.697,116.616z"/>
		<path style="fill:#80C9FF;" d="M51.303,116.616l-24.869,18.869v312.031c0,4.891,3.965,8.855,8.855,8.855h32.027    c4.891,0,8.855-3.965,8.855-8.855V135.485L51.303,116.616z"/>
		<path style="fill:#FAB3CE;" d="M435.828,135.485h49.738c11.436-7.904,18.934-21.1,18.934-36.054    c0-24.192-19.611-43.803-43.803-43.803s-43.803,19.611-43.803,43.803C416.893,114.385,424.391,127.582,435.828,135.485z"/>
		<path style="fill:#E381A5;" d="M436.893,99.432c0-20.75,14.433-38.117,33.803-42.643c-3.213-0.751-6.558-1.161-10-1.161    c-24.192,0-43.803,19.612-43.803,43.803c0,14.954,7.498,28.15,18.934,36.054h20C444.391,127.582,436.893,114.386,436.893,99.432z"/>
		<path style="fill:#FAB3CE;" d="M76.172,135.485H26.434C14.998,127.582,7.5,114.385,7.5,99.432    c0-24.192,19.611-43.803,43.803-43.803S95.107,75.24,95.107,99.432C95.107,114.385,87.608,127.582,76.172,135.485z"/>
		<path style="fill:#E381A5;" d="M27.5,99.432c0-20.75,14.433-38.117,33.803-42.643c-3.213-0.751-6.558-1.161-10-1.161    C27.111,55.628,7.5,75.24,7.5,99.432c0,14.954,7.498,28.15,18.934,36.054h20C34.998,127.582,27.5,114.386,27.5,99.432z"/>
	</g>
	<g>
		<path d="M18.935,139.201v308.315c0,9.019,7.337,16.355,16.355,16.355h32.028c9.018,0,16.355-7.337,16.355-16.355v-20.122h256.833    c4.142,0,7.5-3.358,7.5-7.5s-3.358-7.5-7.5-7.5H83.672V386.6h344.655v25.794h-57.823c-4.142,0-7.5,3.358-7.5,7.5    s3.358,7.5,7.5,7.5h57.823v20.122c0,9.019,7.337,16.355,16.355,16.355h32.027c9.018,0,16.355-7.337,16.355-16.355V139.201    C504.981,129.493,512,114.917,512,99.432c0-28.289-23.015-51.304-51.303-51.304s-51.303,23.015-51.303,51.304    c0,15.485,7.018,30.061,18.934,39.769v16.415H170.671c-4.142,0-7.5,3.358-7.5,7.5s3.358,7.5,7.5,7.5h257.656v25.794H83.672    v-25.794h56.999c4.142,0,7.5-3.358,7.5-7.5s-3.358-7.5-7.5-7.5H83.672v-16.415c11.916-9.708,18.935-24.283,18.935-39.769    c0-28.289-23.015-51.304-51.304-51.304C23.015,48.128,0,71.143,0,99.432C0,114.917,7.019,129.493,18.935,139.201z M68.672,447.516    c0,0.748-0.608,1.355-1.355,1.355H35.29c-0.747,0-1.355-0.608-1.355-1.355V142.985h34.738V447.516z M83.672,344.4    c4.42-3.595,16.028-11.855,37.61-19.87V371.6h-37.61V344.4z M223.631,290.568c-13.034,0.703-25.62,1.86-37.61,3.437V211.41h37.61    V290.568z M186.021,309.128c11.942-1.628,24.54-2.813,37.61-3.539v66.01h-37.61V309.128z M325.979,294.005    c-11.991-1.577-24.577-2.733-37.61-3.437V211.41h37.61V294.005z M288.369,305.589c13.07,0.726,25.668,1.911,37.61,3.538V371.6    h-37.61V305.589z M390.717,371.6V324.53c21.608,8.024,33.218,16.294,37.61,19.866V371.6H390.717z M476.71,448.872h-32.027    c-0.747,0-1.355-0.608-1.355-1.355V142.985h34.738v304.531C478.065,448.264,477.458,448.872,476.71,448.872z M460.697,63.128    c20.018,0,36.303,16.286,36.303,36.304c0,11.171-5.155,21.685-13.895,28.553h-44.817c-8.74-6.869-13.895-17.383-13.895-28.553    C424.393,79.414,440.679,63.128,460.697,63.128z M428.328,326.048c-8.07-5.086-20.288-11.467-37.61-17.441V211.41h37.61V326.048z     M375.717,211.41V371.6h-34.738V211.41H375.717z M273.369,211.41V371.6h-34.738V211.41H273.369z M171.021,211.41V371.6h-34.738    V211.41H171.021z M121.283,211.41v97.197c-17.323,5.975-29.54,12.355-37.61,17.441V211.41H121.283z M51.303,63.128    c20.018,0,36.304,16.286,36.304,36.304c0,11.17-5.155,21.685-13.895,28.553H28.895C20.155,121.117,15,110.603,15,99.432    C15,79.414,31.286,63.128,51.303,63.128z"/>
	</g>
</g>















</svg>
